<?xml version="1.0" standalone="no"?>
<!DOCTYPE svg PUBLIC "-//W3C//DTD SVG 20010904//EN"
 "http://www.w3.org/TR/2001/REC-SVG-20010904/DTD/svg10.dtd">
<svg version="1.0" xmlns="http://www.w3.org/2000/svg"
 width="256.000000pt" height="256.000000pt" viewBox="0 0 256.000000 256.000000"
 preserveAspectRatio="xMidYMid meet">
<metadata>
Created by potrace 1.11, written by Peter Selinger 2001-2013
</metadata>
<g transform="translate(0.000000,256.000000) scale(0.100000,-0.100000)"
fill="#000000" stroke="none">
<path d="M59 2533 c-62 -53 -59 17 -59 -1253 0 -1270 -3 -1200 59 -1253 l33
-27 1190 0 1191 0 37 39 c20 21 40 53 44 71 3 18 6 426 6 906 l0 874 -95 0
c-57 0 -95 4 -95 10 0 6 -7 10 -15 10 -9 0 -15 -9 -15 -24 0 -13 -6 -27 -13
-30 -9 -5 -9 -7 1 -12 35 -16 -14 -24 -152 -24 -149 0 -154 -1 -168 -22 -18
-29 -39 -93 -36 -106 2 -5 -8 -28 -22 -51 l-25 -40 -67 -1 c-37 0 -78 -4 -92
-10 -23 -8 -26 -7 -26 10 0 11 -5 20 -10 20 -6 0 -8 11 -4 25 6 23 4 25 -30
25 -20 0 -36 -5 -36 -11 0 -7 -11 -22 -25 -35 l-25 -23 -345 -3 c-306 -3 -346
-5 -361 -20 -16 -15 -18 -15 -43 3 -24 17 -46 19 -239 20 l-214 0 7 22 c3 12
11 51 16 87 16 103 21 113 54 122 29 8 40 20 106 121 41 62 106 97 184 97 40
0 57 -4 61 -15 9 -23 29 -18 45 11 7 14 26 37 42 50 21 18 28 32 27 56 -4 98
0 184 11 209 15 38 101 106 151 119 39 11 99 7 170 -11 44 -11 122 -93 115
-121 -4 -13 14 -28 72 -63 114 -67 107 -61 92 -79 -12 -14 -1 -16 118 -16
l131 0 0 -34 c0 -18 7 -39 15 -46 17 -14 20 -50 5 -50 -5 0 -10 -4 -10 -10 0
-6 100 -10 280 -10 179 0 280 -4 281 -10 1 -5 2 -16 3 -22 1 -9 28 -14 89 -16
l87 -3 0 218 c0 120 -5 235 -10 255 -6 20 -26 50 -46 67 l-35 31 -1189 0
-1188 0 -33 -27z m771 -1043 l0 -50 -207 0 -208 0 3 -55 4 -55 99 0 100 0 -3
-47 -3 -48 -100 -3 -100 -3 3 -59 4 -60 204 0 204 0 0 -50 0 -50 -365 0 -365
0 0 265 0 265 365 0 365 0 0 -50z m868 3 l-3 -48 -222 -3 -223 -2 0 -55 0 -55
100 0 100 0 0 -50 0 -50 -100 0 -100 0 0 -110 0 -111 -157 3 -158 3 -3 263 -2
262 385 0 386 0 -3 -47z m782 -3 l0 -50 -100 0 -100 0 0 -215 0 -215 -160 0
-160 0 0 215 0 215 -90 0 -90 0 0 50 0 50 350 0 350 0 0 -50z m-1600 -210 c0
-126 -1 -130 -19 -120 -11 5 -101 11 -208 12 -103 1 -150 4 -103 5 110 5 120
13 120 103 0 68 -10 88 -50 103 -8 3 39 6 105 6 66 1 127 6 135 11 8 5 16 10
18 10 1 0 2 -59 2 -130z m876 121 c5 -5 17 -11 27 -13 15 -2 11 -12 -27 -56
-25 -29 -53 -67 -63 -83 -15 -26 -23 -30 -49 -26 -17 3 -54 15 -83 27 -48 21
-51 24 -51 60 0 39 -19 64 -55 73 -11 2 44 5 122 6 82 1 144 5 148 11 8 12 18
13 31 1z m-402 -243 c-6 -22 -6 -23 14 -5 13 12 22 15 27 8 9 -16 35 -13 35 4
0 8 9 15 20 15 26 0 26 -2 -10 -121 -16 -55 -32 -122 -36 -149 -6 -46 -24 -71
-24 -34 0 11 -9 7 -29 -15 -16 -17 -38 -31 -50 -31 -13 0 -21 -6 -21 -16 0 -9
-7 -22 -14 -28 -10 -7 -16 -33 -17 -76 -2 -57 1 -72 29 -120 17 -30 38 -75 46
-98 9 -24 25 -56 36 -72 11 -15 20 -44 20 -63 l0 -35 -162 4 c-270 6 -428 13
-437 19 -6 3 -12 1 -16 -4 -3 -6 -15 -7 -28 -2 -12 5 -31 5 -42 1 -11 -4 -24
-5 -29 -2 -9 5 -131 13 -188 12 -28 0 -28 0 -29 72 -1 40 -1 89 0 108 2 25 -4
41 -18 54 -19 17 -21 31 -21 126 0 116 2 120 56 120 13 0 24 4 24 10 0 12 -33
30 -57 30 -10 1 -38 19 -63 40 l-45 40 256 0 c238 0 258 1 280 19 23 18 25 18
43 3 15 -15 44 -17 191 -17 219 0 215 -3 215 132 l0 93 26 0 c22 0 24 -3 18
-22z m-1045 -350 c-1 -79 -4 -154 -9 -168 l-7 -25 -6 25 c-3 14 -8 89 -10 168
-5 135 -4 142 14 142 18 0 19 -9 18 -142z"/>
<path d="M1420 2153 c0 -9 5 -31 11 -48 11 -28 9 -35 -10 -54 -11 -11 -21 -25
-21 -31 0 -15 27 -12 44 5 8 8 32 15 55 15 37 0 41 2 41 25 0 20 -5 25 -25 25
-22 0 -25 4 -25 40 0 39 -1 40 -35 40 -26 0 -35 -4 -35 -17z"/>
<path d="M1610 2060 c0 -5 12 -10 28 -10 21 0 24 2 12 10 -20 13 -40 13 -40 0z"/>
<path d="M2323 2003 c9 -2 17 -11 17 -20 0 -20 23 -11 26 10 2 13 -5 17 -29
16 -18 -1 -24 -3 -14 -6z"/>
<path d="M1400 1822 c0 -5 9 -17 20 -27 11 -10 20 -25 20 -34 0 -13 2 -13 13
-1 7 8 19 27 25 43 l12 27 -45 0 c-25 0 -45 -4 -45 -8z"/>
<path d="M1707 1721 c-2 -11 -15 -21 -28 -24 -16 -3 -12 -5 14 -6 33 -1 37 2
37 24 0 29 -15 33 -23 6z"/>
</g>
</svg>
