<svg width="187" height="29" viewBox="0 0 187 29" fill="none" xmlns="http://www.w3.org/2000/svg">
<mask id="mask0_309_1081" style="mask-type:luminance" maskUnits="userSpaceOnUse" x="0" y="0" width="187" height="29">
<path d="M0 0H186.679V29H0V0Z" fill="white"/>
</mask>
<g mask="url(#mask0_309_1081)">
<path d="M35.9972 22.3107C35.563 22.3107 35.256 22.2205 35.0764 22.0408C34.9121 21.8612 34.8291 21.5768 34.8291 21.1869V8.18526C34.8291 7.79617 34.9193 7.51181 35.099 7.33217C35.2786 7.13803 35.5783 7.04056 35.9972 7.04056H41.4991C43.5944 7.04056 45.137 7.48201 46.1246 8.36489C47.113 9.24859 47.6068 10.5657 47.6068 12.3178C47.6068 14.0537 47.113 15.3644 46.1246 16.2473C45.1515 17.1156 43.6097 17.5498 41.4991 17.5498H39.3652V21.1877C39.3652 21.5768 39.2758 21.8612 39.0961 22.0416C38.9165 22.2205 38.6096 22.3107 38.1754 22.3107H35.9972ZM41.1398 14.2938C41.7537 14.2938 42.2249 14.1286 42.5544 13.8C42.8984 13.4697 43.0707 12.9759 43.0707 12.3178C43.0707 11.6435 42.8984 11.1416 42.5544 10.813C42.2249 10.4835 41.7537 10.3192 41.1398 10.3192H39.3652V14.2938H41.1398ZM52.909 22.6474C51.5025 22.6474 50.3715 22.1979 49.5184 21.2997C48.6806 20.387 48.2617 19.107 48.2617 17.4596C48.2617 16.203 48.5453 15.1018 49.114 14.1593C49.6981 13.216 50.5141 12.4893 51.5621 11.981C52.6254 11.4574 53.8451 11.1948 55.2226 11.1948C56.36 11.1948 57.3629 11.3221 58.2313 11.5766C59.115 11.8159 59.923 12.1679 60.656 12.6319V21.6139C60.656 21.899 60.6045 22.0859 60.4997 22.1753C60.395 22.2656 60.1856 22.3107 59.8714 22.3107H57.5804C57.4153 22.3107 57.2888 22.2881 57.1986 22.243C57.1013 22.1747 57.0238 22.0818 56.9738 21.974L56.6822 21.2997C56.2505 21.7624 55.71 22.1099 55.1098 22.3107C54.5112 22.5354 53.7774 22.6474 52.909 22.6474ZM54.5934 19.5935C55.1774 19.5935 55.6342 19.451 55.9629 19.1666C56.2931 18.8822 56.4575 18.4778 56.4575 17.9542V14.4509C56.1731 14.3163 55.813 14.2495 55.3796 14.2495C54.5862 14.2495 53.9498 14.5258 53.4705 15.0792C53.0065 15.6334 52.7745 16.4116 52.7745 17.4153C52.7745 18.8669 53.3811 19.5935 54.5934 19.5935ZM63.7832 22.3107C63.3482 22.3107 63.0421 22.2205 62.8624 22.0408C62.6828 21.8612 62.5926 21.5768 62.5926 21.1869V12.2283C62.5926 11.9593 62.6377 11.7796 62.7271 11.6894C62.8318 11.5847 63.0413 11.5323 63.3554 11.5323H65.669C65.8486 11.5323 65.9832 11.5621 66.0734 11.6226C66.1781 11.6669 66.2377 11.7571 66.253 11.8916L66.3658 12.5651C66.7847 12.1462 67.3309 11.8167 68.0043 11.5775C68.6931 11.3229 69.4567 11.1956 70.2953 11.1956C71.5077 11.1956 72.488 11.5396 73.2364 12.2283C73.9856 12.9018 74.3593 13.9055 74.3593 15.2379V21.1885C74.3593 21.5776 74.2699 21.862 74.0903 22.0424C73.9251 22.2213 73.6263 22.3115 73.1921 22.3115H71.0139C70.5789 22.3115 70.2647 22.2213 70.0706 22.0416C69.8909 21.862 69.8007 21.5776 69.8007 21.1877V15.5295C69.8007 15.08 69.704 14.7586 69.5091 14.5636C69.3141 14.3695 69.0072 14.272 68.5883 14.272C68.1396 14.272 67.7796 14.3921 67.5105 14.6313C67.2559 14.8706 67.1287 15.2 67.1287 15.6197V21.1885C67.1287 21.5776 67.0393 21.862 66.8596 22.0424C66.6945 22.2213 66.3948 22.3115 65.9614 22.3115L63.7832 22.3107ZM82.2965 22.6474C80.2012 22.6474 78.5845 22.1608 77.447 21.1877C76.3088 20.2146 75.7393 18.8001 75.7393 16.9433C75.7393 15.8058 76.0019 14.8029 76.5255 13.9345C77.0491 13.0661 77.8063 12.3927 78.7939 11.9134C79.7968 11.4341 80.9794 11.1948 82.3416 11.1948C83.3743 11.1948 84.2427 11.2915 84.9468 11.4864C85.6328 11.6656 86.2798 11.9701 86.8551 12.3846C87.0203 12.4893 87.1024 12.6247 87.1024 12.789C87.1024 12.909 87.0428 13.0661 86.9228 13.2611L86.002 14.8553C85.8973 15.0647 85.77 15.1694 85.6202 15.1694C85.5308 15.1694 85.3882 15.1098 85.1933 14.9898C84.8355 14.7576 84.4512 14.5691 84.0486 14.4283C83.7038 14.3083 83.2696 14.2487 82.746 14.2487C81.9976 14.2487 81.391 14.4879 80.927 14.9672C80.4775 15.4465 80.2536 16.1055 80.2536 16.9433C80.2536 17.7971 80.4856 18.4553 80.9496 18.9193C81.4136 19.3688 82.05 19.5935 82.858 19.5935C83.3373 19.5935 83.7715 19.5259 84.1605 19.3913C84.5753 19.2447 84.9742 19.0566 85.3511 18.8299C85.5606 18.7098 85.7104 18.6502 85.7998 18.6502C85.9344 18.6502 86.0544 18.755 86.1591 18.9644L87.1701 20.6939C87.245 20.843 87.2821 20.963 87.2821 21.0532C87.2821 21.1877 87.1918 21.315 87.013 21.4342C86.3765 21.842 85.679 22.1455 84.9468 22.3332C84.2129 22.5427 83.33 22.6474 82.2965 22.6474ZM92.9749 22.6474C91.5676 22.6474 90.4374 22.1979 89.5843 21.2997C88.7458 20.387 88.3261 19.107 88.3261 17.4596C88.3261 16.203 88.6112 15.1018 89.18 14.1593C89.764 13.216 90.5792 12.4893 91.6272 11.981C92.6906 11.4574 93.911 11.1948 95.2877 11.1948C96.4259 11.1948 97.4288 11.3221 98.2972 11.5766C99.1801 11.8159 99.9889 12.1679 100.722 12.6319V21.6139C100.722 21.899 100.67 22.0859 100.565 22.1753C100.46 22.2656 100.251 22.3107 99.9365 22.3107H97.6455C97.4812 22.3107 97.3539 22.2881 97.2637 22.243C97.1667 22.1745 97.0895 22.0817 97.0398 21.974L96.7473 21.2997C96.3158 21.7623 95.7756 22.1098 95.1757 22.3107C94.5764 22.5354 93.8433 22.6474 92.9749 22.6474ZM94.6593 19.5935C95.2434 19.5935 95.6993 19.451 96.0288 19.1666C96.3583 18.8822 96.5226 18.4778 96.5226 17.9542V14.4509C96.2382 14.3163 95.879 14.2495 95.4448 14.2495C94.6513 14.2495 94.0157 14.5258 93.5364 15.0792C93.0724 15.6334 92.8404 16.4116 92.8404 17.4153C92.8404 18.8669 93.4462 19.5935 94.6593 19.5935ZM114.829 21.4568C114.931 21.5669 114.987 21.7113 114.987 21.8612C114.988 21.9236 114.977 21.9857 114.954 22.0436C114.931 22.1015 114.896 22.154 114.851 22.1979C114.749 22.2772 114.622 22.3172 114.492 22.3107H111.012C110.802 22.3107 110.645 22.2954 110.54 22.2656C110.428 22.2021 110.329 22.1182 110.248 22.0183L107.195 17.864V21.1877C107.195 21.5768 107.104 21.8612 106.925 22.0416C106.745 22.2205 106.438 22.3107 106.004 22.3107H103.826C103.392 22.3107 103.085 22.2205 102.905 22.0408C102.741 21.8612 102.659 21.5768 102.659 21.1869V8.18526C102.659 7.79617 102.748 7.51181 102.928 7.33217C103.107 7.13803 103.407 7.04056 103.826 7.04056H106.004C106.438 7.04056 106.745 7.13723 106.925 7.33217C107.104 7.51181 107.195 7.79617 107.195 8.18606V15.7083L110.158 11.8457C110.232 11.7394 110.333 11.6544 110.451 11.5992C110.555 11.5541 110.712 11.5315 110.922 11.5315H114.403C114.553 11.5315 114.665 11.5766 114.739 11.6661C114.784 11.7047 114.82 11.753 114.843 11.8075C114.867 11.862 114.877 11.9211 114.874 11.9802C114.874 12.1299 114.818 12.2743 114.717 12.3846L110.877 16.7862L114.829 21.4568ZM122.121 22.6474C120.863 22.6474 119.74 22.438 118.753 22.0191C117.78 21.5994 117.009 20.9702 116.44 20.1325C115.87 19.2947 115.586 18.2684 115.586 17.0552C115.586 15.1541 116.125 13.7025 117.203 12.6996C118.281 11.6967 119.831 11.1948 121.852 11.1948C123.828 11.1948 125.324 11.6886 126.343 12.677C127.376 13.6501 127.893 15.0051 127.893 16.7411C127.893 17.4902 127.563 17.864 126.904 17.864H119.853C119.853 18.5085 120.092 19.0023 120.572 19.3462C121.065 19.691 121.807 19.8626 122.795 19.8626C123.409 19.8626 123.917 19.8102 124.322 19.7055C124.758 19.5789 125.18 19.4058 125.579 19.1891C125.759 19.1142 125.879 19.0764 125.938 19.0764C126.074 19.0764 126.186 19.1666 126.275 19.3462L127.039 20.7833C127.114 20.9332 127.151 21.0451 127.151 21.1201C127.151 21.2554 127.061 21.3827 126.882 21.5019C126.244 21.9163 125.536 22.2129 124.794 22.3775C124.015 22.5572 123.124 22.6474 122.121 22.6474ZM123.85 15.6407C123.85 15.072 123.685 14.6305 123.356 14.3163C123.027 14.0022 122.532 13.8443 121.874 13.8443C121.215 13.8443 120.713 14.0094 120.369 14.3389C120.025 14.6531 119.853 15.0873 119.853 15.6407H123.85ZM135.588 22.6474C134.331 22.6474 133.141 22.5201 132.018 22.2656C130.895 21.9957 129.989 21.6211 129.301 21.1426C129.046 20.9783 128.919 20.8059 128.919 20.6263C128.919 20.5062 128.964 20.379 129.053 20.2444L130.154 18.4931C130.274 18.3135 130.394 18.2233 130.513 18.2233C130.588 18.2233 130.715 18.2756 130.895 18.3804C131.449 18.6945 132.077 18.9491 132.781 19.144C133.461 19.3355 134.163 19.4339 134.869 19.4365C135.574 19.4365 136.09 19.3317 136.419 19.1223C136.763 18.9128 136.936 18.5753 136.936 18.1113C136.936 17.6618 136.749 17.3098 136.374 17.056C136.015 16.8015 135.333 16.4793 134.331 16.0902C132.819 15.5215 131.636 14.8851 130.783 14.181C129.944 13.4625 129.525 12.4893 129.525 11.2625C129.525 9.78026 130.056 8.65006 131.12 7.87109C132.182 7.09292 133.597 6.70303 135.364 6.70303C136.591 6.70303 137.639 6.81581 138.507 7.04056C139.391 7.25001 140.139 7.57948 140.753 8.02817C141.008 8.22312 141.135 8.40276 141.135 8.56789C141.135 8.67262 141.09 8.79184 141 8.92637L139.9 10.6785C139.765 10.8581 139.646 10.9475 139.541 10.9475C139.466 10.9475 139.339 10.8951 139.159 10.7904C138.291 10.2217 137.257 9.93653 136.06 9.93653C135.416 9.93653 134.922 10.0413 134.578 10.2515C134.234 10.461 134.062 10.8057 134.062 11.2842C134.062 11.6145 134.151 11.8836 134.331 12.093C134.51 12.3025 134.75 12.4893 135.049 12.6545C135.364 12.8043 135.843 12.9985 136.486 13.2385L136.913 13.3956C138.021 13.8298 138.889 14.2495 139.518 14.6523C140.162 15.0421 140.649 15.5287 140.978 16.1127C141.307 16.6815 141.472 17.4 141.472 18.2684C141.472 19.6008 140.97 20.6633 139.967 21.4568C138.979 22.2503 137.52 22.6474 135.588 22.6474ZM146.244 22.3107C146.019 22.3107 145.847 22.2728 145.727 22.1979C145.608 22.123 145.517 21.9731 145.458 21.7492L142.561 12.0479C142.536 11.9833 142.521 11.9155 142.516 11.8465C142.516 11.6371 142.666 11.5323 142.965 11.5323H145.929C146.124 11.5323 146.266 11.5686 146.356 11.6435C146.446 11.7039 146.506 11.8086 146.535 11.9577L147.747 17.056L149.274 12.9461C149.35 12.7665 149.425 12.6472 149.499 12.5868C149.589 12.5119 149.739 12.474 149.949 12.474H151.363C151.573 12.474 151.716 12.5119 151.79 12.5868C151.88 12.6472 151.962 12.7665 152.037 12.9461L153.541 17.056L154.777 11.9585C154.821 11.8086 154.881 11.7039 154.957 11.6443C155.031 11.5686 155.166 11.5315 155.36 11.5315H158.347C158.646 11.5315 158.797 11.6363 158.797 11.8457C158.797 11.8908 158.782 11.9585 158.752 12.0479L155.832 21.75C155.773 21.9748 155.683 22.1246 155.563 22.1987C155.458 22.2736 155.294 22.3115 155.069 22.3115H152.868C152.659 22.3115 152.501 22.2736 152.396 22.1987C152.291 22.1093 152.203 21.9595 152.127 21.75L150.645 17.6852L149.162 21.75C149.103 21.9595 149.013 22.1093 148.893 22.1987C148.788 22.2736 148.632 22.3115 148.422 22.3115L146.244 22.3107ZM164.489 22.6474C163.081 22.6474 161.951 22.1979 161.098 21.2997C160.26 20.387 159.84 19.107 159.84 17.4596C159.84 16.203 160.124 15.1018 160.694 14.1593C161.277 13.216 162.093 12.4893 163.14 11.981C164.205 11.4574 165.424 11.1948 166.802 11.1948C167.94 11.1948 168.942 11.3221 169.81 11.5766C170.694 11.8159 171.503 12.1679 172.236 12.6319V21.6139C172.236 21.899 172.184 22.0859 172.078 22.1753C171.973 22.2656 171.765 22.3107 171.451 22.3107H169.16C168.994 22.3107 168.868 22.2881 168.778 22.243C168.68 22.1748 168.603 22.0819 168.553 21.974L168.261 21.2997C167.83 21.7623 167.289 22.1098 166.689 22.3107C166.09 22.5354 165.357 22.6474 164.489 22.6474ZM166.173 19.5935C166.757 19.5935 167.214 19.451 167.543 19.1666C167.872 18.8822 168.037 18.4778 168.037 17.9542V14.4509C167.751 14.3163 167.393 14.2495 166.959 14.2495C166.165 14.2495 165.529 14.5258 165.05 15.0792C164.586 15.6334 164.354 16.4116 164.354 17.4153C164.354 18.8669 164.961 19.5935 166.173 19.5935ZM175.337 26.8468C174.903 26.8468 174.597 26.7565 174.417 26.5769C174.251 26.3973 174.17 26.1129 174.17 25.723V12.8567C174.844 12.3774 175.69 11.981 176.707 11.6661C177.74 11.3497 178.815 11.1908 179.896 11.1948C184.418 11.1948 186.678 13.1112 186.678 16.9433C186.678 18.68 186.199 20.0648 185.241 21.0975C184.282 22.131 182.928 22.6474 181.177 22.6474C180.692 22.6485 180.208 22.5882 179.738 22.4678C179.289 22.3477 178.915 22.1834 178.616 21.974V25.7238C178.616 26.1129 178.526 26.3973 178.347 26.5777C178.167 26.7565 177.86 26.8468 177.425 26.8468H175.337ZM180.21 19.6161C180.855 19.6161 181.334 19.376 181.647 18.8975C181.977 18.4029 182.141 17.7448 182.141 16.9207C182.141 15.9484 181.948 15.2669 181.559 14.8778C181.184 14.4734 180.599 14.2712 179.807 14.2712C179.297 14.2712 178.893 14.3389 178.594 14.4726V18.0445C178.594 18.5536 178.736 18.9426 179.02 19.2125C179.306 19.4816 179.702 19.6161 180.21 19.6161Z" fill="white"/>
<path fill-rule="evenodd" clip-rule="evenodd" d="M14.2165 28.9428C9.96314 28.9396 6.53551 27.919 4.14139 26.0855C1.71828 24.2295 0.432617 21.5961 0.432617 18.6164C0.432617 15.7454 1.71506 13.6751 3.16667 12.2767C4.30412 11.1795 5.55917 10.4771 6.4332 10.0727C6.19256 9.33842 5.97069 8.59814 5.76781 7.85257C5.47298 6.75459 5.18378 5.46812 5.18378 4.52401C5.18378 3.4067 5.42706 2.28537 6.08359 1.41457C6.77637 0.492204 7.82117 9.43083e-06 9.07784 9.43083e-06C10.059 9.43083e-06 10.8928 0.364121 11.5453 0.992454C12.1688 1.59259 12.5844 2.39009 12.8712 3.22143C13.3747 4.6827 13.5704 6.51776 13.626 8.34959H14.8287C14.8843 6.51776 15.08 4.6827 15.5835 3.22143C15.8703 2.39009 16.2859 1.59259 16.9094 0.992454C17.2353 0.673026 17.621 0.420962 18.0444 0.250672C18.4678 0.0803816 18.9206 -0.00479564 19.3769 9.43083e-06C20.6335 9.43083e-06 21.6775 0.493009 22.3711 1.41376C23.0276 2.28537 23.2709 3.4067 23.2709 4.5232C23.2709 5.46731 22.9809 6.75459 22.6861 7.85257C22.4835 8.59813 22.2619 9.33841 22.0215 10.0727C22.8955 10.4771 24.1506 11.1795 25.288 12.2759C26.7396 13.6751 28.0221 15.7454 28.0221 18.6164C28.0221 21.597 26.7364 24.2295 24.3133 26.0855C21.9192 27.919 18.4924 28.9396 14.2382 28.9428H14.2165Z" fill="#633001"/>
<path d="M9.07734 1.06174C7.23745 1.06174 6.39082 2.4489 6.39082 4.36613C6.39082 5.89104 7.3744 8.94329 7.77798 10.1323C7.82016 10.2618 7.81141 10.4026 7.75349 10.5259C7.69558 10.6492 7.59286 10.7458 7.46623 10.7961C5.99207 11.3833 1.63965 13.5342 1.63965 18.4593C1.63965 23.6471 6.06215 27.5597 14.2176 27.5661H14.2369C22.3924 27.5597 26.8149 23.6479 26.8149 18.4593C26.8149 13.5342 22.4633 11.3833 20.9883 10.7961C20.8617 10.7458 20.7589 10.6492 20.701 10.5259C20.6431 10.4026 20.6344 10.2618 20.6765 10.1323C21.0793 8.94329 22.0645 5.89104 22.0645 4.36613C22.0645 2.4489 21.2171 1.06174 19.3772 1.06174C16.7285 1.06174 16.0688 4.85188 16.0212 8.91993C16.0206 9.04964 15.969 9.1739 15.8775 9.26585C15.786 9.3578 15.662 9.41005 15.5323 9.41132H12.9223C12.7926 9.41005 12.6686 9.3578 12.5771 9.26585C12.4856 9.1739 12.4339 9.04964 12.4333 8.91993C12.3866 4.85188 11.726 1.06174 9.07734 1.06174Z" fill="#D1884F"/>
<path d="M14.2369 25.9043C8.2452 25.9043 1.65012 22.6635 1.63965 18.469V18.4883C1.63965 23.6817 6.0694 27.5959 14.2369 27.5959C22.4053 27.5959 26.8342 23.6809 26.8342 18.4891V18.469C26.8237 22.6635 20.2286 25.9043 14.2369 25.9043Z" fill="#FEDC90"/>
<path d="M10.9079 17.1809C10.9079 18.5971 10.2457 19.335 9.42805 19.335C8.61122 19.335 7.94824 18.5971 7.94824 17.1809C7.94824 15.7647 8.61122 15.0269 9.42805 15.0269C10.2457 15.0269 10.9079 15.7647 10.9079 17.1809ZM20.5254 17.1809C20.5254 18.5971 19.8632 19.335 19.0456 19.335C18.2287 19.335 17.5666 18.5971 17.5666 17.1809C17.5666 15.7647 18.2287 15.0269 19.0464 15.0269C19.8632 15.0269 20.5254 15.7647 20.5254 17.1809Z" fill="#633001"/>
</g>
</svg>
