<svg width="167" height="29" viewBox="0 0 167 29" fill="none" xmlns="http://www.w3.org/2000/svg">
<g clip-path="url(#clip0_309_1063)">
<path d="M24.5051 17.2896C24.0064 17.5933 23.4256 17.6489 22.9826 17.4C22.43 17.0689 22.0981 16.323 22.0981 15.3007V12.18C22.0981 10.6889 21.5181 9.61109 20.5216 9.33559C18.8348 8.83775 17.562 10.9096 17.0924 11.683L14.1054 16.4607V10.5778C14.0772 9.22442 13.6349 8.4237 12.8052 8.17559C12.2518 8.00964 11.4229 8.09261 10.6205 9.30739L3.95536 19.9697C3.0672 18.2832 2.60195 16.4061 2.59961 14.5C2.59961 8.06442 7.77128 2.84442 14.1054 2.84442C20.4386 2.84442 25.6103 8.06442 25.6103 14.5V14.5556C25.6659 15.7986 25.2792 16.7926 24.5051 17.2896ZM28.1542 14.5V14.4444C28.1277 6.62972 21.8218 0.249725 14.1054 0.249725C6.36155 0.24892 0.0556641 6.62892 0.0556641 14.5C0.0556641 22.3437 6.36155 28.7511 14.1046 28.7511C17.6732 28.7511 21.0468 27.3977 23.6472 24.94C23.7722 24.8249 23.8729 24.6861 23.9435 24.5315C24.0141 24.377 24.0531 24.2099 24.0582 24.04C24.0633 23.8702 24.0344 23.7011 23.9732 23.5426C23.9121 23.3841 23.8198 23.2394 23.7019 23.117C23.2323 22.5926 22.43 22.5652 21.9047 23.0341L21.8766 23.0623C19.7597 25.0604 16.9607 26.1764 14.0498 26.183C10.6479 26.183 7.60533 24.6911 5.50364 22.3163L11.505 12.7052V17.1519C11.505 19.2786 12.3347 19.9689 13.0267 20.1623C13.7179 20.3556 14.7691 20.217 15.9026 18.4223L19.1941 13.0919C19.3044 12.9259 19.3874 12.76 19.4986 12.6488V15.3555C19.4986 17.3452 20.3001 18.9467 21.6832 19.72C22.9278 20.4386 24.5043 20.3556 25.8044 19.5541C27.4083 18.5044 28.2646 16.6823 28.1542 14.5ZM47.7357 9.63928C48.0676 9.83261 48.3721 10.3023 48.3721 10.7163C48.3721 11.3793 47.8187 11.9311 47.1823 11.9311C47.0163 11.9311 46.8778 11.8763 46.7392 11.8489C45.9933 11.2963 45.0532 10.937 44.0567 10.937C41.7061 10.937 40.1014 12.843 40.1014 15.2186C40.1014 17.5933 41.7343 19.4719 44.0567 19.4719C45.1728 19.4697 46.2443 19.0335 47.0445 18.2555C47.2379 18.1186 47.4868 18.0356 47.7357 18.0356C48.3721 18.0356 48.8691 18.5326 48.8691 19.1674C48.8691 19.5823 48.621 19.9407 48.3165 20.1341C47.1823 21.1007 45.6614 21.7363 44.0849 21.7363C40.4897 21.7363 37.5575 18.7807 37.5575 15.1356C37.5575 11.4896 40.4897 8.53406 44.0849 8.53406C45.3872 8.5135 46.6635 8.89986 47.7357 9.63928ZM54.3179 12.4007C56.7797 12.4007 58.8258 14.4726 58.8258 17.0407C58.8258 19.5823 56.7515 21.7637 54.3179 21.7637C51.7458 21.7637 49.6159 19.6096 49.6159 17.0407C49.6159 14.4726 51.7458 12.4007 54.3179 12.4007ZM54.2905 19.4719C55.3691 19.4719 56.2818 18.4488 56.2818 17.0689C56.2818 15.6874 55.3691 14.8037 54.2905 14.8037C53.1289 14.8037 52.1606 15.66 52.1606 17.0689C52.1606 18.4223 53.1289 19.4719 54.2905 19.4719ZM60.3749 20.3274V13.8096C60.3749 13.0911 60.9283 12.5111 61.6476 12.5111C62.3388 12.5111 62.9196 13.0911 62.9196 13.8096V20.3274C62.9196 21.0459 62.3388 21.6259 61.6468 21.6259C60.9557 21.6259 60.3749 21.0177 60.3749 20.3274ZM60.1815 10.0533C60.1815 9.19703 60.8453 8.53406 61.6476 8.53406C62.4774 8.53406 63.1403 9.22442 63.1403 10.0533C63.141 10.2495 63.1028 10.4439 63.0279 10.6253C62.953 10.8066 62.843 10.9714 62.7042 11.11C62.5653 11.2486 62.4004 11.3584 62.2189 11.4329C62.0375 11.5075 61.843 11.5454 61.6468 11.5444C61.2563 11.536 60.8845 11.3755 60.6106 11.0969C60.3368 10.8184 60.1833 10.4439 60.1815 10.0533ZM67.7868 16.7926V20.3274C67.7868 21.0459 67.2068 21.6259 66.514 21.6259C65.8236 21.6259 65.2428 21.0459 65.2428 20.3274V13.5059C65.2428 12.9533 65.6851 12.5111 66.2385 12.5111C66.7911 12.5111 67.206 12.9807 67.206 13.5059C68.229 12.5393 69.1425 12.4007 69.9996 12.4007C72.5436 12.4007 73.6778 14.3067 73.6778 16.4889V20.3274C73.6778 21.0459 73.0978 21.6259 72.405 21.6259C71.7139 21.6259 71.1339 21.0459 71.1339 20.3274V16.7926C71.1339 15.6874 70.9953 14.7489 69.3914 14.7489C68.2572 14.7489 67.7868 15.6874 67.7868 16.7926ZM81.9194 18.1459C81.6158 18.1459 81.4216 18.0074 81.2557 17.8141L78.2969 14.6104V20.3274C78.2969 21.0459 77.7161 21.6259 77.0241 21.6259C76.3329 21.6259 75.7521 21.0459 75.7521 20.3274V9.0037C75.8351 8.81036 76.0292 8.67261 76.2226 8.67261C76.4441 8.67261 76.6374 8.86595 76.7752 9.0037L81.5046 14.3067C81.6431 14.4726 81.8091 14.5556 81.9194 14.5556C82.0024 14.5556 82.1966 14.4726 82.3343 14.3067L87.0637 9.0037C87.2023 8.86595 87.3682 8.67261 87.6171 8.67261C87.8387 8.67261 88.032 8.81036 88.0876 9.0037V20.3274C88.0876 21.0459 87.5342 21.6259 86.8148 21.6259C86.1236 21.6259 85.5428 21.0459 85.5428 20.3274V14.6104L82.5832 17.8141C82.3625 18.0074 82.1684 18.1459 81.9194 18.1459ZM94.1446 19.4719C95.278 19.4719 96.2462 18.4488 96.2462 17.0689C96.2462 15.6874 95.2506 14.7763 94.1446 14.7763C93.0377 14.7763 92.125 15.7156 92.125 17.0689C92.125 18.3941 93.0103 19.4719 94.1446 19.4719ZM96.8544 20.6319L96.7997 20.3274C96.3018 21.2941 94.7254 21.7363 93.7297 21.7363C91.3509 21.7363 89.5811 19.5823 89.5811 17.0133C89.5811 14.4726 91.3783 12.3733 93.8674 12.3733C94.2823 12.3733 95.721 12.4837 96.8271 13.7823L96.8826 13.4778C96.8826 12.9259 97.2975 12.4837 97.8501 12.4837C98.4035 12.4837 98.8458 12.9533 98.8458 13.4778V20.6037C98.8462 20.7345 98.8207 20.8641 98.7708 20.985C98.7209 21.1059 98.6476 21.2157 98.555 21.3081C98.4624 21.4005 98.3525 21.4737 98.2315 21.5234C98.1105 21.5731 97.9809 21.5984 97.8501 21.5978C97.2693 21.6259 96.8544 21.1571 96.8544 20.6319ZM105.843 14.7489H105.567C103.963 14.8311 103.658 15.743 103.658 16.7926V20.3274C103.658 21.0459 103.077 21.6259 102.386 21.6259C101.695 21.6259 101.114 21.0459 101.114 20.3274V13.5059C101.114 13.3751 101.139 13.2454 101.189 13.1244C101.239 13.0034 101.312 12.8935 101.405 12.801C101.497 12.7085 101.607 12.6353 101.728 12.5855C101.849 12.5357 101.979 12.5104 102.11 12.5111C102.663 12.5111 103.077 12.9807 103.077 13.5059C104.018 12.6223 104.792 12.4289 105.567 12.4007H105.815C106.424 12.4007 106.977 12.9259 106.977 13.5889C107.004 14.1963 106.452 14.7489 105.843 14.7489ZM115.662 19.72C115.772 19.9133 115.855 20.1067 115.855 20.3274C115.855 20.9904 115.247 21.5978 114.583 21.5978C114.14 21.5978 113.753 21.2667 113.449 20.88L110.517 17.483V20.3C110.517 21.0186 109.937 21.5978 109.245 21.5978C108.554 21.5978 107.973 21.0178 107.973 20.3V9.94298C107.973 9.22442 108.526 8.64442 109.245 8.64442C109.964 8.64442 110.517 9.22442 110.517 9.94298V16.4059L113.449 13.1741C113.753 12.843 114.113 12.4837 114.555 12.4837C115.191 12.4837 115.772 13.0637 115.772 13.7267C115.772 13.92 115.717 14.1407 115.606 14.3067L113.283 16.8474L115.662 19.72ZM120.64 14.7763C119.948 14.7763 118.815 15.1356 118.815 16.2126H122.493C122.465 15.1356 121.304 14.7763 120.64 14.7763ZM123.959 17.8423H118.815C118.815 19.3607 120.28 19.6096 120.916 19.6096C121.387 19.6096 122.051 19.5267 122.576 19.2778C122.742 19.1674 122.991 19.0844 123.24 19.0844C123.793 19.0844 124.263 19.5541 124.263 20.1341C124.263 20.5207 124.014 20.8526 123.71 21.0459C122.935 21.6259 121.912 21.7637 120.944 21.7637C118.372 21.7637 116.243 20.383 116.243 17.1511C116.243 14.6104 117.542 12.4007 120.584 12.4007C123.046 12.4007 124.899 14.003 124.955 16.8474C124.955 17.3726 124.512 17.8423 123.959 17.8423ZM131.039 21.7363H130.348C128.411 21.7363 127.278 20.88 127.278 17.8696V14.7489H126.614C126.005 14.7489 125.48 14.1963 125.48 13.5889C125.48 12.9259 126.033 12.4007 126.614 12.4007H127.278V9.99856C127.278 9.28 127.83 8.7 128.55 8.7C129.241 8.7 129.822 9.28 129.822 9.99775V12.4007H130.873C131.481 12.4007 132.007 12.9259 132.007 13.5889C132.007 14.1963 131.454 14.7489 130.873 14.7489H129.822V17.3726C129.822 19.1126 129.905 19.4719 130.68 19.4719H131.039C131.647 19.4719 132.173 19.9689 132.173 20.6037C132.173 21.2111 131.647 21.7363 131.039 21.7363ZM143.346 9.63928C143.678 9.83261 143.983 10.3023 143.983 10.7163C143.983 11.3793 143.429 11.9311 142.793 11.9311C142.627 11.9311 142.489 11.8763 142.351 11.8489C141.604 11.2963 140.664 10.937 139.668 10.937C137.317 10.937 135.713 12.843 135.713 15.2186C135.713 17.5933 137.345 19.4719 139.668 19.4719C140.784 19.4693 141.855 19.0331 142.655 18.2555C142.848 18.1186 143.097 18.0356 143.346 18.0356C143.983 18.0356 144.48 18.5326 144.48 19.1674C144.48 19.5823 144.232 19.9407 143.927 20.1341C142.793 21.1007 141.272 21.7363 139.695 21.7363C136.1 21.7363 133.169 18.7807 133.169 15.1356C133.169 11.4896 136.1 8.53406 139.695 8.53406C140.998 8.50942 142.276 8.89616 143.346 9.63928ZM149.791 19.4719C150.924 19.4719 151.892 18.4488 151.892 17.0689C151.892 15.6874 150.897 14.7763 149.791 14.7763C148.657 14.7763 147.771 15.7156 147.771 17.0689C147.771 18.3941 148.684 19.4719 149.791 19.4719ZM152.501 20.6319L152.446 20.3274C151.948 21.2941 150.372 21.7363 149.376 21.7363C146.997 21.7363 145.227 19.5823 145.227 17.0133C145.227 14.4726 147.024 12.3733 149.514 12.3733C149.928 12.3733 151.367 12.4837 152.473 13.7823L152.529 13.4778C152.529 12.9259 152.944 12.4837 153.496 12.4837C154.05 12.4837 154.492 12.9533 154.492 13.4778V20.6037C154.492 20.7345 154.467 20.8641 154.417 20.985C154.367 21.1059 154.294 21.2157 154.201 21.3081C154.109 21.4005 153.999 21.4737 153.878 21.5234C153.757 21.5731 153.627 21.5984 153.496 21.5978C152.915 21.6259 152.501 21.1571 152.501 20.6319ZM161.434 19.4719C162.568 19.4719 163.453 18.3941 163.453 17.0689C163.453 15.6874 162.54 14.7763 161.434 14.7763C160.3 14.7763 159.333 15.6874 159.333 17.0689C159.333 18.4496 160.3 19.4719 161.434 19.4719ZM159.333 20.9904V24.2223C159.333 24.94 158.752 25.52 158.06 25.52C157.369 25.52 156.788 24.94 156.788 24.2223V13.5059C156.787 13.3751 156.813 13.2454 156.863 13.1244C156.912 13.0034 156.986 12.8935 157.078 12.801C157.171 12.7085 157.281 12.6353 157.402 12.5855C157.523 12.5357 157.653 12.5104 157.783 12.5111C158.337 12.5111 158.752 12.9807 158.752 13.6163C159.692 12.6496 160.853 12.4007 161.739 12.4007C164.2 12.4007 166.025 14.4726 166.025 17.0407C166.025 19.5823 164.283 21.7637 161.876 21.7637C161.13 21.7363 160.024 21.5156 159.333 20.9904Z" fill="white"/>
</g>
<defs>
<clipPath id="clip0_309_1063">
<rect width="166.75" height="29" fill="white"/>
</clipPath>
</defs>
</svg>
