<svg width="141" height="29" viewBox="0 0 141 29" fill="none" xmlns="http://www.w3.org/2000/svg">
<g clip-path="url(#clip0_309_1065)">
<mask id="mask0_309_1065" style="mask-type:luminance" maskUnits="userSpaceOnUse" x="0" y="0" width="141" height="29">
<path d="M0.274414 0H140.924V29H0.274414V0Z" fill="white"/>
</mask>
<g mask="url(#mask0_309_1065)">
<path d="M46.7696 11.7909C46.3426 10.0896 45.2519 8.86675 43.0962 8.86675C39.928 8.86675 38.6238 11.658 38.6238 14.4758C38.6238 17.2937 39.9546 20.0849 43.0954 20.0849C45.3848 20.0849 46.6359 18.3836 46.8493 16.2303H49.378C49.1653 19.7659 46.6632 22.185 43.0954 22.185C38.677 22.185 36.042 18.676 36.042 14.4758C36.042 10.2757 38.6762 6.76666 43.0954 6.76666C46.4232 6.79325 49.0324 8.6275 49.3514 11.7909H46.7696ZM50.9222 16.4962C50.9222 13.2264 52.8918 10.8871 56.2993 10.8871C59.7068 10.8871 61.6764 13.2264 61.6764 16.4962C61.6764 19.7659 59.706 22.1318 56.2993 22.1318C52.8918 22.1318 50.9222 19.7659 50.9222 16.4962ZM59.3338 16.4962C59.3338 14.6619 58.4018 12.7479 56.2993 12.7479C54.1968 12.7479 53.2648 14.6619 53.2648 16.4962C53.2648 18.3304 54.196 20.271 56.2993 20.271C58.4018 20.271 59.3338 18.357 59.3338 16.4962ZM63.6999 7.11225H66.0417V9.34525H63.6991L63.6999 7.11225ZM63.6999 11.1795H66.0417V21.8394H63.6991L63.6999 11.1795ZM68.6243 11.1795H70.8597V12.7479L70.9129 12.8011C71.6056 11.6314 72.8567 10.8871 74.2398 10.9137C76.5566 10.9137 78.0203 12.1631 78.0203 14.529V21.8394H75.6777V15.1404C75.6246 13.4657 74.9858 12.7479 73.6018 12.7479C72.031 12.7479 71.0192 13.9707 71.0192 15.5392V21.8394H68.6766V11.1795H68.6243ZM93.673 21.8394H92.0224L91.6229 20.1115C90.2389 21.6799 88.9879 22.185 87.1778 22.185C82.7586 22.185 80.1236 18.676 80.1236 14.4758C80.1236 10.2757 82.7586 6.76666 87.1778 6.76666C90.3984 6.76666 93.114 8.468 93.4861 11.7909H90.9575C90.7183 9.85033 89.0145 8.86675 87.1513 8.86675C83.983 8.86675 82.6788 11.658 82.6788 14.4758C82.6788 17.2937 84.0096 20.0849 87.1513 20.0849C89.7862 20.1381 91.2507 18.5431 91.2773 16.0442H87.3639V14.0771H93.6465L93.673 21.8394ZM97.9852 17.1076C97.9852 18.7823 98.8906 20.271 100.86 20.271C102.218 20.271 103.043 19.6862 103.469 18.4899H105.705C105.199 20.8292 103.203 22.1318 100.86 22.1318C97.5059 22.1318 95.6426 19.7925 95.6426 16.5227C95.6426 13.4922 97.6388 10.8871 100.807 10.8871C104.161 10.8871 106.237 13.9176 105.838 17.1076H97.9852ZM103.469 15.5657C103.389 14.0771 102.377 12.7479 100.78 12.7479C99.1565 12.7479 98.0383 13.9707 97.9586 15.5657H103.469ZM114.835 14.7417C114.649 13.4391 113.69 12.7479 112.386 12.7479C111.162 12.7479 109.458 13.3859 109.458 16.6291C109.458 18.4102 110.23 20.271 112.28 20.271C113.637 20.271 114.596 19.3672 114.808 17.8253H117.151C116.726 20.59 115.022 22.1052 112.253 22.1052C108.899 22.1052 107.062 19.7393 107.062 16.6025C107.062 13.3859 108.819 10.8605 112.333 10.8605C114.808 10.8605 116.912 12.1099 117.151 14.7151H114.835V14.7417ZM119.174 7.11225H121.517V15.486L125.776 11.1795H128.678L124.578 15.0872L129.05 21.8394H126.176L122.901 16.6557L121.49 18.0114V21.8394H119.148V7.11225H119.174ZM129.689 16.4962C129.689 13.2264 131.659 10.8871 135.066 10.8871C138.5 10.8871 140.444 13.2264 140.444 16.4962C140.444 19.7659 138.473 22.1318 135.066 22.1318C131.659 22.1318 129.689 19.7659 129.689 16.4962ZM138.128 16.4962C138.128 14.6619 137.196 12.7479 135.093 12.7479C132.99 12.7479 132.058 14.6619 132.058 16.4962C132.058 18.3304 132.99 20.271 135.093 20.271C137.196 20.271 138.128 18.357 138.128 16.4962Z" fill="white"/>
<path d="M29.2742 14.3985C29.2873 17.2585 28.4515 20.058 26.8727 22.4427C25.2939 24.8274 23.043 26.6901 20.4051 27.7949C17.7654 28.9016 14.8571 29.2013 12.0472 28.6562C9.2374 28.1111 6.65209 26.7456 4.61778 24.7322C2.5854 22.7191 1.19552 20.1486 0.62384 17.3457C0.0521631 14.5429 0.324365 11.6334 1.40603 8.98518C3.61406 3.57184 8.88884 0.0362594 14.7291 9.39759e-06C22.7404 -0.0185184 29.2388 6.41545 29.2742 14.3985Z" fill="#8DC63F"/>
<path d="M28.1976 14.3985C28.2083 17.0451 27.4336 19.6355 25.9715 21.8416C24.5095 24.0478 22.4258 25.7706 19.9841 26.792C17.5432 27.8135 14.8548 28.0903 12.2569 27.5876C9.65909 27.0849 7.26793 25.8252 5.38425 23.9669C3.50387 22.1097 2.21731 19.7359 1.68769 17.1466C1.15806 14.5573 1.40923 11.869 2.40934 9.42259C4.45303 4.41043 9.32584 1.14793 14.7287 1.11168C22.1382 1.07543 28.1605 7.0164 28.1976 14.3985Z" fill="#F9E988"/>
<path d="M15.0576 1.96879C15.9091 1.82302 16.7791 1.82302 17.6306 1.96879C18.4918 2.10349 19.3246 2.38063 20.0948 2.78885C20.8608 3.20774 21.5182 3.77243 22.1747 4.30168C22.832 4.83013 23.4894 5.37629 24.1096 5.97804C24.7446 6.56275 25.2972 7.23103 25.7522 7.96454C26.2218 8.69022 26.6075 9.46692 26.9017 10.2797C27.468 11.9198 27.6509 13.6872 27.377 15.3644H27.2851C27.0113 13.6872 26.6278 12.1019 26.0261 10.589C25.7522 9.82377 25.4058 9.07621 25.0401 8.36571C24.6389 7.65521 24.2184 6.9439 23.7447 6.28738C23.2608 5.60684 22.6689 5.00986 21.9926 4.51999C21.3176 4.0286 20.5322 3.71846 19.7838 3.42685C19.0363 3.13524 18.2694 2.8251 17.4848 2.58827C16.6835 2.36786 15.8738 2.17922 15.0576 2.02277V1.96879Z" fill="white"/>
<path d="M21.5905 9.67795C20.6238 9.40406 19.6193 9.0037 18.5979 8.60253C18.5431 8.34717 18.3054 8.03784 17.8487 7.63667C17.1922 7.05345 15.9331 7.07198 14.8561 7.32653C13.6695 7.05345 12.4837 6.94389 11.3519 7.21778C2.09927 9.76898 7.3378 15.9661 3.94238 22.2172C4.41686 23.2379 9.63685 29.2159 17.1736 27.612C17.1736 27.612 14.6007 21.4334 20.4224 18.4625C25.1494 16.0571 28.5441 11.5734 21.5905 9.67795Z" fill="#8BC53F"/>
<path d="M14.8573 7.32653C15.5323 7.38131 17.978 8.16512 18.5982 8.60253C18.069 7.0897 16.3177 6.88912 14.8573 7.32653Z" fill="#009345"/>
<path d="M22.74 13.7428C22.74 14.2342 22.1383 14.4895 21.7919 14.1431C21.4455 13.7968 21.6823 13.1958 22.1745 13.1765C22.4855 13.1958 22.7408 13.4326 22.7408 13.742L22.74 13.7428ZM15.4949 11.1731C15.4949 12.2114 14.856 13.1588 13.8894 13.5599C13.4149 13.7567 12.8927 13.808 12.389 13.7075C11.8853 13.607 11.4228 13.359 11.0603 12.9952C10.6961 12.6337 10.4478 12.172 10.3471 11.6688C10.2464 11.1657 10.2978 10.644 10.4948 10.1701C10.6913 9.69725 11.023 9.29283 11.4483 9.00754C11.8736 8.72225 12.3736 8.56876 12.8857 8.56628C13.5784 8.56628 14.2358 8.84017 14.7102 9.31303C15.221 9.82376 15.4949 10.4803 15.4949 11.1731Z" fill="white"/>
<path d="M14.7293 11.1908C14.7293 11.9198 14.2911 12.5941 13.5975 12.8672C13.2632 13.0033 12.8962 13.038 12.5423 12.9668C12.1885 12.8956 11.8634 12.7217 11.6078 12.4668C11.0785 11.9375 10.9327 11.1723 11.2066 10.4795C11.3443 10.147 11.5771 9.86247 11.8757 9.66158C12.1743 9.46069 12.5255 9.35234 12.8854 9.3501C13.9077 9.36782 14.7293 10.1879 14.7293 11.1908Z" fill="#58595B"/>
<path d="M24.8396 14.8907C22.7411 16.3665 20.3502 17.4789 16.9733 17.4789C15.3864 17.4789 15.0755 15.8018 14.017 16.6218C13.4692 17.0407 11.5713 17.9889 10.0568 17.9349C8.5424 17.8616 6.09593 16.9682 5.42087 13.7605C5.14699 16.9867 5.01971 19.3559 3.79688 22.0714C6.20549 25.9357 11.9547 28.9057 17.1747 27.6297C16.6084 23.7115 20.0393 19.8843 21.9557 17.9341C22.7049 17.1688 24.1098 15.9661 24.8396 14.8907Z" fill="#8BC53F"/>
<path d="M24.7485 14.9817C24.0912 15.5835 23.3251 16.0209 22.5397 16.4035C21.7365 16.7862 20.9157 17.0778 20.0586 17.3138C19.1998 17.5329 18.3057 17.6972 17.4115 17.6247C16.4988 17.5514 15.5861 17.2413 14.9844 16.5671L15.0206 16.5308C15.7505 17.0045 16.6084 17.1688 17.4478 17.2051C18.3057 17.2236 19.1636 17.1688 20.003 17.0045C20.8508 16.8216 21.6813 16.5655 22.4849 16.2392C23.288 15.9113 24.0727 15.5287 24.7662 14.9817H24.7485Z" fill="#58595B"/>
</g>
</g>
<defs>
<clipPath id="clip0_309_1065">
<rect width="140.972" height="29" fill="white"/>
</clipPath>
</defs>
</svg>
