<svg width="27" height="25" viewBox="0 0 27 25" fill="none" xmlns="http://www.w3.org/2000/svg">
<g clip-path="url(#clip0_309_601)">
<path d="M21.703 3.74421L20.1612 4.8516C19.5318 4.39637 18.9518 3.92154 18.3198 3.52824C13.9807 0.824862 8.16269 1.64111 4.74674 5.41377C2.75979 7.60686 1.78242 10.1832 1.99239 13.1062C2.27808 17.0922 4.27524 20.065 7.86518 21.9236C12.0539 24.0939 17.3596 23.1188 20.5505 19.6707C22.1643 17.927 23.118 15.8848 23.3543 13.5377C23.5691 11.4203 23.1642 9.41193 22.1363 7.53592C22.0182 7.32101 22.0021 7.18338 22.19 6.99228C22.5804 6.59316 22.9381 6.16333 23.3129 5.7425C26.085 9.58873 26.5833 16.7 21.4098 21.5784C16.2179 26.4675 7.85176 26.0657 3.11153 20.7003C-1.62869 15.3348 -0.859152 7.10609 4.82622 2.68975C10.3489 -1.59796 17.7903 -0.397929 21.703 3.74421ZM18.7574 6.60268C16.3162 8.76242 14.2691 11.2482 12.5539 14.0622C10.9036 11.1985 8.7475 8.88311 6.0882 6.99123C6.06292 7.03001 6.04118 7.07093 6.02322 7.1135C5.64731 8.48134 5.26711 9.84864 4.90194 11.2196C4.88207 11.2943 4.95564 11.4356 5.02813 11.4843C5.89488 12.0735 6.65905 12.7765 7.37489 13.5324C8.95425 15.1988 10.3107 17.0451 11.6812 18.8714C12.0034 19.3007 12.3224 19.7315 12.6543 20.1767C16.2018 12.9866 21.2062 6.92717 27.0001 1.36903C23.9846 2.66435 21.2012 4.43131 18.7574 6.60163V6.60268Z" fill="#0FF950"/>
</g>
<defs>
<clipPath id="clip0_309_601">
<rect width="27" height="25" fill="white"/>
</clipPath>
</defs>
</svg>
