<svg width="45" height="35" viewBox="0 0 45 35" fill="none" xmlns="http://www.w3.org/2000/svg">
<path d="M38.1193 2.89903C35.2063 1.54471 32.0917 0.560449 28.8354 0C28.4355 0.718475 27.9683 1.68484 27.6462 2.45358C24.1847 1.93628 20.755 1.93628 17.3572 2.45358C17.0351 1.68484 16.5573 0.718475 16.1538 0C12.894 0.560449 9.77579 1.54833 6.86286 2.9062C0.987455 11.7289 -0.605271 20.3325 0.191094 28.8138C4.08797 31.7056 7.86452 33.4623 11.5773 34.6118C12.494 33.3581 13.3116 32.0254 14.016 30.6208C12.6745 30.1143 11.3897 29.4892 10.1758 28.7636C10.4978 28.5265 10.8129 28.2786 11.1172 28.0235C18.5216 31.465 26.5667 31.465 33.8826 28.0235C34.1906 28.2786 34.5055 28.5265 34.8241 28.7636C33.6065 29.4928 32.3182 30.1178 30.9768 30.6244C31.6811 32.0254 32.4952 33.3617 33.4154 34.6154C37.1318 33.4659 40.9119 31.7093 44.8087 28.8138C45.7432 18.9818 43.2125 10.4572 38.1193 2.89903ZM15.0247 23.5979C12.802 23.5979 10.9792 21.5359 10.9792 19.0248C10.9792 16.5138 12.7631 14.4483 15.0247 14.4483C17.2864 14.4483 19.1092 16.5102 19.0702 19.0248C19.0738 21.5359 17.2864 23.5979 15.0247 23.5979ZM29.9751 23.5979C27.7524 23.5979 25.9296 21.5359 25.9296 19.0248C25.9296 16.5138 27.7134 14.4483 29.9751 14.4483C32.2368 14.4483 34.0596 16.5102 34.0207 19.0248C34.0207 21.5359 32.2368 23.5979 29.9751 23.5979Z" fill="#5865F2"/>
</svg>
