<svg width="35" height="36" viewBox="0 0 35 36" fill="none" xmlns="http://www.w3.org/2000/svg">
<path fill-rule="evenodd" clip-rule="evenodd" d="M17.111 35.9292C11.831 35.9252 7.576 34.6582 4.604 32.3822C1.596 30.0782 0 26.8092 0 23.1102C0 19.5462 1.592 16.9762 3.394 15.2402C4.806 13.8782 6.364 13.0062 7.449 12.5042C7.15028 11.5927 6.87485 10.6738 6.623 9.74824C6.257 8.38524 5.898 6.78824 5.898 5.61624C5.898 4.22924 6.2 2.83724 7.015 1.75624C7.875 0.611239 9.172 0.000239011 10.732 0.000239011C11.95 0.000239011 12.985 0.452239 13.795 1.23224C14.569 1.97724 15.085 2.96724 15.441 3.99924C16.066 5.81324 16.309 8.09124 16.378 10.3652H17.871C17.94 8.09124 18.183 5.81324 18.808 3.99924C19.164 2.96724 19.68 1.97724 20.454 1.23224C20.8586 0.835708 21.3373 0.522801 21.8629 0.311406C22.3885 0.100011 22.9505 -0.0057259 23.517 0.000239011C25.077 0.000239011 26.373 0.612239 27.234 1.75524C28.049 2.83724 28.351 4.22924 28.351 5.61524C28.351 6.78724 27.991 8.38524 27.625 9.74824C27.3735 10.6738 27.0984 11.5927 26.8 12.5042C27.885 13.0062 29.443 13.8782 30.855 15.2392C32.657 16.9762 34.249 19.5462 34.249 23.1102C34.249 26.8102 32.653 30.0782 29.645 32.3822C26.673 34.6582 22.419 35.9252 17.138 35.9292H17.111Z" fill="#633001"/>
<path d="M10.731 1.31824C8.447 1.31824 7.396 3.04024 7.396 5.42024C7.396 7.31324 8.617 11.1022 9.118 12.5782C9.17036 12.739 9.15949 12.9138 9.0876 13.0668C9.01571 13.2199 8.88819 13.3399 8.731 13.4022C6.901 14.1312 1.498 16.8012 1.498 22.9152C1.498 29.3552 6.988 34.2122 17.112 34.2202H17.136C27.26 34.2122 32.75 29.3562 32.75 22.9152C32.75 16.8012 27.348 14.1312 25.517 13.4022C25.3598 13.3399 25.2323 13.2199 25.1604 13.0668C25.0885 12.9138 25.0776 12.739 25.13 12.5782C25.63 11.1022 26.853 7.31324 26.853 5.42024C26.853 3.04024 25.801 1.31824 23.517 1.31824C20.229 1.31824 19.41 6.02324 19.351 11.0732C19.3502 11.2343 19.2861 11.3885 19.1725 11.5027C19.059 11.6168 18.905 11.6817 18.744 11.6832H15.504C15.343 11.6817 15.189 11.6168 15.0755 11.5027C14.9619 11.3885 14.8978 11.2343 14.897 11.0732C14.839 6.02324 14.019 1.31824 10.731 1.31824Z" fill="#D1884F"/>
<path d="M17.136 32.1572C9.698 32.1572 1.511 28.1342 1.498 22.9272V22.9512C1.498 29.3982 6.997 34.2572 17.136 34.2572C27.276 34.2572 32.774 29.3972 32.774 22.9522V22.9272C32.761 28.1342 24.574 32.1572 17.136 32.1572Z" fill="#FEDC90"/>
<path d="M13.004 21.3282C13.004 23.0862 12.182 24.0022 11.167 24.0022C10.153 24.0022 9.33 23.0862 9.33 21.3282C9.33 19.5702 10.153 18.6542 11.167 18.6542C12.182 18.6542 13.004 19.5702 13.004 21.3282ZM24.943 21.3282C24.943 23.0862 24.121 24.0022 23.106 24.0022C22.092 24.0022 21.27 23.0862 21.27 21.3282C21.27 19.5702 22.092 18.6542 23.107 18.6542C24.121 18.6542 24.943 19.5702 24.943 21.3282Z" fill="#633001"/>
</svg>
