<svg width="1440" height="24" viewBox="0 0 1440 24" fill="none" xmlns="http://www.w3.org/2000/svg">
<path d="M-16.9727 0.866699L8.02734 0.866699L-2.97266 23.8667H-27.9727L-16.9727 0.866699Z" fill="#201804"/>
<path d="M19.0273 0.866699L44.0273 0.866699L33.0273 23.8667H8.02734L19.0273 0.866699Z" fill="#201804"/>
<path d="M55.0273 0.866699L80.0273 0.866699L69.0273 23.8667H44.0273L55.0273 0.866699Z" fill="#201804"/>
<path d="M91.0273 0.866699L116.027 0.866699L105.027 23.8667H80.0273L91.0273 0.866699Z" fill="#201804"/>
<path d="M127.027 0.866699L152.027 0.866699L141.027 23.8667H116.027L127.027 0.866699Z" fill="#201804"/>
<path d="M163.027 0.866699L188.027 0.866699L177.027 23.8667H152.027L163.027 0.866699Z" fill="#201804"/>
<path d="M199.027 0.866699L224.027 0.866699L213.027 23.8667H188.027L199.027 0.866699Z" fill="#201804"/>
<path d="M235.027 0.866699L260.027 0.866699L249.027 23.8667H224.027L235.027 0.866699Z" fill="#201804"/>
<path d="M271.027 0.866699L296.027 0.866699L285.027 23.8667H260.027L271.027 0.866699Z" fill="#201804"/>
<path d="M307.027 0.866699L332.027 0.866699L321.027 23.8667H296.027L307.027 0.866699Z" fill="#201804"/>
<path d="M343.027 0.866699L368.027 0.866699L357.027 23.8667H332.027L343.027 0.866699Z" fill="#201804"/>
<path d="M379.027 0.866699L404.027 0.866699L393.027 23.8667H368.027L379.027 0.866699Z" fill="#201804"/>
<path d="M415.027 0.866699L440.027 0.866699L429.027 23.8667H404.027L415.027 0.866699Z" fill="#201804"/>
<path d="M451.027 0.866699L476.027 0.866699L465.027 23.8667H440.027L451.027 0.866699Z" fill="#201804"/>
<path d="M487.027 0.866699L512.027 0.866699L501.027 23.8667H476.027L487.027 0.866699Z" fill="#201804"/>
<path d="M523.027 0.866699L548.027 0.866699L537.027 23.8667H512.027L523.027 0.866699Z" fill="#201804"/>
<path d="M559.027 0.866699L584.027 0.866699L573.027 23.8667H548.027L559.027 0.866699Z" fill="#201804"/>
<path d="M595.027 0.866699L620.027 0.866699L609.027 23.8667H584.027L595.027 0.866699Z" fill="#201804"/>
<path d="M631.027 0.866699L656.027 0.866699L645.027 23.8667H620.027L631.027 0.866699Z" fill="#201804"/>
<path d="M667.027 0.866699L692.027 0.866699L681.027 23.8667H656.027L667.027 0.866699Z" fill="#201804"/>
<path d="M703.027 0.866699L728.027 0.866699L717.027 23.8667H692.027L703.027 0.866699Z" fill="#201804"/>
<path d="M739.027 0.866699L764.027 0.866699L753.027 23.8667H728.027L739.027 0.866699Z" fill="#201804"/>
<path d="M775.027 0.866699L800.027 0.866699L789.027 23.8667H764.027L775.027 0.866699Z" fill="#201804"/>
<path d="M811.027 0.866699L836.027 0.866699L825.027 23.8667H800.027L811.027 0.866699Z" fill="#201804"/>
<path d="M847.027 0.866699L872.027 0.866699L861.027 23.8667H836.027L847.027 0.866699Z" fill="#201804"/>
<path d="M883.027 0.866699L908.027 0.866699L897.027 23.8667H872.027L883.027 0.866699Z" fill="#201804"/>
<path d="M919.027 0.866699L944.027 0.866699L933.027 23.8667H908.027L919.027 0.866699Z" fill="#201804"/>
<path d="M955.027 0.866699L980.027 0.866699L969.027 23.8667H944.027L955.027 0.866699Z" fill="#201804"/>
<path d="M991.027 0.866699L1016.03 0.866699L1005.03 23.8667H980.027L991.027 0.866699Z" fill="#201804"/>
<path d="M1027.03 0.866699L1052.03 0.866699L1041.03 23.8667H1016.03L1027.03 0.866699Z" fill="#201804"/>
<path d="M1063.03 0.866699L1088.03 0.866699L1077.03 23.8667H1052.03L1063.03 0.866699Z" fill="#201804"/>
<path d="M1099.03 0.866699L1124.03 0.866699L1113.03 23.8667H1088.03L1099.03 0.866699Z" fill="#201804"/>
<path d="M1135.03 0.866699L1160.03 0.866699L1149.03 23.8667H1124.03L1135.03 0.866699Z" fill="#201804"/>
<path d="M1171.03 0.866699L1196.03 0.866699L1185.03 23.8667H1160.03L1171.03 0.866699Z" fill="#201804"/>
<path d="M1207.03 0.866699L1232.03 0.866699L1221.03 23.8667H1196.03L1207.03 0.866699Z" fill="#201804"/>
<path d="M1243.03 0.866699L1268.03 0.866699L1257.03 23.8667H1232.03L1243.03 0.866699Z" fill="#201804"/>
<path d="M1279.03 0.866699L1304.03 0.866699L1293.03 23.8667H1268.03L1279.03 0.866699Z" fill="#201804"/>
<path d="M1315.03 0.866699L1340.03 0.866699L1329.03 23.8667H1304.03L1315.03 0.866699Z" fill="#201804"/>
<path d="M1351.03 0.866699L1376.03 0.866699L1365.03 23.8667H1340.03L1351.03 0.866699Z" fill="#201804"/>
<path d="M1387.03 0.866699L1412.03 0.866699L1401.03 23.8667H1376.03L1387.03 0.866699Z" fill="#201804"/>
<path d="M1423.03 0.866699L1448.03 0.866699L1437.03 23.8667H1412.03L1423.03 0.866699Z" fill="#201804"/>
</svg>
