<svg width="46" height="40" viewBox="0 0 46 40" fill="none" xmlns="http://www.w3.org/2000/svg">
<path d="M29.0364 21.8018C29.098 22.0853 29.057 22.4294 28.9132 22.8342C28.8105 23.0772 28.677 23.2998 28.5127 23.5023C28.3689 23.7047 28.2046 23.9071 28.0198 24.1096C27.7938 24.3322 27.5474 24.5448 27.2804 24.7472C27.0339 24.9497 26.7669 25.142 26.4794 25.3242C25.8632 25.7088 25.2162 26.0327 24.5385 26.2958C23.8812 26.559 23.1932 26.7715 22.4743 26.9335C21.7144 27.1359 20.9442 27.2776 20.1637 27.3586C19.4038 27.4598 18.6336 27.5307 17.8532 27.5711C17.3808 27.6116 16.9084 27.6116 16.436 27.5711C15.9636 27.5307 15.4912 27.4902 15.0188 27.4497C14.5054 27.4092 14.0022 27.3485 13.5093 27.2675C13.0163 27.2068 12.5234 27.1258 12.0305 27.0246C11.1062 26.8626 10.1923 26.6602 9.28857 26.4173C8.40541 26.1744 7.51199 25.9011 6.60829 25.5974C5.72513 25.314 4.85224 25.0104 3.98962 24.6865C3.14754 24.3626 2.29519 24.0286 1.43257 23.6845C1.32987 23.644 1.21691 23.6035 1.09368 23.563C0.990986 23.5225 0.888294 23.482 0.785601 23.4415C0.723985 23.4011 0.631561 23.3606 0.50833 23.3201C0.446714 23.2796 0.374829 23.2492 0.292675 23.229C0.231059 23.1885 0.179713 23.1379 0.138635 23.0772C0.0975582 22.976 0.0667504 22.8646 0.0462118 22.7432C0.0256732 22.6217 0.0154039 22.5104 0.0154039 22.4091C-0.00513465 22.3079 -0.00513465 22.2168 0.0154039 22.1359C0.0359425 22.0346 0.0667504 21.9334 0.107828 21.8322C0.169443 21.6298 0.272136 21.4476 0.415906 21.2856C0.559676 21.1237 0.703446 20.9719 0.847216 20.8302C0.888294 20.7897 0.908832 20.7593 0.908832 20.7391C0.929371 20.7188 0.960178 20.6885 1.00126 20.648L1.03206 20.6176C1.0526 20.5974 1.06287 20.5771 1.06287 20.5569C1.14503 20.395 1.24772 20.2533 1.37095 20.1318C1.49418 20.0103 1.62768 19.899 1.77145 19.7978C2.10007 19.5346 2.48003 19.3221 2.91134 19.1601C3.03457 19.1196 3.16808 19.0893 3.31185 19.069C3.47615 19.0285 3.63019 19.0285 3.77396 19.069C3.87666 19.1095 3.928 19.1804 3.928 19.2816C3.928 19.3828 3.90746 19.4739 3.86639 19.5549C3.76369 19.7775 3.64046 19.9698 3.49669 20.1318C3.37346 20.2937 3.22969 20.4557 3.06538 20.6176C3.04484 20.6379 3.02431 20.6581 3.00377 20.6784C3.00377 20.6986 2.9935 20.7188 2.97296 20.7391C2.93188 20.8605 2.93188 21.0022 2.97296 21.1642C2.97296 21.1844 2.97296 21.2047 2.97296 21.2249C2.9935 21.2452 3.00377 21.2654 3.00377 21.2856C3.31185 21.4071 3.60966 21.5286 3.8972 21.65C4.20527 21.7715 4.50308 21.8929 4.79062 22.0144C6.51586 22.6824 8.2411 23.2998 9.96634 23.8666C11.7121 24.4335 13.499 24.8687 15.3269 25.1723C15.8609 25.2533 16.3949 25.3242 16.9289 25.3849C17.4835 25.4254 18.038 25.4659 18.5925 25.5063C19.1471 25.5468 19.7016 25.5468 20.2562 25.5063C20.4616 25.4861 20.6669 25.476 20.8723 25.476C21.0777 25.4557 21.2831 25.4355 21.4885 25.4152C21.6528 25.3748 21.8171 25.3545 21.9814 25.3545C22.1663 25.3343 22.3408 25.3039 22.5051 25.2634L23.5218 25.0812C23.604 25.061 23.6861 25.0408 23.7683 25.0205C23.8504 25.0003 23.9326 24.98 24.0147 24.9598C24.0558 24.9395 24.1072 24.9294 24.1688 24.9294C24.2509 24.9092 24.3125 24.8889 24.3536 24.8687C24.4563 24.8282 24.559 24.7978 24.6617 24.7776C24.7644 24.7371 24.8671 24.6966 24.9698 24.6561C25.093 24.6359 25.206 24.5954 25.3087 24.5347C25.3087 24.5347 25.3292 24.5245 25.3703 24.5043C25.473 24.4638 25.5757 24.4132 25.6784 24.3525C25.6989 24.3322 25.7194 24.3221 25.74 24.3221C25.7605 24.3221 25.7811 24.312 25.8016 24.2918C25.8016 24.2918 25.8119 24.2816 25.8324 24.2614L25.894 24.2007C25.9146 24.1804 25.9248 24.1703 25.9248 24.1703C25.9248 24.1501 25.9351 24.1298 25.9556 24.1096C25.9762 24.0691 25.9967 24.0286 26.0172 23.9881C26.0378 23.9476 26.0583 23.9071 26.0789 23.8666C26.1199 23.6845 26.1199 23.4922 26.0789 23.2897C25.9967 23.0063 25.8632 22.7533 25.6784 22.5306C25.514 22.3079 25.3189 22.1156 25.093 21.9537C24.6412 21.6095 24.1585 21.3261 23.645 21.1035C23.1521 20.8808 22.6386 20.6784 22.1046 20.4962C20.9545 20.1318 19.8043 19.8585 18.6542 19.6763C18.2229 19.5953 17.7915 19.5346 17.3602 19.4941C16.9289 19.4334 16.4976 19.3828 16.0663 19.3423C14.9778 19.2209 13.8995 19.0994 12.8315 18.9779C11.7635 18.8565 10.6955 18.6945 9.62746 18.4921C8.60053 18.3302 7.5736 18.1277 6.54667 17.8848C5.54028 17.6216 4.5647 17.2674 3.61992 16.822C3.25023 16.6601 2.88054 16.4779 2.51084 16.2755C2.16169 16.0528 1.83307 15.8099 1.52499 15.5467C1.21691 15.2633 0.949909 14.9597 0.723985 14.6358C0.498061 14.3119 0.344021 13.9475 0.261867 13.5427C0.22079 13.3402 0.189982 13.1378 0.169443 12.9354C0.128366 12.7329 0.118097 12.5305 0.138635 12.3281C0.159174 12.0042 0.241328 11.66 0.385098 11.2957C0.549407 10.911 0.754793 10.5568 1.00126 10.2329C1.26826 9.90901 1.54553 9.60536 1.83307 9.32196C2.61353 8.61345 3.47615 8.0264 4.42093 7.56081C5.38624 7.07497 6.38236 6.70048 7.40929 6.43731C8.25137 6.23488 9.09346 6.11343 9.93554 6.07294C10.7982 6.03245 11.6505 6.09318 12.4926 6.25513C12.8417 6.3361 13.1806 6.43732 13.5093 6.55877C13.8379 6.68023 14.1562 6.83206 14.4643 7.01424C14.5054 6.73084 14.5464 6.44744 14.5875 6.16403C14.6491 5.88063 14.7005 5.59723 14.7416 5.31382C14.8237 4.72677 14.8956 4.13972 14.9572 3.55267C15.0188 2.94538 15.0496 2.33808 15.0496 1.73079C15.0496 1.60933 15.101 1.48787 15.2037 1.36641C15.3064 1.22471 15.4091 1.11337 15.5118 1.0324C15.8198 0.728753 16.1793 0.485835 16.59 0.303647C16.6517 0.283404 16.7543 0.242918 16.8981 0.182189C17.0624 0.101217 17.2267 0.0506084 17.391 0.0303643C17.5553 -0.0101214 17.6991 -0.0101214 17.8224 0.0303643C17.9456 0.0506084 18.0072 0.141702 18.0072 0.303647C18.0072 1.09313 17.9559 1.89273 17.8532 2.70246C17.7505 3.49194 17.6375 4.2713 17.5143 5.04054C17.35 6.01221 17.1754 6.97376 16.9905 7.92519C16.8262 8.87661 16.6311 9.83816 16.4052 10.8098C16.3641 11.2754 16.282 11.741 16.1587 12.2066C16.0355 12.652 15.8917 13.0872 15.7274 13.5123C15.6658 13.6742 15.5631 13.8159 15.4193 13.9374C15.2756 14.0589 15.1421 14.1702 15.0188 14.2714C14.6697 14.5548 14.2897 14.7674 13.8789 14.9091C13.7557 14.9496 13.6119 14.99 13.4476 15.0305C13.3039 15.0508 13.1601 15.0406 13.0163 15.0002C12.8931 14.9394 12.8417 14.8483 12.8623 14.7269C12.965 14.3018 13.0574 13.8767 13.1396 13.4516C13.2422 13.0265 13.3449 12.6013 13.4476 12.1762C13.4682 11.8726 13.4476 11.5285 13.386 11.1438C13.2012 10.3544 12.7904 9.69646 12.1537 9.17014C11.8045 8.90698 11.4143 8.70455 10.983 8.56284C10.5722 8.4009 10.1512 8.27944 9.71988 8.19847C9.30911 8.15798 8.90861 8.13774 8.51838 8.13774C8.12814 8.11749 7.72764 8.12762 7.31687 8.1681C7.09094 8.20859 6.87529 8.24907 6.6699 8.28956C6.48506 8.3098 6.27967 8.34017 6.05375 8.38066C5.99213 8.4009 5.87917 8.43126 5.71486 8.47175C5.61217 8.51224 5.4992 8.55272 5.37597 8.59321C5.27328 8.61345 5.17059 8.64382 5.06789 8.6843C5.02682 8.70455 4.98574 8.72479 4.94466 8.74503C4.90359 8.74503 4.86251 8.75515 4.82143 8.7754C4.73928 8.81588 4.66739 8.85637 4.60578 8.89686C4.54416 8.9171 4.47228 8.94746 4.39012 8.98795C4.36958 8.98795 4.35931 8.99807 4.35931 9.01831C4.35931 9.01831 4.34904 9.01831 4.32851 9.01831L4.2977 9.04868C4.25662 9.06892 4.21554 9.08916 4.17447 9.10941C4.13339 9.12965 4.09231 9.14989 4.05123 9.17014C3.96908 9.25111 3.90746 9.30172 3.86639 9.32196L3.71235 9.47378C3.71235 9.47378 3.70208 9.49403 3.68154 9.53451C3.661 9.53451 3.65073 9.54463 3.65073 9.56488C3.65073 9.56488 3.64046 9.56488 3.61992 9.56488C3.53777 9.68634 3.47615 9.76731 3.43508 9.8078C3.394 9.90901 3.34265 10.0102 3.28104 10.1114C3.23996 10.2127 3.19888 10.3139 3.15781 10.4151C3.03457 10.8402 3.02431 11.2957 3.127 11.7815C3.22969 12.2066 3.41454 12.6013 3.68154 12.9657C3.94854 13.3099 4.25662 13.6236 4.60578 13.907C4.91386 14.1499 5.24247 14.3625 5.59163 14.5447C5.94078 14.7269 6.28994 14.8888 6.6391 15.0305C7.60441 15.4354 8.57999 15.7593 9.56584 16.0022C10.5722 16.2249 11.5786 16.4172 12.585 16.5791C13.3039 16.7006 14.0124 16.8018 14.7108 16.8828C15.4296 16.9637 16.1485 17.0447 16.8673 17.1257C17.6889 17.2269 18.5104 17.318 19.3319 17.399C20.1535 17.4799 20.9648 17.6014 21.7658 17.7633C22.5257 17.9253 23.2753 18.1075 24.0147 18.3099C24.7541 18.5123 25.4832 18.7755 26.2021 19.0994C26.428 19.2006 26.6539 19.3221 26.8799 19.4638C27.1263 19.5852 27.3625 19.7269 27.5884 19.8889C27.7733 20.0103 27.9479 20.152 28.1122 20.314C28.297 20.4557 28.4613 20.6176 28.6051 20.7998C28.8105 21.0832 28.9543 21.4172 29.0364 21.8018ZM4.45174 8.95758C4.51335 8.9171 4.55443 8.88673 4.57497 8.86649C4.61605 8.84625 4.57497 8.87661 4.45174 8.95758ZM3.58912 9.59524C3.54804 9.63573 3.51723 9.66609 3.49669 9.68634C3.47615 9.70658 3.51723 9.66609 3.61992 9.56488C3.61992 9.58512 3.60966 9.59524 3.58912 9.59524ZM25.5243 24.4436C25.4422 24.4841 25.4114 24.5043 25.4319 24.5043C25.4524 24.5043 25.4832 24.4841 25.5243 24.4436Z" fill="white"/>
<path d="M45.5995 16.302C45.7022 16.302 45.7946 16.3223 45.8768 16.3628C45.9589 16.4033 46 16.4842 46 16.6057C45.9795 16.7474 45.9178 16.879 45.8152 17.0004C45.733 17.1016 45.6406 17.2029 45.5379 17.3041C45.5173 17.3243 45.5071 17.3446 45.5071 17.3648C45.5071 17.3648 45.4968 17.3749 45.4763 17.3952C45.353 17.5166 45.2709 17.6077 45.2298 17.6685C45.1271 17.7697 45.0347 17.8709 44.9525 17.9721C44.8909 18.0733 44.819 18.1745 44.7369 18.2757C44.5931 18.4782 44.4493 18.6705 44.3056 18.8527C44.1823 19.0349 44.0488 19.2272 43.9051 19.4296C43.6791 19.8142 43.4532 20.1988 43.2273 20.5835C43.0219 20.9681 42.8165 21.3628 42.6111 21.7677C41.9334 23.1645 41.3275 24.5815 40.7935 26.0187C40.28 27.4358 39.7563 28.873 39.2223 30.3305C38.6883 31.788 38.1029 33.2253 37.4662 34.6423C36.8501 36.0391 36.1004 37.3954 35.2172 38.7112C35.1146 38.8731 34.9811 39.0148 34.8167 39.1363C34.6524 39.2578 34.4881 39.3691 34.3238 39.4703C34.2006 39.5513 34.0671 39.6221 33.9233 39.6829C33.8001 39.7436 33.6768 39.8043 33.5536 39.865C33.3893 39.9055 33.2147 39.946 33.0299 39.9865C32.845 40.027 32.6807 39.9764 32.537 39.8347C32.0646 39.3691 31.6435 38.8833 31.2738 38.3772C30.9041 37.8509 30.555 37.3043 30.2264 36.7375C30.0004 36.3529 29.7848 35.9784 29.5794 35.614C29.3946 35.2294 29.22 34.8346 29.0557 34.4298C28.8297 34.6524 28.6141 34.865 28.4087 35.0674C28.2239 35.2699 28.0185 35.4824 27.7925 35.7051C27.6693 35.8468 27.5461 35.9885 27.4229 36.1302C27.2996 36.2516 27.1661 36.3832 27.0224 36.5249C26.9607 36.5857 26.8991 36.6464 26.8375 36.7071C26.7759 36.7678 26.7245 36.8387 26.6835 36.9197C26.6629 36.9197 26.6527 36.9298 26.6527 36.95L26.4986 37.1019C26.2727 37.3853 26.0468 37.6585 25.8208 37.9217C25.5949 38.1646 25.369 38.4278 25.1431 38.7112C24.9171 38.9743 24.6604 39.2071 24.3729 39.4096C24.0853 39.5918 23.7773 39.7436 23.4486 39.865C23.3049 39.9055 23.1303 39.946 22.9249 39.9865C22.7195 40.027 22.5552 39.9764 22.432 39.8347C22.1239 39.4703 21.8569 39.0654 21.631 38.6201C21.4256 38.1747 21.2613 37.7193 21.138 37.2537C20.9737 36.7071 20.8505 36.1606 20.7684 35.614C20.7067 35.0674 20.6554 34.5107 20.6143 33.9439C20.5116 31.7779 20.6657 29.6423 21.0764 27.537C21.1175 27.3953 21.1791 27.2738 21.2613 27.1726C21.3434 27.0511 21.4359 26.9398 21.5385 26.8386C21.8672 26.5552 22.2266 26.3123 22.6168 26.1098C22.7811 26.0289 22.9454 25.958 23.1098 25.8973C23.2946 25.8366 23.4692 25.8062 23.6335 25.8062C23.7362 25.8062 23.8389 25.8366 23.9416 25.8973C24.0443 25.9378 24.0751 26.0086 24.034 26.1098C23.9929 26.373 23.9518 26.6362 23.9108 26.8993C23.8697 27.1422 23.8286 27.3953 23.7875 27.6584C23.6232 28.8528 23.5308 30.0674 23.5103 31.3022C23.4897 32.5168 23.6129 33.7213 23.8799 34.9156C23.9621 35.2597 24.0545 35.6039 24.1572 35.948C24.2805 36.2921 24.4242 36.6261 24.5885 36.95C25.3074 36.1808 26.0365 35.4318 26.7759 34.703C27.5153 33.9541 28.2649 33.2051 29.0249 32.4561C29.4151 32.0714 29.8978 31.7779 30.4728 31.5755C30.5755 31.535 30.6782 31.5046 30.7809 31.4844C30.8836 31.4641 30.9863 31.4439 31.089 31.4237C31.2533 31.4237 31.3765 31.4743 31.4587 31.5755C31.7051 32.1625 31.9619 32.7496 32.2289 33.3366C32.4959 33.9034 32.7937 34.4601 33.1223 35.0067C33.2866 35.2901 33.4509 35.5735 33.6152 35.8569C33.8001 36.1201 33.9952 36.3832 34.2006 36.6464C34.4265 36.201 34.6319 35.7557 34.8167 35.3103C35.0221 34.865 35.2172 34.4095 35.4021 33.9439C35.9977 32.5067 36.542 31.0694 37.0349 29.6321C37.5278 28.1746 38.0721 26.7273 38.6677 25.29C38.9553 24.6017 39.2531 23.9236 39.5612 23.2556C39.8898 22.5673 40.2389 21.8993 40.6086 21.2515C41.0194 20.543 41.461 19.8648 41.9334 19.2171C42.4058 18.549 42.9295 17.9114 43.5046 17.3041C43.6483 17.1421 43.8126 17.0106 43.9975 16.9093C44.2029 16.7879 44.398 16.6765 44.5828 16.5753C44.7471 16.4944 44.9115 16.4235 45.0758 16.3628C45.2401 16.302 45.4146 16.2818 45.5995 16.302Z" fill="white"/>
</svg>
