<svg width="114" height="30" viewBox="0 0 114 30" fill="none" xmlns="http://www.w3.org/2000/svg">
<path d="M22.62 19.568C22.668 19.792 22.636 20.064 22.524 20.384C22.444 20.576 22.34 20.752 22.212 20.912C22.1 21.072 21.972 21.232 21.828 21.392C21.652 21.568 21.46 21.736 21.252 21.896C21.06 22.056 20.852 22.208 20.628 22.352C20.148 22.656 19.644 22.912 19.116 23.12C18.604 23.328 18.068 23.496 17.508 23.624C16.916 23.784 16.316 23.896 15.708 23.96C15.116 24.04 14.516 24.096 13.908 24.128C13.54 24.16 13.172 24.16 12.804 24.128C12.436 24.096 12.068 24.064 11.7 24.032C11.3 24 10.908 23.952 10.524 23.888C10.14 23.84 9.756 23.776 9.372 23.696C8.652 23.568 7.94 23.408 7.236 23.216C6.548 23.024 5.852 22.808 5.148 22.568C4.46 22.344 3.78 22.104 3.108 21.848C2.452 21.592 1.788 21.328 1.116 21.056C1.036 21.024 0.948 20.992 0.852 20.96C0.772 20.928 0.692 20.896 0.612 20.864C0.564 20.832 0.492 20.8 0.396 20.768C0.348 20.736 0.292 20.712 0.228 20.696C0.18 20.664 0.14 20.624 0.108 20.576C0.076 20.496 0.052 20.408 0.036 20.312C0.02 20.216 0.012 20.128 0.012 20.048C-0.004 19.968 -0.004 19.896 0.012 19.832C0.028 19.752 0.052 19.672 0.084 19.592C0.132 19.432 0.212 19.288 0.324 19.16C0.436 19.032 0.548 18.912 0.66 18.8C0.692 18.768 0.708 18.744 0.708 18.728C0.724 18.712 0.748 18.688 0.78 18.656L0.804 18.632C0.82 18.616 0.828 18.6 0.828 18.584C0.892 18.456 0.972 18.344 1.068 18.248C1.164 18.152 1.268 18.064 1.38 17.984C1.636 17.776 1.932 17.608 2.268 17.48C2.364 17.448 2.468 17.424 2.58 17.408C2.708 17.376 2.828 17.376 2.94 17.408C3.02 17.44 3.06 17.496 3.06 17.576C3.06 17.656 3.044 17.728 3.012 17.792C2.932 17.968 2.836 18.12 2.724 18.248C2.628 18.376 2.516 18.504 2.388 18.632C2.372 18.648 2.356 18.664 2.34 18.68C2.34 18.696 2.332 18.712 2.316 18.728C2.284 18.824 2.284 18.936 2.316 19.064C2.316 19.08 2.316 19.096 2.316 19.112C2.332 19.128 2.34 19.144 2.34 19.16C2.58 19.256 2.812 19.352 3.036 19.448C3.276 19.544 3.508 19.64 3.732 19.736C5.076 20.264 6.42 20.752 7.764 21.2C9.124 21.648 10.516 21.992 11.94 22.232C12.356 22.296 12.772 22.352 13.188 22.4C13.62 22.432 14.052 22.464 14.484 22.496C14.916 22.528 15.348 22.528 15.78 22.496C15.94 22.48 16.1 22.472 16.26 22.472C16.42 22.456 16.58 22.44 16.74 22.424C16.868 22.392 16.996 22.376 17.124 22.376C17.268 22.36 17.404 22.336 17.532 22.304L18.324 22.16C18.388 22.144 18.452 22.128 18.516 22.112C18.58 22.096 18.644 22.08 18.708 22.064C18.74 22.048 18.78 22.04 18.828 22.04C18.892 22.024 18.94 22.008 18.972 21.992C19.052 21.96 19.132 21.936 19.212 21.92C19.292 21.888 19.372 21.856 19.452 21.824C19.548 21.808 19.636 21.776 19.716 21.728C19.716 21.728 19.732 21.72 19.764 21.704C19.844 21.672 19.924 21.632 20.004 21.584C20.02 21.568 20.036 21.56 20.052 21.56C20.068 21.56 20.084 21.552 20.1 21.536C20.1 21.536 20.108 21.528 20.124 21.512L20.172 21.464C20.188 21.448 20.196 21.44 20.196 21.44C20.196 21.424 20.204 21.408 20.22 21.392C20.236 21.36 20.252 21.328 20.268 21.296C20.284 21.264 20.3 21.232 20.316 21.2C20.348 21.056 20.348 20.904 20.316 20.744C20.252 20.52 20.148 20.32 20.004 20.144C19.876 19.968 19.724 19.816 19.548 19.688C19.196 19.416 18.82 19.192 18.42 19.016C18.036 18.84 17.636 18.68 17.22 18.536C16.324 18.248 15.428 18.032 14.532 17.888C14.196 17.824 13.86 17.776 13.524 17.744C13.188 17.696 12.852 17.656 12.516 17.624C11.668 17.528 10.828 17.432 9.996 17.336C9.164 17.24 8.332 17.112 7.5 16.952C6.7 16.824 5.9 16.664 5.1 16.472C4.316 16.264 3.556 15.984 2.82 15.632C2.532 15.504 2.244 15.36 1.956 15.2C1.684 15.024 1.428 14.832 1.188 14.624C0.948 14.4 0.74 14.16 0.564 13.904C0.388 13.648 0.268 13.36 0.204 13.04C0.172 12.88 0.148 12.72 0.132 12.56C0.1 12.4 0.092 12.24 0.108 12.08C0.124 11.824 0.188 11.552 0.3 11.264C0.428 10.96 0.588 10.68 0.78 10.424C0.988 10.168 1.204 9.928 1.428 9.704C2.036 9.144 2.708 8.68 3.444 8.312C4.196 7.928 4.972 7.632 5.772 7.424C6.428 7.264 7.084 7.168 7.74 7.136C8.412 7.104 9.076 7.152 9.732 7.28C10.004 7.344 10.268 7.424 10.524 7.52C10.78 7.616 11.028 7.736 11.268 7.88C11.3 7.656 11.332 7.432 11.364 7.208C11.412 6.984 11.452 6.76 11.484 6.536C11.548 6.072 11.604 5.608 11.652 5.144C11.7 4.664 11.724 4.184 11.724 3.704C11.724 3.608 11.764 3.512 11.844 3.416C11.924 3.304 12.004 3.216 12.084 3.152C12.324 2.912 12.604 2.72 12.924 2.576C12.972 2.56 13.052 2.528 13.164 2.48C13.292 2.416 13.42 2.376 13.548 2.36C13.676 2.328 13.788 2.328 13.884 2.36C13.98 2.376 14.028 2.448 14.028 2.576C14.028 3.2 13.988 3.832 13.908 4.472C13.828 5.096 13.74 5.712 13.644 6.32C13.516 7.088 13.38 7.848 13.236 8.6C13.108 9.352 12.956 10.112 12.78 10.88C12.748 11.248 12.684 11.616 12.588 11.984C12.492 12.336 12.38 12.68 12.252 13.016C12.204 13.144 12.124 13.256 12.012 13.352C11.9 13.448 11.796 13.536 11.7 13.616C11.428 13.84 11.132 14.008 10.812 14.12C10.716 14.152 10.604 14.184 10.476 14.216C10.364 14.232 10.252 14.224 10.14 14.192C10.044 14.144 10.004 14.072 10.02 13.976C10.1 13.64 10.172 13.304 10.236 12.968C10.316 12.632 10.396 12.296 10.476 11.96C10.492 11.72 10.476 11.448 10.428 11.144C10.284 10.52 9.964 10 9.468 9.584C9.196 9.376 8.892 9.216 8.556 9.104C8.236 8.976 7.908 8.88 7.572 8.816C7.252 8.784 6.94 8.768 6.636 8.768C6.332 8.752 6.02 8.76 5.7 8.792C5.524 8.824 5.356 8.856 5.196 8.888C5.052 8.904 4.892 8.928 4.716 8.96C4.668 8.976 4.58 9 4.452 9.032C4.372 9.064 4.284 9.096 4.188 9.128C4.108 9.144 4.028 9.168 3.948 9.2C3.916 9.216 3.884 9.232 3.852 9.248C3.82 9.248 3.788 9.256 3.756 9.272C3.692 9.304 3.636 9.336 3.588 9.368C3.54 9.384 3.484 9.408 3.42 9.44C3.404 9.44 3.396 9.448 3.396 9.464C3.396 9.464 3.388 9.464 3.372 9.464L3.348 9.488C3.316 9.504 3.284 9.52 3.252 9.536C3.22 9.552 3.188 9.568 3.156 9.584C3.092 9.648 3.044 9.688 3.012 9.704L2.892 9.824C2.892 9.824 2.884 9.84 2.868 9.872C2.852 9.872 2.844 9.88 2.844 9.896C2.844 9.896 2.836 9.896 2.82 9.896C2.756 9.992 2.708 10.056 2.676 10.088C2.644 10.168 2.604 10.248 2.556 10.328C2.524 10.408 2.492 10.488 2.46 10.568C2.364 10.904 2.356 11.264 2.436 11.648C2.516 11.984 2.66 12.296 2.868 12.584C3.076 12.856 3.316 13.104 3.588 13.328C3.828 13.52 4.084 13.688 4.356 13.832C4.628 13.976 4.9 14.104 5.172 14.216C5.924 14.536 6.684 14.792 7.452 14.984C8.236 15.16 9.02 15.312 9.804 15.44C10.364 15.536 10.916 15.616 11.46 15.68C12.02 15.744 12.58 15.808 13.14 15.872C13.78 15.952 14.42 16.024 15.06 16.088C15.7 16.152 16.332 16.248 16.956 16.376C17.548 16.504 18.132 16.648 18.708 16.808C19.284 16.968 19.852 17.176 20.412 17.432C20.588 17.512 20.764 17.608 20.94 17.72C21.132 17.816 21.316 17.928 21.492 18.056C21.636 18.152 21.772 18.264 21.9 18.392C22.044 18.504 22.172 18.632 22.284 18.776C22.444 19 22.556 19.264 22.62 19.568ZM3.468 9.416C3.516 9.384 3.548 9.36 3.564 9.344C3.596 9.328 3.564 9.352 3.468 9.416ZM2.796 9.92C2.764 9.952 2.74 9.976 2.724 9.992C2.708 10.008 2.74 9.976 2.82 9.896C2.82 9.912 2.812 9.92 2.796 9.92ZM19.884 21.656C19.82 21.688 19.796 21.704 19.812 21.704C19.828 21.704 19.852 21.688 19.884 21.656Z" fill="white"/>
<path d="M30.3913 9.944C30.4393 10.024 30.4393 10.112 30.3913 10.208C30.3433 10.304 30.2953 10.376 30.2473 10.424C30.1513 10.552 30.0393 10.672 29.9113 10.784C29.7833 10.88 29.6553 10.968 29.5273 11.048C29.3993 11.128 29.2633 11.208 29.1193 11.288C28.9753 11.352 28.8233 11.4 28.6633 11.432C28.5833 11.448 28.5113 11.464 28.4473 11.48C28.3833 11.48 28.3113 11.496 28.2313 11.528C28.0713 11.56 27.9113 11.6 27.7513 11.648C27.5913 11.696 27.4313 11.736 27.2713 11.768C27.2393 11.784 27.2073 11.8 27.1753 11.816C27.1433 11.816 27.1113 11.824 27.0793 11.84C27.0473 11.856 27.0073 11.872 26.9593 11.888C26.9113 11.888 26.8713 11.896 26.8393 11.912L26.3353 12.056C26.1753 12.12 25.9913 12.176 25.7833 12.224C25.5593 13.36 25.3353 14.488 25.1113 15.608C24.9033 16.712 24.6953 17.832 24.4873 18.968C24.2153 20.504 23.9753 22.032 23.7673 23.552C23.5593 25.056 23.3833 26.584 23.2393 28.136C23.2233 28.248 23.1753 28.352 23.0953 28.448C23.0313 28.544 22.9593 28.632 22.8793 28.712C22.6393 28.952 22.3593 29.144 22.0393 29.288C21.9113 29.352 21.7833 29.408 21.6553 29.456C21.5273 29.504 21.3913 29.52 21.2473 29.504C21.1673 29.504 21.0953 29.488 21.0313 29.456C20.9673 29.424 20.9353 29.36 20.9353 29.264C21.0313 28.192 21.1433 27.128 21.2713 26.072C21.4153 25.016 21.5673 23.96 21.7273 22.904C21.9673 21.4 22.2233 19.912 22.4953 18.44C22.7833 16.952 23.0793 15.464 23.3833 13.976C23.4153 13.8 23.4473 13.624 23.4793 13.448C23.5273 13.256 23.5673 13.064 23.5993 12.872C22.9433 13.048 22.2873 13.192 21.6313 13.304C20.9753 13.416 20.3113 13.472 19.6393 13.472C19.5593 13.472 19.4793 13.456 19.3993 13.424C19.3353 13.392 19.3033 13.328 19.3033 13.232C19.3193 13.12 19.3593 13.016 19.4233 12.92C19.5033 12.824 19.5833 12.736 19.6633 12.656C19.7913 12.544 19.9273 12.44 20.0713 12.344C20.2153 12.248 20.3593 12.16 20.5033 12.08C20.6313 12.016 20.7593 11.968 20.8873 11.936C21.0313 11.888 21.1673 11.864 21.2953 11.864C21.6633 11.864 22.0313 11.84 22.3993 11.792C22.6553 11.76 22.9033 11.728 23.1433 11.696C23.3833 11.648 23.6233 11.6 23.8633 11.552C24.3113 9.392 24.7433 7.232 25.1593 5.072C25.1913 4.96 25.2393 4.856 25.3033 4.76C25.3673 4.664 25.4393 4.576 25.5193 4.496C25.7753 4.256 26.0553 4.064 26.3593 3.92C26.4873 3.856 26.6153 3.808 26.7433 3.776C26.8873 3.728 27.0233 3.704 27.1513 3.704C27.2313 3.704 27.3113 3.72 27.3913 3.752C27.4713 3.784 27.4953 3.848 27.4633 3.944C27.2713 4.984 27.0713 6.016 26.8633 7.04C26.6553 8.048 26.4473 9.064 26.2393 10.088C26.2073 10.232 26.1753 10.376 26.1433 10.52C26.1273 10.664 26.1033 10.8 26.0713 10.928C26.6953 10.736 27.3193 10.544 27.9433 10.352C28.5833 10.16 29.2313 9.992 29.8873 9.848C29.9673 9.832 30.0553 9.824 30.1513 9.824C30.2633 9.824 30.3433 9.864 30.3913 9.944Z" fill="white"/>
<path d="M33.5595 17.024C33.6235 17.104 33.6235 17.2 33.5595 17.312C33.4955 17.408 33.4475 17.48 33.4155 17.528C33.2235 17.768 32.9915 17.976 32.7195 18.152C32.5915 18.232 32.4475 18.304 32.2875 18.368C32.1435 18.432 31.9915 18.48 31.8315 18.512C31.7515 18.544 31.6635 18.56 31.5675 18.56C31.4715 18.544 31.3915 18.496 31.3275 18.416C31.2635 18.336 31.1995 18.272 31.1355 18.224C31.0715 18.16 30.9995 18.088 30.9195 18.008C30.9355 18.04 30.9515 18.064 30.9675 18.08C30.9835 18.08 30.9995 18.088 31.0155 18.104C30.7275 17.88 30.4075 17.736 30.0555 17.672C30.0875 17.672 30.1115 17.68 30.1275 17.696C30.1595 17.696 30.1915 17.696 30.2235 17.696C30.0475 17.664 29.8635 17.664 29.6715 17.696C29.7195 17.68 29.7995 17.672 29.9115 17.672C29.8635 17.672 29.8155 17.68 29.7675 17.696C29.7355 17.696 29.6955 17.696 29.6475 17.696C29.6315 17.712 29.6075 17.72 29.5755 17.72C29.7035 17.688 29.7835 17.672 29.8155 17.672C29.8475 17.656 29.8395 17.656 29.7915 17.672C29.7595 17.672 29.7355 17.68 29.7195 17.696C29.7195 17.696 29.7035 17.696 29.6715 17.696C29.6555 17.712 29.6315 17.72 29.5995 17.72C29.7275 17.672 29.8075 17.64 29.8395 17.624C29.8875 17.592 29.8875 17.592 29.8395 17.624C29.8075 17.64 29.7835 17.656 29.7675 17.672C29.7675 17.672 29.7515 17.68 29.7195 17.696C29.7195 17.696 29.7035 17.704 29.6715 17.72C29.7995 17.64 29.8875 17.592 29.9355 17.576C29.9835 17.544 29.9755 17.544 29.9115 17.576C29.8955 17.592 29.8795 17.608 29.8635 17.624C29.8475 17.624 29.8315 17.632 29.8155 17.648C29.7675 17.68 29.7515 17.688 29.7675 17.672C29.7995 17.64 29.8395 17.608 29.8875 17.576C29.9355 17.544 29.9755 17.52 30.0075 17.504C30.0395 17.488 30.0315 17.496 29.9835 17.528C29.9675 17.544 29.9515 17.56 29.9355 17.576C29.9195 17.576 29.9035 17.584 29.8875 17.6C29.8555 17.632 29.8475 17.64 29.8635 17.624C29.8955 17.592 29.9275 17.56 29.9595 17.528C30.0075 17.496 30.0395 17.472 30.0555 17.456C30.0875 17.424 30.0875 17.424 30.0555 17.456L30.0315 17.48L29.9355 17.576C29.9355 17.576 29.9195 17.592 29.8875 17.624C29.9675 17.544 30.0155 17.488 30.0315 17.456C30.0635 17.424 30.0635 17.432 30.0315 17.48C29.9995 17.512 29.9755 17.544 29.9595 17.576C29.9275 17.608 29.9035 17.64 29.8875 17.672C29.8715 17.704 29.8475 17.736 29.8155 17.768C29.8315 17.736 29.8475 17.704 29.8635 17.672C29.8795 17.64 29.9035 17.608 29.9355 17.576C29.8715 17.672 29.8155 17.776 29.7675 17.888C29.7195 17.984 29.6795 18.096 29.6475 18.224C29.6475 18.176 29.6635 18.12 29.6955 18.056C29.5675 18.472 29.5515 18.936 29.6475 19.448C29.6475 19.416 29.6395 19.392 29.6235 19.376C29.6235 19.36 29.6235 19.336 29.6235 19.304C29.7195 19.768 29.9195 20.216 30.2235 20.648C30.3835 20.92 30.5755 21.136 30.7995 21.296C30.7835 21.28 30.7675 21.272 30.7515 21.272C30.7355 21.256 30.7195 21.24 30.7035 21.224C31.0075 21.448 31.3275 21.584 31.6635 21.632C31.5995 21.632 31.5435 21.624 31.4955 21.608C31.6875 21.656 31.9035 21.664 32.1435 21.632C32.0475 21.632 31.9755 21.64 31.9275 21.656C32.0075 21.64 32.0795 21.632 32.1435 21.632C32.2075 21.616 32.2715 21.6 32.3355 21.584C32.3515 21.568 32.3755 21.56 32.4075 21.56C32.1995 21.624 32.1275 21.64 32.1915 21.608C32.2235 21.608 32.2395 21.608 32.2395 21.608C32.2555 21.592 32.2715 21.584 32.2875 21.584C32.3835 21.552 32.4475 21.528 32.4795 21.512C32.4955 21.512 32.5035 21.512 32.5035 21.512C32.5195 21.496 32.5355 21.488 32.5515 21.488C32.4235 21.552 32.3355 21.592 32.2875 21.608C32.2555 21.624 32.2635 21.616 32.3115 21.584H32.3355C32.3515 21.568 32.3595 21.56 32.3595 21.56C32.3755 21.56 32.3915 21.552 32.4075 21.536C32.5035 21.504 32.5675 21.472 32.5995 21.44C32.6155 21.44 32.6235 21.44 32.6235 21.44C32.6395 21.424 32.6555 21.416 32.6715 21.416C32.4315 21.544 32.3195 21.608 32.3355 21.608C32.3515 21.608 32.3835 21.592 32.4315 21.56C32.4635 21.528 32.4955 21.504 32.5275 21.488C32.5915 21.456 32.6475 21.416 32.6955 21.368C32.7115 21.368 32.7195 21.368 32.7195 21.368C32.7355 21.352 32.7515 21.344 32.7675 21.344C32.7995 21.328 32.7995 21.328 32.7675 21.344C32.7355 21.36 32.6955 21.384 32.6475 21.416C32.5995 21.448 32.5595 21.48 32.5275 21.512C32.4955 21.528 32.4955 21.52 32.5275 21.488C32.5915 21.456 32.6235 21.44 32.6235 21.44C32.6715 21.408 32.7275 21.36 32.7915 21.296C32.8235 21.28 32.8635 21.248 32.9115 21.2C32.9435 21.168 32.9435 21.168 32.9115 21.2C32.8955 21.216 32.8635 21.24 32.8155 21.272C32.7835 21.304 32.7515 21.336 32.7195 21.368C32.7035 21.384 32.7195 21.368 32.7675 21.32C32.7995 21.288 32.8235 21.264 32.8395 21.248C32.8715 21.232 32.9035 21.208 32.9355 21.176L33.1035 21.008C33.1195 20.96 33.1515 20.928 33.1995 20.912C33.2315 20.88 33.2395 20.872 33.2235 20.888C33.2075 20.904 33.1835 20.928 33.1515 20.96C33.1195 20.992 33.0955 21.024 33.0795 21.056C33.0635 21.072 33.0715 21.064 33.1035 21.032C33.1995 20.904 33.2955 20.776 33.3915 20.648C33.5035 20.52 33.5995 20.384 33.6795 20.24C33.6155 20.336 33.5755 20.4 33.5595 20.432C33.6875 20.24 33.7995 20.04 33.8955 19.832C33.9915 19.608 34.0795 19.376 34.1595 19.136C34.1275 19.232 34.1115 19.296 34.1115 19.328C34.2875 18.688 34.3195 18.08 34.2075 17.504C34.2235 17.536 34.2315 17.584 34.2315 17.648C34.1515 17.28 34.0075 16.944 33.7995 16.64C33.6075 16.336 33.3675 16.072 33.0795 15.848C33.0955 15.864 33.1115 15.88 33.1275 15.896C33.1435 15.896 33.1595 15.904 33.1755 15.92C32.9195 15.728 32.6395 15.56 32.3355 15.416C32.0475 15.272 31.7515 15.152 31.4475 15.056C31.3515 15.024 31.3035 14.968 31.3035 14.888C31.3035 14.808 31.3195 14.736 31.3515 14.672C31.4155 14.544 31.4955 14.432 31.5915 14.336C31.6875 14.224 31.7915 14.128 31.9035 14.048C32.0315 13.952 32.1675 13.864 32.3115 13.784C32.4715 13.688 32.6315 13.616 32.7915 13.568C32.9035 13.536 33.0155 13.512 33.1275 13.496C33.2395 13.464 33.3515 13.464 33.4635 13.496C34.1835 13.72 34.8155 14.048 35.3595 14.48C35.8875 14.912 36.2475 15.44 36.4395 16.064C36.5995 16.672 36.6075 17.304 36.4635 17.96C36.2715 18.728 35.9355 19.44 35.4555 20.096C34.9755 20.752 34.4235 21.32 33.7995 21.8C33.3995 22.104 32.9755 22.376 32.5275 22.616C32.0955 22.84 31.6395 23.016 31.1595 23.144C30.8395 23.224 30.5115 23.272 30.1755 23.288C29.8555 23.288 29.5435 23.224 29.2395 23.096C28.9355 22.984 28.6715 22.816 28.4475 22.592C28.2235 22.368 28.0235 22.12 27.8475 21.848C27.7035 21.592 27.5835 21.328 27.4875 21.056C27.3915 20.784 27.3275 20.504 27.2955 20.216C27.2475 19.736 27.3275 19.248 27.5355 18.752C27.6635 18.432 27.8315 18.152 28.0395 17.912C28.2635 17.656 28.5035 17.416 28.7595 17.192C29.0635 16.936 29.3915 16.72 29.7435 16.544C30.1115 16.352 30.4875 16.216 30.8715 16.136C31.1115 16.072 31.3595 16.048 31.6155 16.064C31.8875 16.064 32.1435 16.104 32.3835 16.184C32.6075 16.264 32.8155 16.384 33.0075 16.544C33.2155 16.688 33.3995 16.848 33.5595 17.024Z" fill="white"/>
<path d="M45.498 13.88C45.61 14.104 45.682 14.352 45.714 14.624C45.746 14.88 45.746 15.136 45.714 15.392C45.682 15.744 45.626 16.088 45.546 16.424C45.482 16.744 45.394 17.064 45.282 17.384C45.026 18.152 44.722 18.896 44.37 19.616C44.034 20.336 43.674 21.048 43.29 21.752C42.458 23.192 41.554 24.624 40.578 26.048C40.242 26.512 39.898 26.976 39.546 27.44C39.21 27.92 38.834 28.368 38.418 28.784C38.162 29.024 37.882 29.216 37.578 29.36C37.45 29.424 37.314 29.472 37.17 29.504C37.042 29.552 36.914 29.576 36.786 29.576C36.706 29.576 36.634 29.56 36.57 29.528C36.49 29.496 36.458 29.432 36.474 29.336C36.49 29.224 36.538 29.12 36.618 29.024C36.682 28.928 36.754 28.84 36.834 28.76L36.954 28.64C36.986 28.608 37.002 28.584 37.002 28.568C37.082 28.488 37.154 28.4 37.218 28.304C37.298 28.208 37.378 28.112 37.458 28.016C37.874 27.488 38.274 26.936 38.658 26.36C39.058 25.8 39.442 25.232 39.81 24.656C40.066 24.272 40.306 23.888 40.53 23.504C40.77 23.104 41.002 22.704 41.226 22.304C41.594 21.616 41.946 20.92 42.282 20.216C42.618 19.512 42.898 18.784 43.122 18.032C43.25 17.648 43.346 17.256 43.41 16.856C43.474 16.456 43.466 16.056 43.386 15.656C43.306 15.32 43.146 15.04 42.906 14.816C42.73 14.688 42.562 14.608 42.402 14.576H42.21L42.186 14.6C42.154 14.632 42.13 14.656 42.114 14.672C42.098 14.672 42.074 14.688 42.042 14.72C42.026 14.72 42.002 14.736 41.97 14.768C41.89 14.848 41.818 14.92 41.754 14.984C41.69 15.032 41.626 15.096 41.562 15.176C41.53 15.208 41.49 15.248 41.442 15.296C41.41 15.328 41.386 15.36 41.37 15.392C41.322 15.408 41.29 15.44 41.274 15.488C41.194 15.568 41.122 15.656 41.058 15.752C40.994 15.832 40.93 15.912 40.866 15.992C40.642 16.28 40.418 16.6 40.194 16.952C40.226 16.92 40.242 16.888 40.242 16.856C40.258 16.824 40.282 16.792 40.314 16.76C40.234 16.872 40.162 16.984 40.098 17.096C40.034 17.208 39.978 17.328 39.93 17.456C39.914 17.552 39.866 17.664 39.786 17.792C39.77 18.256 39.754 18.728 39.738 19.208C39.738 19.672 39.722 20.144 39.69 20.624C39.674 20.864 39.658 21.104 39.642 21.344C39.642 21.584 39.618 21.824 39.57 22.064C39.57 22.112 39.562 22.168 39.546 22.232C39.53 22.28 39.514 22.328 39.498 22.376C39.466 22.456 39.418 22.536 39.354 22.616C39.29 22.68 39.226 22.744 39.162 22.808C39.082 22.888 38.994 22.968 38.898 23.048C38.802 23.112 38.714 23.168 38.634 23.216C38.554 23.264 38.45 23.32 38.322 23.384C38.21 23.448 38.106 23.496 38.01 23.528C37.914 23.56 37.77 23.592 37.578 23.624C37.402 23.656 37.274 23.608 37.194 23.48C37.178 23.448 37.17 23.424 37.17 23.408C37.17 23.376 37.162 23.344 37.146 23.312C37.098 23.232 37.106 23.136 37.17 23.024C37.202 22.992 37.218 22.96 37.218 22.928C37.234 22.896 37.258 22.864 37.29 22.832C37.306 22.816 37.314 22.808 37.314 22.808C37.314 22.792 37.322 22.776 37.338 22.76C37.37 22.44 37.386 22.128 37.386 21.824C37.402 21.52 37.418 21.208 37.434 20.888C37.45 20.456 37.458 20.032 37.458 19.616C37.474 19.184 37.482 18.76 37.482 18.344C37.498 17.608 37.506 16.88 37.506 16.16C37.506 15.44 37.506 14.712 37.506 13.976C37.506 13.864 37.546 13.76 37.626 13.664C37.706 13.568 37.786 13.48 37.866 13.4C38.106 13.16 38.386 12.968 38.706 12.824C38.754 12.808 38.834 12.776 38.946 12.728C39.074 12.68 39.202 12.648 39.33 12.632C39.458 12.6 39.57 12.6 39.666 12.632C39.762 12.648 39.81 12.72 39.81 12.848C39.81 13.264 39.81 13.68 39.81 14.096C39.81 14.512 39.802 14.928 39.786 15.344C39.994 15.136 40.202 14.936 40.41 14.744C40.618 14.552 40.834 14.368 41.058 14.192C41.346 13.968 41.642 13.776 41.946 13.616C42.25 13.44 42.57 13.288 42.906 13.16C43.146 13.08 43.394 13.016 43.65 12.968C43.922 12.92 44.186 12.936 44.442 13.016C44.666 13.096 44.866 13.208 45.042 13.352C45.234 13.496 45.386 13.672 45.498 13.88ZM42.042 14.72C42.042 14.688 42.058 14.672 42.09 14.672C42.09 14.672 42.074 14.688 42.042 14.72ZM37.026 28.568C37.01 28.568 37.002 28.576 37.002 28.592C37.066 28.512 37.09 28.48 37.074 28.496C37.074 28.512 37.058 28.536 37.026 28.568Z" fill="white"/>
<path d="M52.3067 18.752C51.8267 19.024 51.3387 19.28 50.8427 19.52C50.3627 19.744 49.8667 19.96 49.3547 20.168L48.9947 20.312C49.1707 20.568 49.3787 20.792 49.6187 20.984C49.9067 21.208 50.2187 21.384 50.5547 21.512C50.9067 21.624 51.2667 21.72 51.6347 21.8C52.0827 21.864 52.5227 21.896 52.9547 21.896C53.4027 21.88 53.8507 21.856 54.2987 21.824C54.3307 21.808 54.3627 21.8 54.3947 21.8C54.4427 21.8 54.4827 21.792 54.5147 21.776C54.5947 21.776 54.6827 21.776 54.7787 21.776C54.8907 21.76 54.9707 21.792 55.0187 21.872C55.0827 21.952 55.0827 22.04 55.0187 22.136C54.9707 22.232 54.9227 22.312 54.8747 22.376C54.6827 22.616 54.4507 22.824 54.1787 23C54.0507 23.08 53.9067 23.152 53.7467 23.216C53.6027 23.28 53.4507 23.328 53.2907 23.36C52.7947 23.44 52.2907 23.496 51.7787 23.528C51.2827 23.544 50.7787 23.52 50.2667 23.456C49.6427 23.376 49.0267 23.224 48.4187 23C47.8107 22.776 47.3067 22.408 46.9067 21.896C46.6187 21.528 46.4267 21.112 46.3307 20.648C46.2347 20.168 46.2267 19.696 46.3067 19.232C46.4187 18.656 46.6187 18.12 46.9067 17.624C47.2107 17.112 47.5707 16.656 47.9867 16.256C48.5307 15.728 49.1547 15.28 49.8587 14.912C50.5627 14.544 51.2987 14.344 52.0667 14.312C52.7067 14.28 53.3067 14.4 53.8667 14.672C54.4267 14.944 54.9387 15.296 55.4027 15.728C55.4507 15.84 55.4427 15.944 55.3787 16.04C55.2027 16.36 54.9867 16.648 54.7307 16.904C54.4747 17.16 54.2107 17.4 53.9387 17.624C53.6827 17.848 53.4107 18.048 53.1227 18.224C52.8507 18.4 52.5787 18.576 52.3067 18.752ZM49.7387 16.088C49.7227 16.088 49.7147 16.096 49.7147 16.112C49.7147 16.112 49.7227 16.104 49.7387 16.088ZM48.7067 17.744C48.5627 18.272 48.5227 18.784 48.5867 19.28C48.6347 19.264 48.6827 19.248 48.7307 19.232C48.7787 19.216 48.8267 19.2 48.8747 19.184C49.0827 19.104 49.2907 19.024 49.4987 18.944C49.7067 18.864 49.9147 18.784 50.1227 18.704L50.2667 18.632C50.3147 18.632 50.3547 18.616 50.3867 18.584C50.4987 18.536 50.6027 18.488 50.6987 18.44C50.7947 18.392 50.8987 18.344 51.0107 18.296C51.2187 18.2 51.4267 18.096 51.6347 17.984C51.6667 17.968 51.6987 17.952 51.7307 17.936C51.7787 17.92 51.8187 17.896 51.8507 17.864C51.9147 17.832 51.9547 17.808 51.9707 17.792C52.0667 17.744 52.1547 17.696 52.2347 17.648C52.3307 17.584 52.4187 17.528 52.4987 17.48C52.5147 17.448 52.5307 17.432 52.5467 17.432C52.5627 17.416 52.5787 17.4 52.5947 17.384C52.6427 17.352 52.6827 17.328 52.7147 17.312C52.7627 17.28 52.8027 17.248 52.8347 17.216L52.8827 17.168C52.9147 17.136 52.9387 17.112 52.9547 17.096C52.9867 17.064 53.0187 17.032 53.0507 17C53.0187 16.968 52.9787 16.944 52.9307 16.928C52.8827 16.896 52.8427 16.864 52.8107 16.832C52.2507 16.368 51.6427 16.08 50.9867 15.968C50.8587 15.952 50.7387 15.944 50.6267 15.944C50.5147 15.928 50.3947 15.928 50.2667 15.944C50.2347 15.96 50.1947 15.968 50.1467 15.968C50.1147 15.968 50.0827 15.976 50.0507 15.992C50.0027 15.992 49.9707 16 49.9547 16.016C49.9227 16.016 49.8747 16.032 49.8107 16.064H49.7867C49.7547 16.096 49.7307 16.112 49.7147 16.112C49.6987 16.128 49.6827 16.144 49.6667 16.16C49.6507 16.16 49.6347 16.168 49.6187 16.184C49.6187 16.2 49.6027 16.224 49.5707 16.256C49.5387 16.272 49.5147 16.288 49.4987 16.304C49.4987 16.32 49.4827 16.336 49.4507 16.352C49.3867 16.432 49.3307 16.504 49.2827 16.568C49.2347 16.632 49.1867 16.704 49.1387 16.784C48.9467 17.056 48.8027 17.376 48.7067 17.744Z" fill="white"/>
<path d="M69.6793 20.96C69.7433 21.04 69.7433 21.128 69.6793 21.224C69.6313 21.32 69.5833 21.4 69.5353 21.464C69.3433 21.704 69.1113 21.912 68.8393 22.088C68.5513 22.264 68.2553 22.384 67.9513 22.448C67.2473 22.608 66.5433 22.76 65.8393 22.904C65.1353 23.032 64.4233 23.136 63.7033 23.216C63.2233 23.28 62.7433 23.328 62.2633 23.36C61.7993 23.392 61.3273 23.392 60.8473 23.36C60.4153 23.328 59.9833 23.28 59.5513 23.216C59.1193 23.152 58.7033 23.04 58.3033 22.88C57.9353 22.752 57.5913 22.584 57.2713 22.376C56.9673 22.152 56.7033 21.88 56.4793 21.56C56.3513 21.4 56.2473 21.24 56.1673 21.08C56.1033 20.904 56.0393 20.728 55.9753 20.552C55.9113 20.328 55.8553 20.112 55.8073 19.904C55.7753 19.68 55.7593 19.456 55.7593 19.232C55.7433 18.864 55.7913 18.504 55.9033 18.152C56.0153 17.8 56.1913 17.48 56.4313 17.192C56.7993 16.728 57.2313 16.352 57.7273 16.064C58.2393 15.776 58.7753 15.552 59.3353 15.392C59.6873 15.296 60.0393 15.24 60.3913 15.224C60.7593 15.208 61.1273 15.216 61.4953 15.248C61.8793 15.296 62.2553 15.368 62.6233 15.464C63.0073 15.544 63.3833 15.664 63.7513 15.824C63.9433 15.904 64.1273 15.992 64.3033 16.088C64.4953 16.168 64.6793 16.272 64.8553 16.4C64.8553 16.368 64.8553 16.336 64.8553 16.304C64.8713 16.272 64.8793 16.24 64.8793 16.208C65.0073 14.752 65.1993 13.32 65.4553 11.912C65.7113 10.488 66.0313 9.072 66.4153 7.664C66.4953 7.392 66.6553 7.16 66.8953 6.968C67.1353 6.776 67.3673 6.624 67.5913 6.512C67.7193 6.448 67.8473 6.392 67.9753 6.344C68.1193 6.296 68.2553 6.272 68.3833 6.272C68.4473 6.272 68.5193 6.296 68.5993 6.344C68.6953 6.376 68.7273 6.432 68.6953 6.512C68.5353 7.088 68.3913 7.664 68.2633 8.24C68.1353 8.8 68.0153 9.368 67.9033 9.944C67.6153 11.4 67.3913 12.856 67.2313 14.312C67.0873 15.768 67.0393 17.632 67.0873 19.904C67.0873 20.016 67.0393 20.12 66.9433 20.216C66.8633 20.312 66.7913 20.4 66.7273 20.48C66.4713 20.704 66.1913 20.896 65.8873 21.056C65.7593 21.12 65.6233 21.176 65.4793 21.224C65.3513 21.256 65.2233 21.272 65.0953 21.272C64.9833 21.288 64.8873 21.256 64.8073 21.176C64.7113 20.152 64.5193 19.48 64.2313 19.16C63.9433 18.824 63.6633 18.544 63.3913 18.32C62.9113 17.952 62.3833 17.656 61.8073 17.432C61.2473 17.192 60.6713 17.016 60.0793 16.904C59.5673 16.824 59.0953 16.808 58.6633 16.856C58.5833 16.872 58.5113 16.88 58.4473 16.88C58.3993 16.88 58.3433 16.896 58.2793 16.928C58.2473 16.976 58.2233 17.032 58.2073 17.096C58.1913 17.144 58.1673 17.192 58.1353 17.24C58.0553 17.512 58.0233 17.776 58.0393 18.032C58.0553 18.288 58.0873 18.552 58.1353 18.824C58.1833 19.016 58.2393 19.208 58.3033 19.4C58.3673 19.592 58.4553 19.776 58.5673 19.952C58.7433 20.24 58.9833 20.512 59.2873 20.768C59.6073 21.008 59.9513 21.192 60.3193 21.32C60.7033 21.448 61.0873 21.552 61.4713 21.632C62.0633 21.712 62.6473 21.752 63.2233 21.752C63.8153 21.736 64.4073 21.696 64.9993 21.632C65.7193 21.552 66.4233 21.448 67.1113 21.32C67.7993 21.176 68.4873 21.032 69.1753 20.888C69.2553 20.856 69.3433 20.84 69.4393 20.84C69.5513 20.84 69.6313 20.88 69.6793 20.96ZM58.2313 16.928C58.2313 16.944 58.2393 16.944 58.2553 16.928H58.2313ZM58.3513 16.832C58.4313 16.752 58.4553 16.72 58.4233 16.736C58.4073 16.752 58.3833 16.776 58.3513 16.808V16.832Z" fill="white"/>
<path d="M94.2105 5.096C94.2905 5.096 94.3625 5.112 94.4265 5.144C94.4905 5.176 94.5225 5.24 94.5225 5.336C94.5065 5.448 94.4585 5.552 94.3785 5.648C94.3145 5.728 94.2425 5.808 94.1625 5.888C94.1465 5.904 94.1385 5.92 94.1385 5.936C94.1385 5.936 94.1305 5.944 94.1145 5.96C94.0185 6.056 93.9545 6.128 93.9225 6.176C93.8425 6.256 93.7705 6.336 93.7065 6.416C93.6585 6.496 93.6025 6.576 93.5385 6.656C93.4265 6.816 93.3145 6.968 93.2025 7.112C93.1065 7.256 93.0025 7.408 92.8905 7.568C92.7145 7.872 92.5385 8.176 92.3625 8.48C92.2025 8.784 92.0425 9.096 91.8825 9.416C91.3545 10.52 90.8825 11.64 90.4665 12.776C90.0665 13.896 89.6585 15.032 89.2425 16.184C88.8265 17.336 88.3705 18.472 87.8745 19.592C87.3945 20.696 86.8105 21.768 86.1225 22.808C86.0425 22.936 85.9385 23.048 85.8105 23.144C85.6825 23.24 85.5545 23.328 85.4265 23.408C85.3305 23.472 85.2265 23.528 85.1145 23.576C85.0185 23.624 84.9225 23.672 84.8265 23.72C84.6985 23.752 84.5625 23.784 84.4185 23.816C84.2745 23.848 84.1465 23.808 84.0345 23.696C83.6665 23.328 83.3385 22.944 83.0505 22.544C82.7625 22.128 82.4905 21.696 82.2345 21.248C82.0585 20.944 81.8905 20.648 81.7305 20.36C81.5865 20.056 81.4505 19.744 81.3225 19.424C81.1465 19.6 80.9785 19.768 80.8185 19.928C80.6745 20.088 80.5145 20.256 80.3385 20.432C80.2425 20.544 80.1465 20.656 80.0505 20.768C79.9545 20.864 79.8505 20.968 79.7385 21.08C79.6905 21.128 79.6425 21.176 79.5945 21.224C79.5465 21.272 79.5065 21.328 79.4745 21.392C79.4585 21.392 79.4505 21.4 79.4505 21.416L79.3305 21.536C79.1545 21.76 78.9785 21.976 78.8025 22.184C78.6265 22.376 78.4505 22.584 78.2745 22.808C78.0985 23.016 77.8985 23.2 77.6745 23.36C77.4505 23.504 77.2105 23.624 76.9545 23.72C76.8425 23.752 76.7065 23.784 76.5465 23.816C76.3865 23.848 76.2585 23.808 76.1625 23.696C75.9225 23.408 75.7145 23.088 75.5385 22.736C75.3785 22.384 75.2505 22.024 75.1545 21.656C75.0265 21.224 74.9305 20.792 74.8665 20.36C74.8185 19.928 74.7785 19.488 74.7465 19.04C74.6665 17.328 74.7865 15.64 75.1065 13.976C75.1385 13.864 75.1865 13.768 75.2505 13.688C75.3145 13.592 75.3865 13.504 75.4665 13.424C75.7225 13.2 76.0025 13.008 76.3065 12.848C76.4345 12.784 76.5625 12.728 76.6905 12.68C76.8345 12.632 76.9705 12.608 77.0985 12.608C77.1785 12.608 77.2585 12.632 77.3385 12.68C77.4185 12.712 77.4425 12.768 77.4105 12.848C77.3785 13.056 77.3465 13.264 77.3145 13.472C77.2825 13.664 77.2505 13.864 77.2185 14.072C77.0905 15.016 77.0185 15.976 77.0025 16.952C76.9865 17.912 77.0825 18.864 77.2905 19.808C77.3545 20.08 77.4265 20.352 77.5065 20.624C77.6025 20.896 77.7145 21.16 77.8425 21.416C78.4025 20.808 78.9705 20.216 79.5465 19.64C80.1225 19.048 80.7065 18.456 81.2985 17.864C81.6025 17.56 81.9785 17.328 82.4265 17.168C82.5065 17.136 82.5865 17.112 82.6665 17.096C82.7465 17.08 82.8265 17.064 82.9065 17.048C83.0345 17.048 83.1305 17.088 83.1945 17.168C83.3865 17.632 83.5865 18.096 83.7945 18.56C84.0025 19.008 84.2345 19.448 84.4905 19.88C84.6185 20.104 84.7465 20.328 84.8745 20.552C85.0185 20.76 85.1705 20.968 85.3305 21.176C85.5065 20.824 85.6665 20.472 85.8105 20.12C85.9705 19.768 86.1225 19.408 86.2665 19.04C86.7305 17.904 87.1545 16.768 87.5385 15.632C87.9225 14.48 88.3465 13.336 88.8105 12.2C89.0345 11.656 89.2665 11.12 89.5065 10.592C89.7625 10.048 90.0345 9.52 90.3225 9.008C90.6425 8.448 90.9865 7.912 91.3545 7.4C91.7225 6.872 92.1305 6.368 92.5785 5.888C92.6905 5.76 92.8185 5.656 92.9625 5.576C93.1225 5.48 93.2745 5.392 93.4185 5.312C93.5465 5.248 93.6745 5.192 93.8025 5.144C93.9305 5.096 94.0665 5.08 94.2105 5.096Z" fill="white"/>
<path d="M95.3642 17.024C95.4282 17.104 95.4282 17.2 95.3642 17.312C95.3002 17.408 95.2522 17.48 95.2202 17.528C95.0282 17.768 94.7962 17.976 94.5242 18.152C94.3962 18.232 94.2522 18.304 94.0922 18.368C93.9482 18.432 93.7962 18.48 93.6362 18.512C93.5562 18.544 93.4682 18.56 93.3722 18.56C93.2762 18.544 93.1962 18.496 93.1322 18.416C93.0682 18.336 93.0042 18.272 92.9402 18.224C92.8762 18.16 92.8042 18.088 92.7242 18.008C92.7402 18.04 92.7562 18.064 92.7722 18.08C92.7882 18.08 92.8042 18.088 92.8202 18.104C92.5322 17.88 92.2122 17.736 91.8602 17.672C91.8922 17.672 91.9162 17.68 91.9322 17.696C91.9642 17.696 91.9962 17.696 92.0282 17.696C91.8522 17.664 91.6682 17.664 91.4762 17.696C91.5242 17.68 91.6042 17.672 91.7162 17.672C91.6682 17.672 91.6202 17.68 91.5722 17.696C91.5402 17.696 91.5002 17.696 91.4522 17.696C91.4362 17.712 91.4122 17.72 91.3802 17.72C91.5082 17.688 91.5882 17.672 91.6202 17.672C91.6522 17.656 91.6442 17.656 91.5962 17.672C91.5642 17.672 91.5402 17.68 91.5242 17.696C91.5242 17.696 91.5082 17.696 91.4762 17.696C91.4602 17.712 91.4362 17.72 91.4042 17.72C91.5322 17.672 91.6122 17.64 91.6442 17.624C91.6922 17.592 91.6922 17.592 91.6442 17.624C91.6122 17.64 91.5882 17.656 91.5722 17.672C91.5722 17.672 91.5562 17.68 91.5242 17.696C91.5242 17.696 91.5082 17.704 91.4762 17.72C91.6042 17.64 91.6922 17.592 91.7402 17.576C91.7882 17.544 91.7802 17.544 91.7162 17.576C91.7002 17.592 91.6842 17.608 91.6682 17.624C91.6522 17.624 91.6362 17.632 91.6202 17.648C91.5722 17.68 91.5562 17.688 91.5722 17.672C91.6042 17.64 91.6442 17.608 91.6922 17.576C91.7402 17.544 91.7802 17.52 91.8122 17.504C91.8442 17.488 91.8362 17.496 91.7882 17.528C91.7722 17.544 91.7562 17.56 91.7402 17.576C91.7242 17.576 91.7082 17.584 91.6922 17.6C91.6602 17.632 91.6522 17.64 91.6682 17.624C91.7002 17.592 91.7322 17.56 91.7642 17.528C91.8122 17.496 91.8442 17.472 91.8602 17.456C91.8922 17.424 91.8922 17.424 91.8602 17.456L91.8362 17.48L91.7402 17.576C91.7402 17.576 91.7242 17.592 91.6922 17.624C91.7722 17.544 91.8202 17.488 91.8362 17.456C91.8682 17.424 91.8682 17.432 91.8362 17.48C91.8042 17.512 91.7802 17.544 91.7642 17.576C91.7322 17.608 91.7082 17.64 91.6922 17.672C91.6762 17.704 91.6522 17.736 91.6202 17.768C91.6362 17.736 91.6522 17.704 91.6682 17.672C91.6842 17.64 91.7082 17.608 91.7402 17.576C91.6762 17.672 91.6202 17.776 91.5722 17.888C91.5242 17.984 91.4842 18.096 91.4522 18.224C91.4522 18.176 91.4682 18.12 91.5002 18.056C91.3722 18.472 91.3562 18.936 91.4522 19.448C91.4522 19.416 91.4442 19.392 91.4282 19.376C91.4282 19.36 91.4282 19.336 91.4282 19.304C91.5242 19.768 91.7242 20.216 92.0282 20.648C92.1882 20.92 92.3802 21.136 92.6042 21.296C92.5882 21.28 92.5722 21.272 92.5562 21.272C92.5402 21.256 92.5242 21.24 92.5082 21.224C92.8122 21.448 93.1322 21.584 93.4682 21.632C93.4042 21.632 93.3482 21.624 93.3002 21.608C93.4922 21.656 93.7082 21.664 93.9482 21.632C93.8522 21.632 93.7802 21.64 93.7322 21.656C93.8122 21.64 93.8842 21.632 93.9482 21.632C94.0122 21.616 94.0762 21.6 94.1402 21.584C94.1562 21.568 94.1802 21.56 94.2122 21.56C94.0042 21.624 93.9322 21.64 93.9962 21.608C94.0282 21.608 94.0442 21.608 94.0442 21.608C94.0602 21.592 94.0762 21.584 94.0922 21.584C94.1882 21.552 94.2522 21.528 94.2842 21.512C94.3002 21.512 94.3082 21.512 94.3082 21.512C94.3242 21.496 94.3402 21.488 94.3562 21.488C94.2282 21.552 94.1402 21.592 94.0922 21.608C94.0602 21.624 94.0682 21.616 94.1162 21.584H94.1402C94.1562 21.568 94.1642 21.56 94.1642 21.56C94.1802 21.56 94.1962 21.552 94.2122 21.536C94.3082 21.504 94.3722 21.472 94.4042 21.44C94.4202 21.44 94.4282 21.44 94.4282 21.44C94.4442 21.424 94.4602 21.416 94.4762 21.416C94.2362 21.544 94.1242 21.608 94.1402 21.608C94.1562 21.608 94.1882 21.592 94.2362 21.56C94.2682 21.528 94.3002 21.504 94.3322 21.488C94.3962 21.456 94.4522 21.416 94.5002 21.368C94.5162 21.368 94.5242 21.368 94.5242 21.368C94.5402 21.352 94.5562 21.344 94.5722 21.344C94.6042 21.328 94.6042 21.328 94.5722 21.344C94.5402 21.36 94.5002 21.384 94.4522 21.416C94.4042 21.448 94.3642 21.48 94.3322 21.512C94.3002 21.528 94.3002 21.52 94.3322 21.488C94.3962 21.456 94.4282 21.44 94.4282 21.44C94.4762 21.408 94.5322 21.36 94.5962 21.296C94.6282 21.28 94.6682 21.248 94.7162 21.2C94.7482 21.168 94.7482 21.168 94.7162 21.2C94.7002 21.216 94.6682 21.24 94.6202 21.272C94.5882 21.304 94.5562 21.336 94.5242 21.368C94.5082 21.384 94.5242 21.368 94.5722 21.32C94.6042 21.288 94.6282 21.264 94.6442 21.248C94.6762 21.232 94.7082 21.208 94.7402 21.176L94.9082 21.008C94.9242 20.96 94.9562 20.928 95.0042 20.912C95.0362 20.88 95.0442 20.872 95.0282 20.888C95.0122 20.904 94.9882 20.928 94.9562 20.96C94.9242 20.992 94.9002 21.024 94.8842 21.056C94.8682 21.072 94.8762 21.064 94.9082 21.032C95.0042 20.904 95.1002 20.776 95.1962 20.648C95.3082 20.52 95.4042 20.384 95.4842 20.24C95.4202 20.336 95.3802 20.4 95.3642 20.432C95.4922 20.24 95.6042 20.04 95.7002 19.832C95.7962 19.608 95.8842 19.376 95.9642 19.136C95.9322 19.232 95.9162 19.296 95.9162 19.328C96.0922 18.688 96.1242 18.08 96.0122 17.504C96.0282 17.536 96.0362 17.584 96.0362 17.648C95.9562 17.28 95.8122 16.944 95.6042 16.64C95.4122 16.336 95.1722 16.072 94.8842 15.848C94.9002 15.864 94.9162 15.88 94.9322 15.896C94.9482 15.896 94.9642 15.904 94.9802 15.92C94.7242 15.728 94.4442 15.56 94.1402 15.416C93.8522 15.272 93.5562 15.152 93.2522 15.056C93.1562 15.024 93.1082 14.968 93.1082 14.888C93.1082 14.808 93.1242 14.736 93.1562 14.672C93.2202 14.544 93.3002 14.432 93.3962 14.336C93.4922 14.224 93.5962 14.128 93.7082 14.048C93.8362 13.952 93.9722 13.864 94.1162 13.784C94.2762 13.688 94.4362 13.616 94.5962 13.568C94.7082 13.536 94.8202 13.512 94.9322 13.496C95.0442 13.464 95.1562 13.464 95.2682 13.496C95.9882 13.72 96.6202 14.048 97.1642 14.48C97.6922 14.912 98.0522 15.44 98.2442 16.064C98.4042 16.672 98.4122 17.304 98.2682 17.96C98.0762 18.728 97.7402 19.44 97.2602 20.096C96.7802 20.752 96.2282 21.32 95.6042 21.8C95.2042 22.104 94.7802 22.376 94.3322 22.616C93.9002 22.84 93.4442 23.016 92.9642 23.144C92.6442 23.224 92.3162 23.272 91.9802 23.288C91.6602 23.288 91.3482 23.224 91.0442 23.096C90.7402 22.984 90.4762 22.816 90.2522 22.592C90.0282 22.368 89.8282 22.12 89.6522 21.848C89.5082 21.592 89.3882 21.328 89.2922 21.056C89.1962 20.784 89.1322 20.504 89.1002 20.216C89.0522 19.736 89.1322 19.248 89.3402 18.752C89.4682 18.432 89.6362 18.152 89.8442 17.912C90.0682 17.656 90.3082 17.416 90.5642 17.192C90.8682 16.936 91.1962 16.72 91.5482 16.544C91.9162 16.352 92.2922 16.216 92.6762 16.136C92.9162 16.072 93.1642 16.048 93.4202 16.064C93.6922 16.064 93.9482 16.104 94.1882 16.184C94.4122 16.264 94.6202 16.384 94.8122 16.544C95.0202 16.688 95.2042 16.848 95.3642 17.024Z" fill="white"/>
<path d="M101.255 1.544C101.271 1.416 101.303 1.304 101.351 1.208C101.415 1.112 101.487 1.024 101.567 0.944001C101.807 0.688 102.071 0.472 102.359 0.296C102.487 0.216001 102.615 0.152 102.743 0.104C102.871 0.0559998 102.999 0.0239997 103.127 0.0079999C103.207 -0.0079999 103.287 0 103.367 0.0319996C103.447 0.0640001 103.479 0.128 103.463 0.224C103.351 1.28 103.231 2.32 103.103 3.344C102.991 4.368 102.871 5.408 102.743 6.464C102.567 7.968 102.391 9.464 102.215 10.952C102.039 12.44 101.879 13.936 101.735 15.44C101.447 18.512 101.279 21.592 101.231 24.68C101.231 24.792 101.199 24.896 101.135 24.992C101.071 25.104 100.999 25.2 100.919 25.28C100.711 25.536 100.455 25.752 100.151 25.928C100.023 26.008 99.8947 26.072 99.7667 26.12C99.6387 26.168 99.5107 26.2 99.3827 26.216C99.3027 26.232 99.2227 26.224 99.1427 26.192C99.0787 26.16 99.0467 26.096 99.0467 26C99.0627 24.928 99.0867 23.864 99.1187 22.808C99.1667 21.736 99.2307 20.664 99.3107 19.592C99.4227 18.072 99.5507 16.568 99.6947 15.08C99.8547 13.576 100.023 12.064 100.199 10.544C100.375 9.04 100.551 7.544 100.727 6.056C100.919 4.552 101.095 3.048 101.255 1.544Z" fill="white"/>
<path d="M112.723 6.8C112.995 8.16 113.131 9.48 113.131 10.76C113.131 10.872 113.091 10.984 113.011 11.096C112.931 11.192 112.851 11.272 112.771 11.336C112.531 11.576 112.251 11.768 111.931 11.912C111.883 11.944 111.795 11.984 111.667 12.032C111.555 12.064 111.435 12.096 111.307 12.128C111.179 12.144 111.067 12.144 110.971 12.128C110.875 12.096 110.827 12.016 110.827 11.888C110.827 10.576 110.691 9.256 110.419 7.928C110.243 7.112 110.011 6.312 109.723 5.528C109.451 4.728 109.115 3.968 108.715 3.248C108.619 3.472 108.547 3.688 108.499 3.896C108.275 4.648 108.107 5.4 107.995 6.152C107.819 7.288 107.723 8.424 107.707 9.56C107.707 10.696 107.739 11.84 107.803 12.992C107.803 13.12 107.803 13.248 107.803 13.376C107.819 13.504 107.835 13.632 107.851 13.76C108.363 13.6 108.867 13.448 109.363 13.304C109.875 13.16 110.387 13.032 110.899 12.92C110.979 12.888 111.067 12.872 111.163 12.872C111.275 12.872 111.355 12.912 111.403 12.992C111.451 13.072 111.451 13.16 111.403 13.256C111.355 13.352 111.307 13.432 111.259 13.496C111.163 13.624 111.051 13.744 110.923 13.856C110.795 13.952 110.667 14.04 110.539 14.12C110.411 14.2 110.275 14.272 110.131 14.336C109.987 14.4 109.835 14.448 109.675 14.48C109.595 14.512 109.523 14.536 109.459 14.552C109.395 14.552 109.323 14.568 109.243 14.6C109.083 14.632 108.923 14.672 108.763 14.72C108.603 14.768 108.443 14.808 108.283 14.84C108.251 14.856 108.219 14.872 108.187 14.888C108.155 14.888 108.123 14.896 108.091 14.912C108.075 14.912 108.019 14.928 107.923 14.96C108.003 15.808 108.083 16.656 108.163 17.504C108.259 18.336 108.363 19.176 108.475 20.024C108.587 21.032 108.699 22.032 108.811 23.024C108.923 24.016 109.011 25.016 109.075 26.024C109.075 26.12 109.027 26.216 108.931 26.312C108.851 26.424 108.779 26.52 108.715 26.6C108.587 26.712 108.451 26.816 108.307 26.912C108.163 27.008 108.019 27.096 107.875 27.176C107.827 27.208 107.739 27.24 107.611 27.272C107.499 27.32 107.379 27.352 107.251 27.368C107.123 27.4 107.011 27.4 106.915 27.368C106.819 27.352 106.771 27.28 106.771 27.152V27.008C106.707 25.984 106.619 24.968 106.507 23.96C106.395 22.968 106.275 21.968 106.147 20.96C106.035 20.08 105.931 19.2 105.835 18.32C105.755 17.44 105.675 16.552 105.595 15.656C105.515 15.688 105.427 15.72 105.331 15.752C105.235 15.768 105.139 15.792 105.043 15.824C104.323 16.032 103.595 16.208 102.859 16.352C102.139 16.48 101.403 16.544 100.651 16.544C100.571 16.544 100.499 16.528 100.435 16.496C100.355 16.464 100.323 16.4 100.339 16.304C100.339 16.192 100.379 16.088 100.459 15.992C100.539 15.896 100.619 15.808 100.699 15.728C100.923 15.504 101.195 15.312 101.515 15.152C101.787 15.008 102.051 14.928 102.307 14.912C102.499 14.912 102.683 14.912 102.859 14.912C103.051 14.912 103.235 14.896 103.411 14.864C103.731 14.832 104.035 14.792 104.323 14.744C104.627 14.68 104.931 14.608 105.235 14.528L105.523 14.456C105.507 14.36 105.499 14.272 105.499 14.192C105.499 14.096 105.499 14 105.499 13.904C105.435 12.768 105.411 11.632 105.427 10.496C105.459 9.36 105.563 8.224 105.739 7.088C105.899 6.064 106.147 5.064 106.483 4.088C106.835 3.096 107.331 2.184 107.971 1.352C108.131 1.144 108.323 0.968001 108.547 0.824001C108.787 0.664 109.027 0.536 109.267 0.44C109.379 0.408 109.515 0.376 109.675 0.344C109.851 0.312 109.979 0.352 110.059 0.464C110.603 1.168 111.059 1.952 111.427 2.816C111.731 3.456 111.987 4.112 112.195 4.784C112.403 5.44 112.579 6.112 112.723 6.8Z" fill="white"/>
</svg>
