<svg width="33" height="66" viewBox="0 0 33 66" fill="none" xmlns="http://www.w3.org/2000/svg">
<path d="M6.304 36.624C5.728 36.944 5.152 37.264 4.576 37.584C4.064 37.84 3.456 38.032 2.752 38.16C2.432 38.224 2.08 38.256 1.696 38.256C1.248 38.256 0.928 38.096 0.736 37.776C0.544 37.456 0.544 37.104 0.736 36.72C0.928 36.336 1.12 36.048 1.312 35.856C2.08 34.832 3.04 34 4.192 33.36C4.576 33.104 4.96 32.88 5.344 32.688C5.792 32.432 6.208 32.176 6.592 31.92L6.88 31.632C7.136 31.504 7.2 31.504 7.072 31.632C6.944 31.696 6.624 31.888 6.112 32.208C6.24 32.08 6.336 32.016 6.4 32.016C6.528 31.952 6.656 31.856 6.784 31.728C6.912 31.6 7.072 31.472 7.264 31.344C7.456 31.216 7.648 31.088 7.84 30.96C8.032 30.832 8.224 30.672 8.416 30.48C8.608 30.288 8.8 30.128 8.992 30C9.12 29.872 9.216 29.808 9.28 29.808C9.344 29.744 9.44 29.648 9.568 29.52C9.76 29.392 9.792 29.36 9.664 29.424C9.6 29.488 9.376 29.68 8.992 30C8.992 30 9.056 29.936 9.184 29.808C9.888 29.296 10.592 28.624 11.296 27.792C11.488 27.664 11.68 27.504 11.872 27.312C12.064 27.12 12.256 26.928 12.448 26.736C12.512 26.672 12.608 26.576 12.736 26.448C12.928 26.256 13.056 26.128 13.12 26.064C13.248 25.936 13.28 25.904 13.216 25.968C13.152 25.968 12.992 26.128 12.736 26.448C13.056 26.064 13.376 25.68 13.696 25.296C14.016 24.912 14.336 24.528 14.656 24.144C15.872 22.608 17.024 20.976 18.112 19.248C17.984 19.568 17.824 19.824 17.632 20.016C18.848 18.096 19.936 16.112 20.896 14.064C21.856 12.016 22.688 9.904 23.392 7.72799C23.264 7.984 23.2 8.208 23.2 8.4C23.264 7.888 23.424 7.28 23.68 6.576C25.152 5.872 26.624 5.23199 28.096 4.65599C29.632 4.016 31.136 3.376 32.608 2.736C31.2 5.168 29.984 7.664 28.96 10.224C27.936 12.784 27.008 15.408 26.176 18.096C26.304 17.84 26.368 17.616 26.368 17.424C25.472 20.368 24.704 23.312 24.064 26.256C23.424 29.2 22.848 32.176 22.336 35.184C21.632 39.408 20.992 43.632 20.416 47.856C19.904 52.016 19.456 56.208 19.072 60.432C19.008 60.88 18.816 61.296 18.496 61.68C18.24 62 17.952 62.32 17.632 62.64C17.12 63.152 16.576 63.6 16 63.984C15.424 64.368 14.848 64.72 14.272 65.04C13.76 65.232 13.216 65.424 12.64 65.616C12.128 65.808 11.616 65.904 11.104 65.904C10.784 65.904 10.464 65.84 10.144 65.712C9.888 65.584 9.792 65.328 9.856 64.944C9.984 63.856 10.08 62.8 10.144 61.776C10.272 60.752 10.4 59.696 10.528 58.608C11.04 54.064 11.616 49.552 12.256 45.072C12.896 40.592 13.728 36.112 14.752 31.632C15.264 29.2 15.84 26.832 16.48 24.528C17.12 22.16 17.856 19.824 18.688 17.52C19.392 15.472 20.16 13.488 20.992 11.568C21.824 9.648 22.784 7.76 23.872 5.904C24.512 4.816 25.344 3.92 26.368 3.216C27.392 2.448 28.48 1.872 29.632 1.488C30.016 1.36 30.432 1.232 30.88 1.10399C31.392 0.975996 31.872 1.008 32.32 1.2C32.704 1.328 32.896 1.616 32.896 2.064C32.448 3.664 31.936 5.232 31.36 6.768C30.848 8.304 30.24 9.80799 29.536 11.28C28.32 13.712 26.944 16.08 25.408 18.384C23.936 20.688 22.272 22.864 20.416 24.912C18.368 27.216 16.16 29.36 13.792 31.344C11.488 33.328 8.992 35.088 6.304 36.624Z" fill="#13F2C9"/>
</svg>
