<svg width="52" height="49" viewBox="0 0 52 49" fill="none" xmlns="http://www.w3.org/2000/svg">
<path d="M16.08 17.056C15.952 17.504 15.76 17.92 15.504 18.304C15.248 18.624 14.96 18.944 14.64 19.264C14.128 19.776 13.584 20.224 13.008 20.608C12.432 20.992 11.856 21.344 11.28 21.664C10.768 21.856 10.224 22.048 9.648 22.24C9.136 22.432 8.624 22.528 8.112 22.528C7.792 22.528 7.472 22.464 7.152 22.336C6.832 22.144 6.736 21.888 6.864 21.568C7.312 19.52 7.888 17.504 8.592 15.52C9.296 13.472 10.288 11.616 11.568 9.952C13.296 7.584 15.44 5.6 18 4C20.56 2.4 23.28 1.312 26.16 0.735996C26.416 0.671997 26.768 0.639997 27.216 0.639997C27.728 0.639997 28.048 0.799997 28.176 1.12C29.84 4.704 30.64 8.416 30.576 12.256C30.384 15.84 29.552 19.296 28.08 22.624C26.992 25.12 25.648 27.488 24.048 29.728C22.512 31.904 20.816 33.984 18.96 35.968C17.232 37.888 15.408 39.712 13.488 41.44C11.568 43.104 9.584 44.704 7.536 46.24C7.728 45.536 7.92 44.864 8.112 44.224C8.304 43.52 8.496 42.816 8.688 42.112C13.296 42.112 17.968 41.824 22.704 41.248C22.448 41.312 22.128 41.344 21.744 41.344C26.544 40.832 31.28 40.192 35.952 39.424C40.624 38.656 45.36 38.016 50.16 37.504C50.48 37.504 50.768 37.6 51.024 37.792C51.28 37.92 51.408 38.176 51.408 38.56C51.344 39.008 51.152 39.424 50.832 39.808C50.576 40.128 50.288 40.448 49.968 40.768C49.456 41.28 48.912 41.728 48.336 42.112C47.76 42.496 47.184 42.848 46.608 43.168C45.52 43.68 44.464 43.968 43.44 44.032H43.248C43.632 44.032 43.92 44 44.112 43.936C43.408 44.064 42.736 44.16 42.096 44.224C41.456 44.288 40.784 44.352 40.08 44.416C33.68 45.312 27.312 46.24 20.976 47.2C14.704 48.16 8.368 48.64 1.968 48.64C1.456 48.64 1.072 48.48 0.816 48.16C0.624 47.84 0.656 47.456 0.912 47.008C1.168 46.496 1.488 46.048 1.872 45.664C2.256 45.216 2.672 44.832 3.12 44.512C4.528 43.488 5.936 42.368 7.344 41.152C7.536 40.96 7.6 40.928 7.536 41.056C7.472 41.12 7.344 41.216 7.152 41.344C7.024 41.408 6.928 41.504 6.864 41.632C6.8 41.696 6.864 41.632 7.056 41.44L7.536 40.96C7.728 40.832 7.92 40.672 8.112 40.48C8.304 40.288 8.464 40.128 8.592 40C8.912 39.68 9.232 39.36 9.552 39.04C9.936 38.72 10.288 38.4 10.608 38.08C10.928 37.76 11.248 37.408 11.568 37.024C11.952 36.64 12.304 36.288 12.624 35.968C12.304 36.288 12.112 36.48 12.048 36.544C12.048 36.608 12.112 36.576 12.24 36.448C12.24 36.448 12.272 36.416 12.336 36.352C12.336 36.288 12.4 36.192 12.528 36.064L13.008 35.584C13.136 35.392 13.264 35.232 13.392 35.104C13.52 34.912 13.648 34.72 13.776 34.528C14.992 33.12 16.08 31.648 17.04 30.112C16.976 30.24 16.816 30.496 16.56 30.88C17.392 29.6 18.128 28.256 18.768 26.848C19.472 25.44 20.048 24 20.496 22.528C20.368 22.784 20.304 23.008 20.304 23.2C21.456 19.296 21.648 15.328 20.88 11.296C20.88 11.552 20.912 11.744 20.976 11.872C20.656 10.208 20.08 8.48 19.248 6.688C19.568 6.816 19.888 6.912 20.208 6.976C20.592 6.976 20.944 7.008 21.264 7.07199C21.136 7.136 21.008 7.168 20.88 7.168C20.752 7.168 20.624 7.2 20.496 7.264C20.432 7.264 20.368 7.296 20.304 7.36C20.24 7.36 20.176 7.36 20.112 7.36C20.56 7.232 20.816 7.168 20.88 7.168C21.008 7.104 20.976 7.104 20.784 7.168C20.4 7.296 19.984 7.456 19.536 7.648C20.432 7.264 20.816 7.104 20.688 7.168C20.56 7.168 20.4 7.232 20.208 7.36C20.144 7.36 20.08 7.392 20.016 7.456C20.016 7.456 19.984 7.456 19.92 7.456C19.792 7.584 19.664 7.648 19.536 7.648C19.344 7.776 19.312 7.808 19.44 7.744C19.632 7.68 19.984 7.488 20.496 7.168C20.24 7.296 20.08 7.392 20.016 7.456C19.952 7.52 19.888 7.552 19.824 7.552C19.824 7.552 19.792 7.584 19.728 7.648C19.216 7.968 19.504 7.776 20.592 7.07199C20.464 7.136 20.368 7.2 20.304 7.264C20.24 7.328 20.144 7.392 20.016 7.456C19.888 7.584 19.792 7.648 19.728 7.648C20.112 7.328 20.368 7.136 20.496 7.07199C20.624 6.944 20.592 6.944 20.4 7.07199L19.536 7.936C19.856 7.616 20.048 7.424 20.112 7.36C20.176 7.296 20.144 7.328 20.016 7.456C19.952 7.52 19.856 7.648 19.728 7.84C19.6 8.032 19.504 8.16 19.44 8.224C19.184 8.48 18.96 8.8 18.768 9.184C18.832 9.056 18.896 8.928 18.96 8.8C19.024 8.672 19.12 8.544 19.248 8.41599C18.672 9.312 18.192 10.24 17.808 11.2C17.424 12.096 17.072 13.056 16.752 14.08C16.816 13.952 16.848 13.856 16.848 13.792C16.848 13.664 16.88 13.536 16.944 13.408C16.56 14.56 16.272 15.776 16.08 17.056Z" fill="#13F2C9"/>
</svg>
