<svg width="72" height="66" viewBox="0 0 72 66" fill="none" xmlns="http://www.w3.org/2000/svg">
<path d="M35.632 8.68C35.12 9.192 34.576 9.64 34 10.024C33.424 10.408 32.848 10.76 32.272 11.08C31.76 11.272 31.216 11.464 30.64 11.656C30.128 11.848 29.616 11.944 29.104 11.944C28.784 11.944 28.464 11.88 28.144 11.752C27.888 11.624 27.792 11.368 27.856 10.984C27.92 10.472 28.08 10.056 28.336 9.736C28.656 9.352 28.976 9 29.296 8.68C31.024 6.952 32.976 5.416 35.152 4.07199C37.328 2.664 39.632 1.704 42.064 1.192C43.984 0.743996 45.872 0.679996 47.728 1C49.648 1.32 51.536 1.832 53.392 2.536C53.904 2.728 54.064 3.08 53.872 3.592C53.68 4.104 53.456 4.52 53.2 4.84C52.816 5.352 52.432 5.928 52.048 6.568C51.664 7.144 51.28 7.72 50.896 8.296C50.96 8.168 51.024 8.04 51.088 7.912C51.152 7.784 51.248 7.656 51.376 7.528C50.416 9 49.456 10.472 48.496 11.944C47.536 13.416 46.416 14.792 45.136 16.072C43.408 17.864 41.456 19.4 39.28 20.68C37.168 21.96 34.96 23.016 32.656 23.848C33.424 22.824 34.192 21.8 34.96 20.776C35.728 19.752 36.528 18.728 37.36 17.704C39.792 17.512 42.192 17.544 44.56 17.8C46.992 17.992 49.392 18.376 51.76 18.952C53.424 19.4 55.088 19.944 56.752 20.584C58.416 21.16 60.016 21.896 61.552 22.792C62.96 23.688 64.304 24.68 65.584 25.768C66.928 26.792 68.08 28.008 69.04 29.416C70.96 32.232 71.824 35.304 71.632 38.632C71.504 40.872 70.992 43.016 70.096 45.064C69.264 47.112 68.24 49.064 67.024 50.92C67.28 50.536 67.44 50.28 67.504 50.152C66.864 51.176 66.192 52.168 65.488 53.128C64.848 54.024 64.08 54.888 63.184 55.72C61.392 57.512 59.472 59.016 57.424 60.232C55.568 61.384 53.616 62.344 51.568 63.112C49.52 63.88 47.408 64.424 45.232 64.744C41.136 65.384 37.04 65.32 32.944 64.552C28.848 63.848 24.88 62.824 21.04 61.48C17.456 60.2 14 58.76 10.672 57.16C7.344 55.496 4.048 53.704 0.784 51.784C0.335999 51.528 0.143999 51.208 0.207999 50.824C0.272 50.44 0.464 50.056 0.784 49.672C1.04 49.224 1.36 48.84 1.744 48.52C2.128 48.2 2.416 47.944 2.608 47.752C3.12 47.368 3.696 47.016 4.336 46.696C4.912 46.312 5.52 46.024 6.16 45.832C6.48 45.704 6.8 45.608 7.12 45.544C7.44 45.48 7.792 45.416 8.176 45.352C8.304 45.416 8.432 45.448 8.56 45.448C8.624 45.448 8.72 45.48 8.848 45.544C10.32 46.44 11.792 47.304 13.264 48.136C14.8 48.904 16.336 49.672 17.872 50.44C21.52 52.232 25.2 53.8 28.912 55.144C32.688 56.488 36.56 57.512 40.528 58.216C40.4 58.216 40.272 58.216 40.144 58.216C40.08 58.152 39.984 58.12 39.856 58.12C41.52 58.44 43.216 58.632 44.944 58.696C46.736 58.76 48.496 58.696 50.224 58.504C50.032 58.504 49.84 58.536 49.648 58.6C49.52 58.6 49.392 58.6 49.264 58.6C49.648 58.536 50.032 58.504 50.416 58.504C50.8 58.44 51.216 58.344 51.664 58.216C51.856 58.152 52.016 58.12 52.144 58.12C52.336 58.12 52.528 58.088 52.72 58.024C53.104 57.896 53.328 57.832 53.392 57.832C53.52 57.768 53.52 57.768 53.392 57.832C53.328 57.832 53.2 57.864 53.008 57.928C52.88 57.992 52.752 58.056 52.624 58.12C52.56 58.12 52.592 58.088 52.72 58.024C52.784 58.024 52.816 58.024 52.816 58.024C52.816 57.96 52.848 57.928 52.912 57.928C53.424 57.8 53.776 57.672 53.968 57.544C54.096 57.48 54.256 57.416 54.448 57.352C54.704 57.288 54.864 57.256 54.928 57.256C55.056 57.192 55.056 57.192 54.928 57.256C54.8 57.32 54.48 57.448 53.968 57.64C54.48 57.384 54.832 57.224 55.024 57.16C55.152 57.096 55.216 57.064 55.216 57.064C55.28 57 55.376 56.936 55.504 56.872C55.696 56.808 55.728 56.808 55.6 56.872C55.472 56.936 55.312 57.032 55.12 57.16C54.992 57.224 54.864 57.288 54.736 57.352C54.608 57.416 54.64 57.384 54.832 57.256C54.96 57.128 55.12 57.032 55.312 56.968C55.504 56.904 55.664 56.808 55.792 56.68C55.856 56.616 55.888 56.584 55.888 56.584C55.952 56.584 56.016 56.552 56.08 56.488C56.208 56.424 56.208 56.424 56.08 56.488C56.016 56.552 55.888 56.648 55.696 56.776C55.504 56.904 55.344 57.032 55.216 57.16C55.152 57.224 55.184 57.192 55.312 57.064C55.376 57 55.44 56.968 55.504 56.968C55.568 56.904 55.632 56.808 55.696 56.68C55.824 56.552 55.984 56.456 56.176 56.392C56.368 56.264 56.528 56.136 56.656 56.008C56.208 56.392 55.92 56.616 55.792 56.68C55.728 56.744 55.728 56.744 55.792 56.68C55.92 56.552 56.048 56.424 56.176 56.296C56.368 56.168 56.528 56.04 56.656 55.912L57.52 55.048C57.2 55.432 57.008 55.656 56.944 55.72C56.88 55.784 56.88 55.784 56.944 55.72C57.008 55.592 57.104 55.464 57.232 55.336C57.424 55.144 57.552 54.984 57.616 54.856L59.056 52.84C58.928 52.968 58.832 53.096 58.768 53.224C58.768 53.352 58.704 53.48 58.576 53.608C58.704 53.416 58.832 53.224 58.96 53.032C59.088 52.84 59.216 52.616 59.344 52.36C59.216 52.488 59.12 52.616 59.056 52.744C59.056 52.872 58.992 53 58.864 53.128C59.504 52.104 60.08 51.08 60.592 50.056C61.104 48.968 61.552 47.848 61.936 46.696C61.808 47.08 61.744 47.304 61.744 47.368C62.064 46.088 62.288 44.808 62.416 43.528C62.544 42.184 62.448 40.872 62.128 39.592C62.192 39.72 62.224 39.816 62.224 39.88C62.224 39.944 62.256 40.04 62.32 40.168C61.872 38.248 61.072 36.52 59.92 34.984C58.832 33.448 57.552 32.072 56.08 30.856C56.144 30.92 56.208 30.984 56.272 31.048C56.336 31.048 56.4 31.08 56.464 31.144C54.16 29.288 51.6 27.848 48.784 26.824C45.968 25.8 43.088 25.032 40.144 24.52C40.272 24.584 40.4 24.616 40.528 24.616C40.656 24.616 40.784 24.648 40.912 24.712C37.328 24.136 33.904 23.976 30.64 24.232C30.32 24.296 30 24.232 29.68 24.04C29.424 23.848 29.328 23.592 29.392 23.272C29.52 22.632 29.744 22.152 30.064 21.832C30.704 20.936 31.504 20.2 32.464 19.624C33.424 18.984 34.384 18.504 35.344 18.184C35.536 18.056 35.728 17.992 35.92 17.992C36.176 17.928 36.4 17.832 36.592 17.704C36.656 17.704 36.688 17.704 36.688 17.704C36.752 17.64 36.816 17.608 36.88 17.608C37.072 17.48 37.104 17.448 36.976 17.512C36.912 17.576 36.624 17.704 36.112 17.896C36.176 17.832 36.24 17.8 36.304 17.8C36.368 17.8 36.432 17.768 36.496 17.704C36.688 17.576 36.88 17.512 37.072 17.512C37.264 17.448 37.424 17.352 37.552 17.224C37.616 17.16 37.648 17.128 37.648 17.128C37.712 17.128 37.776 17.096 37.84 17.032C37.328 17.352 36.976 17.544 36.784 17.608C36.656 17.672 36.72 17.64 36.976 17.512C36.976 17.512 37.104 17.448 37.36 17.32C37.424 17.256 37.488 17.224 37.552 17.224C37.616 17.16 37.68 17.096 37.744 17.032C37.808 17.032 37.84 17.032 37.84 17.032C37.904 16.968 37.968 16.936 38.032 16.936C38.416 16.68 38.128 16.872 37.168 17.512C37.36 17.384 37.584 17.192 37.84 16.936C37.968 16.872 38.032 16.84 38.032 16.84C38.096 16.776 38.192 16.712 38.32 16.648C38.448 16.52 38.544 16.424 38.608 16.36C38.672 16.232 38.352 16.488 37.648 17.128C37.84 17 38.064 16.808 38.32 16.552L38.992 15.88C39.12 15.752 39.152 15.72 39.088 15.784C39.024 15.848 38.928 15.944 38.8 16.072C38.736 16.136 38.64 16.232 38.512 16.36C38.448 16.424 38.48 16.392 38.608 16.264L38.896 15.976C39.28 15.592 39.632 15.144 39.952 14.632C40.272 14.12 40.592 13.64 40.912 13.192C41.232 12.744 41.552 12.264 41.872 11.752C41.808 11.88 41.744 12.008 41.68 12.136C41.616 12.264 41.52 12.392 41.392 12.52C42.096 11.496 42.768 10.472 43.408 9.448C44.048 8.424 44.72 7.432 45.424 6.472C45.424 6.856 45.392 7.24 45.328 7.62399C45.328 8.008 45.328 8.392 45.328 8.776C44.496 8.456 43.696 8.168 42.928 7.912C42.16 7.656 41.328 7.464 40.432 7.336C40.624 7.4 40.88 7.432 41.2 7.432C40.112 7.24 38.864 7.208 37.456 7.336C37.84 7.336 38.128 7.304 38.32 7.24C38.128 7.304 37.936 7.336 37.744 7.336C37.552 7.336 37.36 7.368 37.168 7.432C37.04 7.496 36.944 7.528 36.88 7.528C36.816 7.528 36.72 7.56 36.592 7.62399C37.36 7.368 37.616 7.304 37.36 7.432H37.168C36.912 7.56 36.72 7.62399 36.592 7.62399C36.4 7.752 36.336 7.784 36.4 7.72C36.528 7.656 36.656 7.592 36.784 7.528C36.976 7.464 37.136 7.432 37.264 7.432C37.392 7.368 37.392 7.368 37.264 7.432C37.136 7.432 36.944 7.496 36.688 7.62399C36.624 7.688 36.56 7.72 36.496 7.72C36.24 7.848 36.176 7.88 36.304 7.816C36.496 7.752 36.848 7.56 37.36 7.24C37.232 7.368 37.072 7.496 36.88 7.62399C36.688 7.688 36.528 7.784 36.4 7.912C37.36 7.272 37.648 7.08 37.264 7.336C37.2 7.336 37.136 7.368 37.072 7.432C37.072 7.432 37.008 7.464 36.88 7.528C36.752 7.656 36.624 7.752 36.496 7.816L36.016 8.296C36.4 7.912 36.656 7.688 36.784 7.62399C36.912 7.496 36.88 7.528 36.688 7.72C36.688 7.72 36.624 7.784 36.496 7.912C36.304 8.04 36.016 8.296 35.632 8.68Z" fill="#13F2C9"/>
</svg>
