<svg width="57" height="69" viewBox="0 0 57 69" fill="none" xmlns="http://www.w3.org/2000/svg">
<path d="M9.872 6.048C10.128 5.216 10.608 4.448 11.312 3.744C12.272 2.784 13.392 2.016 14.672 1.44C15.184 1.184 15.696 0.959997 16.208 0.767996C16.72 0.575994 17.264 0.479994 17.84 0.479994C18.096 0.479994 18.384 0.575994 18.704 0.767996C19.088 0.895998 19.216 1.152 19.088 1.536L9.872 33.792C9.616 33.6 9.392 33.44 9.2 33.312C9.008 33.12 8.816 32.928 8.624 32.736C11.888 32.736 15.12 32.672 18.32 32.544C21.52 32.416 24.752 32.288 28.016 32.16C31.216 32.032 34.384 31.904 37.52 31.776C40.656 31.584 43.824 31.424 47.024 31.296C47.856 31.296 48.656 31.296 49.424 31.296C50.192 31.296 50.992 31.264 51.824 31.2H54.32C55.024 31.2 55.568 31.424 55.952 31.872C56.016 31.936 56.048 32 56.048 32.064C56.112 32.128 56.176 32.192 56.24 32.256C56.432 32.96 56.336 33.568 55.952 34.08C55.568 34.592 55.152 35.104 54.704 35.616C54.192 36.192 53.584 36.704 52.88 37.152C52.24 37.6 51.568 37.984 50.864 38.304C50.608 38.432 50.384 38.528 50.192 38.592C50 38.656 49.776 38.752 49.52 38.88C49.456 38.944 49.392 38.976 49.328 38.976C49.328 38.976 49.296 39.008 49.232 39.072C49.104 39.136 49.104 39.136 49.232 39.072C49.36 39.008 49.488 38.944 49.616 38.88C49.808 38.752 49.968 38.656 50.096 38.592C50.224 38.528 50.192 38.528 50 38.592C49.872 38.72 49.84 38.752 49.904 38.688C50.032 38.56 50.192 38.432 50.384 38.304C50.576 38.176 50.704 38.08 50.768 38.016C50.896 37.952 50.896 37.984 50.768 38.112C50.64 38.24 50.608 38.272 50.672 38.208C50.8 38.08 50.928 37.952 51.056 37.824C51.248 37.696 51.376 37.6 51.44 37.536C51.568 37.472 51.568 37.472 51.44 37.536C50.928 38.048 50.384 38.496 49.808 38.88C49.232 39.264 48.656 39.616 48.08 39.936C47.568 40.128 47.024 40.32 46.448 40.512C45.936 40.704 45.424 40.8 44.912 40.8C44.592 40.8 44.272 40.736 43.952 40.608C43.696 40.48 43.6 40.224 43.664 39.84C43.728 39.392 43.888 38.976 44.144 38.592C44.464 38.208 44.784 37.856 45.104 37.536C46.576 36.192 48.24 35.072 50.096 34.176C50.224 34.048 50.352 33.984 50.48 33.984C50.672 33.92 50.864 33.824 51.056 33.696C51.248 33.632 51.28 33.632 51.152 33.696C51.024 33.76 50.864 33.856 50.672 33.984C50.48 34.112 50.32 34.208 50.192 34.272C50.064 34.336 50.096 34.304 50.288 34.176C49.52 34.624 48.88 35.104 48.368 35.616C48.048 36 47.824 36.256 47.696 36.384C47.632 36.448 47.664 36.416 47.792 36.288C47.664 36.416 47.568 36.544 47.504 36.672C47.44 36.8 47.376 36.928 47.312 37.056V36.96C47.248 37.088 47.216 37.216 47.216 37.344C47.216 37.408 47.184 37.504 47.12 37.632V37.344C47.12 37.472 47.12 37.568 47.12 37.632C47.184 37.696 47.216 37.792 47.216 37.92C47.088 37.664 46.96 37.44 46.832 37.248C47.024 37.376 47.216 37.472 47.408 37.536C47.6 37.536 47.792 37.6 47.984 37.728C46.64 37.728 45.296 37.76 43.952 37.824C42.608 37.824 41.296 37.824 40.016 37.824C33.616 38.016 27.248 38.304 20.912 38.688C14.64 39.072 8.304 39.264 1.904 39.264C1.648 39.264 1.36 39.2 1.04 39.072C0.656 38.88 0.528 38.624 0.656 38.304L9.872 6.048ZM30.032 9.984C30.224 9.472 30.544 9.024 30.992 8.64C31.44 8.192 31.856 7.80799 32.24 7.488C32.752 7.104 33.296 6.752 33.872 6.432C34.512 6.048 35.152 5.76 35.792 5.568C36.176 5.44 36.592 5.312 37.04 5.184C37.552 5.056 38.032 5.088 38.48 5.27999C38.8 5.408 38.96 5.632 38.96 5.952C38.96 6.208 38.896 6.496 38.768 6.816C37.616 9.824 36.528 12.832 35.504 15.84C34.48 18.848 33.488 21.888 32.528 24.96C32.592 24.832 32.624 24.736 32.624 24.672C32.688 24.544 32.752 24.416 32.816 24.288C32.048 26.592 31.376 28.896 30.8 31.2C29.328 36.448 27.984 41.696 26.768 46.944C25.616 52.192 24.592 57.536 23.696 62.976C23.568 63.424 23.376 63.84 23.12 64.224C22.864 64.544 22.576 64.864 22.256 65.184C21.744 65.696 21.2 66.144 20.624 66.528C20.048 66.912 19.472 67.264 18.896 67.584C18.384 67.776 17.84 67.968 17.264 68.16C16.752 68.352 16.24 68.448 15.728 68.448C15.408 68.448 15.088 68.384 14.768 68.256C14.512 68.064 14.416 67.808 14.48 67.488C15.248 62.816 16.112 58.208 17.072 53.664C18.096 49.056 19.216 44.48 20.432 39.936C21.776 34.816 23.216 29.76 24.752 24.768C26.352 19.776 28.112 14.848 30.032 9.984Z" fill="#13F2C9"/>
</svg>
