<svg width="76" height="63" viewBox="0 0 76 63" fill="none" xmlns="http://www.w3.org/2000/svg">
<path d="M24.896 6.464C24.896 6.016 25.056 5.6 25.376 5.216C25.696 4.768 26.016 4.416 26.336 4.16C27.296 3.2 28.416 2.432 29.696 1.856C29.888 1.792 30.208 1.664 30.656 1.472C31.168 1.216 31.68 1.056 32.192 0.991999C32.704 0.863997 33.152 0.863997 33.536 0.991999C33.92 1.12 34.112 1.44 34.112 1.952C34.048 6.752 33.6 11.52 32.768 16.256C31.936 20.992 30.752 25.664 29.216 30.272C28.704 30.016 28.192 29.792 27.68 29.6C27.232 29.408 26.752 29.216 26.24 29.024C26.944 28.768 27.648 28.544 28.352 28.352C29.12 28.096 29.856 27.904 30.56 27.776C32.096 27.392 33.632 27.104 35.168 26.912C36.768 26.656 38.336 26.464 39.872 26.336C41.408 26.208 42.912 26.144 44.384 26.144C45.92 26.144 47.456 26.208 48.992 26.336C50.464 26.464 51.936 26.688 53.408 27.008C54.88 27.264 56.352 27.648 57.824 28.16C58.912 28.544 60 29.088 61.088 29.792C62.176 30.432 63.104 31.232 63.872 32.192C64.576 33.152 65.056 34.24 65.312 35.456C65.632 36.608 65.728 37.792 65.6 39.008C65.344 40.928 64.768 42.752 63.872 44.48C63.04 46.208 62.08 47.872 60.992 49.472C61.248 49.088 61.408 48.832 61.472 48.704C60.448 50.368 59.2 51.84 57.728 53.12C56.32 54.4 54.784 55.552 53.12 56.576C51.456 57.536 49.696 58.4 47.84 59.168C46.048 59.872 44.256 60.448 42.464 60.896C40.608 61.408 38.688 61.792 36.704 62.048C34.784 62.24 32.864 62.368 30.944 62.432C29.088 62.56 27.232 62.592 25.376 62.528C23.52 62.464 21.664 62.304 19.808 62.048C18.016 61.856 16.224 61.6 14.432 61.28C12.704 60.896 10.976 60.448 9.248 59.936C7.968 59.488 6.72 58.976 5.504 58.4C4.224 57.76 3.04 56.992 1.952 56.096C1.696 55.904 1.696 55.584 1.952 55.136C2.208 54.624 2.4 54.304 2.528 54.176C2.912 53.664 3.36 53.216 3.872 52.832C4.384 52.384 4.896 52 5.408 51.68C5.92 51.36 6.464 51.072 7.04 50.816C7.616 50.496 8.224 50.272 8.864 50.144C9.44 50.016 9.984 50.048 10.496 50.24C10.56 50.304 10.624 50.368 10.688 50.432C10.752 50.432 10.816 50.464 10.88 50.528C10.944 50.592 10.976 50.624 10.976 50.624C11.04 50.624 11.104 50.656 11.168 50.72C11.104 50.656 10.944 50.56 10.688 50.432C11.584 51.136 12.512 51.712 13.472 52.16C14.432 52.608 15.456 52.992 16.544 53.312C17.824 53.824 19.136 54.24 20.48 54.56C21.824 54.816 23.168 55.072 24.512 55.328C24.32 55.264 24.096 55.232 23.84 55.232C26.72 55.68 29.632 55.936 32.576 56C35.584 56.064 38.56 55.936 41.504 55.616C41.376 55.68 41.216 55.712 41.024 55.712C40.896 55.712 40.768 55.744 40.64 55.808C41.024 55.744 41.408 55.712 41.792 55.712C42.176 55.648 42.56 55.552 42.944 55.424C43.84 55.296 44.704 55.168 45.536 55.04C46.368 54.848 47.232 54.624 48.128 54.368C48.256 54.304 48.256 54.304 48.128 54.368C48.064 54.368 47.936 54.4 47.744 54.464C47.616 54.528 47.488 54.56 47.36 54.56C47.296 54.56 47.36 54.528 47.552 54.464H47.84C48.096 54.336 48.288 54.272 48.416 54.272C48.608 54.144 48.8 54.08 48.992 54.08C49.184 54.016 49.344 53.952 49.472 53.888C49.664 53.76 49.856 53.696 50.048 53.696C50.24 53.632 50.432 53.536 50.624 53.408C50.688 53.408 50.752 53.376 50.816 53.312C50.688 53.44 50.528 53.536 50.336 53.6C50.144 53.6 49.984 53.664 49.856 53.792C49.92 53.728 49.952 53.696 49.952 53.696C50.016 53.696 50.08 53.664 50.144 53.6C50.208 53.6 50.368 53.536 50.624 53.408C50.816 53.28 50.976 53.184 51.104 53.12C51.296 53.056 51.488 52.96 51.68 52.832C51.872 52.704 51.904 52.672 51.776 52.736C51.712 52.8 51.584 52.896 51.392 53.024C51.2 53.152 51.04 53.248 50.912 53.312C50.784 53.376 50.816 53.344 51.008 53.216C51.072 53.152 51.136 53.12 51.2 53.12C51.264 53.12 51.36 53.088 51.488 53.024C51.552 52.896 51.712 52.768 51.968 52.64C52.032 52.64 52.064 52.64 52.064 52.64C52.064 52.576 52.096 52.544 52.16 52.544C52.352 52.416 52.48 52.32 52.544 52.256C52.608 52.192 52.192 52.48 51.296 53.12C51.68 52.864 51.936 52.672 52.064 52.544C52.192 52.416 52.288 52.352 52.352 52.352C52.544 52.224 52.64 52.128 52.64 52.064C52.704 52 52.384 52.288 51.68 52.928L51.968 52.64L52.736 51.872C52.416 52.256 52.192 52.512 52.064 52.64C52 52.704 52 52.704 52.064 52.64C52.128 52.512 52.224 52.384 52.352 52.256C52.48 52.128 52.576 52 52.64 51.872C52.768 51.744 52.96 51.488 53.216 51.104C52.96 51.488 52.8 51.744 52.736 51.872C52.864 51.616 53.024 51.36 53.216 51.104C53.408 50.848 53.568 50.592 53.696 50.336C53.632 50.464 53.472 50.72 53.216 51.104C53.792 50.144 54.336 49.184 54.848 48.224C55.36 47.2 55.776 46.144 56.096 45.056C56.032 45.184 56 45.312 56 45.44C56 45.504 55.968 45.6 55.904 45.728C56.16 44.832 56.32 43.968 56.384 43.136C56.512 42.24 56.48 41.344 56.288 40.448C56.288 40.576 56.288 40.672 56.288 40.736C56.352 40.8 56.384 40.896 56.384 41.024C56.192 40 55.808 39.104 55.232 38.336C54.72 37.504 54.08 36.8 53.312 36.224C53.376 36.288 53.44 36.352 53.504 36.416C53.568 36.416 53.632 36.448 53.696 36.512C52.416 35.488 50.976 34.752 49.376 34.304C47.84 33.792 46.272 33.408 44.672 33.152C44.992 33.152 45.216 33.184 45.344 33.248C43.04 32.864 40.704 32.672 38.336 32.672C35.968 32.672 33.632 32.8 31.328 33.056C31.456 33.056 31.584 33.056 31.712 33.056C31.904 32.992 32.064 32.96 32.192 32.96C30.528 33.152 28.768 33.44 26.912 33.824C26.528 33.888 26.144 33.952 25.76 34.016C25.376 34.08 24.992 34.176 24.608 34.304C24.48 34.368 24.384 34.4 24.32 34.4C24.256 34.4 24.16 34.432 24.032 34.496C23.84 34.56 23.776 34.592 23.84 34.592C23.968 34.528 24.096 34.464 24.224 34.4C24.416 34.336 24.576 34.304 24.704 34.304C24.832 34.24 24.832 34.24 24.704 34.304C24.64 34.304 24.576 34.336 24.512 34.4C24.256 34.464 23.936 34.56 23.552 34.688C23.104 34.816 22.624 34.944 22.112 35.072C21.664 35.136 21.248 35.104 20.864 34.976C20.48 34.848 20.288 34.656 20.288 34.4C20.288 34.08 20.352 33.76 20.48 33.44C20.608 32.928 20.736 32.48 20.864 32.096C21.056 31.648 21.216 31.168 21.344 30.656C21.28 30.784 21.248 30.912 21.248 31.04C21.248 31.104 21.216 31.2 21.152 31.328C22.368 27.296 23.296 23.2 23.936 19.04C24.576 14.88 24.896 10.688 24.896 6.464ZM2.432 22.688C2.176 22.816 1.824 22.88 1.376 22.88C0.927999 22.816 0.608 22.624 0.416 22.304C0.224 21.984 0.224 21.632 0.416 21.248C0.608 20.864 0.799999 20.576 0.991999 20.384C1.76 19.36 2.72 18.528 3.872 17.888C4.96 17.184 6.112 16.672 7.328 16.352C12.768 14.816 18.272 13.632 23.84 12.8C29.408 11.968 35.008 11.2 40.64 10.496C46.144 9.792 51.616 9.12 57.056 8.48C62.496 7.84 67.936 6.88 73.376 5.6C73.696 5.536 74.048 5.504 74.432 5.504C74.88 5.504 75.2 5.664 75.392 5.984C75.584 6.432 75.552 6.848 75.296 7.232C75.168 7.488 75.072 7.744 75.008 8C74.944 8.256 74.848 8.54399 74.72 8.86399C74.784 8.736 74.816 8.64 74.816 8.576C74.816 8.448 74.848 8.32 74.912 8.192C74.592 9.152 74.336 10.112 74.144 11.072C74.016 12.032 73.792 12.992 73.472 13.952C73.28 14.528 73.088 15.136 72.896 15.776C72.768 16.352 72.544 16.896 72.224 17.408C71.392 18.88 70.496 20.096 69.536 21.056C69.024 21.568 68.48 22.016 67.904 22.4C67.328 22.784 66.752 23.136 66.176 23.456C65.664 23.648 65.12 23.84 64.544 24.032C64.032 24.224 63.52 24.32 63.008 24.32C62.688 24.32 62.368 24.256 62.048 24.128C61.792 24 61.696 23.744 61.76 23.36C61.824 22.848 61.984 22.432 62.24 22.112C62.56 21.728 62.88 21.376 63.2 21.056C63.2 21.056 63.264 20.992 63.392 20.864C63.264 20.992 63.168 21.12 63.104 21.248C63.04 21.312 62.944 21.408 62.816 21.536C62.816 21.472 62.88 21.376 63.008 21.248C63.136 21.12 63.264 20.928 63.392 20.672C63.328 20.8 63.168 21.056 62.912 21.44C63.232 20.928 63.52 20.384 63.776 19.808C64.032 19.168 64.256 18.528 64.448 17.888C64.384 18.016 64.352 18.144 64.352 18.272C64.352 18.336 64.32 18.432 64.256 18.56C64.448 17.856 64.608 17.184 64.736 16.544C64.928 15.84 65.12 15.136 65.312 14.432C65.44 13.728 65.6 13.056 65.792 12.416C65.984 11.712 66.24 11.04 66.56 10.4C66.88 10.656 67.2 10.912 67.52 11.168C67.84 11.424 68.16 11.68 68.48 11.936C63.168 13.152 57.856 14.08 52.544 14.72C47.232 15.36 41.856 16.032 36.416 16.736C30.656 17.44 24.96 18.208 19.328 19.04C13.696 19.872 8.064 21.088 2.432 22.688Z" fill="#13F2C9"/>
</svg>
