<svg width="45" height="45" viewBox="0 0 45 45" fill="none" xmlns="http://www.w3.org/2000/svg">
<path d="M22.5 45C34.9264 45 45 34.9264 45 22.5C45 10.0736 34.9264 0 22.5 0C10.0736 0 0 10.0736 0 22.5C0 34.9264 10.0736 45 22.5 45Z" fill="url(#paint0_linear_309_1059)"/>
<path d="M15.2304 24.1448L17.8999 31.5334C17.8999 31.5334 18.2336 32.2247 18.591 32.2247C18.9484 32.2247 24.2638 26.6949 24.2638 26.6949L30.1748 15.2781L15.3257 22.2375L15.2304 24.1448Z" fill="#C8DAEA"/>
<path d="M18.7699 26.0396L18.2574 31.4857C18.2574 31.4857 18.0429 33.1545 19.7113 31.4857C21.3797 29.817 22.9766 28.5302 22.9766 28.5302" fill="#A9C6D8"/>
<path d="M15.2786 24.4084L9.7875 22.6193C9.7875 22.6193 9.13125 22.353 9.34256 21.7493C9.38606 21.6248 9.47381 21.5188 9.73631 21.3368C10.953 20.4887 32.2562 12.8317 32.2562 12.8317C32.2562 12.8317 32.8577 12.6291 33.2124 12.7639C33.3002 12.791 33.3792 12.841 33.4413 12.9087C33.5034 12.9764 33.5464 13.0594 33.5659 13.1492C33.6042 13.3077 33.6202 13.4709 33.6135 13.6339C33.6118 13.7749 33.5947 13.9056 33.5818 14.1105C33.4521 16.2039 29.5693 31.8279 29.5693 31.8279C29.5693 31.8279 29.337 32.7422 28.5047 32.7735C28.3001 32.7801 28.0964 32.7455 27.9055 32.6716C27.7146 32.5978 27.5406 32.4863 27.3938 32.3438C25.7604 30.9388 20.1152 27.1449 18.8678 26.3106C18.8396 26.2914 18.8159 26.2664 18.7983 26.2373C18.7806 26.2082 18.7694 26.1756 18.7654 26.1418C18.7479 26.0539 18.8436 25.9449 18.8436 25.9449C18.8436 25.9449 28.6734 17.2074 28.935 16.2902C28.9553 16.2191 28.8788 16.1841 28.776 16.2152C28.1231 16.4554 16.8053 23.6027 15.5561 24.3915C15.4662 24.4187 15.3712 24.4245 15.2786 24.4084Z" fill="white"/>
<defs>
<linearGradient id="paint0_linear_309_1059" x1="22.5" y1="45" x2="22.5" y2="0" gradientUnits="userSpaceOnUse">
<stop stop-color="#D21D1D"/>
<stop offset="1" stop-color="#E33838"/>
</linearGradient>
</defs>
</svg>
