<svg width="273" height="85" viewBox="0 0 273 85" fill="none" xmlns="http://www.w3.org/2000/svg">
<path d="M48.48 7.84C48.6507 7.84 48.8 7.904 48.928 8.032C49.0987 8.11733 49.184 8.288 49.184 8.544C49.1413 8.88533 49.0347 9.184 48.864 9.44C48.6933 9.696 48.5227 9.93066 48.352 10.144C47.9253 10.6987 47.456 11.1893 46.944 11.616C46.432 12 45.8773 12.256 45.28 12.384C44.9387 12.4693 44.704 12.5333 44.576 12.576C44.5333 12.6187 44.4907 12.64 44.448 12.64C44.4053 12.64 44.3627 12.6613 44.32 12.704L43.936 12.896C43.8507 12.9387 43.7867 12.9813 43.744 13.024C43.744 13.024 43.7013 13.0453 43.616 13.088C43.616 13.088 43.5947 13.1093 43.552 13.152C43.4667 13.1947 43.3387 13.3013 43.168 13.472H43.104C42.9333 13.6427 42.8053 13.792 42.72 13.92C42.336 14.2187 41.9947 14.56 41.696 14.944C41.6107 15.0293 41.5467 15.1147 41.504 15.2C41.4187 15.2853 41.3547 15.3493 41.312 15.392C41.2693 15.392 41.2267 15.4347 41.184 15.52C40.288 16.544 39.3707 17.5253 38.432 18.464C37.792 19.104 37.1307 19.5733 36.448 19.872C36.2347 19.9573 35.9787 20.0427 35.68 20.128C35.424 20.2133 35.1893 20.192 34.976 20.064C34.7627 19.9787 34.656 19.8293 34.656 19.616C34.656 19.4027 34.6987 19.1893 34.784 18.976C34.912 18.6347 35.0827 18.3147 35.296 18.016C35.552 17.7173 35.7867 17.4613 36 17.248C36.2133 17.0347 36.4053 16.8213 36.576 16.608C36.7893 16.3947 37.0027 16.1813 37.216 15.968C37.3013 15.8827 37.3867 15.776 37.472 15.648C37.6 15.52 37.7067 15.4133 37.792 15.328L37.92 15.2C38.3467 14.7307 38.752 14.2613 39.136 13.792C39.5627 13.3227 40.0107 12.8747 40.48 12.448C39.1573 12.448 37.8347 12.448 36.512 12.448C35.232 12.4053 33.9307 12.384 32.608 12.384C30.6027 12.2987 28.5973 12.2987 26.592 12.384C26.5067 12.64 26.4427 12.896 26.4 13.152C26.3573 13.3653 26.3147 13.6 26.272 13.856C26.016 15.2213 25.6747 16.992 25.248 19.168C24.864 21.3013 24.4373 23.648 23.968 26.208C23.5413 28.768 23.072 31.4347 22.56 34.208C22.048 36.9387 21.5573 39.584 21.088 42.144C20.6187 44.704 20.1707 47.072 19.744 49.248C19.3173 51.3813 18.9547 53.1093 18.656 54.432C18.6133 54.7733 18.4853 55.1147 18.272 55.456C18.1013 55.712 17.952 55.904 17.824 56.032C17.568 56.3733 17.2693 56.6933 16.928 56.992C16.6293 57.248 16.3093 57.4827 15.968 57.696C15.712 57.8667 15.4347 58.016 15.136 58.144C14.8373 58.272 14.5387 58.336 14.24 58.336C14.112 58.336 13.9413 58.2933 13.728 58.208C13.5147 58.08 13.4507 57.888 13.536 57.632C13.92 56.0107 14.2613 54.3893 14.56 52.768C14.8587 51.104 15.1573 49.44 15.456 47.776C15.6267 46.7093 15.8827 45.2587 16.224 43.424C16.5653 41.5467 16.928 39.4773 17.312 37.216C17.7387 34.9547 18.1867 32.5867 18.656 30.112C19.1253 27.6373 19.5733 25.2693 20 23.008C20.4267 20.7467 20.832 18.6987 21.216 16.864C21.6 14.9867 21.92 13.536 22.176 12.512C20.512 12.5973 18.848 12.704 17.184 12.832C15.52 12.96 13.856 13.152 12.192 13.408C11.552 13.4933 10.912 13.6 10.272 13.728C9.67467 13.8133 9.056 13.92 8.416 14.048C8.62933 14.304 8.84267 14.5813 9.056 14.88C9.26933 15.136 9.504 15.3707 9.76 15.584C10.2293 16.0533 10.7413 16.416 11.296 16.672C11.5093 16.7573 11.616 16.928 11.616 17.184C11.616 17.3973 11.5733 17.6107 11.488 17.824C11.36 18.1653 11.168 18.4853 10.912 18.784C10.6987 19.04 10.4853 19.296 10.272 19.552C9.632 20.192 8.97067 20.6613 8.288 20.96C8.07467 21.0453 7.81867 21.1307 7.52 21.216C7.264 21.2587 7.02933 21.2373 6.816 21.152C5.87733 20.768 5.088 20.128 4.448 19.232C3.808 18.336 3.12533 17.5253 2.4 16.8C1.93067 16.2453 1.41867 15.8827 0.864 15.712C0.650667 15.6267 0.544 15.4773 0.544 15.264C0.501333 15.0507 0.544 14.816 0.672 14.56C0.757333 14.304 0.864 14.0693 0.992 13.856C1.12 13.6427 1.22667 13.4933 1.312 13.408C2.29333 12.2987 3.33867 11.552 4.448 11.168C4.78933 11.0827 5.13067 10.9973 5.472 10.912C5.856 10.784 6.24 10.6773 6.624 10.592C9.39733 9.86666 12.1707 9.312 14.944 8.928C17.7173 8.50133 20.512 8.18133 23.328 7.968C23.4133 7.79733 23.4773 7.62666 23.52 7.456C23.5627 7.28533 23.6267 7.09333 23.712 6.88C23.7973 6.53866 23.968 6.21866 24.224 5.92C24.48 5.62133 24.7147 5.36533 24.928 5.152C25.2267 4.85333 25.5253 4.59733 25.824 4.384C26.1653 4.128 26.528 3.91466 26.912 3.744C27.1253 3.65866 27.36 3.57333 27.616 3.488C27.9147 3.40266 28.1707 3.424 28.384 3.552C28.5973 3.63733 28.704 3.78666 28.704 4C28.704 4.21333 28.6613 4.42666 28.576 4.64C28.4053 5.152 28.2347 5.68533 28.064 6.24C27.936 6.752 27.808 7.264 27.68 7.776H27.744C31.2 7.69066 34.656 7.69066 38.112 7.776C41.568 7.81866 45.024 7.84 48.48 7.84ZM40.762 42.272C40.9327 42.4853 40.9327 42.7413 40.762 43.04C40.5913 43.296 40.4633 43.488 40.378 43.616C39.866 44.256 39.2473 44.8107 38.522 45.28C38.1807 45.4933 37.7967 45.6853 37.37 45.856C36.986 46.0267 36.5807 46.1547 36.154 46.24C35.9407 46.3253 35.706 46.368 35.45 46.368C35.194 46.3253 34.9807 46.1973 34.81 45.984C34.6393 45.7707 34.4687 45.6 34.298 45.472C34.1273 45.3013 33.9353 45.1093 33.722 44.896C33.7647 44.9813 33.8073 45.0453 33.85 45.088C33.8927 45.088 33.9353 45.1093 33.978 45.152C33.21 44.5547 32.3567 44.1707 31.418 44C31.5033 44 31.5673 44.0213 31.61 44.064C31.6953 44.064 31.7807 44.064 31.866 44.064C31.3967 43.9787 30.906 43.9787 30.394 44.064C30.522 44.0213 30.7353 44 31.034 44C30.906 44 30.778 44.0213 30.65 44.064C30.5647 44.064 30.458 44.064 30.33 44.064C30.2873 44.1067 30.2233 44.128 30.138 44.128C30.4793 44.0427 30.6927 44 30.778 44C30.8633 43.9573 30.842 43.9573 30.714 44C30.6287 44 30.5647 44.0213 30.522 44.064C30.522 44.064 30.4793 44.064 30.394 44.064C30.3513 44.1067 30.2873 44.128 30.202 44.128C30.5433 44 30.7567 43.9147 30.842 43.872C30.97 43.7867 30.97 43.7867 30.842 43.872C30.7567 43.9147 30.6927 43.9573 30.65 44C30.65 44 30.6073 44.0213 30.522 44.064C30.522 44.064 30.4793 44.0853 30.394 44.128C30.7353 43.9147 30.97 43.7867 31.098 43.744C31.226 43.6587 31.2047 43.6587 31.034 43.744C30.9913 43.7867 30.9487 43.8293 30.906 43.872C30.8633 43.872 30.8207 43.8933 30.778 43.936C30.65 44.0213 30.6073 44.0427 30.65 44C30.7353 43.9147 30.842 43.8293 30.97 43.744C31.098 43.6587 31.2047 43.5947 31.29 43.552C31.3753 43.5093 31.354 43.5307 31.226 43.616C31.1833 43.6587 31.1407 43.7013 31.098 43.744C31.0553 43.744 31.0127 43.7653 30.97 43.808C30.8847 43.8933 30.8633 43.9147 30.906 43.872C30.9913 43.7867 31.0767 43.7013 31.162 43.616C31.29 43.5307 31.3753 43.4667 31.418 43.424C31.5033 43.3387 31.5033 43.3387 31.418 43.424L31.354 43.488L31.098 43.744C31.098 43.744 31.0553 43.7867 30.97 43.872C31.1833 43.6587 31.3113 43.5093 31.354 43.424C31.4393 43.3387 31.4393 43.36 31.354 43.488C31.2687 43.5733 31.2047 43.6587 31.162 43.744C31.0767 43.8293 31.0127 43.9147 30.97 44C30.9273 44.0853 30.8633 44.1707 30.778 44.256C30.8207 44.1707 30.8633 44.0853 30.906 44C30.9487 43.9147 31.0127 43.8293 31.098 43.744C30.9273 44 30.778 44.2773 30.65 44.576C30.522 44.832 30.4153 45.1307 30.33 45.472C30.33 45.344 30.3727 45.1947 30.458 45.024C30.1167 46.1333 30.074 47.3707 30.33 48.736C30.33 48.6507 30.3087 48.5867 30.266 48.544C30.266 48.5013 30.266 48.4373 30.266 48.352C30.522 49.5893 31.0553 50.784 31.866 51.936C32.2927 52.6613 32.8047 53.2373 33.402 53.664C33.3593 53.6213 33.3167 53.6 33.274 53.6C33.2313 53.5573 33.1887 53.5147 33.146 53.472C33.9567 54.0693 34.81 54.432 35.706 54.56C35.5353 54.56 35.386 54.5387 35.258 54.496C35.77 54.624 36.346 54.6453 36.986 54.56C36.73 54.56 36.538 54.5813 36.41 54.624C36.6233 54.5813 36.8153 54.56 36.986 54.56C37.1567 54.5173 37.3273 54.4747 37.498 54.432C37.5407 54.3893 37.6047 54.368 37.69 54.368C37.1353 54.5387 36.9433 54.5813 37.114 54.496C37.1993 54.496 37.242 54.496 37.242 54.496C37.2847 54.4533 37.3273 54.432 37.37 54.432C37.626 54.3467 37.7967 54.2827 37.882 54.24C37.9247 54.24 37.946 54.24 37.946 54.24C37.9887 54.1973 38.0313 54.176 38.074 54.176C37.7327 54.3467 37.498 54.4533 37.37 54.496C37.2847 54.5387 37.306 54.5173 37.434 54.432H37.498C37.5407 54.3893 37.562 54.368 37.562 54.368C37.6047 54.368 37.6473 54.3467 37.69 54.304C37.946 54.2187 38.1167 54.1333 38.202 54.048C38.2447 54.048 38.266 54.048 38.266 54.048C38.3087 54.0053 38.3513 53.984 38.394 53.984C37.754 54.3253 37.4553 54.496 37.498 54.496C37.5407 54.496 37.626 54.4533 37.754 54.368C37.8393 54.2827 37.9247 54.2187 38.01 54.176C38.1807 54.0907 38.33 53.984 38.458 53.856C38.5007 53.856 38.522 53.856 38.522 53.856C38.5647 53.8133 38.6073 53.792 38.65 53.792C38.7353 53.7493 38.7353 53.7493 38.65 53.792C38.5647 53.8347 38.458 53.8987 38.33 53.984C38.202 54.0693 38.0953 54.1547 38.01 54.24C37.9247 54.2827 37.9247 54.2613 38.01 54.176C38.1807 54.0907 38.266 54.048 38.266 54.048C38.394 53.9627 38.5433 53.8347 38.714 53.664C38.7993 53.6213 38.906 53.536 39.034 53.408C39.1193 53.3227 39.1193 53.3227 39.034 53.408C38.9913 53.4507 38.906 53.5147 38.778 53.6C38.6927 53.6853 38.6073 53.7707 38.522 53.856C38.4793 53.8987 38.522 53.856 38.65 53.728C38.7353 53.6427 38.7993 53.5787 38.842 53.536C38.9273 53.4933 39.0127 53.4293 39.098 53.344L39.546 52.896C39.5887 52.768 39.674 52.6827 39.802 52.64C39.8873 52.5547 39.9087 52.5333 39.866 52.576C39.8233 52.6187 39.7593 52.6827 39.674 52.768C39.5887 52.8533 39.5247 52.9387 39.482 53.024C39.4393 53.0667 39.4607 53.0453 39.546 52.96C39.802 52.6187 40.058 52.2773 40.314 51.936C40.6127 51.5947 40.8687 51.232 41.082 50.848C40.9113 51.104 40.8047 51.2747 40.762 51.36C41.1033 50.848 41.402 50.3147 41.658 49.76C41.914 49.1627 42.1487 48.544 42.362 47.904C42.2767 48.16 42.234 48.3307 42.234 48.416C42.7033 46.7093 42.7887 45.088 42.49 43.552C42.5327 43.6373 42.554 43.7653 42.554 43.936C42.3407 42.9547 41.9567 42.0587 41.402 41.248C40.89 40.4373 40.25 39.7333 39.482 39.136C39.5247 39.1787 39.5673 39.2213 39.61 39.264C39.6527 39.264 39.6953 39.2853 39.738 39.328C39.0553 38.816 38.3087 38.368 37.498 37.984C36.73 37.6 35.9407 37.28 35.13 37.024C34.874 36.9387 34.746 36.7893 34.746 36.576C34.746 36.3627 34.7887 36.1707 34.874 36C35.0447 35.6587 35.258 35.36 35.514 35.104C35.77 34.8053 36.0473 34.5493 36.346 34.336C36.6873 34.08 37.05 33.8453 37.434 33.632C37.8607 33.376 38.2873 33.184 38.714 33.056C39.0127 32.9707 39.3113 32.9067 39.61 32.864C39.9087 32.7787 40.2073 32.7787 40.506 32.864C42.426 33.4613 44.1113 34.336 45.562 35.488C46.97 36.64 47.93 38.048 48.442 39.712C48.8687 41.3333 48.89 43.0187 48.506 44.768C47.994 46.816 47.098 48.7147 45.818 50.464C44.538 52.2133 43.066 53.728 41.402 55.008C40.3353 55.8187 39.2047 56.544 38.01 57.184C36.858 57.7813 35.642 58.2507 34.362 58.592C33.5087 58.8053 32.634 58.9333 31.738 58.976C30.8847 58.976 30.0527 58.8053 29.242 58.464C28.4313 58.1653 27.7273 57.7173 27.13 57.12C26.5327 56.5227 25.9993 55.8613 25.53 55.136C25.146 54.4533 24.826 53.7493 24.57 53.024C24.314 52.2987 24.1433 51.552 24.058 50.784C23.93 49.504 24.1433 48.2027 24.698 46.88C25.0393 46.0267 25.4873 45.28 26.042 44.64C26.6393 43.9573 27.2793 43.3173 27.962 42.72C28.7727 42.0373 29.6473 41.4613 30.586 40.992C31.5673 40.48 32.57 40.1173 33.594 39.904C34.234 39.7333 34.8953 39.6693 35.578 39.712C36.3033 39.712 36.986 39.8187 37.626 40.032C38.2233 40.2453 38.778 40.5653 39.29 40.992C39.8447 41.376 40.3353 41.8027 40.762 42.272ZM76.566 51.552C76.6513 52.32 76.6727 53.1093 76.63 53.92C76.5873 54.688 76.5233 55.4773 76.438 56.288C76.1393 58.4213 75.7127 60.4907 75.158 62.496C74.6033 64.544 73.9633 66.5707 73.238 68.576C72.8967 69.6853 72.5127 70.752 72.086 71.776C71.702 72.8427 71.2967 73.9093 70.87 74.976C70.6993 75.4453 70.5287 75.872 70.358 76.256C70.1873 76.6827 70.0167 77.1093 69.846 77.536C70.4433 77.536 70.742 77.7707 70.742 78.24C70.6993 78.5813 70.55 78.9867 70.294 79.456C69.9527 79.968 69.6113 80.4373 69.27 80.864C69.0567 81.0773 68.8433 81.2907 68.63 81.504C68.4593 81.76 68.2673 81.9947 68.054 82.208C67.542 82.6347 67.0087 83.04 66.454 83.424C65.8993 83.8507 65.2807 84.1493 64.598 84.32C64.2993 84.4053 63.9153 84.512 63.446 84.64C63.0193 84.768 62.678 84.6613 62.422 84.32C62.3367 84.1067 62.3153 83.9147 62.358 83.744C62.4433 83.488 62.5287 83.232 62.614 82.976C62.6993 82.7627 62.7847 82.5493 62.87 82.336C63.0833 81.9093 63.254 81.4827 63.382 81.056C63.5527 80.6293 63.7447 80.2027 63.958 79.776C64.8113 77.6853 65.622 75.5947 66.39 73.504C67.158 71.456 67.862 69.344 68.502 67.168C68.7153 66.5707 68.886 65.9733 69.014 65.376C69.1847 64.7787 69.3553 64.16 69.526 63.52C69.7393 62.624 69.91 61.728 70.038 60.832C70.2087 59.936 70.3367 59.0187 70.422 58.08C70.5073 57.3547 70.5287 56.6293 70.486 55.904C70.486 55.1787 70.422 54.4533 70.294 53.728C69.9953 52.4053 69.398 51.3387 68.502 50.528C67.7767 50.1013 67.094 49.824 66.454 49.696C65.7287 49.6533 65.0247 49.6533 64.342 49.696C63.9153 49.7387 63.51 49.8027 63.126 49.888C62.742 49.9733 62.358 50.0587 61.974 50.144C61.9313 50.144 61.91 50.1653 61.91 50.208C61.782 50.2507 61.6327 50.2933 61.462 50.336C61.334 50.336 61.206 50.3787 61.078 50.464C60.4807 50.6347 59.9473 50.8267 59.478 51.04C59.3073 51.0827 59.0513 51.1893 58.71 51.36C58.6247 51.4027 58.5607 51.424 58.518 51.424C58.4753 51.424 58.4327 51.4453 58.39 51.488C58.0913 51.616 57.814 51.744 57.558 51.872C57.302 52 57.0247 52.128 56.726 52.256C56.47 52.5547 56.214 52.8533 55.958 53.152C55.7447 53.4507 55.51 53.7707 55.254 54.112C55.1687 56.16 55.1047 58.1653 55.062 60.128C55.0193 62.1333 54.998 64.16 54.998 66.208C54.998 66.464 54.8913 66.72 54.678 66.976C54.4647 67.2747 54.2513 67.5093 54.038 67.68C53.6967 68.0213 53.334 68.32 52.95 68.576C52.6087 68.832 52.2247 69.0667 51.798 69.28C51.67 69.3653 51.4353 69.4507 51.094 69.536C50.7953 69.664 50.4753 69.7493 50.134 69.792C49.7927 69.8773 49.494 69.8773 49.238 69.792C48.982 69.7493 48.854 69.5573 48.854 69.216C48.854 64.4373 48.982 59.6373 49.238 54.816C49.1953 54.7307 49.1953 54.6667 49.238 54.624C49.238 54.5387 49.238 54.4533 49.238 54.368C49.2807 54.1973 49.302 54.0267 49.302 53.856C49.302 53.6853 49.302 53.4933 49.302 53.28C49.558 49.1413 49.8567 45.024 50.198 40.928C50.582 36.832 51.0087 32.7147 51.478 28.576C51.9047 24.4373 52.3313 20.3413 52.758 16.288C53.2273 12.192 53.6753 8.07466 54.102 3.936C54.1447 3.63733 54.2513 3.36 54.422 3.104C54.6353 2.848 54.8487 2.61333 55.062 2.4C55.6593 1.80266 56.3847 1.29066 57.238 0.863998C57.5793 0.693331 57.9207 0.543997 58.262 0.415997C58.646 0.287998 59.0087 0.223999 59.35 0.223999C59.5633 0.223999 59.7553 0.287998 59.926 0.415997C60.1393 0.501331 60.2247 0.671998 60.182 0.927998C59.9687 3.488 59.7127 6.06933 59.414 8.672C59.158 11.232 58.8807 13.792 58.582 16.352C58.1127 20.4907 57.6647 24.5867 57.238 28.64C56.8113 32.6933 56.4273 36.7893 56.086 40.928C56.0007 42.1653 55.9153 43.3813 55.83 44.576C55.7447 45.7707 55.6593 46.9867 55.574 48.224L60.374 42.08C60.9713 41.2693 61.5687 40.48 62.166 39.712C62.806 38.944 63.4033 38.1333 63.958 37.28C64.1713 36.9387 64.4487 36.64 64.79 36.384C65.174 36.0853 65.5367 35.8293 65.878 35.616C66.2193 35.4027 66.582 35.2107 66.966 35.04C67.35 34.8267 67.7553 34.6773 68.182 34.592C68.3953 34.5493 68.63 34.528 68.886 34.528C69.1847 34.528 69.4193 34.6347 69.59 34.848C69.718 35.0613 69.6967 35.296 69.526 35.552C69.398 35.808 69.2913 36.0213 69.206 36.192C68.566 37.1307 67.9047 38.048 67.222 38.944C66.582 39.7973 65.8993 40.6507 65.174 41.504C64.406 42.528 63.6167 43.552 62.806 44.576C62.038 45.6 61.2487 46.6027 60.438 47.584C61.4193 47.1573 62.422 46.7733 63.446 46.432C64.47 46.0907 65.5153 45.8133 66.582 45.6C67.3073 45.472 68.0753 45.3867 68.886 45.344C69.7393 45.2587 70.55 45.28 71.318 45.408C72.086 45.536 72.8113 45.792 73.494 46.176C74.2193 46.5173 74.8167 47.0293 75.286 47.712C75.67 48.2667 75.9473 48.8853 76.118 49.568C76.3313 50.208 76.4807 50.8693 76.566 51.552ZM61.782 50.208H61.846C61.59 50.2933 61.4833 50.336 61.526 50.336C61.6113 50.2933 61.6967 50.2507 61.782 50.208ZM93.442 46.88C92.162 47.6053 90.8607 48.288 89.538 48.928C88.258 49.5253 86.9353 50.1013 85.57 50.656L84.61 51.04C85.0793 51.7227 85.634 52.32 86.274 52.832C87.042 53.4293 87.874 53.8987 88.77 54.24C89.7087 54.5387 90.6687 54.7947 91.65 55.008C92.8447 55.1787 94.018 55.264 95.17 55.264C96.3647 55.2213 97.5593 55.1573 98.754 55.072C98.8393 55.0293 98.9247 55.008 99.01 55.008C99.138 55.008 99.2447 54.9867 99.33 54.944C99.5433 54.944 99.778 54.944 100.034 54.944C100.333 54.9013 100.546 54.9867 100.674 55.2C100.845 55.4133 100.845 55.648 100.674 55.904C100.546 56.16 100.418 56.3733 100.29 56.544C99.778 57.184 99.1593 57.7387 98.434 58.208C98.0927 58.4213 97.7087 58.6133 97.282 58.784C96.898 58.9547 96.4927 59.0827 96.066 59.168C94.7433 59.3813 93.3993 59.5307 92.034 59.616C90.7113 59.6587 89.3673 59.5947 88.002 59.424C86.338 59.2107 84.6953 58.8053 83.074 58.208C81.4527 57.6107 80.1087 56.6293 79.042 55.264C78.274 54.2827 77.762 53.1733 77.506 51.936C77.25 50.656 77.2287 49.3973 77.442 48.16C77.7407 46.624 78.274 45.1947 79.042 43.872C79.8527 42.5067 80.8127 41.2907 81.922 40.224C83.3727 38.816 85.0367 37.6213 86.914 36.64C88.7913 35.6587 90.754 35.1253 92.802 35.04C94.5087 34.9547 96.1087 35.2747 97.602 36C99.0953 36.7253 100.461 37.664 101.698 38.816C101.826 39.1147 101.805 39.392 101.634 39.648C101.165 40.5013 100.589 41.2693 99.906 41.952C99.2233 42.6347 98.5193 43.2747 97.794 43.872C97.1113 44.4693 96.386 45.0027 95.618 45.472C94.8927 45.9413 94.1673 46.4107 93.442 46.88ZM86.594 39.776C86.5513 39.776 86.53 39.7973 86.53 39.84C86.53 39.84 86.5513 39.8187 86.594 39.776ZM83.842 44.192C83.458 45.6 83.3513 46.9653 83.522 48.288C83.65 48.2453 83.778 48.2027 83.906 48.16C84.034 48.1173 84.162 48.0747 84.29 48.032C84.8447 47.8187 85.3993 47.6053 85.954 47.392C86.5087 47.1787 87.0633 46.9653 87.618 46.752L88.002 46.56C88.13 46.56 88.2367 46.5173 88.322 46.432C88.6207 46.304 88.898 46.176 89.154 46.048C89.41 45.92 89.6873 45.792 89.986 45.664C90.5407 45.408 91.0953 45.1307 91.65 44.832C91.7353 44.7893 91.8207 44.7467 91.906 44.704C92.034 44.6613 92.1407 44.5973 92.226 44.512C92.3967 44.4267 92.5033 44.3627 92.546 44.32C92.802 44.192 93.0367 44.064 93.25 43.936C93.506 43.7653 93.7407 43.616 93.954 43.488C93.9967 43.4027 94.0393 43.36 94.082 43.36C94.1247 43.3173 94.1673 43.2747 94.21 43.232C94.338 43.1467 94.4447 43.0827 94.53 43.04C94.658 42.9547 94.7647 42.8693 94.85 42.784L94.978 42.656C95.0633 42.5707 95.1273 42.5067 95.17 42.464C95.2553 42.3787 95.3407 42.2933 95.426 42.208C95.3407 42.1227 95.234 42.0587 95.106 42.016C94.978 41.9307 94.8713 41.8453 94.786 41.76C93.2927 40.5227 91.6713 39.7547 89.922 39.456C89.5807 39.4133 89.2607 39.392 88.962 39.392C88.6633 39.3493 88.3433 39.3493 88.002 39.392C87.9167 39.4347 87.81 39.456 87.682 39.456C87.5967 39.456 87.5113 39.4773 87.426 39.52C87.298 39.52 87.2127 39.5413 87.17 39.584C87.0847 39.584 86.9567 39.6267 86.786 39.712H86.722C86.6367 39.7973 86.5727 39.84 86.53 39.84C86.4873 39.8827 86.4447 39.9253 86.402 39.968C86.3593 39.968 86.3167 39.9893 86.274 40.032C86.274 40.0747 86.2313 40.1387 86.146 40.224C86.0607 40.2667 85.9967 40.3093 85.954 40.352C85.954 40.3947 85.9113 40.4373 85.826 40.48C85.6553 40.6933 85.506 40.8853 85.378 41.056C85.25 41.2267 85.122 41.4187 84.994 41.632C84.482 42.3573 84.098 43.2107 83.842 44.192ZM124.473 33.888C124.772 34.4853 124.964 35.1467 125.049 35.872C125.134 36.5547 125.134 37.2373 125.049 37.92C124.964 38.8587 124.814 39.776 124.601 40.672C124.43 41.5253 124.196 42.3787 123.897 43.232C123.214 45.28 122.404 47.264 121.465 49.184C120.569 51.104 119.609 53.0027 118.585 54.88C116.366 58.72 113.956 62.5387 111.353 66.336C110.457 67.5733 109.54 68.8107 108.601 70.048C107.705 71.328 106.702 72.5227 105.593 73.632C104.91 74.272 104.164 74.784 103.353 75.168C103.012 75.3387 102.649 75.4667 102.265 75.552C101.924 75.68 101.582 75.744 101.241 75.744C101.028 75.744 100.836 75.7013 100.665 75.616C100.452 75.5307 100.366 75.36 100.409 75.104C100.452 74.8053 100.58 74.528 100.793 74.272C100.964 74.016 101.156 73.7813 101.369 73.568L101.689 73.248C101.774 73.1627 101.817 73.0987 101.817 73.056C102.03 72.8427 102.222 72.608 102.393 72.352C102.606 72.096 102.82 71.84 103.033 71.584C104.142 70.176 105.209 68.704 106.233 67.168C107.3 65.6747 108.324 64.16 109.305 62.624C109.988 61.6 110.628 60.576 111.225 59.552C111.865 58.4853 112.484 57.4187 113.081 56.352C114.062 54.5173 115.001 52.6613 115.897 50.784C116.793 48.9067 117.54 46.9653 118.137 44.96C118.478 43.936 118.734 42.8907 118.905 41.824C119.076 40.7573 119.054 39.6907 118.841 38.624C118.628 37.728 118.201 36.9813 117.561 36.384C117.092 36.0427 116.644 35.8293 116.217 35.744H115.769H115.705L115.641 35.808C115.556 35.8933 115.492 35.9573 115.449 36C115.406 36 115.342 36.0427 115.257 36.128C115.214 36.128 115.15 36.1707 115.065 36.256C114.852 36.4693 114.66 36.6613 114.489 36.832C114.318 36.96 114.148 37.1307 113.977 37.344C113.892 37.4293 113.785 37.536 113.657 37.664C113.572 37.7493 113.508 37.8347 113.465 37.92C113.337 37.9627 113.252 38.048 113.209 38.176C112.996 38.3893 112.804 38.624 112.633 38.88C112.462 39.0933 112.292 39.3067 112.121 39.52C111.524 40.288 110.926 41.1413 110.329 42.08C110.414 41.9947 110.457 41.9093 110.457 41.824C110.5 41.7387 110.564 41.6533 110.649 41.568C110.436 41.8667 110.244 42.1653 110.073 42.464C109.902 42.7627 109.753 43.0827 109.625 43.424C109.582 43.68 109.454 43.9787 109.241 44.32C109.198 45.5573 109.156 46.816 109.113 48.096C109.113 49.3333 109.07 50.592 108.985 51.872C108.942 52.512 108.9 53.152 108.857 53.792C108.857 54.432 108.793 55.072 108.665 55.712C108.665 55.84 108.644 55.9893 108.601 56.16C108.558 56.288 108.516 56.416 108.473 56.544C108.388 56.7573 108.26 56.9707 108.089 57.184C107.918 57.3547 107.748 57.5253 107.577 57.696C107.364 57.9093 107.129 58.1227 106.873 58.336C106.617 58.5067 106.382 58.656 106.169 58.784C105.956 58.912 105.678 59.0613 105.337 59.232C105.038 59.4027 104.761 59.5307 104.505 59.616C104.249 59.7013 103.865 59.7867 103.353 59.872C102.884 59.9573 102.542 59.8293 102.329 59.488C102.286 59.4027 102.265 59.3387 102.265 59.296C102.265 59.2107 102.244 59.1253 102.201 59.04C102.073 58.8267 102.094 58.5707 102.265 58.272C102.35 58.1867 102.393 58.1013 102.393 58.016C102.436 57.9307 102.5 57.8453 102.585 57.76C102.628 57.7173 102.649 57.696 102.649 57.696C102.649 57.6533 102.67 57.6107 102.713 57.568C102.798 56.7147 102.841 55.8827 102.841 55.072C102.884 54.2613 102.926 53.4293 102.969 52.576C103.012 51.424 103.033 50.2933 103.033 49.184C103.076 48.032 103.097 46.9013 103.097 45.792C103.14 43.8293 103.161 41.888 103.161 39.968C103.161 38.048 103.161 36.1067 103.161 34.144C103.161 33.8453 103.268 33.568 103.481 33.312C103.694 33.056 103.908 32.8213 104.121 32.608C104.761 31.968 105.508 31.456 106.361 31.072C106.489 31.0293 106.702 30.944 107.001 30.816C107.342 30.688 107.684 30.6027 108.025 30.56C108.366 30.4747 108.665 30.4747 108.921 30.56C109.177 30.6027 109.305 30.7947 109.305 31.136C109.305 32.2453 109.305 33.3547 109.305 34.464C109.305 35.5733 109.284 36.6827 109.241 37.792C109.796 37.2373 110.35 36.704 110.905 36.192C111.46 35.68 112.036 35.1893 112.633 34.72C113.401 34.1227 114.19 33.6107 115.001 33.184C115.812 32.7147 116.665 32.3093 117.561 31.968C118.201 31.7547 118.862 31.584 119.545 31.456C120.27 31.328 120.974 31.3707 121.657 31.584C122.254 31.7973 122.788 32.096 123.257 32.48C123.769 32.864 124.174 33.3333 124.473 33.888ZM115.257 36.128C115.257 36.0427 115.3 36 115.385 36C115.385 36 115.342 36.0427 115.257 36.128ZM101.881 73.056C101.838 73.056 101.817 73.0773 101.817 73.12C101.988 72.9067 102.052 72.8213 102.009 72.864C102.009 72.9067 101.966 72.9707 101.881 73.056ZM142.95 42.272C143.12 42.4853 143.12 42.7413 142.95 43.04C142.779 43.296 142.651 43.488 142.566 43.616C142.054 44.256 141.435 44.8107 140.71 45.28C140.368 45.4933 139.984 45.6853 139.558 45.856C139.174 46.0267 138.768 46.1547 138.342 46.24C138.128 46.3253 137.894 46.368 137.638 46.368C137.382 46.3253 137.168 46.1973 136.998 45.984C136.827 45.7707 136.656 45.6 136.486 45.472C136.315 45.3013 136.123 45.1093 135.91 44.896C135.952 44.9813 135.995 45.0453 136.038 45.088C136.08 45.088 136.123 45.1093 136.166 45.152C135.398 44.5547 134.544 44.1707 133.606 44C133.691 44 133.755 44.0213 133.798 44.064C133.883 44.064 133.968 44.064 134.054 44.064C133.584 43.9787 133.094 43.9787 132.582 44.064C132.71 44.0213 132.923 44 133.222 44C133.094 44 132.966 44.0213 132.838 44.064C132.752 44.064 132.646 44.064 132.518 44.064C132.475 44.1067 132.411 44.128 132.326 44.128C132.667 44.0427 132.88 44 132.966 44C133.051 43.9573 133.03 43.9573 132.902 44C132.816 44 132.752 44.0213 132.71 44.064C132.71 44.064 132.667 44.064 132.582 44.064C132.539 44.1067 132.475 44.128 132.39 44.128C132.731 44 132.944 43.9147 133.03 43.872C133.158 43.7867 133.158 43.7867 133.03 43.872C132.944 43.9147 132.88 43.9573 132.838 44C132.838 44 132.795 44.0213 132.71 44.064C132.71 44.064 132.667 44.0853 132.582 44.128C132.923 43.9147 133.158 43.7867 133.286 43.744C133.414 43.6587 133.392 43.6587 133.222 43.744C133.179 43.7867 133.136 43.8293 133.094 43.872C133.051 43.872 133.008 43.8933 132.966 43.936C132.838 44.0213 132.795 44.0427 132.838 44C132.923 43.9147 133.03 43.8293 133.158 43.744C133.286 43.6587 133.392 43.5947 133.478 43.552C133.563 43.5093 133.542 43.5307 133.414 43.616C133.371 43.6587 133.328 43.7013 133.286 43.744C133.243 43.744 133.2 43.7653 133.158 43.808C133.072 43.8933 133.051 43.9147 133.094 43.872C133.179 43.7867 133.264 43.7013 133.35 43.616C133.478 43.5307 133.563 43.4667 133.606 43.424C133.691 43.3387 133.691 43.3387 133.606 43.424L133.542 43.488L133.286 43.744C133.286 43.744 133.243 43.7867 133.158 43.872C133.371 43.6587 133.499 43.5093 133.542 43.424C133.627 43.3387 133.627 43.36 133.542 43.488C133.456 43.5733 133.392 43.6587 133.35 43.744C133.264 43.8293 133.2 43.9147 133.158 44C133.115 44.0853 133.051 44.1707 132.966 44.256C133.008 44.1707 133.051 44.0853 133.094 44C133.136 43.9147 133.2 43.8293 133.286 43.744C133.115 44 132.966 44.2773 132.838 44.576C132.71 44.832 132.603 45.1307 132.518 45.472C132.518 45.344 132.56 45.1947 132.646 45.024C132.304 46.1333 132.262 47.3707 132.518 48.736C132.518 48.6507 132.496 48.5867 132.454 48.544C132.454 48.5013 132.454 48.4373 132.454 48.352C132.71 49.5893 133.243 50.784 134.054 51.936C134.48 52.6613 134.992 53.2373 135.59 53.664C135.547 53.6213 135.504 53.6 135.462 53.6C135.419 53.5573 135.376 53.5147 135.334 53.472C136.144 54.0693 136.998 54.432 137.894 54.56C137.723 54.56 137.574 54.5387 137.446 54.496C137.958 54.624 138.534 54.6453 139.174 54.56C138.918 54.56 138.726 54.5813 138.598 54.624C138.811 54.5813 139.003 54.56 139.174 54.56C139.344 54.5173 139.515 54.4747 139.686 54.432C139.728 54.3893 139.792 54.368 139.878 54.368C139.323 54.5387 139.131 54.5813 139.302 54.496C139.387 54.496 139.43 54.496 139.43 54.496C139.472 54.4533 139.515 54.432 139.558 54.432C139.814 54.3467 139.984 54.2827 140.07 54.24C140.112 54.24 140.134 54.24 140.134 54.24C140.176 54.1973 140.219 54.176 140.262 54.176C139.92 54.3467 139.686 54.4533 139.558 54.496C139.472 54.5387 139.494 54.5173 139.622 54.432H139.686C139.728 54.3893 139.75 54.368 139.75 54.368C139.792 54.368 139.835 54.3467 139.878 54.304C140.134 54.2187 140.304 54.1333 140.39 54.048C140.432 54.048 140.454 54.048 140.454 54.048C140.496 54.0053 140.539 53.984 140.582 53.984C139.942 54.3253 139.643 54.496 139.686 54.496C139.728 54.496 139.814 54.4533 139.942 54.368C140.027 54.2827 140.112 54.2187 140.198 54.176C140.368 54.0907 140.518 53.984 140.646 53.856C140.688 53.856 140.71 53.856 140.71 53.856C140.752 53.8133 140.795 53.792 140.838 53.792C140.923 53.7493 140.923 53.7493 140.838 53.792C140.752 53.8347 140.646 53.8987 140.518 53.984C140.39 54.0693 140.283 54.1547 140.198 54.24C140.112 54.2827 140.112 54.2613 140.198 54.176C140.368 54.0907 140.454 54.048 140.454 54.048C140.582 53.9627 140.731 53.8347 140.902 53.664C140.987 53.6213 141.094 53.536 141.222 53.408C141.307 53.3227 141.307 53.3227 141.222 53.408C141.179 53.4507 141.094 53.5147 140.966 53.6C140.88 53.6853 140.795 53.7707 140.71 53.856C140.667 53.8987 140.71 53.856 140.838 53.728C140.923 53.6427 140.987 53.5787 141.03 53.536C141.115 53.4933 141.2 53.4293 141.286 53.344L141.734 52.896C141.776 52.768 141.862 52.6827 141.99 52.64C142.075 52.5547 142.096 52.5333 142.054 52.576C142.011 52.6187 141.947 52.6827 141.862 52.768C141.776 52.8533 141.712 52.9387 141.67 53.024C141.627 53.0667 141.648 53.0453 141.734 52.96C141.99 52.6187 142.246 52.2773 142.502 51.936C142.8 51.5947 143.056 51.232 143.27 50.848C143.099 51.104 142.992 51.2747 142.95 51.36C143.291 50.848 143.59 50.3147 143.846 49.76C144.102 49.1627 144.336 48.544 144.55 47.904C144.464 48.16 144.422 48.3307 144.422 48.416C144.891 46.7093 144.976 45.088 144.678 43.552C144.72 43.6373 144.742 43.7653 144.742 43.936C144.528 42.9547 144.144 42.0587 143.59 41.248C143.078 40.4373 142.438 39.7333 141.67 39.136C141.712 39.1787 141.755 39.2213 141.798 39.264C141.84 39.264 141.883 39.2853 141.926 39.328C141.243 38.816 140.496 38.368 139.686 37.984C138.918 37.6 138.128 37.28 137.318 37.024C137.062 36.9387 136.934 36.7893 136.934 36.576C136.934 36.3627 136.976 36.1707 137.062 36C137.232 35.6587 137.446 35.36 137.702 35.104C137.958 34.8053 138.235 34.5493 138.534 34.336C138.875 34.08 139.238 33.8453 139.622 33.632C140.048 33.376 140.475 33.184 140.902 33.056C141.2 32.9707 141.499 32.9067 141.798 32.864C142.096 32.7787 142.395 32.7787 142.694 32.864C144.614 33.4613 146.299 34.336 147.75 35.488C149.158 36.64 150.118 38.048 150.63 39.712C151.056 41.3333 151.078 43.0187 150.694 44.768C150.182 46.816 149.286 48.7147 148.006 50.464C146.726 52.2133 145.254 53.728 143.59 55.008C142.523 55.8187 141.392 56.544 140.198 57.184C139.046 57.7813 137.83 58.2507 136.55 58.592C135.696 58.8053 134.822 58.9333 133.926 58.976C133.072 58.976 132.24 58.8053 131.43 58.464C130.619 58.1653 129.915 57.7173 129.318 57.12C128.72 56.5227 128.187 55.8613 127.718 55.136C127.334 54.4533 127.014 53.7493 126.758 53.024C126.502 52.2987 126.331 51.552 126.245 50.784C126.117 49.504 126.331 48.2027 126.886 46.88C127.227 46.0267 127.675 45.28 128.23 44.64C128.827 43.9573 129.467 43.3173 130.15 42.72C130.96 42.0373 131.835 41.4613 132.774 40.992C133.755 40.48 134.758 40.1173 135.782 39.904C136.422 39.7333 137.083 39.6693 137.766 39.712C138.491 39.712 139.174 39.8187 139.814 40.032C140.411 40.2453 140.966 40.5653 141.478 40.992C142.032 41.376 142.523 41.8027 142.95 42.272ZM186.242 40.288C186.37 40.8427 186.455 41.3973 186.498 41.952C186.583 42.5067 186.583 43.0827 186.498 43.68C186.412 45.0027 186.199 46.304 185.858 47.584C185.516 48.8213 185.111 50.016 184.642 51.168C184.172 52.4053 183.66 53.6213 183.106 54.816C182.551 56.0107 181.954 57.1627 181.314 58.272C180.247 60.2773 179.01 62.24 177.602 64.16C177.388 64.4587 177.132 64.7147 176.834 64.928C176.535 65.184 176.236 65.3973 175.938 65.568C175.34 65.9947 174.636 66.3147 173.826 66.528C173.612 66.5707 173.378 66.592 173.122 66.592C172.866 66.592 172.695 66.4853 172.61 66.272C172.482 66.0587 172.482 65.8453 172.61 65.632C172.738 65.4187 172.844 65.2267 172.93 65.056C173.186 64.7147 173.442 64.352 173.698 63.968C173.954 63.6267 174.231 63.2427 174.53 62.816C175.682 60.9813 176.727 59.0827 177.666 57.12C178.647 55.1573 179.458 53.1093 180.098 50.976C180.439 49.7813 180.695 48.5653 180.866 47.328C181.079 46.048 181.079 44.7893 180.866 43.552C180.652 42.784 180.332 42.0373 179.906 41.312C179.522 40.5867 179.01 39.9893 178.37 39.52C177.9 39.136 177.367 38.88 176.77 38.752C176.684 38.752 176.578 38.752 176.45 38.752C176.364 38.7093 176.279 38.7093 176.194 38.752C176.066 38.752 175.959 38.7733 175.874 38.816H175.81C175.724 38.9013 175.682 38.944 175.682 38.944C175.639 39.0293 175.596 39.0933 175.554 39.136C175.511 39.136 175.447 39.1787 175.362 39.264C175.234 39.4773 175.084 39.6907 174.914 39.904C174.743 40.0747 174.594 40.2667 174.466 40.48C174.295 40.736 174.146 41.0133 174.018 41.312C173.89 41.568 173.762 41.8453 173.634 42.144C173.676 42.4 173.698 42.656 173.698 42.912C173.698 43.168 173.719 43.424 173.762 43.68C173.804 44.7893 173.74 45.8773 173.57 46.944C173.442 48.0107 173.271 49.0773 173.058 50.144C172.674 52.1067 172.162 54.0053 171.522 55.84C171.394 56.1387 171.18 56.416 170.882 56.672C170.626 56.8853 170.391 57.0987 170.178 57.312C169.538 57.7813 168.834 58.1867 168.066 58.528C167.852 58.6133 167.575 58.6773 167.234 58.72C166.935 58.7627 166.679 58.7413 166.466 58.656C166.21 58.5707 166.082 58.4427 166.082 58.272C166.082 58.1013 166.124 57.9307 166.21 57.76C166.295 57.4613 166.38 57.184 166.466 56.928C166.551 56.672 166.636 56.3947 166.722 56.096C167.063 55.1147 167.319 54.112 167.49 53.088C167.703 52.064 167.895 51.04 168.066 50.016C168.151 49.2907 168.194 48.5867 168.194 47.904C168.236 47.1787 168.236 46.4533 168.194 45.728C167.98 45.6427 167.874 45.5147 167.874 45.344C167.916 45.1733 167.98 45.0027 168.066 44.832C168.066 44.832 168.087 44.8107 168.13 44.768C168.087 44.5973 168.044 44.448 168.002 44.32C168.002 44.192 167.98 44.0427 167.938 43.872C167.767 43.1467 167.532 42.464 167.234 41.824C166.935 41.184 166.487 40.6293 165.89 40.16C165.463 39.8613 165.015 39.6267 164.546 39.456C164.076 39.2853 163.586 39.1573 163.074 39.072C162.946 39.072 162.796 39.072 162.626 39.072C162.498 39.0293 162.348 39.008 162.178 39.008C162.007 39.4347 161.9 39.7547 161.858 39.968C161.516 41.0773 161.324 42.2507 161.282 43.488C161.239 44.6827 161.26 45.856 161.345 47.008C161.431 47.8613 161.516 48.7147 161.602 49.568C161.687 50.4213 161.772 51.2747 161.858 52.128C161.943 52.768 162.028 53.408 162.114 54.048C162.242 54.6453 162.348 55.264 162.434 55.904C162.434 56.1173 162.327 56.352 162.114 56.608C161.9 56.864 161.708 57.0773 161.538 57.248C161.239 57.5467 160.919 57.8027 160.578 58.016C160.236 58.2293 159.895 58.4427 159.554 58.656C159.255 58.784 158.935 58.912 158.594 59.04C158.295 59.168 157.975 59.232 157.634 59.232C157.335 59.232 157.1 59.1253 156.93 58.912C156.503 57.2907 156.119 55.648 155.778 53.984C155.436 52.32 155.095 50.656 154.754 48.992C154.498 47.5413 154.242 46.112 153.986 44.704C153.73 43.2533 153.495 41.8027 153.282 40.352C153.154 39.1573 153.026 37.984 152.898 36.832C152.77 35.6373 152.706 34.464 152.706 33.312C152.706 33.0133 152.791 32.736 152.962 32.48C153.175 32.224 153.388 32.032 153.602 31.904C153.9 31.6053 154.22 31.3493 154.562 31.136C154.903 30.9227 155.244 30.7093 155.586 30.496C155.714 30.4533 155.927 30.368 156.226 30.24C156.524 30.112 156.823 30.0267 157.122 29.984C157.42 29.8987 157.676 29.8987 157.89 29.984C158.146 30.0693 158.274 30.2613 158.274 30.56C158.274 31.0293 158.274 31.4987 158.274 31.968C158.316 32.3947 158.359 32.8427 158.402 33.312C158.444 34.1653 158.508 34.9973 158.594 35.808C158.679 36.576 158.786 37.3653 158.914 38.176C159.042 38.048 159.17 37.92 159.298 37.792C159.468 37.664 159.618 37.536 159.746 37.408C160.812 36.64 161.964 36.0213 163.202 35.552C164.439 35.0827 165.719 34.9547 167.042 35.168C167.596 35.2533 168.13 35.36 168.642 35.488C169.196 35.616 169.708 35.808 170.178 36.064C171.031 36.5333 171.714 37.152 172.226 37.92C172.311 38.0053 172.354 38.0907 172.354 38.176C172.396 38.2187 172.46 38.2827 172.546 38.368C172.674 38.2827 172.78 38.1973 172.866 38.112C172.994 37.984 173.122 37.8773 173.25 37.792C173.634 37.4507 174.039 37.152 174.466 36.896C174.892 36.64 175.34 36.384 175.81 36.128C176.151 35.9147 176.492 35.744 176.834 35.616C177.175 35.488 177.516 35.36 177.858 35.232C178.498 35.0613 179.159 34.9333 179.842 34.848C180.524 34.7627 181.228 34.8267 181.954 35.04C183.02 35.424 183.938 36.1067 184.706 37.088C185.047 37.5573 185.346 38.0693 185.602 38.624C185.9 39.136 186.114 39.6907 186.242 40.288ZM161.218 39.072C161.004 39.1573 160.919 39.2 160.962 39.2C161.047 39.1573 161.132 39.1147 161.218 39.072ZM211.832 56.8C212.216 56.8 212.472 56.8853 212.6 57.056C212.728 57.2267 212.771 57.44 212.728 57.696C212.685 57.952 212.6 58.208 212.472 58.464C212.344 58.6773 212.216 58.848 212.088 58.976C211.661 59.5733 211.128 60.064 210.488 60.448C209.848 60.832 209.165 61.024 208.44 61.024C206.691 61.1093 204.92 61.4507 203.128 62.048C201.336 62.688 199.608 63.264 197.944 63.776C195.939 64.288 193.976 64.8427 192.056 65.44C190.136 66.0373 188.152 66.592 186.104 67.104C185.507 67.3173 185.101 67.2107 184.888 66.784C184.632 66.4 184.653 65.9733 184.952 65.504C185.336 64.9067 185.848 64.3733 186.488 63.904C187.085 63.4773 187.747 63.1573 188.472 62.944C189.325 62.7307 190.2 62.4747 191.096 62.176C191.992 61.92 192.909 61.6427 193.848 61.344V45.28C191.544 45.664 189.197 46.1547 186.808 46.752C186.168 46.88 185.741 46.7733 185.528 46.432C185.315 46.0907 185.357 45.6427 185.656 45.088C185.997 44.4907 186.467 43.9787 187.064 43.552C187.704 43.1253 188.387 42.8267 189.112 42.656C190.093 42.4 191.032 42.1653 191.928 41.952C192.824 41.7387 193.763 41.5467 194.744 41.376C195.128 40.992 195.555 40.6507 196.024 40.352C196.536 40.0533 197.005 39.84 197.432 39.712C197.901 39.584 198.285 39.5627 198.584 39.648C198.883 39.6907 199.032 39.8827 199.032 40.224V40.608C199.629 40.48 200.205 40.3733 200.76 40.288C201.315 40.2027 201.848 40.0747 202.36 39.904C202.445 39.904 202.616 39.8827 202.872 39.84C203.128 39.7973 203.363 39.7547 203.576 39.712C203.789 39.6693 203.939 39.648 204.024 39.648C204.109 39.648 204.045 39.712 203.832 39.84C204.045 39.7547 204.237 39.6693 204.408 39.584C204.621 39.4987 204.771 39.456 204.856 39.456C204.984 39.4987 205.091 39.52 205.176 39.52C205.261 39.52 205.368 39.5627 205.496 39.648C205.923 39.9893 206.072 40.352 205.944 40.736C205.816 41.12 205.56 41.504 205.176 41.888C204.792 42.272 204.344 42.6133 203.832 42.912C203.363 43.2107 203 43.424 202.744 43.552C202.232 43.7653 201.635 43.9573 200.952 44.128C200.312 44.256 199.672 44.3627 199.032 44.448V58.976C199.032 59.1467 199.011 59.2747 198.968 59.36C198.968 59.4453 198.947 59.552 198.904 59.68C201.08 58.9547 203.235 58.336 205.368 57.824C207.501 57.312 209.656 56.9707 211.832 56.8ZM194.488 32.864C195.299 31.2853 195.683 29.664 195.64 28C195.64 26.336 195.427 24.672 195 23.008C194.573 21.344 194.04 19.7013 193.4 18.08C192.803 16.4587 192.333 14.88 191.992 13.344C191.736 12.064 191.757 10.912 192.056 9.888C192.355 8.82133 192.845 7.92533 193.528 7.2C194.253 6.432 195.149 5.87733 196.216 5.536C197.283 5.152 198.456 5.00267 199.736 5.088C200.291 5.13066 200.547 5.344 200.504 5.728C200.504 6.112 200.312 6.53866 199.928 7.008C199.587 7.47733 199.117 7.94666 198.52 8.416C197.965 8.84266 197.432 9.12 196.92 9.248C197.048 9.67466 197.155 10.1013 197.24 10.528C197.325 10.912 197.432 11.2747 197.56 11.616C197.901 12.768 198.243 13.8987 198.584 15.008C198.968 16.0747 199.331 17.1413 199.672 18.208C200.312 20.5547 200.675 22.8587 200.76 25.12C200.845 27.3813 200.333 29.6427 199.224 31.904C199.011 32.288 198.584 32.6933 197.944 33.12C197.304 33.5467 196.664 33.8667 196.024 34.08C195.384 34.2933 194.872 34.336 194.488 34.208C194.104 34.0373 194.104 33.5893 194.488 32.864ZM195.32 9.248C195.235 9.248 195.192 9.26933 195.192 9.312C195.192 9.35467 195.235 9.33333 195.32 9.248ZM245.034 47.2C245.247 47.2853 245.354 47.4347 245.354 47.648C245.354 47.8187 245.311 48.0107 245.226 48.224C245.055 48.5653 244.842 48.864 244.586 49.12C244.33 49.376 244.074 49.6107 243.818 49.824C243.348 50.1653 242.9 50.5067 242.474 50.848C242.047 51.1467 241.599 51.4667 241.13 51.808C240.02 52.5333 238.89 53.216 237.738 53.856C236.628 54.4533 235.455 55.0507 234.218 55.648C232.852 56.288 231.444 56.8853 229.994 57.44C228.543 57.952 227.071 58.4 225.578 58.784C224.34 59.1253 223.06 59.3813 221.738 59.552C220.458 59.7227 219.156 59.7653 217.834 59.68C217.236 59.6373 216.639 59.5733 216.042 59.488C215.487 59.4027 214.911 59.2533 214.314 59.04C213.247 58.656 212.287 58.1013 211.434 57.376C210.58 56.6507 209.898 55.776 209.386 54.752C208.873 53.728 208.639 52.6613 208.681 51.552C208.724 50.2293 209.066 49.0133 209.706 47.904C210.388 46.752 211.22 45.7493 212.202 44.896C213.012 44.1707 213.866 43.5307 214.762 42.976C215.658 42.4213 216.596 41.9733 217.578 41.632C218.26 41.376 218.943 41.184 219.626 41.056C220.308 40.928 221.012 40.9067 221.738 40.992C221.908 40.992 222.164 41.0347 222.506 41.12C222.719 39.7973 222.932 38.496 223.146 37.216C223.402 35.936 223.658 34.656 223.914 33.376C223.999 33.0347 224.127 32.7573 224.298 32.544C224.468 32.288 224.66 32.0533 224.874 31.84C225.514 31.2 226.26 30.688 227.114 30.304C227.455 30.1333 227.796 29.984 228.138 29.856C228.479 29.728 228.842 29.664 229.226 29.664C229.396 29.664 229.588 29.728 229.802 29.856C230.015 29.9413 230.1 30.112 230.058 30.368C229.546 32.928 229.076 35.488 228.65 38.048C228.223 40.5653 228.01 43.1253 228.01 45.728C228.01 46.0267 227.882 46.304 227.626 46.56C227.412 46.816 227.22 47.0507 227.05 47.264C226.41 47.776 225.663 48.288 224.81 48.8C224.468 48.9707 224.106 49.12 223.722 49.248C223.38 49.3333 223.039 49.376 222.698 49.376C222.399 49.4187 222.143 49.312 221.93 49.056C221.631 48.5867 221.311 48.1387 220.97 47.712C220.671 47.2427 220.287 46.816 219.818 46.432C219.007 45.8773 218.196 45.5147 217.385 45.344C217.172 45.3013 216.98 45.28 216.81 45.28C216.639 45.28 216.447 45.28 216.234 45.28C216.148 45.3227 216.042 45.344 215.914 45.344C215.914 45.3867 215.892 45.408 215.85 45.408C215.85 45.408 215.85 45.4293 215.85 45.472C215.807 45.5573 215.764 45.6213 215.722 45.664C215.679 45.664 215.636 45.7067 215.594 45.792C215.338 46.176 215.146 46.6027 215.018 47.072C214.804 48.0107 214.762 48.9067 214.89 49.76C215.103 50.528 215.423 51.2533 215.85 51.936C216.276 52.576 216.788 53.152 217.385 53.664C217.983 54.0907 218.58 54.432 219.178 54.688C219.818 54.9013 220.5 55.072 221.226 55.2C222.42 55.3707 223.743 55.392 225.194 55.264C226.218 55.136 227.242 54.944 228.266 54.688L229.034 54.496C229.119 54.496 229.183 54.496 229.226 54.496C229.268 54.4533 229.332 54.432 229.418 54.432C229.631 54.3467 229.866 54.2613 230.122 54.176C230.378 54.0907 230.634 54.0053 230.89 53.92C231.231 53.8347 231.53 53.728 231.786 53.6C232.084 53.472 232.404 53.3653 232.746 53.28C232.874 53.1947 233.002 53.1307 233.13 53.088C233.3 53.0453 233.45 52.9813 233.578 52.896C233.62 52.896 233.642 52.896 233.642 52.896C233.684 52.8533 233.748 52.832 233.834 52.832C234.943 52.32 236.052 51.7653 237.162 51.168C237.204 51.168 237.226 51.168 237.226 51.168C237.226 51.1253 237.247 51.104 237.29 51.104C237.375 51.0187 237.482 50.9547 237.61 50.912C237.738 50.8693 237.844 50.8053 237.93 50.72C238.143 50.592 238.356 50.464 238.57 50.336C238.826 50.1653 239.082 50.016 239.338 49.888C239.38 49.8027 239.487 49.7173 239.658 49.632C239.7 49.632 239.764 49.5893 239.85 49.504C240.02 49.376 240.191 49.248 240.362 49.12C240.532 48.992 240.703 48.8427 240.874 48.672C241.215 48.416 241.578 48.1813 241.962 47.968C242.388 47.712 242.815 47.52 243.242 47.392C243.498 47.3067 243.775 47.2213 244.074 47.136C244.415 47.0507 244.735 47.072 245.034 47.2ZM216.106 45.216C216.362 45.0453 216.447 44.9813 216.362 45.024C216.276 45.0667 216.191 45.1307 216.106 45.216ZM216.106 45.152C216.234 44.9813 216.276 44.9173 216.234 44.96C216.234 45.0027 216.191 45.0667 216.106 45.152ZM271.783 53.472C271.953 53.6853 271.953 53.9413 271.783 54.24C271.612 54.496 271.484 54.688 271.399 54.816C271.143 55.1573 270.844 55.4773 270.503 55.776C270.161 56.032 269.82 56.2667 269.479 56.48C268.54 57.0773 267.559 57.5467 266.535 57.888C265.553 58.2293 264.529 58.5067 263.463 58.72C261.031 59.1467 258.599 59.3173 256.167 59.232C253.735 59.104 251.324 58.8693 248.935 58.528C247.953 58.3573 246.972 58.208 245.991 58.08C245.052 57.9093 244.092 57.696 243.111 57.44C242.855 57.3547 242.599 57.2907 242.343 57.248C242.087 57.1627 241.852 57.0773 241.639 56.992C241.383 56.864 241.191 56.736 241.062 56.608C240.977 56.5227 240.934 56.4373 240.934 56.352C240.934 56.2667 240.934 56.2027 240.934 56.16C240.934 55.8187 241.041 55.52 241.255 55.264C241.468 55.008 241.681 54.7733 241.895 54.56C242.236 54.2187 242.599 53.9413 242.983 53.728C243.367 53.472 243.751 53.2373 244.135 53.024C244.476 52.8533 244.817 52.7253 245.159 52.64C245.543 52.512 245.905 52.448 246.247 52.448C246.673 52.448 246.929 52.576 247.015 52.832C247.1 52.832 247.228 52.8747 247.399 52.96C247.612 53.0453 247.804 53.1093 247.975 53.152C248.145 53.152 248.337 53.1947 248.551 53.28C249.148 53.408 249.724 53.536 250.279 53.664C250.833 53.792 251.409 53.8987 252.007 53.984C254.311 54.3253 256.615 54.5813 258.919 54.752C259.601 54.7947 260.284 54.8373 260.967 54.88C261.692 54.88 262.417 54.8587 263.143 54.816C262.545 54.4747 261.948 54.176 261.351 53.92C260.753 53.6213 260.156 53.344 259.559 53.088C257.639 52.3627 255.676 51.744 253.671 51.232C251.665 50.72 249.681 50.144 247.719 49.504C246.951 49.248 246.183 48.9707 245.415 48.672C244.647 48.3307 243.943 47.9253 243.303 47.456C242.62 47.0293 242.087 46.5387 241.703 45.984C241.276 45.344 241.062 44.704 241.062 44.064C241.02 43.6373 241.041 43.232 241.127 42.848C241.255 42.4213 241.404 42.0373 241.575 41.696C241.831 41.0133 242.172 40.3733 242.599 39.776C243.068 39.1787 243.537 38.624 244.007 38.112C245.585 36.4053 247.441 35.0187 249.575 33.952C250.428 33.568 251.281 33.248 252.135 32.992C253.031 32.6933 253.948 32.544 254.887 32.544C255.996 32.5013 257.063 32.7573 258.087 33.312C259.111 33.824 259.879 34.6133 260.391 35.68C261.031 36.96 261.223 38.3253 260.967 39.776C260.711 41.2267 260.284 42.5707 259.687 43.808C259.516 44.1493 259.303 44.448 259.047 44.704C258.791 44.96 258.513 45.1947 258.215 45.408C257.745 45.792 257.233 46.112 256.679 46.368C257.532 46.624 258.385 46.88 259.239 47.136C260.092 47.3493 260.945 47.584 261.799 47.84C262.78 48.1813 263.74 48.5227 264.679 48.864C265.66 49.2053 266.599 49.6107 267.495 50.08C268.305 50.5067 269.073 50.9973 269.799 51.552C270.567 52.1067 271.228 52.7467 271.783 53.472ZM248.551 43.168C248.849 43.3813 249.169 43.5947 249.51 43.808C249.852 43.9787 250.193 44.1493 250.535 44.32C251.089 44.576 251.644 44.8107 252.199 45.024C252.796 45.1947 253.393 45.3867 253.991 45.6C254.247 45.0453 254.439 44.5547 254.567 44.128C254.908 42.8053 254.993 41.5893 254.823 40.48C254.695 39.968 254.481 39.4773 254.183 39.008C253.927 38.496 253.585 38.0693 253.159 37.728C252.476 37.3013 251.836 37.024 251.239 36.896C250.855 36.8533 250.471 36.8533 250.087 36.896C250.001 36.896 249.916 36.9173 249.831 36.96C249.788 36.96 249.724 36.96 249.639 36.96C249.596 37.0027 249.532 37.024 249.447 37.024C249.404 37.024 249.383 37.0453 249.383 37.088H249.319L249.255 37.152C249.169 37.2373 249.084 37.3013 248.999 37.344L248.551 37.792L248.359 37.984L248.167 38.176C248.081 38.3467 247.996 38.4747 247.911 38.56C247.783 38.7733 247.655 38.9867 247.527 39.2C247.441 39.4133 247.356 39.6267 247.271 39.84C247.228 40.096 247.185 40.352 247.143 40.608C247.143 40.8213 247.164 41.056 247.207 41.312C247.292 41.696 247.441 42.0373 247.655 42.336C247.911 42.6347 248.209 42.912 248.551 43.168ZM268.583 53.984C268.497 54.0267 268.455 54.048 268.455 54.048L268.391 54.112C268.732 53.8987 268.86 53.8133 268.775 53.856C268.732 53.856 268.668 53.8987 268.583 53.984Z" fill="white"/>
</svg>
