<svg width="193" height="72" viewBox="0 0 193 72" fill="none" xmlns="http://www.w3.org/2000/svg">
<path d="M47.344 33.152C47.344 33.6213 47.3227 34.0907 47.28 34.56C47.28 34.9867 47.2373 35.4347 47.152 35.904C47.0667 36.5013 46.9173 37.0773 46.704 37.632C46.5333 38.1867 46.3413 38.7413 46.128 39.296C45.5307 40.5333 44.7413 41.6213 43.76 42.56C42.8213 43.456 41.84 44.3093 40.816 45.12C39.7067 45.9733 38.5547 46.7413 37.36 47.424C36.208 48.1067 34.992 48.7467 33.712 49.344C32.4747 49.984 31.216 50.5387 29.936 51.008C28.656 51.4773 27.3547 51.9253 26.032 52.352C24.7947 52.864 23.536 53.312 22.256 53.696C21.0187 54.0373 19.76 54.336 18.48 54.592C17.2 54.8907 15.8987 55.1467 14.576 55.36C13.296 55.5733 11.9947 55.7227 10.672 55.808C8.45333 56.064 6.36267 56.0427 4.4 55.744C3.80267 55.5733 3.12 55.36 2.352 55.104C1.584 54.8053 0.965333 54.3573 0.496 53.76C0.325333 53.5467 0.325333 53.2907 0.496 52.992C0.624 52.6933 0.752 52.4587 0.88 52.288C1.136 51.9467 1.43467 51.6053 1.776 51.264C2.11733 50.88 2.48 50.5387 2.864 50.24C3.20533 50.0267 3.58933 49.8133 4.016 49.6C4.4 49.3867 4.82667 49.216 5.296 49.088C5.50933 49.0027 5.76533 48.9387 6.064 48.896C6.40533 48.8533 6.66133 48.9387 6.832 49.152C6.96 49.3227 7.06667 49.472 7.152 49.6C7.23733 49.6853 7.344 49.7707 7.472 49.856C8.53867 50.368 9.712 50.6667 10.992 50.752C12.4427 50.9227 13.8933 50.944 15.344 50.816C16.7947 50.688 18.2027 50.4747 19.568 50.176C19.7813 50.176 20.016 50.1333 20.272 50.048C21.5947 49.7493 22.8747 49.4507 24.112 49.152C25.3493 48.8107 26.5867 48.448 27.824 48.064C28.208 47.9787 28.5493 47.8933 28.848 47.808C29.1467 47.7227 29.4453 47.6373 29.744 47.552C29.872 47.424 29.9787 47.3387 30.064 47.296C30.3627 47.2533 30.6187 47.168 30.832 47.04C31.4293 46.784 32.0053 46.528 32.56 46.272C33.1147 46.016 33.6907 45.7813 34.288 45.568C34.8 45.3547 35.312 45.0987 35.824 44.8L35.888 44.864L35.952 44.8C36.1227 44.7147 36.2507 44.6507 36.336 44.608C36.464 44.5227 36.592 44.4373 36.72 44.352C36.9333 44.2667 37.1253 44.16 37.296 44.032C37.5093 43.8613 37.7653 43.712 38.064 43.584V43.52C38.192 43.52 38.2773 43.4773 38.32 43.392C38.4053 43.264 38.4907 43.2 38.576 43.2C38.6613 43.1573 38.7253 43.1147 38.768 43.072C38.8533 42.9867 38.9813 42.9227 39.152 42.88C39.2373 42.8373 39.28 42.7947 39.28 42.752C39.28 42.7093 39.3227 42.688 39.408 42.688V42.368C39.408 42.368 39.5147 42.3467 39.728 42.304C39.728 42.304 39.728 42.2827 39.728 42.24C39.8133 42.1547 39.8347 42.0907 39.792 42.048C39.792 42.0053 39.8347 41.9627 39.92 41.92C40.1333 41.5787 40.304 41.216 40.432 40.832C40.56 40.4053 40.6453 40 40.688 39.616C40.7733 39.104 40.8373 38.592 40.88 38.08C40.9227 37.568 40.88 37.056 40.752 36.544C40.5387 35.9467 40.2187 35.4347 39.792 35.008C39.408 34.5387 38.9813 34.1333 38.512 33.792C37.5307 33.1093 36.4853 32.64 35.376 32.384C34.3093 32.128 33.2213 31.9147 32.112 31.744C30.32 31.616 28.5493 31.616 26.8 31.744C25.0507 31.8293 23.28 32.0213 21.488 32.32C21.4453 32.3627 21.4027 32.384 21.36 32.384H21.296V32.448C21.424 34.4107 21.6373 36.352 21.936 38.272C22.2347 40.192 22.6613 42.1333 23.216 44.096C23.1307 44.2667 23.0453 44.4373 22.96 44.608C22.8747 44.7787 22.768 44.9707 22.64 45.184C22.5973 45.2267 22.5333 45.312 22.448 45.44C22.3627 45.5253 22.2773 45.6107 22.192 45.696C21.8507 46.08 21.488 46.4427 21.104 46.784C20.72 47.0827 20.3147 47.36 19.888 47.616C19.504 47.8293 19.12 48.0213 18.736 48.192C18.352 48.32 17.968 48.4267 17.584 48.512C17.4133 48.512 17.2427 48.4907 17.072 48.448C16.944 48.4053 16.8373 48.2773 16.752 48.064C16.7093 48.064 16.6667 47.9787 16.624 47.808C16.5387 47.3813 16.4533 47.0187 16.368 46.72C15.856 44.7147 15.472 42.7093 15.216 40.704C14.96 38.656 14.768 36.5653 14.64 34.432C14.4267 34.5173 14.2347 34.5813 14.064 34.624C13.8933 34.624 13.7013 34.6667 13.488 34.752C13.232 34.752 12.9973 34.7093 12.784 34.624C12.5707 34.5387 12.464 34.3467 12.464 34.048C12.5493 33.8347 12.592 33.6427 12.592 33.472C12.6347 33.3013 12.7627 33.1307 12.976 32.96C13.36 32.2347 13.8933 31.6587 14.576 31.232C14.4907 29.44 14.4053 27.6693 14.32 25.92C14.2347 24.128 14.1493 22.3573 14.064 20.608C14.0213 20.2667 14.1067 19.9467 14.32 19.648C14.576 19.3067 14.7893 19.0507 14.96 18.88C15.3013 18.4533 15.6853 18.0907 16.112 17.792C16.5387 17.4933 16.9653 17.216 17.392 16.96C17.52 16.9173 17.7547 16.8107 18.096 16.64C18.4373 16.4693 18.7787 16.3413 19.12 16.256C19.504 16.128 19.8453 16.0853 20.144 16.128C20.4427 16.1707 20.6347 16.3627 20.72 16.704C20.6347 16.9173 20.6133 17.1307 20.656 17.344C20.7413 17.5147 20.7627 17.6427 20.72 17.728C20.7627 19.52 20.8053 21.2907 20.848 23.04C20.8907 24.7893 20.9547 26.56 21.04 28.352C21.424 28.2667 21.7867 28.1813 22.128 28.096C22.4693 28.0107 22.8107 27.9253 23.152 27.84C23.2373 27.7547 23.3227 27.712 23.408 27.712C23.4933 27.712 23.5787 27.6693 23.664 27.584L23.792 27.52C23.8773 27.4773 23.9627 27.4347 24.048 27.392C24.1333 27.3067 24.2613 27.264 24.432 27.264C24.6027 27.0933 24.7733 26.9653 24.944 26.88C25.1573 26.7947 25.3493 26.7093 25.52 26.624C25.6053 26.4533 25.7333 26.3253 25.904 26.24C26.0747 26.1547 26.2453 26.0693 26.416 25.984L26.48 25.92C26.6933 25.8347 26.928 25.7067 27.184 25.536C27.44 25.3227 27.6747 25.088 27.888 24.832C28.0587 24.7893 28.208 24.7253 28.336 24.64C28.464 24.5547 28.5707 24.4907 28.656 24.448C28.7413 24.3627 28.8053 24.2773 28.848 24.192C29.0613 24.0213 29.2747 23.8507 29.488 23.68C29.7013 23.5093 29.9147 23.3173 30.128 23.104C30.2133 23.0613 30.2987 22.9973 30.384 22.912C30.4693 22.8267 30.576 22.7413 30.704 22.656V22.592C30.704 22.592 30.768 22.5493 30.896 22.464C31.1093 22.2507 31.28 22.0373 31.408 21.824C31.5787 21.6107 31.7707 21.376 31.984 21.12C32.0267 21.0773 32.048 21.0773 32.048 21.12C32.0907 21.12 32.112 21.0773 32.112 20.992C32.1973 20.9067 32.2613 20.8213 32.304 20.736C32.3893 20.608 32.4747 20.5013 32.56 20.416C32.8587 20.032 33.072 19.6907 33.2 19.392C33.3707 19.0507 33.52 18.7093 33.648 18.368C33.8187 18.0267 33.968 17.664 34.096 17.28C34.224 16.2133 34.1813 15.2107 33.968 14.272C33.712 13.4613 33.2853 12.736 32.688 12.096C32.1333 11.4133 31.4933 10.816 30.768 10.304C29.9147 9.74933 29.0187 9.28 28.08 8.896C27.184 8.512 26.224 8.27733 25.2 8.192C24.3893 8.10667 23.6213 8.08533 22.896 8.128C22.1707 8.17066 21.4027 8.27733 20.592 8.448C19.5253 8.66133 18.4587 8.96 17.392 9.344H17.328C17.2427 9.344 17.2 9.344 17.2 9.344C16.9867 9.42933 16.8373 9.51466 16.752 9.6C16.6667 9.64266 16.5387 9.68533 16.368 9.728C16.24 9.81333 16.0907 9.87733 15.92 9.92C15.792 9.96266 15.664 10.0267 15.536 10.112H15.472C15.344 10.1973 15.216 10.2827 15.088 10.368C14.96 10.4533 14.8533 10.5387 14.768 10.624C14.5547 10.7093 14.4267 10.7733 14.384 10.816V10.88C14.384 10.9227 14.32 10.944 14.192 10.944C14.192 11.0293 14.192 11.072 14.192 11.072C14.1493 11.1147 14.0853 11.1573 14 11.2C13.9147 11.2427 13.872 11.2853 13.872 11.328C13.9147 11.328 13.8933 11.4347 13.808 11.648C13.7227 11.648 13.616 11.712 13.488 11.84C13.4027 12.0107 13.3387 12.2027 13.296 12.416C13.2533 12.6293 13.1893 12.8427 13.104 13.056C13.0187 13.44 12.976 13.8667 12.976 14.336C13.0187 14.7627 13.104 15.2107 13.232 15.68C13.232 15.8933 13.296 16.0853 13.424 16.256C13.5947 16.5547 13.616 16.832 13.488 17.088C13.4027 17.3013 13.296 17.536 13.168 17.792C12.912 18.1333 12.592 18.4747 12.208 18.816C11.824 19.1147 11.4613 19.392 11.12 19.648C10.7787 19.9893 10.416 20.2667 10.032 20.48C9.648 20.6507 9.22133 20.8213 8.752 20.992C8.624 21.0347 8.34667 21.0773 7.92 21.12C7.536 21.1627 7.28 21.056 7.152 20.8C6.93867 20.16 6.768 19.4987 6.64 18.816C6.55467 18.1333 6.576 17.4293 6.704 16.704C6.87467 15.424 7.36533 14.1653 8.176 12.928C8.64533 12.3307 9.136 11.7547 9.648 11.2C10.2027 10.6027 10.7787 10.0693 11.376 9.6C12.1013 9.00267 12.8267 8.42666 13.552 7.872C14.2773 7.31733 15.0453 6.848 15.856 6.464C16.6667 6.03733 17.456 5.65333 18.224 5.312C18.992 4.97066 19.7813 4.672 20.592 4.416C21.8293 3.98933 23.088 3.66933 24.368 3.456C25.6907 3.2 26.9707 3.072 28.208 3.072C28.848 3.02933 29.4453 3.02933 30 3.072C30.5547 3.11466 31.1307 3.22133 31.728 3.392C32.3253 3.47733 32.9013 3.62666 33.456 3.84C34.0533 4.05333 34.5867 4.33066 35.056 4.672C36.0373 5.14133 36.9973 5.76 37.936 6.528C38.8747 7.296 39.5787 8.29866 40.048 9.536C40.4747 10.432 40.6453 11.392 40.56 12.416C40.5173 13.44 40.3253 14.464 39.984 15.488C39.5147 16.7253 38.896 17.8773 38.128 18.944C37.36 20.0107 36.528 21.0347 35.632 22.016C33.9253 23.7653 32.1547 25.3227 30.32 26.688C31.9413 26.56 33.4987 26.5387 34.992 26.624C36.528 26.6667 38.0427 26.7947 39.536 27.008C40.432 27.2213 41.328 27.4987 42.224 27.84C43.1627 28.1813 44.016 28.5867 44.784 29.056C46.192 30.1227 47.0453 31.488 47.344 33.152ZM15.344 10.24C15.3867 10.1547 15.4293 10.1547 15.472 10.24C15.344 10.24 15.2373 10.2827 15.152 10.368L15.088 10.432C15.088 10.304 15.1733 10.24 15.344 10.24ZM30.448 22.784C30.2347 22.9973 30.1493 23.0827 30.192 23.04C30.2773 22.9973 30.3627 22.912 30.448 22.784ZM39.792 42.048L39.92 42.176L39.792 42.048ZM39.6 42.368C39.728 42.24 39.792 42.1973 39.792 42.24V42.176C39.792 42.2187 39.728 42.2827 39.6 42.368ZM39.792 42.176C39.92 42.0907 39.9627 42.048 39.92 42.048C39.8773 42.048 39.8347 42.0907 39.792 42.176ZM39.856 41.984C39.8133 42.0267 39.792 42.048 39.792 42.048L39.856 41.984ZM47.8055 39.232C47.9335 39.0187 48.0615 38.8267 48.1895 38.656C48.3175 38.4853 48.4668 38.3147 48.6375 38.144C48.7228 38.0587 48.8295 37.9733 48.9575 37.888C49.0855 37.8027 49.1922 37.7173 49.2775 37.632C49.9602 37.0773 50.7495 36.6293 51.6455 36.288C51.9015 36.2027 52.1788 36.1173 52.4775 36.032C52.8188 35.9467 53.1388 35.968 53.4375 36.096C53.6935 36.1813 53.8215 36.3307 53.8215 36.544C53.8215 36.7147 53.7788 36.9067 53.6935 37.12C53.5655 37.4613 53.4375 37.7813 53.3095 38.08C53.2242 38.3787 53.1388 38.6987 53.0535 39.04C53.0962 38.9547 53.1175 38.8907 53.1175 38.848C53.1175 38.7627 53.1388 38.6773 53.1815 38.592C52.7122 40.0853 52.3495 41.6213 52.0935 43.2C51.8375 44.7787 51.8802 46.336 52.2215 47.872C52.1788 47.7867 52.1575 47.744 52.1575 47.744C52.1575 47.7013 52.1362 47.6373 52.0935 47.552C52.2642 48.192 52.4988 48.8107 52.7975 49.408C53.0962 50.0053 53.5228 50.5173 54.0775 50.944C53.9922 50.9013 53.9282 50.88 53.8855 50.88C53.8855 50.8373 53.8428 50.7947 53.7575 50.752C54.4402 51.2213 55.1868 51.52 55.9975 51.648C55.9122 51.648 55.8268 51.648 55.7415 51.648C55.6562 51.6053 55.5708 51.584 55.4855 51.584C55.7842 51.6267 56.0828 51.6693 56.3815 51.712C56.6802 51.712 56.9788 51.6907 57.2775 51.648C56.9788 51.648 56.7655 51.6693 56.6375 51.712C56.8082 51.6693 56.9575 51.648 57.0855 51.648C57.2135 51.6053 57.3628 51.5627 57.5335 51.52C57.6615 51.52 57.8108 51.4773 57.9815 51.392C57.3842 51.6053 57.1068 51.712 57.1495 51.712C57.1922 51.6693 57.2775 51.6267 57.4055 51.584C57.4482 51.584 57.4908 51.5627 57.5335 51.52C57.6188 51.52 57.6828 51.4987 57.7255 51.456C57.8535 51.456 58.0028 51.4133 58.1735 51.328C58.2162 51.328 58.2375 51.328 58.2375 51.328C58.2802 51.2853 58.3228 51.264 58.3655 51.264C58.4508 51.2213 58.4295 51.2213 58.3015 51.264C58.2162 51.3067 58.1095 51.3493 57.9815 51.392C57.8535 51.4347 57.7468 51.4773 57.6615 51.52C57.5762 51.5627 57.5762 51.5627 57.6615 51.52C57.7042 51.52 57.7468 51.4987 57.7895 51.456C58.0455 51.4133 58.3015 51.2853 58.5575 51.072C58.6428 51.0293 58.6428 51.0507 58.5575 51.136C58.4722 51.1787 58.3655 51.2427 58.2375 51.328C58.1095 51.3707 58.0028 51.4133 57.9175 51.456C57.8322 51.4987 57.8535 51.4773 57.9815 51.392C58.0242 51.392 58.0455 51.392 58.0455 51.392C58.0882 51.3493 58.1308 51.328 58.1735 51.328C58.2588 51.2853 58.3655 51.2 58.4935 51.072C58.6642 50.9867 58.7495 50.944 58.7495 50.944C58.3655 51.2 58.1095 51.3707 57.9815 51.456C57.8962 51.4987 57.9175 51.4773 58.0455 51.392H58.1095C58.1095 51.392 58.1308 51.3707 58.1735 51.328C58.2588 51.2853 58.3015 51.2427 58.3015 51.2C58.3442 51.1573 58.4082 51.1147 58.4935 51.072C58.5788 51.0293 58.7068 50.9227 58.8775 50.752C58.9202 50.7093 58.8988 50.7307 58.8135 50.816C58.7708 50.8587 58.6855 50.9227 58.5575 51.008C58.4722 51.0933 58.3868 51.1787 58.3015 51.264C58.2588 51.3067 58.2802 51.3067 58.3655 51.264C58.3655 51.2213 58.3868 51.2 58.4295 51.2C58.4722 51.1573 58.4935 51.136 58.4935 51.136C58.4935 51.0933 58.5148 51.0507 58.5575 51.008C58.8135 50.8373 59.0268 50.624 59.1975 50.368C59.2402 50.3253 59.2402 50.3253 59.1975 50.368C59.1548 50.4107 59.0908 50.496 59.0055 50.624C58.9202 50.7093 58.8348 50.7947 58.7495 50.88C58.7068 50.9227 58.7282 50.9013 58.8135 50.816L58.9415 50.688L59.0695 50.56C59.1122 50.4747 59.1975 50.368 59.3255 50.24C59.5815 49.8987 59.7522 49.6427 59.8375 49.472C59.7522 49.5573 59.6882 49.6427 59.6455 49.728C59.6455 49.8133 59.6028 49.8987 59.5175 49.984C59.7308 49.6427 59.9228 49.28 60.0935 48.896C60.2642 48.512 60.4135 48.128 60.5415 47.744C60.4988 47.8293 60.4775 47.9147 60.4775 48C60.4775 48.0427 60.4562 48.1067 60.4135 48.192C60.7975 46.8693 60.8402 45.5467 60.5415 44.224C60.5842 44.3093 60.6055 44.3733 60.6055 44.416C60.6055 44.4587 60.6268 44.5227 60.6695 44.608C60.4562 43.584 60.0508 42.624 59.4535 41.728C58.8988 40.832 58.2588 40.0213 57.5335 39.296C57.3628 39.1253 57.3628 38.8907 57.5335 38.592C57.7042 38.2933 57.8322 38.08 57.9175 37.952C58.1735 37.6107 58.4722 37.312 58.8135 37.056C59.1548 36.7573 59.4962 36.5013 59.8375 36.288C60.1788 36.0747 60.5415 35.8827 60.9255 35.712C61.3095 35.5413 61.7148 35.4133 62.1415 35.328C62.3975 35.2427 62.6322 35.2213 62.8455 35.264C63.0588 35.264 63.2722 35.3707 63.4855 35.584C63.6988 35.7547 63.8695 35.9253 63.9975 36.096C64.1682 36.2667 64.3388 36.4587 64.5095 36.672C65.4055 37.7813 66.0668 39.04 66.4935 40.448C66.9628 41.856 67.0268 43.2853 66.6855 44.736C66.3015 46.3147 65.5975 47.7653 64.5735 49.088C63.5495 50.368 62.3762 51.4987 61.0535 52.48C60.2428 53.0773 59.3895 53.632 58.4935 54.144C57.6402 54.6133 56.7228 55.0187 55.7415 55.36C55.0162 55.5733 54.2695 55.744 53.5015 55.872C52.7762 56 52.0508 56.0213 51.3255 55.936C51.0268 55.8933 50.7282 55.8507 50.4295 55.808C50.1308 55.7653 49.8108 55.68 49.4695 55.552C48.9148 55.2533 48.4242 54.9333 47.9975 54.592C47.5282 54.2507 47.1655 53.8453 46.9095 53.376C46.6535 52.864 46.4402 52.3307 46.2695 51.776C45.8428 50.1973 45.7362 48.4907 45.9495 46.656C46.1202 45.376 46.3548 44.1173 46.6535 42.88C46.9948 41.6427 47.3788 40.4267 47.8055 39.232ZM82.8885 27.52C83.0165 27.4773 83.2298 27.392 83.5285 27.264C83.8698 27.136 84.1898 27.0507 84.4885 27.008C84.8298 26.9227 85.1285 26.9227 85.3845 27.008C85.6405 27.0507 85.7685 27.2427 85.7685 27.584C85.7685 29.6747 85.3632 31.7013 84.5525 33.664C83.7845 35.6267 82.7818 37.44 81.5445 39.104C81.1178 39.744 80.4992 40.2773 79.6885 40.704C78.9205 41.216 78.1525 41.5573 77.3845 41.728C77.1712 41.7707 76.9152 41.792 76.6165 41.792C76.3178 41.792 76.1045 41.6853 75.9765 41.472C75.8485 41.2587 75.8485 41.024 75.9765 40.768C76.1472 40.512 76.2752 40.32 76.3605 40.192C76.4885 39.9787 76.6165 39.808 76.7445 39.68C76.8725 39.5093 77.0005 39.3173 77.1285 39.104C77.5125 38.4213 77.8752 37.7387 78.2165 37.056C78.5578 36.3307 78.8352 35.6053 79.0485 34.88C79.1765 34.4533 79.2618 34.048 79.3045 33.664C79.3898 33.2373 79.4752 32.7893 79.5605 32.32C79.4752 32.4053 79.4325 32.448 79.4325 32.448C79.2618 32.5333 79.1125 32.64 78.9845 32.768C78.8565 32.896 78.7072 33.0027 78.5365 33.088C78.4512 33.1733 78.3445 33.28 78.2165 33.408C78.0885 33.4933 77.9818 33.5787 77.8965 33.664L77.5125 34.048C77.0005 34.432 76.4885 34.9227 75.9765 35.52L75.5925 35.904C75.5925 35.904 75.5712 35.9253 75.5285 35.968C75.4432 36.0533 75.3365 36.16 75.2085 36.288C75.1232 36.416 75.0378 36.5227 74.9525 36.608C74.2272 37.4187 73.5232 38.3573 72.8405 39.424V41.92C72.8405 43.3707 72.8618 44.8213 72.9045 46.272C72.9898 47.68 73.1818 49.088 73.4805 50.496L73.6725 51.264C73.7578 51.5627 73.7578 51.8187 73.6725 52.032C73.5872 52.2027 73.4592 52.3947 73.2885 52.608C72.8192 53.248 72.1792 53.8027 71.3685 54.272C71.0272 54.4853 70.6645 54.6773 70.2805 54.848C69.8965 55.0187 69.4912 55.1467 69.0645 55.232C68.9365 55.2747 68.7018 55.3173 68.3605 55.36C68.0192 55.36 67.8058 55.2533 67.7205 55.04C67.5072 54.3573 67.3578 53.6747 67.2725 52.992C67.1872 52.3093 67.1018 51.6267 67.0165 50.944C66.6752 47.7867 66.5685 44.6507 66.6965 41.536C66.8245 38.4213 66.8885 35.2853 66.8885 32.128C66.8885 31.8293 66.9952 31.552 67.2085 31.296C67.4645 31.04 67.6778 30.8053 67.8485 30.592C68.4885 29.952 69.2352 29.44 70.0885 29.056C70.2165 29.0133 70.4298 28.928 70.7285 28.8C71.0698 28.672 71.4112 28.5867 71.7525 28.544C72.0938 28.4587 72.3925 28.4587 72.6485 28.544C72.9045 28.5867 73.0325 28.7787 73.0325 29.12C73.0325 29.632 73.0325 30.144 73.0325 30.656C73.0325 31.1253 73.0112 31.616 72.9685 32.128C72.9685 32.512 72.9685 32.896 72.9685 33.28C72.9685 33.6213 72.9472 33.9627 72.9045 34.304C72.9898 34.2187 73.0965 34.1333 73.2245 34.048C73.3525 33.9627 73.4592 33.8773 73.5445 33.792C74.9098 32.5547 76.3605 31.4027 77.8965 30.336C79.4752 29.2267 81.1392 28.288 82.8885 27.52ZM109.223 29.888C109.522 30.4853 109.714 31.1467 109.799 31.872C109.884 32.5547 109.884 33.2373 109.799 33.92C109.714 34.8587 109.564 35.776 109.351 36.672C109.18 37.5253 108.946 38.3787 108.647 39.232C107.964 41.28 107.154 43.264 106.215 45.184C105.319 47.104 104.359 49.0027 103.335 50.88C101.116 54.72 98.7057 58.5387 96.103 62.336C95.207 63.5733 94.2897 64.8107 93.351 66.048C92.455 67.328 91.4523 68.5227 90.343 69.632C89.6603 70.272 88.9137 70.784 88.103 71.168C87.7617 71.3387 87.399 71.4667 87.015 71.552C86.6737 71.68 86.3323 71.744 85.991 71.744C85.7777 71.744 85.5857 71.7013 85.415 71.616C85.2017 71.5307 85.1163 71.36 85.159 71.104C85.2017 70.8053 85.3297 70.528 85.543 70.272C85.7137 70.016 85.9057 69.7813 86.119 69.568L86.439 69.248C86.5243 69.1627 86.567 69.0987 86.567 69.056C86.7803 68.8427 86.9723 68.608 87.143 68.352C87.3563 68.096 87.5697 67.84 87.783 67.584C88.8923 66.176 89.959 64.704 90.983 63.168C92.0497 61.6747 93.0737 60.16 94.055 58.624C94.7377 57.6 95.3777 56.576 95.975 55.552C96.615 54.4853 97.2337 53.4187 97.831 52.352C98.8123 50.5173 99.751 48.6613 100.647 46.784C101.543 44.9067 102.29 42.9653 102.887 40.96C103.228 39.936 103.484 38.8907 103.655 37.824C103.826 36.7573 103.804 35.6907 103.591 34.624C103.378 33.728 102.951 32.9813 102.311 32.384C101.842 32.0427 101.394 31.8293 100.967 31.744H100.519H100.455L100.391 31.808C100.306 31.8933 100.242 31.9573 100.199 32C100.156 32 100.092 32.0427 100.007 32.128C99.9643 32.128 99.9003 32.1707 99.815 32.256C99.6017 32.4693 99.4097 32.6613 99.239 32.832C99.0683 32.96 98.8977 33.1307 98.727 33.344C98.6417 33.4293 98.535 33.536 98.407 33.664C98.3217 33.7493 98.2577 33.8347 98.215 33.92C98.087 33.9627 98.0017 34.048 97.959 34.176C97.7457 34.3893 97.5537 34.624 97.383 34.88C97.2123 35.0933 97.0417 35.3067 96.871 35.52C96.2737 36.288 95.6763 37.1413 95.079 38.08C95.1643 37.9947 95.207 37.9093 95.207 37.824C95.2497 37.7387 95.3137 37.6533 95.399 37.568C95.1857 37.8667 94.9937 38.1653 94.823 38.464C94.6523 38.7627 94.503 39.0827 94.375 39.424C94.3323 39.68 94.2043 39.9787 93.991 40.32C93.9483 41.5573 93.9057 42.816 93.863 44.096C93.863 45.3333 93.8203 46.592 93.735 47.872C93.6923 48.512 93.6497 49.152 93.607 49.792C93.607 50.432 93.543 51.072 93.415 51.712C93.415 51.84 93.3937 51.9893 93.351 52.16C93.3083 52.288 93.2657 52.416 93.223 52.544C93.1377 52.7573 93.0097 52.9707 92.839 53.184C92.6683 53.3547 92.4977 53.5253 92.327 53.696C92.1137 53.9093 91.879 54.1227 91.623 54.336C91.367 54.5067 91.1323 54.656 90.919 54.784C90.7057 54.912 90.4283 55.0613 90.087 55.232C89.7883 55.4027 89.511 55.5307 89.255 55.616C88.999 55.7013 88.615 55.7867 88.103 55.872C87.6337 55.9573 87.2923 55.8293 87.079 55.488C87.0363 55.4027 87.015 55.3387 87.015 55.296C87.015 55.2107 86.9937 55.1253 86.951 55.04C86.823 54.8267 86.8443 54.5707 87.015 54.272C87.1003 54.1867 87.143 54.1013 87.143 54.016C87.1857 53.9307 87.2497 53.8453 87.335 53.76C87.3777 53.7173 87.399 53.696 87.399 53.696C87.399 53.6533 87.4203 53.6107 87.463 53.568C87.5483 52.7147 87.591 51.8827 87.591 51.072C87.6337 50.2613 87.6763 49.4293 87.719 48.576C87.7617 47.424 87.783 46.2933 87.783 45.184C87.8257 44.032 87.847 42.9013 87.847 41.792C87.8897 39.8293 87.911 37.888 87.911 35.968C87.911 34.048 87.911 32.1067 87.911 30.144C87.911 29.8453 88.0177 29.568 88.231 29.312C88.4443 29.056 88.6577 28.8213 88.871 28.608C89.511 27.968 90.2577 27.456 91.111 27.072C91.239 27.0293 91.4523 26.944 91.751 26.816C92.0923 26.688 92.4337 26.6027 92.775 26.56C93.1163 26.4747 93.415 26.4747 93.671 26.56C93.927 26.6027 94.055 26.7947 94.055 27.136C94.055 28.2453 94.055 29.3547 94.055 30.464C94.055 31.5733 94.0337 32.6827 93.991 33.792C94.5457 33.2373 95.1003 32.704 95.655 32.192C96.2097 31.68 96.7857 31.1893 97.383 30.72C98.151 30.1227 98.9403 29.6107 99.751 29.184C100.562 28.7147 101.415 28.3093 102.311 27.968C102.951 27.7547 103.612 27.584 104.295 27.456C105.02 27.328 105.724 27.3707 106.407 27.584C107.004 27.7973 107.538 28.096 108.007 28.48C108.519 28.864 108.924 29.3333 109.223 29.888ZM100.007 32.128C100.007 32.0427 100.05 32 100.135 32C100.135 32 100.092 32.0427 100.007 32.128ZM86.631 69.056C86.5883 69.056 86.567 69.0773 86.567 69.12C86.7377 68.9067 86.8017 68.8213 86.759 68.864C86.759 68.9067 86.7163 68.9707 86.631 69.056ZM136.02 52.8C136.404 52.8 136.66 52.8853 136.788 53.056C136.916 53.2267 136.958 53.44 136.916 53.696C136.873 53.952 136.788 54.208 136.66 54.464C136.532 54.6773 136.404 54.848 136.276 54.976C135.849 55.5733 135.316 56.064 134.676 56.448C134.036 56.832 133.353 57.024 132.628 57.024C130.878 57.1093 129.108 57.4507 127.316 58.048C125.524 58.688 123.796 59.264 122.132 59.776C120.126 60.288 118.164 60.8427 116.244 61.44C114.324 62.0373 112.34 62.592 110.291 63.104C109.694 63.3173 109.289 63.2107 109.076 62.784C108.819 62.4 108.841 61.9733 109.139 61.504C109.523 60.9067 110.035 60.3733 110.675 59.904C111.273 59.4773 111.934 59.1573 112.66 58.944C113.513 58.7307 114.388 58.4747 115.284 58.176C116.18 57.92 117.097 57.6427 118.036 57.344V41.28C115.732 41.664 113.385 42.1547 110.995 42.752C110.355 42.88 109.929 42.7733 109.715 42.432C109.502 42.0907 109.545 41.6427 109.843 41.088C110.185 40.4907 110.654 39.9787 111.252 39.552C111.892 39.1253 112.574 38.8267 113.299 38.656C114.281 38.4 115.22 38.1653 116.116 37.952C117.012 37.7387 117.95 37.5467 118.932 37.376C119.316 36.992 119.742 36.6507 120.212 36.352C120.724 36.0533 121.193 35.84 121.62 35.712C122.089 35.584 122.473 35.5627 122.772 35.648C123.07 35.6907 123.22 35.8827 123.22 36.224V36.608C123.817 36.48 124.393 36.3733 124.948 36.288C125.502 36.2027 126.036 36.0747 126.548 35.904C126.633 35.904 126.804 35.8827 127.06 35.84C127.316 35.7973 127.55 35.7547 127.764 35.712C127.977 35.6693 128.126 35.648 128.212 35.648C128.297 35.648 128.233 35.712 128.02 35.84C128.233 35.7547 128.425 35.6693 128.596 35.584C128.809 35.4987 128.958 35.456 129.044 35.456C129.172 35.4987 129.278 35.52 129.364 35.52C129.449 35.52 129.556 35.5627 129.684 35.648C130.11 35.9893 130.26 36.352 130.132 36.736C130.004 37.12 129.748 37.504 129.364 37.888C128.98 38.272 128.532 38.6133 128.02 38.912C127.55 39.2107 127.188 39.424 126.932 39.552C126.42 39.7653 125.822 39.9573 125.14 40.128C124.5 40.256 123.86 40.3627 123.22 40.448V54.976C123.22 55.1467 123.198 55.2747 123.156 55.36C123.156 55.4453 123.134 55.552 123.092 55.68C125.268 54.9547 127.422 54.336 129.556 53.824C131.689 53.312 133.844 52.9707 136.02 52.8ZM118.676 28.864C119.486 27.2853 119.87 25.664 119.828 24C119.828 22.336 119.614 20.672 119.188 19.008C118.761 17.344 118.228 15.7013 117.588 14.08C116.99 12.4587 116.521 10.88 116.18 9.344C115.924 8.064 115.945 6.912 116.244 5.888C116.542 4.82133 117.033 3.92533 117.716 3.2C118.441 2.432 119.337 1.87733 120.404 1.536C121.47 1.152 122.644 1.00267 123.924 1.088C124.478 1.13066 124.734 1.344 124.692 1.728C124.692 2.112 124.5 2.53866 124.116 3.008C123.774 3.47733 123.305 3.94666 122.708 4.416C122.153 4.84266 121.62 5.12 121.108 5.248C121.236 5.67466 121.342 6.10133 121.428 6.528C121.513 6.912 121.62 7.27466 121.748 7.616C122.089 8.768 122.43 9.89867 122.772 11.008C123.156 12.0747 123.518 13.1413 123.86 14.208C124.5 16.5547 124.862 18.8587 124.948 21.12C125.033 23.3813 124.521 25.6427 123.412 27.904C123.198 28.288 122.772 28.6933 122.132 29.12C121.492 29.5467 120.852 29.8667 120.212 30.08C119.572 30.2933 119.06 30.336 118.676 30.208C118.292 30.0373 118.292 29.5893 118.676 28.864ZM119.508 5.248C119.422 5.248 119.38 5.26933 119.38 5.312C119.38 5.35467 119.422 5.33333 119.508 5.248ZM155.973 29.888C156.272 30.4853 156.464 31.1467 156.549 31.872C156.634 32.5547 156.634 33.2373 156.549 33.92C156.464 34.8587 156.314 35.776 156.101 36.672C155.93 37.5253 155.696 38.3787 155.397 39.232C154.714 41.28 153.904 43.264 152.965 45.184C152.069 47.104 151.109 49.0027 150.085 50.88C147.866 54.72 145.456 58.5387 142.853 62.336C141.957 63.5733 141.04 64.8107 140.101 66.048C139.205 67.328 138.202 68.5227 137.093 69.632C136.41 70.272 135.664 70.784 134.853 71.168C134.512 71.3387 134.149 71.4667 133.765 71.552C133.424 71.68 133.082 71.744 132.741 71.744C132.528 71.744 132.336 71.7013 132.165 71.616C131.952 71.5307 131.866 71.36 131.909 71.104C131.952 70.8053 132.08 70.528 132.293 70.272C132.464 70.016 132.656 69.7813 132.869 69.568L133.189 69.248C133.274 69.1627 133.317 69.0987 133.317 69.056C133.53 68.8427 133.722 68.608 133.893 68.352C134.106 68.096 134.32 67.84 134.533 67.584C135.642 66.176 136.709 64.704 137.733 63.168C138.8 61.6747 139.824 60.16 140.805 58.624C141.488 57.6 142.128 56.576 142.725 55.552C143.365 54.4853 143.984 53.4187 144.581 52.352C145.562 50.5173 146.501 48.6613 147.397 46.784C148.293 44.9067 149.04 42.9653 149.637 40.96C149.978 39.936 150.234 38.8907 150.405 37.824C150.576 36.7573 150.554 35.6907 150.341 34.624C150.128 33.728 149.701 32.9813 149.061 32.384C148.592 32.0427 148.144 31.8293 147.717 31.744H147.269H147.205L147.141 31.808C147.056 31.8933 146.992 31.9573 146.949 32C146.906 32 146.842 32.0427 146.757 32.128C146.714 32.128 146.65 32.1707 146.565 32.256C146.352 32.4693 146.16 32.6613 145.989 32.832C145.818 32.96 145.648 33.1307 145.477 33.344C145.392 33.4293 145.285 33.536 145.157 33.664C145.072 33.7493 145.008 33.8347 144.965 33.92C144.837 33.9627 144.752 34.048 144.709 34.176C144.496 34.3893 144.304 34.624 144.133 34.88C143.962 35.0933 143.792 35.3067 143.621 35.52C143.024 36.288 142.426 37.1413 141.829 38.08C141.914 37.9947 141.957 37.9093 141.957 37.824C142 37.7387 142.064 37.6533 142.149 37.568C141.936 37.8667 141.744 38.1653 141.573 38.464C141.402 38.7627 141.253 39.0827 141.125 39.424C141.082 39.68 140.954 39.9787 140.741 40.32C140.698 41.5573 140.656 42.816 140.613 44.096C140.613 45.3333 140.57 46.592 140.485 47.872C140.442 48.512 140.4 49.152 140.357 49.792C140.357 50.432 140.293 51.072 140.165 51.712C140.165 51.84 140.144 51.9893 140.101 52.16C140.058 52.288 140.016 52.416 139.973 52.544C139.888 52.7573 139.76 52.9707 139.589 53.184C139.418 53.3547 139.248 53.5253 139.077 53.696C138.864 53.9093 138.629 54.1227 138.373 54.336C138.117 54.5067 137.882 54.656 137.669 54.784C137.456 54.912 137.178 55.0613 136.837 55.232C136.538 55.4027 136.261 55.5307 136.005 55.616C135.749 55.7013 135.365 55.7867 134.853 55.872C134.384 55.9573 134.042 55.8293 133.829 55.488C133.786 55.4027 133.765 55.3387 133.765 55.296C133.765 55.2107 133.744 55.1253 133.701 55.04C133.573 54.8267 133.594 54.5707 133.765 54.272C133.85 54.1867 133.893 54.1013 133.893 54.016C133.936 53.9307 134 53.8453 134.085 53.76C134.128 53.7173 134.149 53.696 134.149 53.696C134.149 53.6533 134.17 53.6107 134.213 53.568C134.298 52.7147 134.341 51.8827 134.341 51.072C134.384 50.2613 134.426 49.4293 134.469 48.576C134.512 47.424 134.533 46.2933 134.533 45.184C134.576 44.032 134.597 42.9013 134.597 41.792C134.64 39.8293 134.661 37.888 134.661 35.968C134.661 34.048 134.661 32.1067 134.661 30.144C134.661 29.8453 134.768 29.568 134.981 29.312C135.194 29.056 135.408 28.8213 135.621 28.608C136.261 27.968 137.008 27.456 137.861 27.072C137.989 27.0293 138.202 26.944 138.501 26.816C138.842 26.688 139.184 26.6027 139.525 26.56C139.866 26.4747 140.165 26.4747 140.421 26.56C140.677 26.6027 140.805 26.7947 140.805 27.136C140.805 28.2453 140.805 29.3547 140.805 30.464C140.805 31.5733 140.784 32.6827 140.741 33.792C141.296 33.2373 141.85 32.704 142.405 32.192C142.96 31.68 143.536 31.1893 144.133 30.72C144.901 30.1227 145.69 29.6107 146.501 29.184C147.312 28.7147 148.165 28.3093 149.061 27.968C149.701 27.7547 150.362 27.584 151.045 27.456C151.77 27.328 152.474 27.3707 153.157 27.584C153.754 27.7973 154.288 28.096 154.757 28.48C155.269 28.864 155.674 29.3333 155.973 29.888ZM146.757 32.128C146.757 32.0427 146.8 32 146.885 32C146.885 32 146.842 32.0427 146.757 32.128ZM133.381 69.056C133.338 69.056 133.317 69.0773 133.317 69.12C133.488 68.9067 133.552 68.8213 133.509 68.864C133.509 68.9067 133.466 68.9707 133.381 69.056ZM192.114 44.736C192.37 44.8213 192.498 45.0133 192.498 45.312C192.455 45.6533 192.284 45.9733 191.986 46.272C190.578 47.8933 188.999 49.3227 187.25 50.56C185.543 51.7973 183.666 52.8 181.618 53.568C179.399 54.3787 177.095 54.8053 174.706 54.848C172.316 54.848 170.012 54.4213 167.794 53.568C166.855 53.2267 165.938 52.8 165.042 52.288C164.188 51.7333 163.378 51.136 162.61 50.496C161.202 49.3013 160.114 47.936 159.346 46.4C159.004 45.632 158.727 44.8213 158.514 43.968C158.343 43.072 158.3 42.1973 158.386 41.344C158.514 40.2773 158.791 39.2747 159.218 38.336C159.687 37.3547 160.242 36.4587 160.882 35.648C161.991 34.2827 163.25 33.088 164.658 32.064C166.066 31.04 167.538 30.1013 169.074 29.248C170.567 28.48 172.124 27.8613 173.746 27.392C175.367 26.9227 177.01 26.7307 178.674 26.816C179.911 26.9013 181.106 27.136 182.258 27.52C183.452 27.8613 184.455 28.5227 185.266 29.504C185.991 30.3573 186.418 31.3813 186.546 32.576C186.674 33.3013 186.674 34.0053 186.546 34.688C186.418 35.3707 186.247 36.0533 186.034 36.736C185.906 36.9493 185.778 37.1413 185.65 37.312C185.522 37.4827 185.372 37.632 185.202 37.76C185.031 37.888 184.818 38.08 184.562 38.336C183.879 38.8907 183.09 39.3387 182.194 39.68C181.938 39.7653 181.639 39.8507 181.298 39.936C180.956 39.9787 180.658 39.9573 180.402 39.872C180.146 39.7867 180.018 39.6587 180.018 39.488C180.018 39.2747 180.06 39.0613 180.146 38.848C180.146 38.8053 180.167 38.7627 180.21 38.72C180.338 38.1653 180.423 37.632 180.466 37.12C180.508 36.5653 180.487 35.9893 180.402 35.392C180.146 34.368 179.57 33.4293 178.674 32.576C178.162 32.2347 177.628 31.9573 177.074 31.744C176.519 31.5307 175.943 31.36 175.346 31.232C174.876 31.1467 174.407 31.104 173.938 31.104C173.511 31.104 173.063 31.1253 172.594 31.168C172.338 31.2107 172.082 31.2533 171.826 31.296C171.57 31.3387 171.314 31.4027 171.058 31.488C170.972 31.488 170.908 31.5093 170.866 31.552H170.802C170.631 31.6373 170.482 31.7013 170.354 31.744C170.226 31.744 170.076 31.7867 169.906 31.872H169.842C169.799 31.9147 169.756 31.936 169.714 31.936C169.543 32.0213 169.394 32.1067 169.266 32.192C169.138 32.2347 168.988 32.2987 168.818 32.384L168.754 32.448C168.412 32.6187 168.156 32.768 167.986 32.896C167.943 32.9387 167.9 32.9813 167.858 33.024C167.815 33.024 167.772 33.0453 167.73 33.088C167.644 33.1733 167.559 33.2373 167.474 33.28C167.431 33.28 167.367 33.3227 167.282 33.408C167.239 33.4507 167.175 33.4933 167.09 33.536C167.047 33.5787 166.983 33.6427 166.898 33.728L166.706 33.92L166.322 34.304L166.13 34.496L165.554 35.264C165.298 35.776 165.02 36.3733 164.722 37.056C164.594 37.6533 164.508 38.272 164.466 38.912C164.466 39.5093 164.53 40.1067 164.658 40.704C164.956 41.9413 165.49 43.0933 166.258 44.16C167.026 45.2267 167.922 46.1867 168.946 47.04C170.055 47.8933 171.25 48.5973 172.53 49.152C173.81 49.664 175.132 50.048 176.498 50.304C177.948 50.5173 179.314 50.56 180.594 50.432C180.807 50.3893 180.978 50.368 181.106 50.368C181.276 50.3253 181.468 50.2827 181.682 50.24C181.81 50.1973 181.916 50.176 182.002 50.176C182.13 50.176 182.258 50.1547 182.386 50.112C182.428 50.0693 182.492 50.048 182.578 50.048L183.73 49.664V49.6C183.815 49.5573 183.922 49.5147 184.05 49.472C184.178 49.4293 184.284 49.3867 184.37 49.344C184.37 49.3013 184.391 49.28 184.434 49.28C184.519 49.1947 184.604 49.152 184.69 49.152C184.775 49.1093 184.86 49.0453 184.946 48.96C184.946 48.96 184.988 48.9387 185.074 48.896C185.159 48.8107 185.223 48.768 185.266 48.768C185.308 48.7253 185.372 48.6613 185.458 48.576C185.5 48.5333 185.543 48.512 185.586 48.512C185.628 48.4693 185.692 48.4053 185.778 48.32C184.583 47.6373 183.324 47.0827 182.002 46.656C180.679 46.2293 179.335 45.888 177.97 45.632C176.348 45.376 174.706 45.312 173.042 45.44C172.956 45.44 172.871 45.4613 172.786 45.504C172.7 45.504 172.615 45.504 172.53 45.504C172.444 45.504 172.38 45.5253 172.338 45.568C171.74 45.8667 171.164 46.08 170.61 46.208C170.396 46.2507 170.14 46.272 169.842 46.272C169.586 46.272 169.394 46.1653 169.266 45.952C169.138 45.7387 169.138 45.504 169.266 45.248C169.394 44.992 169.522 44.8 169.65 44.672C169.906 44.3307 170.204 44.032 170.546 43.776C170.887 43.4773 171.228 43.2213 171.57 43.008C172.594 42.2827 173.831 41.7493 175.282 41.408C176.647 41.0667 178.055 40.9387 179.506 41.024C180.956 41.1093 182.364 41.28 183.73 41.536C185.223 41.8347 186.674 42.24 188.082 42.752C189.532 43.2213 190.876 43.8827 192.114 44.736ZM172.018 45.632C171.932 45.6747 171.847 45.7173 171.762 45.76C171.719 45.8027 171.847 45.76 172.146 45.632H172.082H172.018Z" fill="white"/>
</svg>
