<svg width="285" height="11" viewBox="0 0 285 11" fill="none" xmlns="http://www.w3.org/2000/svg">
<path d="M4.36297 5.83741C4.02038 5.8064 3.71898 5.73129 3.45877 5.61209C3.1971 5.45025 2.95603 5.26635 2.73555 5.06042C2.03147 4.44405 1.43181 3.76008 0.936584 3.00852C0.711743 2.67466 0.529544 2.33934 0.389985 2.00256C0.250427 1.66579 0.153512 1.32757 0.0992391 0.987884C0.049328 0.776129 0.0633789 0.562191 0.141392 0.346074C0.219407 0.129957 0.387067 0.0388558 0.644372 0.0727748C3.46891 0.275307 6.25154 0.500616 8.99225 0.748699C11.7315 0.954139 14.5141 1.17944 17.3401 1.42462C21.3645 1.75701 25.3675 2.09012 29.3492 2.42397C158.88 8.02206 251.753 2.9505 255.774 3.1976C263.987 3.686 272.211 3.85386 280.446 3.70117C280.744 3.69099 281.024 3.76683 281.286 3.92867C281.59 4.08906 281.852 4.27222 282.073 4.47816C282.774 5.00925 283.373 5.67189 283.87 6.46609C284.095 6.79995 284.277 7.13527 284.416 7.47205C284.556 7.80882 284.653 8.14705 284.707 8.48673C284.757 8.69849 284.743 8.91242 284.665 9.12854C284.585 9.30201 284.418 9.39311 284.162 9.40184C281.303 9.45661 278.466 9.48933 275.648 9.50001C272.787 9.4695 269.924 9.39635 267.06 9.28055C262.999 9.12018 258.979 8.91572 255 8.66716C250.977 8.37741 158.061 13.4291 28.445 7.83393C24.4207 7.50154 20.4177 7.16842 16.436 6.83458C12.4102 6.45955 8.38585 6.12716 4.36297 5.83741Z" fill="url(#paint0_linear_309_502)"/>
<defs>
<linearGradient id="paint0_linear_309_502" x1="0.370679" y1="9.5748" x2="284.435" y2="-0.110853" gradientUnits="userSpaceOnUse">
<stop stop-color="#135FF2"/>
<stop offset="1" stop-color="#13F2C9"/>
</linearGradient>
</defs>
</svg>
