<svg width="235" height="11" viewBox="0 0 235 11" fill="none" xmlns="http://www.w3.org/2000/svg">
<path d="M4.36255 5.83695C4.01996 5.80594 3.71856 5.73083 3.45835 5.61163C3.19668 5.44978 2.95561 5.26589 2.73513 5.05995C2.03105 4.44359 1.43139 3.75962 0.93616 3.00806C0.711319 2.67419 0.52912 2.33887 0.389562 2.0021C0.250004 1.66533 0.153088 1.3271 0.0988153 0.987421C0.0489043 0.775666 0.0629553 0.561732 0.140968 0.345615C0.218984 0.129497 0.386644 0.0383964 0.643948 0.0723153C3.46849 0.274847 6.25112 0.500155 8.99183 0.748237C11.7311 0.953678 14.5137 1.17898 17.3397 1.42416C21.364 1.75655 25.3671 2.08966 29.3487 2.42351C158.88 8.02159 201.545 2.75319 205.567 3.0003C213.78 3.4887 222.004 3.65655 230.238 3.50387C230.536 3.49369 230.817 3.56952 231.078 3.73137C231.383 3.89176 231.645 4.07492 231.865 4.28086C232.567 4.81194 233.165 5.47458 233.662 6.26879C233.887 6.60265 234.069 6.93797 234.209 7.27475C234.348 7.61152 234.445 7.94975 234.5 8.28943C234.549 8.50118 234.535 8.71512 234.457 8.93124C234.378 9.10471 234.21 9.19581 233.954 9.20454C231.096 9.25931 228.258 9.29203 225.441 9.30271C222.579 9.2722 219.717 9.19904 216.852 9.08325C212.791 8.92288 208.771 8.71842 204.792 8.46986C200.77 8.18011 158.061 13.4286 28.4446 7.83346C24.4202 7.50107 20.4172 7.16796 16.4355 6.83411C12.4098 6.45908 8.38543 6.12669 4.36255 5.83695Z" fill="url(#paint0_linear_309_503)"/>
<defs>
<linearGradient id="paint0_linear_309_503" x1="0.337752" y1="8.62108" x2="234.26" y2="0.645105" gradientUnits="userSpaceOnUse">
<stop stop-color="#135FF2"/>
<stop offset="1" stop-color="#13F2C9"/>
</linearGradient>
</defs>
</svg>
