<svg width="247" height="82" viewBox="0 0 247 82" fill="none" xmlns="http://www.w3.org/2000/svg">
<path d="M26.168 7.488C26.168 7.18933 26.2533 6.912 26.424 6.656C26.6373 6.35733 26.8293 6.12266 27 5.952C27.5547 5.35466 28.216 4.84266 28.984 4.416C29.112 4.37333 29.304 4.288 29.56 4.16C29.8587 3.98933 30.1573 3.88266 30.456 3.84C30.7547 3.75466 31.0107 3.75466 31.224 3.84C31.4373 3.92533 31.544 4.13866 31.544 4.48C31.544 4.82133 31.5227 5.184 31.48 5.568C31.4373 5.952 31.3733 6.336 31.288 6.72L30.712 10.56C30.4987 11.9253 30.2853 13.2907 30.072 14.656C29.8587 15.9787 29.6667 17.3227 29.496 18.688C29.3253 19.9253 29.176 21.1413 29.048 22.336C28.92 23.5307 28.856 24.7467 28.856 25.984C28.0027 26.4107 27.128 26.8373 26.232 27.264C25.336 27.648 24.44 28.0747 23.544 28.544C23.6293 28.3733 23.6933 28.224 23.736 28.096C23.7787 27.968 23.8427 27.8187 23.928 27.648C23.8427 27.8187 23.8 27.968 23.8 28.096C23.8427 27.8827 23.864 27.6907 23.864 27.52C23.9067 27.3067 23.9067 27.0933 23.864 26.88C23.864 26.9227 23.864 26.9653 23.864 27.008C23.9067 27.0507 23.928 27.1147 23.928 27.2C23.8 26.6027 23.544 26.1547 23.16 25.856L23.416 26.112C23.032 25.7707 22.6053 25.5147 22.136 25.344C21.6667 25.1733 21.1973 25.0453 20.728 24.96C20.8133 24.96 20.8773 24.9813 20.92 25.024C21.0053 25.024 21.0907 25.024 21.176 25.024C20.408 24.896 19.64 24.8533 18.872 24.896C18.104 24.896 17.336 24.9387 16.568 25.024C16.696 24.9813 16.8667 24.96 17.08 24.96C15.9707 25.088 14.7973 25.3227 13.56 25.664C13.4747 25.7067 13.3893 25.7493 13.304 25.792C13.2187 25.792 13.1333 25.8133 13.048 25.856L13.432 25.728C13.3893 25.728 13.3467 25.7493 13.304 25.792C13.304 25.792 13.2827 25.792 13.24 25.792C13.0693 25.8347 12.92 25.8773 12.792 25.92C12.664 25.9627 12.5147 26.0267 12.344 26.112C12.1733 26.1973 12.024 26.2613 11.896 26.304C11.768 26.3467 11.6187 26.4107 11.448 26.496C11.2773 26.5813 11.128 26.6453 11 26.688C10.9573 26.688 10.9147 26.7093 10.872 26.752C10.872 26.752 10.8507 26.752 10.808 26.752C10.7227 26.7947 10.7013 26.816 10.744 26.816C10.8293 26.7733 10.9147 26.7307 11 26.688C11.128 26.6027 11.2133 26.56 11.256 26.56C11.3413 26.5173 11.3413 26.5173 11.256 26.56C11.0853 26.6453 10.9147 26.7307 10.744 26.816C10.5733 26.9013 10.4027 26.9867 10.232 27.072C10.1467 27.1573 10.0613 27.2213 9.976 27.264C9.89067 27.3067 9.80533 27.3493 9.72 27.392C9.63467 27.4773 9.54933 27.52 9.464 27.52C9.37867 27.6053 9.37867 27.6267 9.464 27.584C9.54933 27.4987 9.63467 27.4347 9.72 27.392C9.848 27.3067 9.95467 27.2427 10.04 27.2C10.1253 27.1573 10.1253 27.1573 10.04 27.2C9.99733 27.2 9.976 27.2213 9.976 27.264C9.976 27.264 9.95467 27.264 9.912 27.264C9.74133 27.3493 9.57067 27.456 9.4 27.584C9.272 27.712 9.12267 27.8187 8.952 27.904C8.86667 27.9893 8.78133 28.0533 8.696 28.096C8.61067 28.1813 8.58933 28.2027 8.632 28.16C8.71733 28.0747 8.80267 28.0107 8.888 27.968C9.016 27.8827 9.12267 27.8187 9.208 27.776C9.29333 27.6907 9.272 27.6907 9.144 27.776C9.05867 27.8613 8.97333 27.9253 8.888 27.968C8.84533 28.0107 8.78133 28.0747 8.696 28.16C8.52533 28.3307 8.376 28.4587 8.248 28.544L8.056 28.736L8.504 28.288C8.504 28.3307 8.48267 28.352 8.44 28.352C8.44 28.352 8.44 28.3733 8.44 28.416C8.312 28.544 8.184 28.672 8.056 28.8C7.928 28.928 7.8 29.0773 7.672 29.248C7.672 29.248 7.62933 29.2907 7.544 29.376C7.45867 29.4613 7.39467 29.5253 7.352 29.568C7.352 29.6107 7.52267 29.3973 7.864 28.928C7.82133 28.9707 7.77867 29.0133 7.736 29.056C7.736 29.0987 7.71467 29.1413 7.672 29.184C7.62933 29.2693 7.58667 29.3547 7.544 29.44C7.50133 29.4827 7.43733 29.5467 7.352 29.632C7.26667 29.76 7.16 29.9093 7.032 30.08C6.94667 30.208 6.86133 30.3573 6.776 30.528C6.86133 30.4427 6.904 30.3573 6.904 30.272C6.94667 30.1867 7.01067 30.1013 7.096 30.016C6.88267 30.4427 6.66933 30.8693 6.456 31.296C6.28533 31.68 6.15733 32.1067 6.072 32.576C6.072 32.448 6.11467 32.2987 6.2 32.128C5.73067 33.792 5.66667 35.4987 6.008 37.248C6.008 37.0773 5.98667 36.9707 5.944 36.928C6.24267 38.4213 6.712 39.808 7.352 41.088C7.992 42.368 8.84533 43.4987 9.912 44.48L9.656 44.224C10.552 45.0347 11.512 45.6747 12.536 46.144C13.6027 46.5707 14.6907 46.8907 15.8 47.104C15.7147 47.0613 15.6293 47.04 15.544 47.04C15.5013 47.04 15.4373 47.0187 15.352 46.976C16.5893 47.1893 17.8053 47.296 19 47.296C20.2373 47.296 21.4747 47.232 22.712 47.104C22.456 47.104 22.264 47.1253 22.136 47.168C22.7333 47.0827 23.3093 46.9973 23.864 46.912C24.4613 46.784 25.0373 46.656 25.592 46.528C26.6587 46.3147 27.6613 46.0587 28.6 45.76C28.856 45.6747 29.112 45.6107 29.368 45.568C29.624 45.4827 29.88 45.3973 30.136 45.312C30.2213 45.2693 30.2427 45.2693 30.2 45.312C30.1573 45.312 30.072 45.3333 29.944 45.376C29.8587 45.376 29.7733 45.3973 29.688 45.44C29.6453 45.44 29.6667 45.44 29.752 45.44C29.7947 45.3973 29.8587 45.376 29.944 45.376C30.0293 45.3333 30.0933 45.312 30.136 45.312C30.1787 45.312 30.2427 45.2907 30.328 45.248C30.4133 45.2053 30.52 45.1627 30.648 45.12C30.776 45.0773 30.904 45.0347 31.032 44.992C31.9707 44.6507 32.888 44.3093 33.784 43.968C34.7227 43.584 35.6613 43.1787 36.6 42.752C36.8133 42.624 37.0267 42.5173 37.24 42.432C37.2827 42.3893 37.304 42.368 37.304 42.368C37.3467 42.368 37.3893 42.3467 37.432 42.304C37.5173 42.2613 37.5173 42.2613 37.432 42.304C37.3467 42.3467 37.2613 42.4107 37.176 42.496C37.0907 42.5387 37.0053 42.5813 36.92 42.624C36.8347 42.624 36.8347 42.6027 36.92 42.56C37.0053 42.5173 37.048 42.496 37.048 42.496C37.0907 42.496 37.1547 42.4747 37.24 42.432C37.4533 42.3467 37.6453 42.24 37.816 42.112C38.0293 41.984 38.2427 41.8773 38.456 41.792C38.84 41.5787 39.224 41.3867 39.608 41.216C39.992 41.0027 40.376 40.7893 40.76 40.576C41.0587 40.3627 41.4 40.1493 41.784 39.936C41.8267 39.8933 41.8693 39.872 41.912 39.872C41.9547 39.8293 41.9973 39.7867 42.04 39.744C42.0827 39.744 42.1253 39.7227 42.168 39.68C42.2533 39.6373 42.2533 39.6373 42.168 39.68C42.0827 39.7227 41.976 39.7867 41.848 39.872C41.7627 39.9573 41.6773 40.0213 41.592 40.064C41.5067 40.1067 41.5067 40.1067 41.592 40.064C41.6773 39.9787 41.7413 39.936 41.784 39.936C41.8693 39.8933 41.9547 39.8293 42.04 39.744C42.6373 39.36 43.1707 38.9973 43.64 38.656C44.2373 38.1867 44.92 37.8453 45.688 37.632C45.8587 37.5893 46.072 37.568 46.328 37.568C46.584 37.568 46.776 37.6747 46.904 37.888C46.9893 38.1013 46.968 38.336 46.84 38.592C46.7547 38.848 46.648 39.0613 46.52 39.232C46.136 39.7867 45.5813 40.32 44.856 40.832C44.7707 40.9173 44.6853 40.9813 44.6 41.024C44.5573 41.0667 44.4933 41.1307 44.408 41.216C42.8293 42.3253 41.1867 43.3493 39.48 44.288C37.816 45.184 36.1307 46.016 34.424 46.784C32.4187 47.68 30.392 48.4693 28.344 49.152C26.3387 49.8347 24.2907 50.4107 22.2 50.88C20.1947 51.3067 18.168 51.5627 16.12 51.648C14.1147 51.7333 12.088 51.5413 10.04 51.072C8.376 50.6027 6.81867 49.856 5.368 48.832C3.96 47.7653 2.82933 46.3573 1.976 44.608C1.54933 43.712 1.208 42.7733 0.952 41.792C0.696 40.768 0.525333 39.744 0.44 38.72C0.354666 37.8667 0.397333 37.0133 0.568 36.16C0.696 35.264 0.909333 34.4107 1.208 33.6C1.54933 32.704 1.99733 31.872 2.552 31.104C3.064 30.2933 3.64 29.5253 4.28 28.8C5.09067 27.9467 5.944 27.1573 6.84 26.432C7.736 25.7067 8.67467 25.0453 9.656 24.448C11.192 23.5093 12.792 22.7413 14.456 22.144C15.2667 21.8453 16.0773 21.5893 16.888 21.376C17.6987 21.12 18.5307 20.928 19.384 20.8C20.1093 20.7147 20.8347 20.6293 21.56 20.544C22.328 20.4587 23.0747 20.4587 23.8 20.544C24.3973 20.5867 24.9733 20.672 25.528 20.8C26.1253 20.8853 26.7013 21.056 27.256 21.312C27.5973 21.5253 27.9387 21.7813 28.28 22.08C28.664 22.336 28.9413 22.6987 29.112 23.168C29.3253 23.7227 29.368 24.2773 29.24 24.832C29.1547 25.3867 28.984 25.92 28.728 26.432C28.3867 27.1573 27.896 27.776 27.256 28.288C26.6587 28.7573 26.0187 29.12 25.336 29.376C25.208 29.4187 25.0373 29.4827 24.824 29.568C24.6533 29.6107 24.4613 29.632 24.248 29.632C24.0347 29.632 23.8427 29.5893 23.672 29.504C23.544 29.4187 23.48 29.248 23.48 28.992C23.48 27.4987 23.5653 26.0053 23.736 24.512C23.9067 22.976 24.0987 21.4613 24.312 19.968C24.5253 18.6453 24.7173 17.344 24.888 16.064C25.1013 14.7413 25.3147 13.4187 25.528 12.096C25.6133 11.6267 25.6773 11.1573 25.72 10.688C25.8053 10.176 25.8907 9.664 25.976 9.152C26.0187 8.896 26.0613 8.64 26.104 8.384C26.1467 8.08533 26.168 7.78666 26.168 7.488ZM52.637 38.272C52.8077 38.4853 52.8077 38.7413 52.637 39.04C52.4663 39.296 52.3383 39.488 52.253 39.616C51.741 40.256 51.1223 40.8107 50.397 41.28C50.0557 41.4933 49.6717 41.6853 49.245 41.856C48.861 42.0267 48.4557 42.1547 48.029 42.24C47.8157 42.3253 47.581 42.368 47.325 42.368C47.069 42.3253 46.8557 42.1973 46.685 41.984C46.5143 41.7707 46.3437 41.6 46.173 41.472C46.0023 41.3013 45.8103 41.1093 45.597 40.896C45.6397 40.9813 45.6823 41.0453 45.725 41.088C45.7677 41.088 45.8103 41.1093 45.853 41.152C45.085 40.5547 44.2317 40.1707 43.293 40C43.3783 40 43.4423 40.0213 43.485 40.064C43.5703 40.064 43.6557 40.064 43.741 40.064C43.2717 39.9787 42.781 39.9787 42.269 40.064C42.397 40.0213 42.6103 40 42.909 40C42.781 40 42.653 40.0213 42.525 40.064C42.4397 40.064 42.333 40.064 42.205 40.064C42.1623 40.1067 42.0983 40.128 42.013 40.128C42.3543 40.0427 42.5677 40 42.653 40C42.7383 39.9573 42.717 39.9573 42.589 40C42.5037 40 42.4397 40.0213 42.397 40.064C42.397 40.064 42.3543 40.064 42.269 40.064C42.2263 40.1067 42.1623 40.128 42.077 40.128C42.4183 40 42.6317 39.9147 42.717 39.872C42.845 39.7867 42.845 39.7867 42.717 39.872C42.6317 39.9147 42.5677 39.9573 42.525 40C42.525 40 42.4823 40.0213 42.397 40.064C42.397 40.064 42.3543 40.0853 42.269 40.128C42.6103 39.9147 42.845 39.7867 42.973 39.744C43.101 39.6587 43.0797 39.6587 42.909 39.744C42.8663 39.7867 42.8237 39.8293 42.781 39.872C42.7383 39.872 42.6957 39.8933 42.653 39.936C42.525 40.0213 42.4823 40.0427 42.525 40C42.6103 39.9147 42.717 39.8293 42.845 39.744C42.973 39.6587 43.0797 39.5947 43.165 39.552C43.2503 39.5093 43.229 39.5307 43.101 39.616C43.0583 39.6587 43.0157 39.7013 42.973 39.744C42.9303 39.744 42.8877 39.7653 42.845 39.808C42.7597 39.8933 42.7383 39.9147 42.781 39.872C42.8663 39.7867 42.9517 39.7013 43.037 39.616C43.165 39.5307 43.2503 39.4667 43.293 39.424C43.3783 39.3387 43.3783 39.3387 43.293 39.424L43.229 39.488L42.973 39.744C42.973 39.744 42.9303 39.7867 42.845 39.872C43.0583 39.6587 43.1863 39.5093 43.229 39.424C43.3143 39.3387 43.3143 39.36 43.229 39.488C43.1437 39.5733 43.0797 39.6587 43.037 39.744C42.9517 39.8293 42.8877 39.9147 42.845 40C42.8023 40.0853 42.7383 40.1707 42.653 40.256C42.6957 40.1707 42.7383 40.0853 42.781 40C42.8237 39.9147 42.8877 39.8293 42.973 39.744C42.8023 40 42.653 40.2773 42.525 40.576C42.397 40.832 42.2903 41.1307 42.205 41.472C42.205 41.344 42.2477 41.1947 42.333 41.024C41.9917 42.1333 41.949 43.3707 42.205 44.736C42.205 44.6507 42.1837 44.5867 42.141 44.544C42.141 44.5013 42.141 44.4373 42.141 44.352C42.397 45.5893 42.9303 46.784 43.741 47.936C44.1677 48.6613 44.6797 49.2373 45.277 49.664C45.2343 49.6213 45.1917 49.6 45.149 49.6C45.1063 49.5573 45.0637 49.5147 45.021 49.472C45.8317 50.0693 46.685 50.432 47.581 50.56C47.4103 50.56 47.261 50.5387 47.133 50.496C47.645 50.624 48.221 50.6453 48.861 50.56C48.605 50.56 48.413 50.5813 48.285 50.624C48.4983 50.5813 48.6903 50.56 48.861 50.56C49.0317 50.5173 49.2023 50.4747 49.373 50.432C49.4157 50.3893 49.4797 50.368 49.565 50.368C49.0103 50.5387 48.8183 50.5813 48.989 50.496C49.0743 50.496 49.117 50.496 49.117 50.496C49.1597 50.4533 49.2023 50.432 49.245 50.432C49.501 50.3467 49.6717 50.2827 49.757 50.24C49.7997 50.24 49.821 50.24 49.821 50.24C49.8637 50.1973 49.9063 50.176 49.949 50.176C49.6077 50.3467 49.373 50.4533 49.245 50.496C49.1597 50.5387 49.181 50.5173 49.309 50.432H49.373C49.4157 50.3893 49.437 50.368 49.437 50.368C49.4797 50.368 49.5223 50.3467 49.565 50.304C49.821 50.2187 49.9917 50.1333 50.077 50.048C50.1197 50.048 50.141 50.048 50.141 50.048C50.1837 50.0053 50.2263 49.984 50.269 49.984C49.629 50.3253 49.3303 50.496 49.373 50.496C49.4157 50.496 49.501 50.4533 49.629 50.368C49.7143 50.2827 49.7997 50.2187 49.885 50.176C50.0557 50.0907 50.205 49.984 50.333 49.856C50.3757 49.856 50.397 49.856 50.397 49.856C50.4397 49.8133 50.4823 49.792 50.525 49.792C50.6103 49.7493 50.6103 49.7493 50.525 49.792C50.4397 49.8347 50.333 49.8987 50.205 49.984C50.077 50.0693 49.9703 50.1547 49.885 50.24C49.7997 50.2827 49.7997 50.2613 49.885 50.176C50.0557 50.0907 50.141 50.048 50.141 50.048C50.269 49.9627 50.4183 49.8347 50.589 49.664C50.6743 49.6213 50.781 49.536 50.909 49.408C50.9943 49.3227 50.9943 49.3227 50.909 49.408C50.8663 49.4507 50.781 49.5147 50.653 49.6C50.5677 49.6853 50.4823 49.7707 50.397 49.856C50.3543 49.8987 50.397 49.856 50.525 49.728C50.6103 49.6427 50.6743 49.5787 50.717 49.536C50.8023 49.4933 50.8877 49.4293 50.973 49.344L51.421 48.896C51.4637 48.768 51.549 48.6827 51.677 48.64C51.7623 48.5547 51.7837 48.5333 51.741 48.576C51.6983 48.6187 51.6343 48.6827 51.549 48.768C51.4637 48.8533 51.3997 48.9387 51.357 49.024C51.3143 49.0667 51.3357 49.0453 51.421 48.96C51.677 48.6187 51.933 48.2773 52.189 47.936C52.4877 47.5947 52.7437 47.232 52.957 46.848C52.7863 47.104 52.6797 47.2747 52.637 47.36C52.9783 46.848 53.277 46.3147 53.533 45.76C53.789 45.1627 54.0237 44.544 54.237 43.904C54.1517 44.16 54.109 44.3307 54.109 44.416C54.5783 42.7093 54.6637 41.088 54.365 39.552C54.4077 39.6373 54.429 39.7653 54.429 39.936C54.2157 38.9547 53.8317 38.0587 53.277 37.248C52.765 36.4373 52.125 35.7333 51.357 35.136C51.3997 35.1787 51.4423 35.2213 51.485 35.264C51.5277 35.264 51.5703 35.2853 51.613 35.328C50.9303 34.816 50.1837 34.368 49.373 33.984C48.605 33.6 47.8157 33.28 47.005 33.024C46.749 32.9387 46.621 32.7893 46.621 32.576C46.621 32.3627 46.6637 32.1707 46.749 32C46.9197 31.6587 47.133 31.36 47.389 31.104C47.645 30.8053 47.9223 30.5493 48.221 30.336C48.5623 30.08 48.925 29.8453 49.309 29.632C49.7357 29.376 50.1623 29.184 50.589 29.056C50.8877 28.9707 51.1863 28.9067 51.485 28.864C51.7837 28.7787 52.0823 28.7787 52.381 28.864C54.301 29.4613 55.9863 30.336 57.437 31.488C58.845 32.64 59.805 34.048 60.317 35.712C60.7437 37.3333 60.765 39.0187 60.381 40.768C59.869 42.816 58.973 44.7147 57.693 46.464C56.413 48.2133 54.941 49.728 53.277 51.008C52.2103 51.8187 51.0797 52.544 49.885 53.184C48.733 53.7813 47.517 54.2507 46.237 54.592C45.3837 54.8053 44.509 54.9333 43.613 54.976C42.7597 54.976 41.9277 54.8053 41.117 54.464C40.3063 54.1653 39.6023 53.7173 39.005 53.12C38.4077 52.5227 37.8743 51.8613 37.405 51.136C37.021 50.4533 36.701 49.7493 36.445 49.024C36.189 48.2987 36.0183 47.552 35.933 46.784C35.805 45.504 36.0183 44.2027 36.573 42.88C36.9143 42.0267 37.3623 41.28 37.917 40.64C38.5143 39.9573 39.1543 39.3173 39.837 38.72C40.6477 38.0373 41.5223 37.4613 42.461 36.992C43.4423 36.48 44.445 36.1173 45.469 35.904C46.109 35.7333 46.7703 35.6693 47.453 35.712C48.1783 35.712 48.861 35.8187 49.501 36.032C50.0983 36.2453 50.653 36.5653 51.165 36.992C51.7197 37.376 52.2103 37.8027 52.637 38.272ZM95.929 36.288C96.057 36.8427 96.1423 37.3973 96.185 37.952C96.2703 38.5067 96.2703 39.0827 96.185 39.68C96.0997 41.0027 95.8863 42.304 95.545 43.584C95.2037 44.8213 94.7983 46.016 94.329 47.168C93.8597 48.4053 93.3477 49.6213 92.793 50.816C92.2383 52.0107 91.641 53.1627 91.001 54.272C89.9343 56.2773 88.697 58.24 87.289 60.16C87.0757 60.4587 86.8197 60.7147 86.521 60.928C86.2223 61.184 85.9237 61.3973 85.625 61.568C85.0277 61.9947 84.3237 62.3147 83.513 62.528C83.2997 62.5707 83.065 62.592 82.809 62.592C82.553 62.592 82.3823 62.4853 82.297 62.272C82.169 62.0587 82.169 61.8453 82.297 61.632C82.425 61.4187 82.5317 61.2267 82.617 61.056C82.873 60.7147 83.129 60.352 83.385 59.968C83.641 59.6267 83.9183 59.2427 84.217 58.816C85.369 56.9813 86.4143 55.0827 87.353 53.12C88.3343 51.1573 89.145 49.1093 89.785 46.976C90.1263 45.7813 90.3823 44.5653 90.553 43.328C90.7663 42.048 90.7663 40.7893 90.553 39.552C90.3397 38.784 90.0197 38.0373 89.593 37.312C89.209 36.5867 88.697 35.9893 88.057 35.52C87.5877 35.136 87.0543 34.88 86.457 34.752C86.3717 34.752 86.265 34.752 86.137 34.752C86.0517 34.7093 85.9663 34.7093 85.881 34.752C85.753 34.752 85.6463 34.7733 85.561 34.816H85.497C85.4117 34.9013 85.369 34.944 85.369 34.944C85.3263 35.0293 85.2837 35.0933 85.241 35.136C85.1983 35.136 85.1343 35.1787 85.049 35.264C84.921 35.4773 84.7717 35.6907 84.601 35.904C84.4303 36.0747 84.281 36.2667 84.153 36.48C83.9823 36.736 83.833 37.0133 83.705 37.312C83.577 37.568 83.449 37.8453 83.321 38.144C83.3637 38.4 83.385 38.656 83.385 38.912C83.385 39.168 83.4063 39.424 83.449 39.68C83.4917 40.7893 83.4277 41.8773 83.257 42.944C83.129 44.0107 82.9583 45.0773 82.745 46.144C82.361 48.1067 81.849 50.0053 81.209 51.84C81.081 52.1387 80.8677 52.416 80.569 52.672C80.313 52.8853 80.0783 53.0987 79.865 53.312C79.225 53.7813 78.521 54.1867 77.753 54.528C77.5397 54.6133 77.2623 54.6773 76.921 54.72C76.6223 54.7627 76.3663 54.7413 76.153 54.656C75.897 54.5707 75.769 54.4427 75.769 54.272C75.769 54.1013 75.8117 53.9307 75.897 53.76C75.9823 53.4613 76.0677 53.184 76.153 52.928C76.2383 52.672 76.3237 52.3947 76.409 52.096C76.7503 51.1147 77.0063 50.112 77.177 49.088C77.3903 48.064 77.5823 47.04 77.753 46.016C77.8383 45.2907 77.881 44.5867 77.881 43.904C77.9237 43.1787 77.9237 42.4533 77.881 41.728C77.6677 41.6427 77.561 41.5147 77.561 41.344C77.6037 41.1733 77.6677 41.0027 77.753 40.832C77.753 40.832 77.7743 40.8107 77.817 40.768C77.7743 40.5973 77.7317 40.448 77.689 40.32C77.689 40.192 77.6677 40.0427 77.625 39.872C77.4543 39.1467 77.2197 38.464 76.921 37.824C76.6223 37.184 76.1743 36.6293 75.577 36.16C75.1503 35.8613 74.7023 35.6267 74.233 35.456C73.7637 35.2853 73.273 35.1573 72.761 35.072C72.633 35.072 72.4837 35.072 72.313 35.072C72.185 35.0293 72.0357 35.008 71.865 35.008C71.6943 35.4347 71.5877 35.7547 71.545 35.968C71.2037 37.0773 71.0117 38.2507 70.969 39.488C70.9263 40.6827 70.9477 41.856 71.033 43.008C71.1183 43.8613 71.2037 44.7147 71.289 45.568C71.3743 46.4213 71.4597 47.2747 71.545 48.128C71.6303 48.768 71.7157 49.408 71.801 50.048C71.929 50.6453 72.0357 51.264 72.121 51.904C72.121 52.1173 72.0143 52.352 71.801 52.608C71.5877 52.864 71.3957 53.0773 71.225 53.248C70.9263 53.5467 70.6063 53.8027 70.265 54.016C69.9237 54.2293 69.5823 54.4427 69.241 54.656C68.9423 54.784 68.6223 54.912 68.281 55.04C67.9823 55.168 67.6623 55.232 67.321 55.232C67.0223 55.232 66.7877 55.1253 66.617 54.912C66.1903 53.2907 65.8063 51.648 65.465 49.984C65.1237 48.32 64.7823 46.656 64.441 44.992C64.185 43.5413 63.929 42.112 63.673 40.704C63.417 39.2533 63.1823 37.8027 62.969 36.352C62.841 35.1573 62.713 33.984 62.585 32.832C62.457 31.6373 62.393 30.464 62.393 29.312C62.393 29.0133 62.4783 28.736 62.649 28.48C62.8623 28.224 63.0757 28.032 63.289 27.904C63.5877 27.6053 63.9077 27.3493 64.249 27.136C64.5903 26.9227 64.9317 26.7093 65.273 26.496C65.401 26.4533 65.6143 26.368 65.913 26.24C66.2117 26.112 66.5103 26.0267 66.809 25.984C67.1077 25.8987 67.3637 25.8987 67.577 25.984C67.833 26.0693 67.961 26.2613 67.961 26.56C67.961 27.0293 67.961 27.4987 67.961 27.968C68.0037 28.3947 68.0463 28.8427 68.089 29.312C68.1317 30.1653 68.1957 30.9973 68.281 31.808C68.3663 32.576 68.473 33.3653 68.601 34.176C68.729 34.048 68.857 33.92 68.985 33.792C69.1557 33.664 69.305 33.536 69.433 33.408C70.4997 32.64 71.6517 32.0213 72.889 31.552C74.1263 31.0827 75.4063 30.9547 76.729 31.168C77.2837 31.2533 77.817 31.36 78.329 31.488C78.8837 31.616 79.3957 31.808 79.865 32.064C80.7183 32.5333 81.401 33.152 81.913 33.92C81.9983 34.0053 82.041 34.0907 82.041 34.176C82.0837 34.2187 82.1477 34.2827 82.233 34.368C82.361 34.2827 82.4677 34.1973 82.553 34.112C82.681 33.984 82.809 33.8773 82.937 33.792C83.321 33.4507 83.7263 33.152 84.153 32.896C84.5797 32.64 85.0277 32.384 85.497 32.128C85.8383 31.9147 86.1797 31.744 86.521 31.616C86.8623 31.488 87.2037 31.36 87.545 31.232C88.185 31.0613 88.8463 30.9333 89.529 30.848C90.2117 30.7627 90.9157 30.8267 91.641 31.04C92.7077 31.424 93.625 32.1067 94.393 33.088C94.7343 33.5573 95.033 34.0693 95.289 34.624C95.5877 35.136 95.801 35.6907 95.929 36.288ZM70.905 35.072C70.6917 35.1573 70.6063 35.2 70.649 35.2C70.7343 35.1573 70.8197 35.1147 70.905 35.072ZM130.992 36.288C131.12 36.8427 131.205 37.3973 131.248 37.952C131.333 38.5067 131.333 39.0827 131.248 39.68C131.162 41.0027 130.949 42.304 130.608 43.584C130.266 44.8213 129.861 46.016 129.392 47.168C128.922 48.4053 128.41 49.6213 127.856 50.816C127.301 52.0107 126.704 53.1627 126.064 54.272C124.997 56.2773 123.76 58.24 122.352 60.16C122.138 60.4587 121.882 60.7147 121.584 60.928C121.285 61.184 120.986 61.3973 120.688 61.568C120.09 61.9947 119.386 62.3147 118.576 62.528C118.362 62.5707 118.128 62.592 117.872 62.592C117.616 62.592 117.445 62.4853 117.36 62.272C117.232 62.0587 117.232 61.8453 117.36 61.632C117.488 61.4187 117.594 61.2267 117.68 61.056C117.936 60.7147 118.192 60.352 118.448 59.968C118.704 59.6267 118.981 59.2427 119.28 58.816C120.432 56.9813 121.477 55.0827 122.416 53.12C123.397 51.1573 124.208 49.1093 124.848 46.976C125.189 45.7813 125.445 44.5653 125.616 43.328C125.829 42.048 125.829 40.7893 125.616 39.552C125.402 38.784 125.082 38.0373 124.656 37.312C124.272 36.5867 123.76 35.9893 123.12 35.52C122.65 35.136 122.117 34.88 121.52 34.752C121.434 34.752 121.328 34.752 121.2 34.752C121.114 34.7093 121.029 34.7093 120.944 34.752C120.816 34.752 120.709 34.7733 120.624 34.816H120.56C120.474 34.9013 120.432 34.944 120.432 34.944C120.389 35.0293 120.346 35.0933 120.304 35.136C120.261 35.136 120.197 35.1787 120.112 35.264C119.984 35.4773 119.834 35.6907 119.664 35.904C119.493 36.0747 119.344 36.2667 119.216 36.48C119.045 36.736 118.896 37.0133 118.768 37.312C118.64 37.568 118.512 37.8453 118.384 38.144C118.426 38.4 118.448 38.656 118.448 38.912C118.448 39.168 118.469 39.424 118.512 39.68C118.554 40.7893 118.49 41.8773 118.32 42.944C118.192 44.0107 118.021 45.0773 117.808 46.144C117.424 48.1067 116.912 50.0053 116.272 51.84C116.144 52.1387 115.93 52.416 115.632 52.672C115.376 52.8853 115.141 53.0987 114.928 53.312C114.288 53.7813 113.584 54.1867 112.816 54.528C112.602 54.6133 112.325 54.6773 111.984 54.72C111.685 54.7627 111.429 54.7413 111.216 54.656C110.96 54.5707 110.832 54.4427 110.832 54.272C110.832 54.1013 110.874 53.9307 110.96 53.76C111.045 53.4613 111.13 53.184 111.216 52.928C111.301 52.672 111.386 52.3947 111.472 52.096C111.813 51.1147 112.069 50.112 112.24 49.088C112.453 48.064 112.645 47.04 112.816 46.016C112.901 45.2907 112.944 44.5867 112.944 43.904C112.986 43.1787 112.986 42.4533 112.944 41.728C112.73 41.6427 112.624 41.5147 112.624 41.344C112.666 41.1733 112.73 41.0027 112.816 40.832C112.816 40.832 112.837 40.8107 112.88 40.768C112.837 40.5973 112.794 40.448 112.752 40.32C112.752 40.192 112.73 40.0427 112.688 39.872C112.517 39.1467 112.282 38.464 111.984 37.824C111.685 37.184 111.237 36.6293 110.64 36.16C110.213 35.8613 109.765 35.6267 109.296 35.456C108.826 35.2853 108.336 35.1573 107.824 35.072C107.696 35.072 107.546 35.072 107.376 35.072C107.248 35.0293 107.098 35.008 106.928 35.008C106.757 35.4347 106.65 35.7547 106.608 35.968C106.266 37.0773 106.074 38.2507 106.032 39.488C105.989 40.6827 106.01 41.856 106.095 43.008C106.181 43.8613 106.266 44.7147 106.352 45.568C106.437 46.4213 106.522 47.2747 106.608 48.128C106.693 48.768 106.778 49.408 106.864 50.048C106.992 50.6453 107.098 51.264 107.184 51.904C107.184 52.1173 107.077 52.352 106.864 52.608C106.65 52.864 106.458 53.0773 106.288 53.248C105.989 53.5467 105.669 53.8027 105.328 54.016C104.986 54.2293 104.645 54.4427 104.304 54.656C104.005 54.784 103.685 54.912 103.344 55.04C103.045 55.168 102.725 55.232 102.384 55.232C102.085 55.232 101.85 55.1253 101.68 54.912C101.253 53.2907 100.869 51.648 100.528 49.984C100.186 48.32 99.8448 46.656 99.5035 44.992C99.2475 43.5413 98.9915 42.112 98.7355 40.704C98.4795 39.2533 98.2448 37.8027 98.0315 36.352C97.9035 35.1573 97.7755 33.984 97.6475 32.832C97.5195 31.6373 97.4555 30.464 97.4555 29.312C97.4555 29.0133 97.5408 28.736 97.7115 28.48C97.9248 28.224 98.1382 28.032 98.3515 27.904C98.6502 27.6053 98.9702 27.3493 99.3115 27.136C99.6528 26.9227 99.9942 26.7093 100.336 26.496C100.464 26.4533 100.677 26.368 100.976 26.24C101.274 26.112 101.573 26.0267 101.872 25.984C102.17 25.8987 102.426 25.8987 102.64 25.984C102.896 26.0693 103.024 26.2613 103.024 26.56C103.024 27.0293 103.024 27.4987 103.024 27.968C103.066 28.3947 103.109 28.8427 103.152 29.312C103.194 30.1653 103.258 30.9973 103.344 31.808C103.429 32.576 103.536 33.3653 103.664 34.176C103.792 34.048 103.92 33.92 104.048 33.792C104.218 33.664 104.368 33.536 104.496 33.408C105.562 32.64 106.714 32.0213 107.952 31.552C109.189 31.0827 110.469 30.9547 111.792 31.168C112.346 31.2533 112.88 31.36 113.392 31.488C113.946 31.616 114.458 31.808 114.928 32.064C115.781 32.5333 116.464 33.152 116.976 33.92C117.061 34.0053 117.104 34.0907 117.104 34.176C117.146 34.2187 117.21 34.2827 117.296 34.368C117.424 34.2827 117.53 34.1973 117.616 34.112C117.744 33.984 117.872 33.8773 118 33.792C118.384 33.4507 118.789 33.152 119.216 32.896C119.642 32.64 120.09 32.384 120.56 32.128C120.901 31.9147 121.242 31.744 121.584 31.616C121.925 31.488 122.266 31.36 122.608 31.232C123.248 31.0613 123.909 30.9333 124.592 30.848C125.274 30.7627 125.978 30.8267 126.704 31.04C127.77 31.424 128.688 32.1067 129.456 33.088C129.797 33.5573 130.096 34.0693 130.352 34.624C130.65 35.136 130.864 35.6907 130.992 36.288ZM105.968 35.072C105.754 35.1573 105.669 35.2 105.712 35.2C105.797 35.1573 105.882 35.1147 105.968 35.072ZM134.118 39.232C134.246 39.0187 134.374 38.8267 134.502 38.656C134.63 38.4853 134.779 38.3147 134.95 38.144C135.035 38.0587 135.142 37.9733 135.27 37.888C135.398 37.8027 135.505 37.7173 135.59 37.632C136.273 37.0773 137.062 36.6293 137.958 36.288C138.214 36.2027 138.491 36.1173 138.79 36.032C139.131 35.9467 139.451 35.968 139.75 36.096C140.006 36.1813 140.134 36.3307 140.134 36.544C140.134 36.7147 140.091 36.9067 140.006 37.12C139.878 37.4613 139.75 37.7813 139.622 38.08C139.537 38.3787 139.451 38.6987 139.366 39.04C139.409 38.9547 139.43 38.8907 139.43 38.848C139.43 38.7627 139.451 38.6773 139.494 38.592C139.025 40.0853 138.662 41.6213 138.406 43.2C138.15 44.7787 138.193 46.336 138.534 47.872C138.491 47.7867 138.47 47.744 138.47 47.744C138.47 47.7013 138.449 47.6373 138.406 47.552C138.577 48.192 138.811 48.8107 139.11 49.408C139.409 50.0053 139.835 50.5173 140.39 50.944C140.305 50.9013 140.241 50.88 140.198 50.88C140.198 50.8373 140.155 50.7947 140.07 50.752C140.753 51.2213 141.499 51.52 142.31 51.648C142.225 51.648 142.139 51.648 142.054 51.648C141.969 51.6053 141.883 51.584 141.798 51.584C142.097 51.6267 142.395 51.6693 142.694 51.712C142.993 51.712 143.291 51.6907 143.59 51.648C143.291 51.648 143.078 51.6693 142.95 51.712C143.121 51.6693 143.27 51.648 143.398 51.648C143.526 51.6053 143.675 51.5627 143.846 51.52C143.974 51.52 144.123 51.4773 144.294 51.392C143.697 51.6053 143.419 51.712 143.462 51.712C143.505 51.6693 143.59 51.6267 143.718 51.584C143.761 51.584 143.803 51.5627 143.846 51.52C143.931 51.52 143.995 51.4987 144.038 51.456C144.166 51.456 144.315 51.4133 144.486 51.328C144.529 51.328 144.55 51.328 144.55 51.328C144.593 51.2853 144.635 51.264 144.678 51.264C144.763 51.2213 144.742 51.2213 144.614 51.264C144.529 51.3067 144.422 51.3493 144.294 51.392C144.166 51.4347 144.059 51.4773 143.974 51.52C143.889 51.5627 143.889 51.5627 143.974 51.52C144.017 51.52 144.059 51.4987 144.102 51.456C144.358 51.4133 144.614 51.2853 144.87 51.072C144.955 51.0293 144.955 51.0507 144.87 51.136C144.785 51.1787 144.678 51.2427 144.55 51.328C144.422 51.3707 144.315 51.4133 144.23 51.456C144.145 51.4987 144.166 51.4773 144.294 51.392C144.337 51.392 144.358 51.392 144.358 51.392C144.401 51.3493 144.443 51.328 144.486 51.328C144.571 51.2853 144.678 51.2 144.806 51.072C144.977 50.9867 145.062 50.944 145.062 50.944C144.678 51.2 144.422 51.3707 144.294 51.456C144.209 51.4987 144.23 51.4773 144.358 51.392H144.422C144.422 51.392 144.443 51.3707 144.486 51.328C144.571 51.2853 144.614 51.2427 144.614 51.2C144.657 51.1573 144.721 51.1147 144.806 51.072C144.891 51.0293 145.019 50.9227 145.19 50.752C145.233 50.7093 145.211 50.7307 145.126 50.816C145.083 50.8587 144.998 50.9227 144.87 51.008C144.785 51.0933 144.699 51.1787 144.614 51.264C144.571 51.3067 144.593 51.3067 144.678 51.264C144.678 51.2213 144.699 51.2 144.742 51.2C144.785 51.1573 144.806 51.136 144.806 51.136C144.806 51.0933 144.827 51.0507 144.87 51.008C145.126 50.8373 145.339 50.624 145.51 50.368C145.553 50.3253 145.553 50.3253 145.51 50.368C145.467 50.4107 145.403 50.496 145.318 50.624C145.233 50.7093 145.147 50.7947 145.062 50.88C145.019 50.9227 145.041 50.9013 145.126 50.816L145.254 50.688L145.382 50.56C145.425 50.4747 145.51 50.368 145.638 50.24C145.894 49.8987 146.065 49.6427 146.15 49.472C146.065 49.5573 146.001 49.6427 145.958 49.728C145.958 49.8133 145.915 49.8987 145.83 49.984C146.043 49.6427 146.235 49.28 146.406 48.896C146.577 48.512 146.726 48.128 146.854 47.744C146.811 47.8293 146.79 47.9147 146.79 48C146.79 48.0427 146.769 48.1067 146.726 48.192C147.11 46.8693 147.153 45.5467 146.854 44.224C146.897 44.3093 146.918 44.3733 146.918 44.416C146.918 44.4587 146.939 44.5227 146.982 44.608C146.769 43.584 146.363 42.624 145.766 41.728C145.211 40.832 144.571 40.0213 143.846 39.296C143.675 39.1253 143.675 38.8907 143.846 38.592C144.017 38.2933 144.145 38.08 144.23 37.952C144.486 37.6107 144.785 37.312 145.126 37.056C145.467 36.7573 145.809 36.5013 146.15 36.288C146.491 36.0747 146.854 35.8827 147.238 35.712C147.622 35.5413 148.027 35.4133 148.454 35.328C148.71 35.2427 148.945 35.2213 149.158 35.264C149.371 35.264 149.585 35.3707 149.798 35.584C150.011 35.7547 150.182 35.9253 150.31 36.096C150.481 36.2667 150.651 36.4587 150.822 36.672C151.718 37.7813 152.379 39.04 152.806 40.448C153.275 41.856 153.339 43.2853 152.998 44.736C152.614 46.3147 151.91 47.7653 150.886 49.088C149.862 50.368 148.689 51.4987 147.366 52.48C146.555 53.0773 145.702 53.632 144.806 54.144C143.953 54.6133 143.035 55.0187 142.054 55.36C141.329 55.5733 140.582 55.744 139.814 55.872C139.089 56 138.363 56.0213 137.638 55.936C137.339 55.8933 137.041 55.8507 136.742 55.808C136.443 55.7653 136.123 55.68 135.782 55.552C135.227 55.2533 134.737 54.9333 134.31 54.592C133.841 54.2507 133.478 53.8453 133.222 53.376C132.966 52.864 132.753 52.3307 132.582 51.776C132.155 50.1973 132.049 48.4907 132.262 46.656C132.433 45.376 132.667 44.1173 132.966 42.88C133.307 41.6427 133.691 40.4267 134.118 39.232ZM175.473 29.888C175.772 30.4853 175.964 31.1467 176.049 31.872C176.134 32.5547 176.134 33.2373 176.049 33.92C175.964 34.8587 175.814 35.776 175.601 36.672C175.43 37.5253 175.196 38.3787 174.897 39.232C174.214 41.28 173.404 43.264 172.465 45.184C171.569 47.104 170.609 49.0027 169.585 50.88C167.366 54.72 164.956 58.5387 162.353 62.336C161.457 63.5733 160.54 64.8107 159.601 66.048C158.705 67.328 157.702 68.5227 156.593 69.632C155.91 70.272 155.164 70.784 154.353 71.168C154.012 71.3387 153.649 71.4667 153.265 71.552C152.924 71.68 152.582 71.744 152.241 71.744C152.028 71.744 151.836 71.7013 151.665 71.616C151.452 71.5307 151.366 71.36 151.409 71.104C151.452 70.8053 151.58 70.528 151.793 70.272C151.964 70.016 152.156 69.7813 152.369 69.568L152.689 69.248C152.774 69.1627 152.817 69.0987 152.817 69.056C153.03 68.8427 153.222 68.608 153.393 68.352C153.606 68.096 153.82 67.84 154.033 67.584C155.142 66.176 156.209 64.704 157.233 63.168C158.3 61.6747 159.324 60.16 160.305 58.624C160.988 57.6 161.628 56.576 162.225 55.552C162.865 54.4853 163.484 53.4187 164.081 52.352C165.062 50.5173 166.001 48.6613 166.897 46.784C167.793 44.9067 168.54 42.9653 169.137 40.96C169.478 39.936 169.734 38.8907 169.905 37.824C170.076 36.7573 170.054 35.6907 169.841 34.624C169.628 33.728 169.201 32.9813 168.561 32.384C168.092 32.0427 167.644 31.8293 167.217 31.744H166.769H166.705L166.641 31.808C166.556 31.8933 166.492 31.9573 166.449 32C166.406 32 166.342 32.0427 166.257 32.128C166.214 32.128 166.15 32.1707 166.065 32.256C165.852 32.4693 165.66 32.6613 165.489 32.832C165.318 32.96 165.148 33.1307 164.977 33.344C164.892 33.4293 164.785 33.536 164.657 33.664C164.572 33.7493 164.508 33.8347 164.465 33.92C164.337 33.9627 164.252 34.048 164.209 34.176C163.996 34.3893 163.804 34.624 163.633 34.88C163.462 35.0933 163.292 35.3067 163.121 35.52C162.524 36.288 161.926 37.1413 161.329 38.08C161.414 37.9947 161.457 37.9093 161.457 37.824C161.5 37.7387 161.564 37.6533 161.649 37.568C161.436 37.8667 161.244 38.1653 161.073 38.464C160.902 38.7627 160.753 39.0827 160.625 39.424C160.582 39.68 160.454 39.9787 160.241 40.32C160.198 41.5573 160.156 42.816 160.113 44.096C160.113 45.3333 160.07 46.592 159.985 47.872C159.942 48.512 159.9 49.152 159.857 49.792C159.857 50.432 159.793 51.072 159.665 51.712C159.665 51.84 159.644 51.9893 159.601 52.16C159.558 52.288 159.516 52.416 159.473 52.544C159.388 52.7573 159.26 52.9707 159.089 53.184C158.918 53.3547 158.748 53.5253 158.577 53.696C158.364 53.9093 158.129 54.1227 157.873 54.336C157.617 54.5067 157.382 54.656 157.169 54.784C156.956 54.912 156.678 55.0613 156.337 55.232C156.038 55.4027 155.761 55.5307 155.505 55.616C155.249 55.7013 154.865 55.7867 154.353 55.872C153.884 55.9573 153.542 55.8293 153.329 55.488C153.286 55.4027 153.265 55.3387 153.265 55.296C153.265 55.2107 153.244 55.1253 153.201 55.04C153.073 54.8267 153.094 54.5707 153.265 54.272C153.35 54.1867 153.393 54.1013 153.393 54.016C153.436 53.9307 153.5 53.8453 153.585 53.76C153.628 53.7173 153.649 53.696 153.649 53.696C153.649 53.6533 153.67 53.6107 153.713 53.568C153.798 52.7147 153.841 51.8827 153.841 51.072C153.884 50.2613 153.926 49.4293 153.969 48.576C154.012 47.424 154.033 46.2933 154.033 45.184C154.076 44.032 154.097 42.9013 154.097 41.792C154.14 39.8293 154.161 37.888 154.161 35.968C154.161 34.048 154.161 32.1067 154.161 30.144C154.161 29.8453 154.268 29.568 154.481 29.312C154.694 29.056 154.908 28.8213 155.121 28.608C155.761 27.968 156.508 27.456 157.361 27.072C157.489 27.0293 157.702 26.944 158.001 26.816C158.342 26.688 158.684 26.6027 159.025 26.56C159.366 26.4747 159.665 26.4747 159.921 26.56C160.177 26.6027 160.305 26.7947 160.305 27.136C160.305 28.2453 160.305 29.3547 160.305 30.464C160.305 31.5733 160.284 32.6827 160.241 33.792C160.796 33.2373 161.35 32.704 161.905 32.192C162.46 31.68 163.036 31.1893 163.633 30.72C164.401 30.1227 165.19 29.6107 166.001 29.184C166.812 28.7147 167.665 28.3093 168.561 27.968C169.201 27.7547 169.862 27.584 170.545 27.456C171.27 27.328 171.974 27.3707 172.657 27.584C173.254 27.7973 173.788 28.096 174.257 28.48C174.769 28.864 175.174 29.3333 175.473 29.888ZM166.257 32.128C166.257 32.0427 166.3 32 166.385 32C166.385 32 166.342 32.0427 166.257 32.128ZM152.881 69.056C152.838 69.056 152.817 69.0773 152.817 69.12C152.988 68.9067 153.052 68.8213 153.009 68.864C153.009 68.9067 152.966 68.9707 152.881 69.056ZM202.27 52.8C202.654 52.8 202.91 52.8853 203.038 53.056C203.166 53.2267 203.208 53.44 203.166 53.696C203.123 53.952 203.038 54.208 202.91 54.464C202.782 54.6773 202.654 54.848 202.526 54.976C202.099 55.5733 201.566 56.064 200.926 56.448C200.286 56.832 199.603 57.024 198.878 57.024C197.128 57.1093 195.358 57.4507 193.566 58.048C191.774 58.688 190.046 59.264 188.382 59.776C186.376 60.288 184.414 60.8427 182.494 61.44C180.574 62.0373 178.59 62.592 176.541 63.104C175.944 63.3173 175.539 63.2107 175.326 62.784C175.069 62.4 175.091 61.9733 175.389 61.504C175.773 60.9067 176.285 60.3733 176.925 59.904C177.523 59.4773 178.184 59.1573 178.91 58.944C179.763 58.7307 180.638 58.4747 181.534 58.176C182.43 57.92 183.347 57.6427 184.286 57.344V41.28C181.982 41.664 179.635 42.1547 177.245 42.752C176.605 42.88 176.179 42.7733 175.965 42.432C175.752 42.0907 175.795 41.6427 176.093 41.088C176.435 40.4907 176.904 39.9787 177.502 39.552C178.142 39.1253 178.824 38.8267 179.549 38.656C180.531 38.4 181.47 38.1653 182.366 37.952C183.262 37.7387 184.2 37.5467 185.182 37.376C185.566 36.992 185.992 36.6507 186.462 36.352C186.974 36.0533 187.443 35.84 187.87 35.712C188.339 35.584 188.723 35.5627 189.022 35.648C189.32 35.6907 189.47 35.8827 189.47 36.224V36.608C190.067 36.48 190.643 36.3733 191.198 36.288C191.752 36.2027 192.286 36.0747 192.798 35.904C192.883 35.904 193.054 35.8827 193.31 35.84C193.566 35.7973 193.8 35.7547 194.014 35.712C194.227 35.6693 194.376 35.648 194.462 35.648C194.547 35.648 194.483 35.712 194.27 35.84C194.483 35.7547 194.675 35.6693 194.846 35.584C195.059 35.4987 195.208 35.456 195.294 35.456C195.422 35.4987 195.528 35.52 195.614 35.52C195.699 35.52 195.806 35.5627 195.934 35.648C196.36 35.9893 196.51 36.352 196.382 36.736C196.254 37.12 195.998 37.504 195.614 37.888C195.23 38.272 194.782 38.6133 194.27 38.912C193.8 39.2107 193.438 39.424 193.182 39.552C192.67 39.7653 192.072 39.9573 191.39 40.128C190.75 40.256 190.11 40.3627 189.47 40.448V54.976C189.47 55.1467 189.448 55.2747 189.406 55.36C189.406 55.4453 189.384 55.552 189.342 55.68C191.518 54.9547 193.672 54.336 195.806 53.824C197.939 53.312 200.094 52.9707 202.27 52.8ZM184.926 28.864C185.736 27.2853 186.12 25.664 186.078 24C186.078 22.336 185.864 20.672 185.438 19.008C185.011 17.344 184.478 15.7013 183.838 14.08C183.24 12.4587 182.771 10.88 182.43 9.344C182.174 8.064 182.195 6.912 182.494 5.888C182.792 4.82133 183.283 3.92533 183.966 3.2C184.691 2.432 185.587 1.87733 186.654 1.536C187.72 1.152 188.894 1.00267 190.174 1.088C190.728 1.13066 190.984 1.344 190.942 1.728C190.942 2.112 190.75 2.53866 190.366 3.008C190.024 3.47733 189.555 3.94666 188.958 4.416C188.403 4.84266 187.87 5.12 187.358 5.248C187.486 5.67466 187.592 6.10133 187.678 6.528C187.763 6.912 187.87 7.27466 187.998 7.616C188.339 8.768 188.68 9.89867 189.022 11.008C189.406 12.0747 189.768 13.1413 190.11 14.208C190.75 16.5547 191.112 18.8587 191.198 21.12C191.283 23.3813 190.771 25.6427 189.662 27.904C189.448 28.288 189.022 28.6933 188.382 29.12C187.742 29.5467 187.102 29.8667 186.462 30.08C185.822 30.2933 185.31 30.336 184.926 30.208C184.542 30.0373 184.542 29.5893 184.926 28.864ZM185.758 5.248C185.672 5.248 185.63 5.26933 185.63 5.312C185.63 5.35467 185.672 5.33333 185.758 5.248ZM228.751 19.392C228.879 19.6053 228.879 19.84 228.751 20.096C228.623 20.352 228.495 20.544 228.367 20.672C228.111 21.0133 227.812 21.3333 227.471 21.632C227.13 21.888 226.788 22.1227 226.447 22.336C226.106 22.5493 225.743 22.7627 225.359 22.976C224.975 23.1467 224.57 23.2747 224.143 23.36C223.93 23.4027 223.738 23.4453 223.567 23.488C223.396 23.488 223.204 23.5307 222.991 23.616C222.564 23.7013 222.138 23.808 221.711 23.936C221.284 24.064 220.858 24.1707 220.431 24.256C220.346 24.2987 220.26 24.3413 220.175 24.384C220.09 24.384 220.004 24.4053 219.919 24.448C219.834 24.4907 219.727 24.5333 219.599 24.576C219.471 24.576 219.364 24.5973 219.279 24.64L217.935 25.024C217.508 25.1947 217.018 25.344 216.463 25.472C215.866 28.5013 215.268 31.5093 214.671 34.496C214.116 37.44 213.562 40.4267 213.007 43.456C212.282 47.552 211.642 51.6267 211.087 55.68C210.532 59.6907 210.063 63.7653 209.679 67.904C209.636 68.2027 209.508 68.48 209.295 68.736C209.124 68.992 208.932 69.2267 208.719 69.44C208.079 70.08 207.332 70.592 206.479 70.976C206.138 71.1467 205.796 71.296 205.455 71.424C205.114 71.552 204.751 71.5947 204.367 71.552C204.154 71.552 203.962 71.5093 203.791 71.424C203.62 71.3387 203.535 71.168 203.535 70.912C203.791 68.0533 204.09 65.216 204.431 62.4C204.815 59.584 205.22 56.768 205.647 53.952C206.287 49.9413 206.97 45.9733 207.695 42.048C208.463 38.08 209.252 34.112 210.063 30.144C210.148 29.6747 210.234 29.2053 210.319 28.736C210.447 28.224 210.554 27.712 210.639 27.2C208.89 27.6693 207.14 28.0533 205.391 28.352C203.642 28.6507 201.871 28.8 200.079 28.8C199.866 28.8 199.652 28.7573 199.439 28.672C199.268 28.5867 199.183 28.416 199.183 28.16C199.226 27.8613 199.332 27.584 199.503 27.328C199.716 27.072 199.93 26.8373 200.143 26.624C200.484 26.3253 200.847 26.048 201.231 25.792C201.615 25.536 201.999 25.3013 202.383 25.088C202.724 24.9173 203.066 24.7893 203.407 24.704C203.791 24.576 204.154 24.512 204.495 24.512C205.476 24.512 206.458 24.448 207.439 24.32C208.122 24.2347 208.783 24.1493 209.423 24.064C210.063 23.936 210.703 23.808 211.343 23.68C212.538 17.92 213.69 12.16 214.799 6.4C214.884 6.10133 215.012 5.824 215.183 5.568C215.354 5.312 215.546 5.07733 215.759 4.864C216.442 4.224 217.188 3.712 217.999 3.328C218.34 3.15733 218.682 3.02933 219.023 2.944C219.407 2.816 219.77 2.752 220.111 2.752C220.324 2.752 220.538 2.79467 220.751 2.88C220.964 2.96533 221.028 3.136 220.943 3.392C220.431 6.16533 219.898 8.91733 219.343 11.648C218.788 14.336 218.234 17.0453 217.679 19.776C217.594 20.16 217.508 20.544 217.423 20.928C217.38 21.312 217.316 21.6747 217.231 22.016C218.895 21.504 220.559 20.992 222.223 20.48C223.93 19.968 225.658 19.52 227.407 19.136C227.62 19.0933 227.855 19.072 228.111 19.072C228.41 19.072 228.623 19.1787 228.751 19.392ZM245.072 30.912C245.242 30.912 245.434 30.976 245.648 31.104C245.904 31.1893 245.989 31.3387 245.904 31.552C245.69 32.2773 245.456 32.96 245.2 33.6C244.944 34.24 244.645 34.88 244.304 35.52C243.92 36.2027 243.493 36.8427 243.024 37.44C242.597 37.9947 242.128 38.5707 241.616 39.168C241.488 39.296 241.36 39.424 241.232 39.552C241.146 39.68 241.04 39.7867 240.912 39.872C240.442 41.024 240.058 42.176 239.76 43.328C239.205 45.1627 238.736 46.9973 238.352 48.832C237.968 50.6667 237.626 52.5227 237.328 54.4C237.029 56.4053 236.816 58.3893 236.688 60.352C236.56 62.3147 236.496 64.32 236.496 66.368C236.496 69.9947 236.837 73.5147 237.52 76.928C237.52 77.0133 237.52 77.0773 237.52 77.12C237.562 77.1627 237.583 77.2267 237.583 77.312C237.712 77.568 237.69 77.824 237.52 78.08C237.477 78.208 237.37 78.4 237.2 78.656C236.73 79.2107 236.112 79.744 235.344 80.256C234.576 80.768 233.786 81.1093 232.976 81.28C232.848 81.3227 232.613 81.344 232.272 81.344C231.93 81.344 231.717 81.2373 231.632 81.024C230.053 77.312 227.728 74.1973 224.656 71.68C222.736 70.2293 220.688 69.0773 218.511 68.224C216.293 67.3707 214.031 66.752 211.727 66.368C211.386 66.2827 211.045 66.2187 210.703 66.176C210.319 66.176 209.957 66.1333 209.615 66.048C208.122 65.92 206.65 65.8347 205.199 65.792C203.749 65.792 202.277 65.8347 200.783 65.92C200.399 65.9627 200.015 65.984 199.631 65.984C199.247 65.984 198.863 66.0267 198.479 66.112C198.181 66.112 197.967 66.1333 197.839 66.176H197.519C197.391 66.2187 197.263 66.24 197.135 66.24C196.965 66.24 196.815 66.2613 196.687 66.304C195.919 66.3893 195.151 66.496 194.383 66.624C193.615 66.752 192.847 66.88 192.079 67.008C191.311 67.1787 190.543 67.328 189.775 67.456C189.007 67.6267 188.261 67.8187 187.535 68.032C186.767 68.16 185.999 68.352 185.231 68.608C185.018 68.6507 184.826 68.6933 184.655 68.736C184.485 68.7787 184.293 68.8427 184.079 68.928H184.015C183.93 68.9707 183.866 68.992 183.823 68.992C183.781 68.992 183.717 69.0133 183.631 69.056C182.181 69.4827 180.751 69.9307 179.343 70.4C177.893 70.8693 176.463 71.4027 175.055 72C174.714 72.128 174.394 72.256 174.095 72.384C173.754 72.512 173.413 72.6613 173.071 72.832C172.986 72.832 172.943 72.832 172.943 72.832C172.901 72.8747 172.858 72.896 172.815 72.896L172.751 72.96L171.791 73.344L168.143 75.072C167.845 75.2427 167.567 75.392 167.311 75.52C167.013 75.648 166.714 75.7973 166.415 75.968C166.287 76.0533 166.159 76.1173 166.031 76.16C165.861 76.2453 165.711 76.3307 165.583 76.416C164.474 77.0133 163.493 77.6107 162.639 78.208C161.871 78.72 161.082 79.0613 160.271 79.232C160.058 79.2747 159.823 79.296 159.567 79.296C159.269 79.296 159.055 79.1893 158.927 78.976C158.799 78.7627 158.799 78.528 158.927 78.272C159.055 78.016 159.183 77.8027 159.311 77.632C159.567 77.2907 159.866 76.992 160.207 76.736C160.549 76.48 160.89 76.2453 161.231 76.032C163.066 74.8373 164.943 73.728 166.863 72.704C168.783 71.7227 170.746 70.784 172.751 69.888C175.738 68.608 178.767 67.4347 181.839 66.368C184.911 65.344 188.026 64.448 191.183 63.68C194.255 62.9547 197.37 62.3787 200.527 61.952C203.642 61.568 206.799 61.4187 209.999 61.504C212.815 61.5893 215.653 61.888 218.511 62.4C221.328 62.9547 224.016 63.9147 226.576 65.28C227.813 65.9627 229.072 66.7733 230.352 67.712C230.394 65.1093 230.565 62.528 230.864 59.968C231.162 57.408 231.589 54.848 232.144 52.288C232.442 50.9227 232.762 49.5573 233.104 48.192C233.445 46.8267 233.85 45.4827 234.32 44.16C233.722 44.3733 233.04 44.5867 232.272 44.8C231.162 45.1413 230.01 45.312 228.816 45.312C227.621 45.312 226.49 45.0773 225.424 44.608C224.442 44.1813 223.61 43.584 222.928 42.816C222.288 42.0053 221.818 41.088 221.52 40.064C221.136 38.5707 221.05 37.0773 221.264 35.584C221.52 34.048 221.925 32.5333 222.48 31.04C222.608 30.6987 222.821 30.4 223.12 30.144C223.418 29.888 223.696 29.6533 223.952 29.44C224.634 28.8853 225.424 28.4373 226.32 28.096C226.576 28.0107 226.853 27.9467 227.152 27.904C227.493 27.8187 227.813 27.8187 228.112 27.904C228.368 27.9893 228.474 28.1387 228.432 28.352C228.432 28.5653 228.389 28.7573 228.304 28.928C228.218 29.1413 228.154 29.3547 228.112 29.568C228.069 29.7813 228.005 29.9947 227.92 30.208C227.621 31.1467 227.408 32.128 227.28 33.152C227.194 34.1333 227.258 35.1147 227.472 36.096C227.813 37.5893 228.517 38.8053 229.584 39.744C230.394 40.2987 231.312 40.6827 232.336 40.896C232.634 40.9387 232.912 40.96 233.168 40.96C233.424 40.96 233.701 40.96 234 40.96C234.042 40.96 234.064 40.96 234.064 40.96C234.106 40.9173 234.149 40.896 234.192 40.896H234.256C234.426 40.896 234.682 40.8533 235.024 40.768C235.066 40.768 235.109 40.7467 235.152 40.704C235.237 40.6613 235.301 40.64 235.344 40.64C235.429 40.64 235.514 40.6187 235.6 40.576C235.941 39.808 236.282 39.0613 236.624 38.336C236.965 37.568 237.328 36.8213 237.712 36.096C238.01 35.584 238.309 35.0507 238.608 34.496C238.906 33.9413 239.269 33.472 239.696 33.088C240.293 32.4907 240.997 31.9787 241.808 31.552C242.618 31.1253 243.45 30.912 244.304 30.912H245.072Z" fill="white"/>
</svg>
