<svg width="295" height="11" viewBox="0 0 295 11" fill="none" xmlns="http://www.w3.org/2000/svg">
<path d="M4.36261 5.83749C4.02002 5.80648 3.71862 5.73137 3.4584 5.61217C3.19674 5.45033 2.95567 5.26644 2.73519 5.0605C2.03111 4.44413 1.43145 3.76016 0.936219 3.0086C0.711378 2.67473 0.529179 2.33942 0.389621 2.00264C0.250063 1.66587 0.153147 1.32764 0.0988743 0.987958C0.0489633 0.776203 0.0630142 0.562265 0.141027 0.346148C0.219043 0.130031 0.386703 0.0389297 0.644007 0.0728487C3.46855 0.275381 6.25118 0.50069 8.99189 0.748773C11.7311 0.954213 14.5138 1.17952 17.3398 1.4247C21.3641 1.75709 25.3671 2.09021 29.3488 2.42405C158.88 8.02214 261.04 1.12485 265.062 1.37195C273.275 1.86035 281.499 2.02821 289.733 1.87552C290.032 1.86534 290.312 1.94118 290.574 2.10302C290.878 2.26341 291.14 2.44657 291.361 2.65251C292.062 3.18359 292.661 3.84624 293.158 4.64044C293.382 4.9743 293.565 5.30962 293.704 5.6464C293.844 5.98317 293.941 6.3214 293.995 6.66108C294.045 6.87283 294.031 7.08677 293.953 7.30289C293.873 7.47636 293.706 7.56746 293.45 7.57619C290.591 7.63096 287.753 7.66368 284.936 7.67436C282.075 7.64385 279.212 7.5707 276.348 7.4549C272.287 7.29453 268.267 7.09007 264.288 6.84151C260.265 6.55176 158.061 13.4292 28.4446 7.83401C24.4203 7.50162 20.4173 7.1685 16.4356 6.83466C12.4098 6.45963 8.38548 6.12724 4.36261 5.83749Z" fill="url(#paint0_linear_309_498)"/>
<defs>
<linearGradient id="paint0_linear_309_498" x1="0.344618" y1="8.82124" x2="293.749" y2="-1.18286" gradientUnits="userSpaceOnUse">
<stop stop-color="#135FF2"/>
<stop offset="1" stop-color="#13F2C9"/>
</linearGradient>
</defs>
</svg>
