<svg width="259" height="12" viewBox="0 0 259 12" fill="none" xmlns="http://www.w3.org/2000/svg">
<path d="M5.41083 5.62997C5.06726 5.61285 4.76307 5.55 4.49825 5.44142C4.23025 5.2903 3.98193 5.11631 3.7533 4.91946C3.02486 4.33209 2.39803 3.67293 1.87279 2.94202C1.63463 2.61753 1.43901 2.28985 1.28594 1.959C1.13287 1.62815 1.02235 1.29412 0.954381 0.956909C0.895944 0.747347 0.901328 0.533019 0.970533 0.313923C1.03974 0.0948261 1.20358 -0.00298544 1.46204 0.0204956C4.29247 0.108585 7.08193 0.221128 9.83044 0.358122C12.5758 0.452568 15.3652 0.565115 18.1988 0.695754C22.2333 0.865054 26.2465 1.03594 30.2385 1.20842C159.89 1.56131 225.524 5.33131 229.552 5.41551C237.779 5.57121 246.003 5.4062 254.224 4.9205C254.522 4.89825 254.805 4.96269 255.073 5.11382C255.383 5.26176 255.653 5.43416 255.881 5.63101C256.604 6.13329 257.229 6.77116 257.757 7.54461C257.995 7.86911 258.191 8.19678 258.344 8.52764C258.497 8.85849 258.608 9.19252 258.676 9.52972C258.734 9.73929 258.729 9.95361 258.659 10.1727C258.587 10.3493 258.423 10.4471 258.168 10.4661C255.314 10.6365 252.48 10.784 249.665 10.9087C246.805 10.994 243.942 11.0367 241.075 11.0369C237.011 11.0409 232.986 10.9993 229 10.9119C224.969 10.7852 159.29 6.99707 29.5539 6.65053C25.5194 6.48123 21.5062 6.31036 17.5143 6.13788C13.4766 5.92603 9.44213 5.75673 5.41083 5.62997Z" fill="url(#paint0_linear_309_505)"/>
<defs>
<linearGradient id="paint0_linear_309_505" x1="1.96599" y1="14.7872" x2="257.663" y2="-4.31119" gradientUnits="userSpaceOnUse">
<stop stop-color="#135FF2"/>
<stop offset="1" stop-color="#13F2C9"/>
</linearGradient>
</defs>
</svg>
