<svg width="539" height="120" viewBox="0 0 539 120" fill="none" xmlns="http://www.w3.org/2000/svg">
<path d="M4.67461 99.5271C4.33098 99.5112 4.02656 99.4495 3.76134 99.3419C3.49278 99.1918 3.24382 99.0187 3.01446 98.8227C2.28385 98.238 1.65457 97.5812 1.12664 96.8523C0.887272 96.5287 0.690442 96.2017 0.536148 95.8714C0.381854 95.5411 0.270098 95.2075 0.200877 94.8706C0.141664 94.6612 0.146253 94.4469 0.214646 94.2275C0.283042 94.0082 0.446516 93.9098 0.705067 93.9323C3.5358 94.0099 6.32566 94.1121 9.07465 94.2389C11.8203 94.3232 14.6102 94.4254 17.4442 94.5455C21.4793 94.6999 25.4931 94.8559 29.4857 95.0136C159.137 94.8861 505.209 72.7418 509.238 72.8111C517.464 72.9363 525.688 72.7408 533.907 72.2246C534.205 72.2013 534.488 72.2647 534.757 72.4148C535.068 72.5616 535.338 72.733 535.567 72.929C536.291 73.4286 536.919 74.0642 537.45 74.8356C537.689 75.1593 537.886 75.4862 538.041 75.8165C538.195 76.1468 538.307 76.4804 538.376 76.8173C538.435 77.0267 538.43 77.241 538.362 77.4604C538.29 77.6372 538.127 77.7356 537.872 77.7556C535.018 77.9366 532.185 78.0946 529.371 78.2297C526.511 78.3255 523.648 78.3789 520.781 78.3897C516.717 78.4088 512.692 78.3821 508.706 78.3095C504.674 78.1976 158.558 100.324 28.8213 100.458C24.7862 100.304 20.7724 100.148 16.7799 99.9901C12.7414 99.7932 8.70636 99.6389 4.67461 99.5271Z" fill="url(#paint0_linear_403_2)"/>
<path d="M52.9365 32.7345C53.107 32.727 53.259 32.7844 53.3925 32.9066C53.5668 32.9843 53.6596 33.151 53.6709 33.4068C53.6433 33.7497 53.55 34.0527 53.3908 34.316C53.2316 34.5793 53.0714 34.8213 52.9104 35.042C52.5086 35.6149 52.0614 36.1258 51.5687 36.5747C51.0742 36.9809 50.5314 37.2612 49.9403 37.4154C49.6031 37.5158 49.3714 37.5901 49.2454 37.6383C49.2047 37.6828 49.163 37.706 49.1204 37.7079C49.0778 37.7098 49.0361 37.733 48.9954 37.7775L48.6202 37.9863C48.5368 38.0327 48.4748 38.0781 48.434 38.1226C48.434 38.1226 48.3924 38.1458 48.309 38.1922C48.309 38.1922 48.2886 38.2145 48.2479 38.259C48.1645 38.3054 48.0414 38.4176 47.8784 38.5956L47.8144 38.5985C47.6515 38.7765 47.5302 38.9313 47.4506 39.063C47.0802 39.3783 46.7542 39.7344 46.4728 40.1312C46.3913 40.2202 46.3312 40.3083 46.2923 40.3954C46.2108 40.4844 46.1497 40.5512 46.109 40.5957C46.0664 40.5976 46.0256 40.6421 45.9868 40.7292C45.1369 41.7918 44.2638 42.8127 43.3675 43.7919C42.7563 44.4595 42.1164 44.9576 41.4476 45.2861C41.2382 45.3808 40.9862 45.4774 40.6916 45.5758C40.4396 45.6724 40.2043 45.6614 39.9855 45.543C39.7686 45.4671 39.6554 45.3227 39.646 45.1095C39.6366 44.8964 39.6698 44.6814 39.7456 44.4645C39.8584 44.1178 40.0148 43.7906 40.2147 43.4828C40.4573 43.1731 40.6804 42.907 40.8841 42.6845C41.0878 42.4619 41.2702 42.2403 41.4313 42.0197C41.635 41.7971 41.8387 41.5746 42.0424 41.352C42.1239 41.263 42.2044 41.1527 42.284 41.021C42.4063 40.8875 42.5081 40.7762 42.5896 40.6872L42.7118 40.5537C43.1173 40.066 43.5016 39.5792 43.8645 39.0934C44.27 38.6057 44.6978 38.1383 45.1478 37.6913C43.8264 37.7497 42.505 37.8082 41.1837 37.8666C39.903 37.8805 38.602 37.9166 37.2806 37.975C35.2735 37.9783 33.2701 38.0669 31.2705 38.2407C31.1966 38.5002 31.1439 38.7588 31.1126 39.0164C31.0794 39.2314 31.0471 39.4678 31.0158 39.7254C30.8204 41.1007 30.5576 42.8847 30.2274 45.0774C29.938 47.2256 29.6154 49.5889 29.2595 52.1671C28.9463 54.7434 28.5952 57.4282 28.2062 60.2215C27.8153 62.9721 27.4419 65.6365 27.0861 68.2147C26.7303 70.7929 26.3873 73.1784 26.0571 75.3711C25.7251 77.5212 25.4391 79.2636 25.1991 80.5981C25.1715 80.941 25.0587 81.2877 24.8607 81.6381C24.7015 81.9014 24.5608 82.0998 24.4386 82.2333C24.1979 82.5856 23.9136 82.9185 23.5858 83.2319C23.2988 83.5009 22.9894 83.7495 22.6579 83.9776C22.4096 84.1595 22.1392 84.3209 21.8465 84.462C21.5537 84.603 21.2582 84.6801 20.9598 84.6933C20.8319 84.699 20.6595 84.6639 20.4427 84.5881C20.2239 84.4696 20.1515 84.2806 20.2254 84.0211C20.5374 82.3844 20.8068 80.7496 21.0336 79.1166C21.2585 77.4411 21.4834 75.7655 21.7083 74.0899C21.8317 73.0168 22.0234 71.5562 22.2834 69.7083C22.5415 67.8177 22.8124 65.7344 23.0961 63.4583C23.4225 61.1803 23.7655 58.7948 24.1251 56.3019C24.4847 53.8089 24.8277 51.4234 25.1541 49.1454C25.4805 46.8675 25.795 44.8036 26.0976 42.9537C26.3983 41.0613 26.6539 39.5979 26.8645 38.5636C25.2059 38.7223 23.5482 38.9024 21.8915 39.1037C20.2347 39.3051 18.5809 39.5704 16.9298 39.8996C16.2942 40.0131 15.6595 40.1479 15.0258 40.3041C14.4328 40.4157 13.8194 40.5496 13.1857 40.7057C13.4102 40.9521 13.6355 41.2197 13.8618 41.5087C14.0863 41.755 14.3311 41.9791 14.5962 42.1809C15.0858 42.629 15.6134 42.9687 16.1788 43.2C16.3957 43.2758 16.5098 43.4416 16.5211 43.6974C16.5305 43.9105 16.4973 44.1255 16.4215 44.3424C16.3087 44.689 16.131 45.0172 15.8884 45.3269C15.6866 45.5921 15.4848 45.8572 15.283 46.1224C14.6719 46.79 14.0319 47.2881 13.3631 47.6166C13.1537 47.7113 12.9017 47.8079 12.6071 47.9063C12.3533 47.9602 12.1179 47.9493 11.901 47.8734C10.9463 47.5313 10.1295 46.9268 9.45052 46.0599C8.77158 45.193 8.05378 44.4133 7.29712 43.7207C6.80375 43.1873 6.27624 42.8476 5.71458 42.7016C5.49768 42.6258 5.38452 42.4813 5.3751 42.2682C5.32306 42.0569 5.35532 41.8206 5.47189 41.5592C5.54584 41.2997 5.64203 41.0605 5.76049 40.8418C5.87894 40.623 5.97891 40.4691 6.06039 40.3801C6.99178 39.2285 8.00312 38.4364 9.09442 38.0038C9.43165 37.9034 9.76888 37.8031 10.1061 37.7028C10.4841 37.558 10.863 37.4344 11.2429 37.3322C13.9815 36.4851 16.7276 35.8085 19.4813 35.3024C22.233 34.7537 25.0109 34.3106 27.8147 33.9731C27.8924 33.7989 27.9488 33.6255 27.9839 33.4532C28.019 33.2808 28.0744 33.0861 28.1503 32.8692C28.2204 32.5245 28.3768 32.1973 28.6194 31.8876C28.8619 31.5779 29.0851 31.3118 29.2888 31.0892C29.574 30.7777 29.861 30.5087 30.15 30.2824C30.4797 30.0116 30.8326 29.7824 31.2087 29.595C31.418 29.5003 31.6487 29.4047 31.9007 29.3082C32.1953 29.2097 32.452 29.2197 32.6707 29.3382C32.8876 29.414 33.0008 29.5585 33.0102 29.7716C33.0196 29.9847 32.9864 30.1997 32.9106 30.4166C32.7627 30.9357 32.6158 31.476 32.4698 32.0377C32.3645 32.5548 32.2592 33.072 32.154 33.5891L32.2179 33.5863C35.6668 33.3484 39.1194 33.1958 42.5758 33.1285C46.0303 33.0185 49.4839 32.8872 52.9365 32.7345ZM46.7465 67.4738C46.9265 67.6794 46.9378 67.9351 46.7805 68.241C46.6213 68.5043 46.5019 68.7018 46.4223 68.8334C45.939 69.4954 45.3455 70.0769 44.6416 70.5778C44.31 70.806 43.9348 71.0147 43.5161 71.2041C43.14 71.3915 42.7408 71.5373 42.3183 71.6414C42.1089 71.7361 41.8764 71.7891 41.6206 71.8004C41.363 71.7691 41.1442 71.6506 40.9643 71.445C40.7844 71.2394 40.6063 71.0765 40.4302 70.9561C40.2521 70.7932 40.0518 70.6098 39.8293 70.4061C39.8757 70.4895 39.9211 70.5515 39.9656 70.5923C40.0083 70.5904 40.0518 70.6098 40.0963 70.6506C39.3027 70.0877 38.4333 69.7418 37.488 69.6127C37.5732 69.609 37.6381 69.6275 37.6826 69.6682C37.7679 69.6644 37.8531 69.6607 37.9384 69.6569C37.4657 69.5924 36.9755 69.614 36.4678 69.7219C36.5938 69.6736 36.806 69.6429 37.1043 69.6297C36.9765 69.6353 36.8495 69.6623 36.7235 69.7106C36.6383 69.7144 36.5317 69.7191 36.4039 69.7247C36.3631 69.7692 36.3001 69.7934 36.2149 69.7971C36.5521 69.6968 36.7633 69.6448 36.8486 69.641C36.932 69.5946 36.9106 69.5955 36.7847 69.6438C36.6994 69.6476 36.6364 69.6717 36.5957 69.7162C36.5957 69.7162 36.553 69.7181 36.4678 69.7219C36.4271 69.7664 36.3641 69.7905 36.2788 69.7943C36.6142 69.6514 36.8235 69.5567 36.9069 69.5103C37.031 69.4194 37.031 69.4194 36.9069 69.5103C36.8235 69.5567 36.7615 69.6021 36.7207 69.6467C36.7207 69.6467 36.679 69.6698 36.5957 69.7162C36.5957 69.7162 36.554 69.7394 36.4706 69.7858C36.8022 69.5576 37.031 69.4194 37.157 69.3711C37.2811 69.2802 37.2598 69.2812 37.093 69.3739C37.0523 69.4185 37.0116 69.463 36.9708 69.5075C36.9282 69.5094 36.8865 69.5326 36.8458 69.5771C36.7217 69.668 36.68 69.6912 36.7207 69.6467C36.8022 69.5576 36.905 69.4677 37.0291 69.3768C37.1532 69.2859 37.2569 69.2172 37.3403 69.1708C37.4237 69.1244 37.4033 69.1467 37.2792 69.2376C37.2385 69.2821 37.1977 69.3266 37.157 69.3711C37.1144 69.373 37.0727 69.3962 37.0319 69.4407C36.9504 69.5297 36.9301 69.552 36.9708 69.5075C37.0523 69.4185 37.1338 69.3294 37.2153 69.2404C37.3394 69.1495 37.4218 69.0818 37.4625 69.0373C37.544 68.9483 37.544 68.9483 37.4625 69.0373L37.4014 69.1041L37.157 69.3711C37.157 69.3711 37.1162 69.4156 37.0348 69.5046C37.2385 69.2821 37.3597 69.1273 37.3986 69.0401C37.4801 68.9511 37.481 68.9724 37.4014 69.1041C37.3199 69.1931 37.2598 69.2812 37.2209 69.3683C37.1394 69.4573 37.0793 69.5454 37.0404 69.6325C37.0016 69.7197 36.9414 69.8077 36.8599 69.8967C36.8988 69.8096 36.9376 69.7225 36.9765 69.6353C37.0153 69.5482 37.0755 69.4601 37.157 69.3711C36.9978 69.6344 36.8608 69.9181 36.7462 70.2221C36.6296 70.4835 36.5362 70.7866 36.466 71.1313C36.4604 71.0035 36.4964 70.8524 36.5741 70.6781C36.2821 71.8015 36.2941 73.0395 36.6102 74.3922C36.6064 74.3069 36.5823 74.2439 36.5378 74.2032C36.5359 74.1606 36.533 74.0966 36.5293 74.0114C36.8397 75.2362 37.4252 76.4061 38.286 77.5212C38.7443 78.227 39.2812 78.7798 39.8968 79.1797C39.8523 79.139 39.8087 79.1195 39.7661 79.1214C39.7216 79.0807 39.6771 79.0399 39.6326 78.9992C40.4688 79.5601 41.3373 79.8848 42.2381 79.9731C42.0676 79.9806 41.9175 79.9659 41.7877 79.9289C42.3049 80.0342 42.8813 80.0301 43.5169 79.9166C43.2611 79.9279 43.0702 79.9576 42.9443 80.0059C43.1555 79.9539 43.3464 79.9241 43.5169 79.9166C43.6855 79.8664 43.8541 79.8162 44.0227 79.7661C44.0635 79.7216 44.1265 79.6974 44.2117 79.6936C43.6651 79.8886 43.4752 79.9397 43.6419 79.847C43.7272 79.8432 43.7698 79.8413 43.7698 79.8413C43.8105 79.7968 43.8522 79.7736 43.8948 79.7717C44.1468 79.6752 44.3145 79.6037 44.3979 79.5573C44.4405 79.5554 44.4618 79.5545 44.4618 79.5545C44.5025 79.51 44.5442 79.4868 44.5869 79.4849C44.2534 79.6705 44.0237 79.7874 43.8977 79.8357C43.8143 79.882 43.8347 79.8598 43.9588 79.7689L44.0227 79.7661C44.0635 79.7216 44.0838 79.6993 44.0838 79.6993C44.1265 79.6974 44.1681 79.6742 44.2089 79.6297C44.4609 79.5332 44.6276 79.4404 44.7091 79.3514C44.7517 79.3495 44.773 79.3485 44.773 79.3485C44.8138 79.304 44.8554 79.2808 44.8981 79.2789C44.2738 79.6482 43.9829 79.8319 44.0255 79.83C44.0682 79.8281 44.1515 79.7817 44.2756 79.6908C44.3571 79.6018 44.4395 79.5341 44.5229 79.4877C44.6896 79.3949 44.8341 79.2818 44.9563 79.1482C44.999 79.1463 45.0203 79.1454 45.0203 79.1454C45.061 79.1009 45.1027 79.0777 45.1453 79.0758C45.2287 79.0294 45.2287 79.0294 45.1453 79.0758C45.062 79.1222 44.9582 79.1909 44.8341 79.2818C44.71 79.3727 44.6072 79.4626 44.5257 79.5516C44.4424 79.598 44.4414 79.5767 44.5229 79.4877C44.6896 79.3949 44.773 79.3485 44.773 79.3485C44.8971 79.2576 45.0407 79.1232 45.2036 78.9451C45.287 78.8987 45.3898 78.8088 45.512 78.6752C45.5935 78.5862 45.5935 78.5862 45.512 78.6752C45.4713 78.7197 45.3888 78.7874 45.2647 78.8784C45.1832 78.9674 45.1018 79.0564 45.0203 79.1454C44.9795 79.1899 45.0203 79.1454 45.1425 79.0119C45.224 78.9229 45.2851 78.8561 45.3258 78.8116C45.4092 78.7652 45.4916 78.6975 45.5731 78.6085L46.0009 78.1411C46.0379 78.0114 46.1193 77.9223 46.2453 77.8741C46.3268 77.785 46.3472 77.7628 46.3064 77.8073C46.2657 77.8518 46.2046 77.9186 46.1231 78.0076C46.0416 78.0966 45.9815 78.1847 45.9426 78.2718C45.9019 78.3163 45.9222 78.2941 46.0037 78.2051C46.2444 77.8528 46.4851 77.5005 46.7257 77.1481C47.0091 76.794 47.2488 76.4203 47.445 76.0273C47.2858 76.2906 47.1867 76.4658 47.1479 76.5529C47.4663 76.0263 47.7411 75.4803 47.9723 74.9149C48.2017 74.3069 48.4088 73.6784 48.5937 73.0296C48.5198 73.2892 48.4847 73.4615 48.4884 73.5468C48.8819 71.8211 48.8956 70.1975 48.5294 68.6762C48.5758 68.7596 48.6027 68.8865 48.6103 69.057C48.3538 68.0861 47.9306 67.2079 47.3407 66.4225C46.7934 65.6353 46.1229 64.9602 45.3293 64.3974C45.3738 64.4381 45.4183 64.4789 45.4628 64.5196C45.5055 64.5177 45.549 64.5371 45.5935 64.5779C44.8889 64.0965 44.1232 63.6819 43.2964 63.3341C42.5122 62.9844 41.7095 62.6996 40.8883 62.4796C40.6288 62.4057 40.4943 62.2621 40.4849 62.049C40.4755 61.8359 40.5096 61.6422 40.5873 61.4679C40.7427 61.1194 40.9427 60.8116 41.1871 60.5445C41.4297 60.2349 41.6954 59.9669 41.9844 59.7405C42.3141 59.4697 42.666 59.2193 43.0403 58.9892C43.4552 58.7146 43.873 58.5039 44.2936 58.3572C44.5882 58.2588 44.8837 58.1817 45.1802 58.1258C45.4748 58.0274 45.7732 58.0142 46.0753 58.0863C48.0198 58.5982 49.7422 59.3976 51.2423 60.4844C52.6998 61.5731 53.721 62.9374 54.306 64.5771C54.8039 66.178 54.8996 67.8608 54.5932 69.6254C54.1722 71.694 53.3609 73.6304 52.1594 75.4345C50.9579 77.2387 49.5542 78.8169 47.9483 80.1691C46.9185 81.0261 45.821 81.8006 44.6557 82.4928C43.5312 83.1404 42.3372 83.663 41.0735 84.0605C40.2304 84.3113 39.3622 84.4778 38.469 84.56C37.6165 84.5977 36.7778 84.4639 35.9528 84.1587C35.1298 83.8961 34.4067 83.4797 33.7835 82.9093C33.1604 82.3389 32.5984 81.7018 32.0975 80.9979C31.6837 80.3328 31.3329 79.6437 31.0452 78.9303C30.7574 78.217 30.5539 77.4786 30.4347 76.7151C30.2503 75.442 30.406 74.1326 30.9017 72.7867C31.205 71.9191 31.6196 71.1534 32.1455 70.4895C32.7121 69.7811 33.3232 69.1135 33.9788 68.4866C34.7585 67.7688 35.6069 67.1547 36.5239 66.6444C37.4817 66.0896 38.4674 65.683 39.481 65.4246C40.1128 65.2259 40.7707 65.1327 41.4546 65.1452C42.1792 65.1132 42.8659 65.1896 43.5147 65.3745C44.1209 65.5612 44.6891 65.8564 45.2195 66.26C45.7905 66.6192 46.2996 67.0238 46.7465 67.4738ZM82.9254 75.1636C83.0446 75.9271 83.1008 76.7147 83.0939 77.5265C83.0852 78.2956 83.0561 79.087 83.0067 79.9007C82.8025 82.0451 82.4677 84.1313 82.0021 86.1591C81.5384 88.2296 80.9885 90.2826 80.3525 92.318C80.0604 93.4413 79.7239 94.5239 79.3429 95.5657C79.0064 96.6483 78.6485 97.7318 78.2694 98.8163C78.1196 99.2927 77.968 99.7265 77.8144 100.118C77.6628 100.551 77.5111 100.985 77.3594 101.419C77.9562 101.393 78.2649 101.614 78.2857 102.083C78.2581 102.426 78.1268 102.837 77.8918 103.317C77.5734 103.844 77.2531 104.328 76.931 104.769C76.7273 104.992 76.5236 105.214 76.3199 105.437C76.1607 105.7 75.9792 105.943 75.7755 106.166C75.2828 106.614 74.7679 107.043 74.2308 107.451C73.6955 107.902 73.0906 108.228 72.4161 108.428C72.1215 108.527 71.7426 108.65 71.2794 108.799C70.8588 108.945 70.5131 108.854 70.2423 108.524C70.1476 108.315 70.1178 108.124 70.1529 107.952C70.2268 107.692 70.3008 107.433 70.3747 107.173C70.4506 106.956 70.5264 106.739 70.6022 106.522C70.7965 106.087 70.9482 105.653 71.0572 105.221C71.2088 104.787 71.3818 104.353 71.5761 103.917C72.3363 101.791 73.0538 99.6661 73.7288 97.5436C74.4056 95.4637 75.0156 93.3226 75.5589 91.1205C75.7456 90.5143 75.8898 89.91 75.9913 89.3076C76.1354 88.7034 76.2786 88.0778 76.4208 87.4308C76.5944 86.5263 76.7253 85.6236 76.8136 84.7229C76.9445 83.8202 77.0319 82.8981 77.0757 81.9566C77.1289 81.2282 77.1182 80.5026 77.0435 79.7799C77.0115 79.0552 76.9155 78.3334 76.7556 77.6145C76.3989 76.3063 75.755 75.267 74.8241 74.4967C74.0806 74.1025 73.3864 73.8556 72.7413 73.756C72.0148 73.7454 71.3115 73.7765 70.6314 73.8492C70.207 73.9107 69.8049 73.9926 69.4251 74.0948C69.0452 74.197 68.6653 74.2992 68.2855 74.4014C68.2429 74.4033 68.2225 74.4255 68.2244 74.4681C68.0984 74.5164 67.9511 74.5656 67.7825 74.6158C67.6546 74.6215 67.5286 74.6697 67.4045 74.7606C66.8153 74.9575 66.2909 75.1729 65.8315 75.4067C65.6629 75.4569 65.4118 75.5748 65.0784 75.7603C64.995 75.8067 64.932 75.8309 64.8894 75.8328C64.8468 75.8346 64.8051 75.8578 64.7643 75.9023C64.4716 76.0434 64.2002 76.1835 63.9501 76.3227C63.7 76.4619 63.4286 76.602 63.1359 76.7431C62.8933 77.0528 62.6507 77.3624 62.4082 77.6721C62.2082 77.9799 61.9879 78.31 61.7473 78.6623C61.7525 80.712 61.7771 82.7182 61.8211 84.6809C61.8671 86.6861 61.9352 88.7118 62.0257 90.7578C62.037 91.0135 61.9417 91.274 61.7399 91.5392C61.54 91.847 61.3372 92.0908 61.1316 92.2707C60.8057 92.6268 60.4566 92.9412 60.0842 93.2139C59.7545 93.4847 59.3813 93.7361 58.9645 93.9681C58.8404 94.059 58.6097 94.1546 58.2724 94.2549C57.9797 94.396 57.6638 94.4954 57.3247 94.5531C56.9875 94.6534 56.6891 94.6666 56.4296 94.5926C56.1719 94.5613 56.0356 94.3752 56.0205 94.0342C55.8095 89.2602 55.7254 84.4592 55.7682 79.6313C55.7218 79.5479 55.719 79.4839 55.7597 79.4394C55.756 79.3542 55.7522 79.2689 55.7484 79.1837C55.7835 79.0113 55.7973 78.8399 55.7898 78.6694C55.7822 78.4989 55.7738 78.307 55.7643 78.0939C55.8373 73.948 55.9539 69.8215 56.114 65.7144C56.3167 61.6054 56.5612 57.4733 56.8473 53.3179C57.0908 49.1645 57.3361 45.0536 57.5834 40.9854C57.8714 36.8727 58.1371 32.7396 58.3806 28.5861C58.41 28.2858 58.5044 28.0041 58.6636 27.7408C58.8654 27.4756 59.0681 27.2317 59.2718 27.0092C59.8422 26.3861 60.5442 25.8425 61.3779 25.3786C61.7114 25.193 62.0458 25.0288 62.3811 24.8858C62.7591 24.741 63.1186 24.661 63.4596 24.646C63.6727 24.6365 63.8673 24.692 64.0435 24.8123C64.2604 24.8882 64.3532 25.0549 64.3218 25.3125C64.2218 27.8795 64.08 30.4696 63.8966 33.0829C63.7539 35.6517 63.5899 38.2214 63.4045 40.7921C63.1184 44.9475 62.8517 49.0593 62.6045 53.1275C62.3572 57.1957 62.1545 61.3047 61.9962 65.4544C61.9656 66.6943 61.9341 67.9129 61.9016 69.1101C61.8691 70.3074 61.8375 71.526 61.8069 72.7659L66.3309 66.4159C66.8919 65.5797 67.4538 64.7647 68.0166 63.9711C68.6221 63.1756 69.183 62.3393 69.6995 61.4623C69.8975 61.1119 70.1614 60.8013 70.4911 60.5305C70.8615 60.2151 71.2125 59.9434 71.5441 59.7152C71.8757 59.487 72.2295 59.2791 72.6056 59.0917C72.9798 58.8616 73.3782 58.6945 73.8006 58.5904C74.0119 58.5384 74.2454 58.5067 74.5011 58.4954C74.7995 58.4822 75.0387 58.5784 75.2186 58.784C75.3559 58.9915 75.3449 59.2268 75.1857 59.4901C75.0692 59.7515 74.972 59.9694 74.8943 60.1436C74.2964 61.1096 73.6762 62.0553 73.0338 62.9806C72.4321 63.8613 71.7878 64.744 71.1008 65.6285C70.3788 66.6854 69.6354 67.7433 68.8708 68.8021C68.1488 69.859 67.4045 70.8955 66.6379 71.9117C67.5995 71.4421 68.5842 71.0142 69.5921 70.628C70.6001 70.2418 71.6321 69.9186 72.6883 69.6583C73.4073 69.4984 74.1708 69.3793 74.9788 69.3008C75.8275 69.1779 76.6383 69.1634 77.4112 69.2574C78.1841 69.3513 78.9201 69.5751 79.619 69.9285C80.3587 70.2375 80.9781 70.7226 81.4771 71.3839C81.8852 71.9211 82.1896 72.5269 82.3902 73.2013C82.6316 73.8313 82.81 74.4854 82.9254 75.1636ZM68.0965 74.4738L68.1604 74.471C67.9085 74.5675 67.8038 74.6149 67.8464 74.613C67.9298 74.5666 68.0131 74.5202 68.0965 74.4738ZM99.5786 69.7509C98.3319 70.5321 97.062 71.2716 95.7689 71.9693C94.5165 72.6226 93.2206 73.2565 91.8811 73.8709L90.939 74.2969C91.438 74.9582 92.0185 75.5304 92.6805 76.0137C93.4741 76.5765 94.326 77.0086 95.2362 77.3101C96.1872 77.567 97.1575 77.7804 98.1473 77.9501C99.3484 78.0679 100.524 78.1013 101.675 78.0504C102.867 77.9551 104.057 77.8384 105.247 77.7004C105.331 77.654 105.415 77.6289 105.5 77.6251C105.628 77.6195 105.734 77.5934 105.817 77.5471C106.03 77.5376 106.265 77.5273 106.52 77.516C106.817 77.4602 107.034 77.536 107.171 77.7435C107.351 77.949 107.361 78.1835 107.202 78.4468C107.086 78.7082 106.967 78.9269 106.847 79.1031C106.363 79.7651 105.77 80.3465 105.066 80.8474C104.734 81.0756 104.359 81.2844 103.941 81.4737C103.564 81.6612 103.165 81.807 102.743 81.9111C101.431 82.1826 100.095 82.3911 98.7344 82.5367C97.4149 82.6377 96.0694 82.6331 94.6979 82.5229C93.0261 82.3833 91.3671 82.0509 89.721 81.5257C88.0749 81.0006 86.6889 80.0796 85.5629 78.7627C84.7523 77.8162 84.1919 76.7306 83.8815 75.5057C83.5692 74.2383 83.4923 72.9818 83.6508 71.7363C83.8813 70.1886 84.351 68.7371 85.0599 67.3818C85.8094 65.982 86.7148 64.7248 87.776 63.6102C89.163 62.1395 90.7726 60.8725 92.6048 59.8092C94.437 58.7459 96.3742 58.1264 98.4164 57.9507C100.118 57.7901 101.73 58.0392 103.254 58.6978C104.778 59.3565 106.183 60.234 107.47 61.3302C107.612 61.6229 107.602 61.9009 107.443 62.1642C107.012 63.0375 106.471 63.8301 105.819 64.5423C105.167 65.2544 104.492 65.9249 103.794 66.5537C103.138 67.1806 102.437 67.7454 101.69 68.2482C100.986 68.7491 100.283 69.25 99.5786 69.7509ZM92.4236 62.9563C92.381 62.9582 92.3606 62.9804 92.3625 63.023C92.3625 63.023 92.3829 63.0008 92.4236 62.9563ZM89.8693 67.4895C89.5479 68.9131 89.5016 70.2818 89.7305 71.5956C89.8565 71.5474 89.9825 71.4991 90.1085 71.4508C90.2345 71.4025 90.3605 71.3542 90.4864 71.306C91.0312 71.0683 91.5759 70.8307 92.1206 70.5931C92.6653 70.3555 93.21 70.1179 93.7547 69.8803L94.1298 69.6715C94.2577 69.6658 94.3624 69.6185 94.4439 69.5295C94.7366 69.3884 95.008 69.2483 95.2581 69.1091C95.5082 68.9699 95.7796 68.8298 96.0723 68.6887C96.6151 68.4085 97.157 68.1069 97.698 67.7841C97.7813 67.7377 97.8647 67.6913 97.9481 67.6449C98.074 67.5966 98.1778 67.528 98.2593 67.4389C98.426 67.3462 98.5297 67.2775 98.5705 67.233C98.8206 67.0938 99.0494 66.9556 99.2568 66.8183C99.505 66.6365 99.7329 66.4769 99.9404 66.3396C99.9792 66.2525 100.02 66.208 100.063 66.2061C100.103 66.1616 100.144 66.1171 100.185 66.0726C100.309 65.9817 100.413 65.913 100.496 65.8666C100.62 65.7757 100.723 65.6858 100.804 65.5968L100.927 65.4632C101.008 65.3742 101.069 65.3074 101.11 65.2629C101.191 65.1739 101.273 65.0849 101.354 64.9959C101.265 64.9144 101.156 64.8552 101.026 64.8182C100.895 64.7386 100.784 64.6581 100.695 64.5766C99.1487 63.4064 97.4951 62.7107 95.7342 62.4896C95.3913 62.4621 95.0707 62.4549 94.7723 62.4681C94.4721 62.4386 94.1524 62.4528 93.8133 62.5105C93.7299 62.5569 93.6243 62.5829 93.4964 62.5885C93.4112 62.5923 93.3269 62.6174 93.2435 62.6638C93.1156 62.6694 93.0313 62.6945 92.9906 62.739C92.9053 62.7428 92.7793 62.7911 92.6126 62.8839L92.5487 62.8867C92.4672 62.9757 92.4051 63.0212 92.3625 63.023C92.3218 63.0675 92.281 63.1121 92.2403 63.1566C92.1977 63.1585 92.156 63.1816 92.1152 63.2262C92.1171 63.2688 92.0773 63.3346 91.9958 63.4236C91.9125 63.47 91.8504 63.5155 91.8097 63.56C91.8116 63.6026 91.7708 63.6471 91.6874 63.6935C91.5264 63.9142 91.3857 64.1126 91.2653 64.2887C91.145 64.4649 91.0256 64.6623 90.9071 64.8811C90.4277 65.6284 90.0817 66.4978 89.8693 67.4895ZM130.006 55.4013C130.33 55.9848 130.551 56.637 130.669 57.3579C130.784 58.0361 130.814 58.7181 130.759 59.4039C130.715 60.3454 130.607 61.2685 130.433 62.173C130.3 63.033 130.104 63.8959 129.843 64.7616C129.251 66.8377 128.529 68.8556 127.676 70.8152C126.866 72.7729 125.99 74.7121 125.05 76.6328C123.003 80.567 120.764 84.4884 118.331 88.397C117.491 89.6727 116.629 90.9493 115.746 92.2269C114.907 93.5452 113.958 94.783 112.899 95.9403C112.245 96.6098 111.522 97.1542 110.729 97.5737C110.396 97.7592 110.039 97.9031 109.659 98.0053C109.324 98.1483 108.986 98.2273 108.645 98.2424C108.432 98.2518 108.238 98.2176 108.064 98.1399C107.847 98.0641 107.754 97.8974 107.785 97.6397C107.815 97.3395 107.93 97.0568 108.132 96.7916C108.291 96.5283 108.473 96.2854 108.676 96.0628L108.982 95.729C109.063 95.64 109.103 95.5742 109.101 95.5316C109.305 95.309 109.487 95.0661 109.646 94.8028C109.848 94.5376 110.049 94.2725 110.251 94.0073C111.297 92.5517 112.298 91.034 113.253 89.4543C114.253 87.9153 115.209 86.3569 116.121 84.7791C116.758 83.7259 117.352 82.6747 117.904 81.6253C118.496 80.5314 119.067 79.4384 119.617 78.3464C120.516 76.4702 121.372 74.5746 122.184 72.6595C122.996 70.7444 123.657 68.772 124.165 66.7423C124.461 65.7042 124.67 64.6486 124.794 63.5754C124.917 62.5023 124.849 61.4376 124.588 60.3814C124.336 59.4957 123.876 58.7686 123.211 58.2001C122.727 57.8798 122.27 57.6865 121.84 57.6201L121.392 57.6398L121.328 57.6427L121.267 57.7094C121.186 57.7984 121.124 57.8652 121.084 57.9097C121.041 57.9116 120.979 57.9571 120.898 58.0461C120.855 58.048 120.793 58.0934 120.711 58.1824C120.508 58.405 120.324 58.6053 120.161 58.7833C119.997 58.9187 119.834 59.0967 119.673 59.3174C119.591 59.4064 119.489 59.5177 119.367 59.6512C119.285 59.7402 119.225 59.8283 119.186 59.9155C119.06 59.9637 118.979 60.0528 118.942 60.1825C118.738 60.4051 118.557 60.648 118.398 60.9113C118.237 61.1319 118.075 61.3526 117.914 61.5732C117.352 62.3669 116.793 63.2458 116.237 64.2099C116.319 64.1209 116.358 64.0337 116.354 63.9485C116.393 63.8614 116.453 63.7733 116.534 63.6843C116.334 63.9921 116.156 64.2989 115.998 64.6048C115.841 64.9107 115.706 65.237 115.593 65.5837C115.562 65.8413 115.447 66.1453 115.249 66.4957C115.261 67.7338 115.274 68.9931 115.288 70.2737C115.343 71.5098 115.356 72.7692 115.327 74.0517C115.313 74.6929 115.298 75.3342 115.284 75.9755C115.312 76.6148 115.276 77.257 115.177 77.9021C115.182 78.0299 115.168 78.1801 115.133 78.3525C115.096 78.4822 115.059 78.612 115.022 78.7417C114.946 78.9586 114.827 79.1774 114.666 79.3981C114.503 79.5761 114.34 79.7541 114.177 79.9322C113.974 80.1547 113.749 80.3782 113.502 80.6026C113.254 80.7845 113.026 80.944 112.819 81.0813C112.611 81.2186 112.341 81.38 112.008 81.5656C111.717 81.7493 111.445 81.8894 111.193 81.986C110.941 82.0825 110.561 82.1847 110.054 82.2926C109.589 82.3986 109.242 82.2858 109.014 81.9542C108.967 81.8708 108.943 81.8078 108.941 81.7652C108.938 81.68 108.912 81.5956 108.866 81.5123C108.729 81.3048 108.739 81.0481 108.896 80.7422C108.978 80.6532 109.016 80.566 109.013 80.4808C109.052 80.3937 109.112 80.3056 109.193 80.2166C109.234 80.1721 109.254 80.1498 109.254 80.1498C109.252 80.1072 109.272 80.0636 109.313 80.0191C109.36 79.1628 109.366 78.3298 109.33 77.5199C109.337 76.7081 109.343 75.8751 109.348 75.0207C109.34 73.8679 109.311 72.7374 109.262 71.6291C109.254 70.4764 109.225 69.3459 109.176 68.2376C109.132 66.275 109.068 64.3346 108.983 62.4165C108.898 60.4984 108.812 58.5589 108.726 56.5982C108.713 56.2998 108.807 56.018 109.009 55.7528C109.211 55.4877 109.413 55.2438 109.617 55.0213C110.228 54.3536 110.951 53.8092 111.787 53.3879C111.913 53.3396 112.122 53.2449 112.415 53.1038C112.75 52.9609 113.088 52.8606 113.427 52.8029C113.764 52.7025 114.062 52.6894 114.322 52.7633C114.579 52.7946 114.716 52.9808 114.731 53.3218C114.78 54.43 114.829 55.5383 114.878 56.6465C114.927 57.7548 114.955 58.864 114.961 59.9741C115.491 59.3955 116.021 58.8382 116.553 58.3022C117.084 57.7662 117.638 57.2506 118.214 56.7553C118.955 56.1247 119.721 55.5783 120.512 55.1162C121.301 54.6116 122.136 54.169 123.016 53.7884C123.646 53.547 124.299 53.3473 124.975 53.1893C125.694 53.0294 126.399 53.0409 127.091 53.2239C127.697 53.4106 128.243 53.6855 128.729 54.0484C129.257 54.4094 129.683 54.8603 130.006 55.4013ZM120.898 58.0461C120.894 57.9608 120.935 57.9163 121.02 57.9125C121.02 57.9125 120.979 57.9571 120.898 58.0461ZM109.165 95.5287C109.123 95.5306 109.102 95.5529 109.104 95.5955C109.265 95.3748 109.325 95.2868 109.285 95.3313C109.287 95.3739 109.247 95.4397 109.165 95.5287ZM171.142 61.1423C171.528 62.1502 171.767 63.2074 171.859 64.3137C171.948 65.3775 171.975 66.4654 171.939 67.5774C171.908 68.8173 171.813 70.0387 171.652 71.2416C171.49 72.4019 171.307 73.5845 171.104 74.7893C170.683 76.8579 170.176 78.9089 169.583 80.9425C169.032 82.9741 168.503 85.0261 167.997 87.0985L167.839 87.8742C167.658 88.6083 167.259 89.2452 166.642 89.7849C166.026 90.3247 165.404 90.7579 164.778 91.0845C164.444 91.2701 164.089 91.4353 163.711 91.5802C163.375 91.7231 163.037 91.8021 162.696 91.8172C162.526 91.8247 162.31 91.7702 162.048 91.6536C161.831 91.5778 161.76 91.4101 161.834 91.1506C162.116 89.8142 162.442 88.4758 162.81 87.1356C163.222 85.8361 163.611 84.495 163.977 83.1121C164.121 82.5078 164.264 81.8822 164.407 81.2353C164.551 80.631 164.694 80.0054 164.836 79.3585C165.082 78.1518 165.286 76.9683 165.448 75.8081C165.651 74.6032 165.81 73.379 165.926 72.1353C166.007 71.0641 166.024 69.9956 165.977 68.93C165.972 67.8625 165.841 66.8219 165.582 65.8084C165.337 65.0931 165.029 64.4021 164.658 63.7352C164.285 63.0256 163.79 62.4496 163.172 62.0071C162.557 61.6072 161.903 61.3158 161.212 61.1328C160.664 62.2674 160.265 63.3955 160.016 64.5169L159.85 65.1008C159.637 66.0925 159.448 67.1259 159.282 68.2009C159.157 69.2315 159.031 70.262 158.906 71.2925C158.814 72.1081 158.742 72.9013 158.691 73.6724C158.64 74.4434 158.567 75.2153 158.473 75.9882C158.403 76.333 158.288 76.637 158.129 76.9003C157.968 77.121 157.786 77.3426 157.582 77.5651C156.971 78.2328 156.247 78.7772 155.412 79.1986C155.288 79.2895 155.058 79.4064 154.723 79.5493C154.43 79.6904 154.115 79.8111 153.778 79.9114C153.439 79.9691 153.139 79.961 152.88 79.887C152.62 79.8131 152.483 79.6056 152.468 79.2646C152.36 76.835 152.233 74.4276 152.085 72.0425C151.935 69.6148 151.763 67.188 151.571 64.7621C151.279 61.0594 150.861 57.4049 150.317 53.7988C149.814 50.1481 149.12 46.5272 148.235 42.9361C147.682 41.0387 147.086 39.1432 146.447 37.2495C146.35 36.9976 146.34 36.7631 146.416 36.5462C146.491 36.3293 146.61 36.1105 146.771 35.8899C147.012 35.5376 147.297 35.226 147.626 34.9552C147.956 34.6844 148.287 34.4349 148.618 34.2067C148.95 33.9785 149.304 33.7706 149.68 33.5832C150.054 33.3531 150.452 33.186 150.875 33.0819C151.001 33.0336 151.234 33.002 151.575 32.9869C151.959 32.9699 152.198 33.0661 152.293 33.2755C153.463 36.555 154.379 39.8885 155.041 43.2759C155.744 46.6188 156.3 50.0109 156.708 53.4522C156.844 54.5993 156.981 55.7677 157.119 56.9575C157.255 58.1046 157.371 59.2739 157.467 60.4655C158.2 59.6644 158.981 58.9679 159.809 58.3761C160.514 57.9178 161.266 57.5216 162.062 57.1874C162.9 56.8087 163.745 56.6005 164.597 56.5628C165.62 56.5176 166.611 56.7087 167.569 57.1361C168.441 57.5247 169.169 58.0691 169.756 58.7692C170.342 59.4693 170.804 60.2604 171.142 61.1423ZM161.128 60.6881C161.085 60.69 161.065 60.7122 161.067 60.7548C161.108 60.7103 161.128 60.6881 161.128 60.6881ZM188.92 61.1892C189.1 61.3948 189.111 61.6506 188.954 61.9565C188.795 62.2198 188.676 62.4173 188.596 62.5489C188.113 63.2109 187.519 63.7923 186.815 64.2932C186.484 64.5214 186.109 64.7302 185.69 64.9195C185.314 65.107 184.914 65.2528 184.492 65.3569C184.283 65.4515 184.05 65.5045 183.794 65.5158C183.537 65.4845 183.318 65.3661 183.138 65.1605C182.958 64.9549 182.78 64.7919 182.604 64.6716C182.426 64.5086 182.226 64.3253 182.003 64.1216C182.049 64.2049 182.095 64.267 182.139 64.3077C182.182 64.3059 182.226 64.3253 182.27 64.366C181.476 63.8032 180.607 63.4572 179.662 63.3282C179.747 63.3244 179.812 63.3429 179.856 63.3837C179.942 63.3799 180.027 63.3761 180.112 63.3723C179.639 63.3078 179.149 63.3295 178.641 63.4374C178.767 63.3891 178.98 63.3583 179.278 63.3452C179.15 63.3508 179.023 63.3778 178.897 63.426C178.812 63.4298 178.705 63.4345 178.578 63.4402C178.537 63.4847 178.474 63.5088 178.389 63.5126C178.726 63.4123 178.937 63.3602 179.022 63.3565C179.106 63.3101 179.084 63.311 178.958 63.3593C178.873 63.3631 178.81 63.3872 178.769 63.4317C178.769 63.4317 178.727 63.4336 178.641 63.4374C178.601 63.4819 178.538 63.506 178.452 63.5098C178.788 63.3668 178.997 63.2721 179.081 63.2258C179.205 63.1349 179.205 63.1349 179.081 63.2258C178.997 63.2721 178.935 63.3176 178.894 63.3621C178.894 63.3621 178.853 63.3853 178.769 63.4317C178.769 63.4317 178.728 63.4549 178.644 63.5013C178.976 63.2731 179.205 63.1349 179.331 63.0866C179.455 62.9957 179.433 62.9966 179.267 63.0894C179.226 63.1339 179.185 63.1784 179.144 63.2229C179.102 63.2248 179.06 63.248 179.019 63.2925C178.895 63.3834 178.854 63.4066 178.894 63.3621C178.976 63.2731 179.079 63.1831 179.203 63.0922C179.327 63.0013 179.431 62.9327 179.514 62.8863C179.597 62.8399 179.577 62.8621 179.453 62.953C179.412 62.9976 179.371 63.0421 179.331 63.0866C179.288 63.0885 179.246 63.1117 179.206 63.1562C179.124 63.2452 179.104 63.2674 179.144 63.2229C179.226 63.1339 179.307 63.0449 179.389 62.9559C179.513 62.865 179.595 62.7973 179.636 62.7528C179.718 62.6637 179.718 62.6637 179.636 62.7528L179.575 62.8195L179.331 63.0866C179.331 63.0866 179.29 63.1311 179.208 63.2201C179.412 62.9976 179.533 62.8427 179.572 62.7556C179.654 62.6666 179.655 62.6879 179.575 62.8195C179.494 62.9085 179.433 62.9966 179.395 63.0837C179.313 63.1728 179.253 63.2608 179.214 63.348C179.175 63.4351 179.115 63.5232 179.034 63.6122C179.072 63.5251 179.111 63.4379 179.15 63.3508C179.189 63.2637 179.249 63.1756 179.331 63.0866C179.171 63.3499 179.035 63.6335 178.92 63.9375C178.803 64.199 178.71 64.502 178.64 64.8468C178.634 64.7189 178.67 64.5679 178.748 64.3936C178.456 65.5169 178.468 66.7549 178.784 68.1076C178.78 68.0224 178.756 67.9594 178.711 67.9186C178.71 67.876 178.707 67.8121 178.703 67.7268C179.013 68.9516 179.599 70.1216 180.46 71.2367C180.918 71.9425 181.455 72.4953 182.07 72.8952C182.026 72.8544 181.982 72.835 181.94 72.8369C181.895 72.7961 181.851 72.7554 181.806 72.7146C182.642 73.2756 183.511 73.6002 184.412 73.6885C184.241 73.6961 184.091 73.6814 183.961 73.6444C184.479 73.7496 185.055 73.7455 185.691 73.632C185.435 73.6433 185.244 73.6731 185.118 73.7214C185.329 73.6693 185.52 73.6395 185.691 73.632C185.859 73.5818 186.028 73.5317 186.196 73.4815C186.237 73.437 186.3 73.4129 186.385 73.4091C185.839 73.6041 185.649 73.6552 185.816 73.5624C185.901 73.5587 185.943 73.5568 185.943 73.5568C185.984 73.5123 186.026 73.4891 186.069 73.4872C186.32 73.3906 186.488 73.3191 186.572 73.2728C186.614 73.2709 186.635 73.2699 186.635 73.2699C186.676 73.2254 186.718 73.2022 186.761 73.2003C186.427 73.3859 186.197 73.5028 186.071 73.5511C185.988 73.5975 186.008 73.5753 186.132 73.4844L186.196 73.4815C186.237 73.437 186.257 73.4148 186.257 73.4148C186.3 73.4129 186.342 73.3897 186.383 73.3452C186.635 73.2486 186.801 73.1558 186.883 73.0668C186.925 73.0649 186.947 73.064 186.947 73.064C186.987 73.0195 187.029 72.9963 187.072 72.9944C186.447 73.3637 186.157 73.5473 186.199 73.5455C186.242 73.5436 186.325 73.4972 186.449 73.4063C186.531 73.3173 186.613 73.2496 186.697 73.2032C186.863 73.1104 187.008 72.9972 187.13 72.8637C187.173 72.8618 187.194 72.8609 187.194 72.8609C187.235 72.8164 187.276 72.7932 187.319 72.7913C187.402 72.7449 187.402 72.7449 187.319 72.7913C187.236 72.8377 187.132 72.9063 187.008 72.9972C186.884 73.0881 186.781 73.1781 186.699 73.2671C186.616 73.3135 186.615 73.2922 186.697 73.2032C186.863 73.1104 186.947 73.064 186.947 73.064C187.071 72.9731 187.214 72.8386 187.377 72.6606C187.461 72.6142 187.563 72.5242 187.686 72.3907C187.767 72.3017 187.767 72.3017 187.686 72.3907C187.645 72.4352 187.563 72.5029 187.438 72.5938C187.357 72.6828 187.275 72.7718 187.194 72.8609C187.153 72.9054 187.194 72.8609 187.316 72.7273C187.398 72.6383 187.459 72.5716 187.5 72.527C187.583 72.4807 187.665 72.4129 187.747 72.3239L188.175 71.8566C188.212 71.7268 188.293 71.6378 188.419 71.5895C188.5 71.5005 188.521 71.4783 188.48 71.5228C188.439 71.5673 188.378 71.634 188.297 71.7231C188.215 71.8121 188.155 71.9002 188.116 71.9873C188.076 72.0318 188.096 72.0095 188.177 71.9205C188.418 71.5682 188.659 71.2159 188.899 70.8636C189.183 70.5094 189.422 70.1358 189.619 69.7428C189.459 70.006 189.36 70.1812 189.322 70.2684C189.64 69.7418 189.915 69.1958 190.146 68.6304C190.375 68.0223 190.583 67.3939 190.767 66.7451C190.693 67.0046 190.658 67.177 190.662 67.2623C191.056 65.5365 191.069 63.913 190.703 62.3917C190.749 62.4751 190.776 62.602 190.784 62.7725C190.527 61.8015 190.104 60.9234 189.514 60.138C188.967 59.3507 188.297 58.6757 187.503 58.1128C187.547 58.1536 187.592 58.1943 187.637 58.2351C187.679 58.2332 187.723 58.2526 187.767 58.2933C187.063 57.812 186.297 57.3974 185.47 57.0496C184.686 56.6999 183.883 56.415 183.062 56.1951C182.802 56.1211 182.668 55.9776 182.659 55.7645C182.649 55.5513 182.683 55.3576 182.761 55.1834C182.916 54.8348 183.116 54.527 183.361 54.26C183.603 53.9503 183.869 53.6823 184.158 53.456C184.488 53.1852 184.84 52.9347 185.214 52.7046C185.629 52.43 186.047 52.2194 186.467 52.0727C186.762 51.9742 187.057 51.8971 187.354 51.8413C187.648 51.7429 187.947 51.7297 188.249 51.8017C190.194 52.3137 191.916 53.1131 193.416 54.1999C194.873 55.2886 195.895 56.6528 196.48 58.2926C196.978 59.8935 197.073 61.5763 196.767 63.3408C196.346 65.4094 195.535 67.3458 194.333 69.15C193.132 70.9541 191.728 72.5323 190.122 73.8846C189.092 74.7415 187.995 75.5161 186.829 76.2082C185.705 76.8559 184.511 77.3784 183.247 77.776C182.404 78.0268 181.536 78.1933 180.643 78.2755C179.79 78.3131 178.951 78.1794 178.126 77.8742C177.303 77.6116 176.58 77.1951 175.957 76.6248C175.334 76.0544 174.772 75.4172 174.271 74.7133C173.857 74.0483 173.507 73.3591 173.219 72.6458C172.931 71.9325 172.728 71.1941 172.608 70.4306C172.424 69.1575 172.58 67.848 173.075 66.5021C173.379 65.6346 173.793 64.8688 174.319 64.205C174.886 63.4966 175.497 62.829 176.152 62.2021C176.932 61.4843 177.781 60.8702 178.698 60.3599C179.655 59.805 180.641 59.3984 181.655 59.1401C182.286 58.9413 182.944 58.8482 183.628 58.8607C184.353 58.8286 185.04 58.9051 185.688 59.0899C186.295 59.2767 186.863 59.5719 187.393 59.9755C187.964 60.3346 188.473 60.7392 188.92 61.1892ZM236.47 69.5937C236.65 69.7992 236.66 70.0337 236.501 70.297C236.384 70.5584 236.266 70.7771 236.145 70.9533C235.662 71.6153 235.069 72.1967 234.365 72.6976C233.618 73.2004 232.844 73.555 232.041 73.7613C230.185 74.2704 228.327 74.7583 226.469 75.2248C224.608 75.6487 222.724 76.0096 220.815 76.3075C219.544 76.5345 218.271 76.7189 216.996 76.8607C215.763 77.0006 214.506 77.0562 213.223 77.0275C212.069 76.9931 210.912 76.9161 209.754 76.7965C208.595 76.6768 207.474 76.4274 206.389 76.0483C205.394 75.7506 204.458 75.3436 203.581 74.8271C202.745 74.2662 202.009 73.5727 201.375 72.7465C201.015 72.3354 200.719 71.9213 200.487 71.5045C200.296 71.0432 200.105 70.5818 199.913 70.1205C199.716 69.5313 199.542 68.9624 199.389 68.414C199.278 67.821 199.209 67.2261 199.182 66.6294C199.097 65.6509 199.182 64.6862 199.439 63.7352C199.696 62.7843 200.127 61.9111 200.732 61.1155C201.658 59.8361 202.765 58.7835 204.052 57.9579C205.382 57.1303 206.784 56.4704 208.257 55.9783C209.183 55.681 210.115 55.4904 211.05 55.4063C212.029 55.3204 213.01 55.2983 213.994 55.3403C215.023 55.4229 216.033 55.5705 217.025 55.7829C218.057 55.9508 219.073 56.2262 220.072 56.6091C220.593 56.7996 221.094 57.0124 221.574 57.2474C222.095 57.4379 222.597 57.6933 223.081 58.0136C223.078 57.9283 223.074 57.8431 223.07 57.7578C223.109 57.6707 223.126 57.5845 223.123 57.4993C223.292 53.6053 223.635 49.7678 224.151 45.9866C224.666 42.1628 225.351 38.3528 226.208 34.5566C226.39 33.8226 226.789 33.1857 227.405 32.6459C228.022 32.1061 228.622 31.6739 229.206 31.3491C229.539 31.1635 229.874 30.9993 230.209 30.8563C230.587 30.7115 230.946 30.6316 231.287 30.6165C231.458 30.6089 231.653 30.6644 231.871 30.7829C232.131 30.8568 232.223 31.0022 232.147 31.2191C231.788 32.7725 231.473 34.3239 231.2 35.8735C230.924 37.3804 230.672 38.9078 230.441 40.4555C229.845 44.3682 229.42 48.2735 229.165 52.1712C228.953 56.0671 229.045 61.0385 229.44 67.0856C229.453 67.384 229.338 67.6667 229.093 67.9338C228.891 68.199 228.71 68.4419 228.549 68.6625C227.893 69.2894 227.17 69.8339 226.379 70.296C226.045 70.4815 225.69 70.6467 225.312 70.7916C224.975 70.8919 224.635 70.9496 224.294 70.9647C223.998 71.0205 223.738 70.9465 223.516 70.7428C223.14 68.0261 222.549 66.2585 221.744 65.4399C220.937 64.5787 220.158 63.8657 219.407 63.301C218.085 62.3771 216.644 61.6508 215.083 61.1218C213.563 60.5484 212.007 60.1474 210.417 59.9187C209.044 59.7659 207.784 59.7788 206.639 59.9576C206.428 60.0096 206.237 60.0394 206.066 60.047C205.939 60.0526 205.791 60.1018 205.625 60.1946C205.545 60.3263 205.488 60.4783 205.453 60.6507C205.416 60.7804 205.357 60.9111 205.278 61.0428C205.097 61.7768 205.042 62.4839 205.115 63.164C205.188 63.8441 205.304 64.5437 205.464 65.2626C205.615 65.7685 205.787 66.2734 205.98 66.7774C206.173 67.2813 206.429 67.7611 206.748 68.2168C207.251 68.9634 207.922 69.6597 208.762 70.3059C209.643 70.9076 210.581 71.3573 211.576 71.655C212.615 71.9507 213.65 72.1826 214.682 72.3505C216.269 72.4939 217.829 72.5317 219.364 72.4639C220.939 72.3515 222.511 72.1752 224.081 71.935C225.99 71.6371 227.853 71.2771 229.671 70.8551C231.487 70.3905 233.303 69.9258 235.119 69.4612C235.328 69.3665 235.56 69.3135 235.816 69.3022C236.115 69.289 236.332 69.3862 236.47 69.5937ZM205.497 60.2003C205.499 60.2429 205.52 60.2419 205.561 60.1974L205.497 60.2003ZM205.805 59.9304C206.009 59.7078 206.069 59.6198 205.986 59.6662C205.945 59.7107 205.884 59.7774 205.802 59.8664L205.805 59.9304ZM238.318 17.6854C238.345 17.3425 238.417 17.0404 238.534 16.779C238.693 16.5157 238.875 16.2728 239.078 16.0502C239.688 15.34 240.365 14.7334 241.112 14.2306C241.444 14.0024 241.777 13.8169 242.112 13.6739C242.448 13.531 242.785 13.4306 243.124 13.373C243.335 13.3209 243.549 13.3328 243.766 13.4086C243.983 13.4845 244.076 13.6512 244.045 13.9088C243.871 16.7353 243.673 19.52 243.453 22.2631C243.275 25.0043 243.078 27.7891 242.861 30.6174C242.57 34.6449 242.277 38.651 241.983 42.6359C241.69 46.6207 241.439 50.625 241.233 54.6487C240.827 62.8667 240.743 71.0918 240.978 79.324C240.992 79.6224 240.919 79.9033 240.759 80.1665C240.602 80.4725 240.422 80.7367 240.218 80.9592C239.694 81.6657 239.037 82.2713 238.248 82.776C237.917 83.0042 237.583 83.1898 237.248 83.3327C236.912 83.4756 236.575 83.576 236.236 83.6337C236.025 83.6857 235.811 83.6738 235.594 83.598C235.42 83.5203 235.327 83.3536 235.315 83.0978C235.232 80.24 235.17 77.4026 235.131 74.5856C235.133 71.7241 235.177 68.8607 235.264 65.9954C235.384 61.9328 235.547 57.911 235.756 53.9299C236.005 49.9043 236.274 45.8565 236.564 41.7863C236.856 37.7589 237.149 33.7527 237.442 29.7678C237.777 25.7385 238.069 21.711 238.318 17.6854ZM258.236 62.7378C256.989 63.5189 255.72 64.2584 254.426 64.9562C253.174 65.6094 251.878 66.2433 250.539 66.8577L249.597 67.2837C250.096 67.945 250.676 68.5173 251.338 69.0005C252.132 69.5633 252.984 69.9955 253.894 70.2969C254.845 70.5538 255.815 70.7672 256.805 70.937C258.006 71.0547 259.182 71.0881 260.333 71.0373C261.524 70.9419 262.715 70.8252 263.905 70.6872C263.988 70.6408 264.072 70.6157 264.158 70.6119C264.286 70.6063 264.391 70.5803 264.475 70.5339C264.688 70.5245 264.922 70.5141 265.178 70.5028C265.474 70.447 265.691 70.5228 265.829 70.7303C266.008 70.9359 266.019 71.1703 265.86 71.4336C265.743 71.695 265.625 71.9138 265.504 72.0899C265.021 72.7519 264.427 73.3334 263.724 73.8343C263.392 74.0625 263.017 74.2712 262.598 74.4606C262.222 74.648 261.823 74.7938 261.4 74.8979C260.088 75.1694 258.752 75.378 257.392 75.5235C256.073 75.6245 254.727 75.62 253.355 75.5097C251.684 75.3701 250.025 75.0377 248.379 74.5126C246.732 73.9874 245.346 73.0664 244.221 71.7495C243.41 70.803 242.849 69.7174 242.539 68.4926C242.227 67.2251 242.15 65.9686 242.308 64.7231C242.539 63.1754 243.009 61.7239 243.717 60.3686C244.467 58.9688 245.372 57.7116 246.434 56.597C247.821 55.1263 249.43 53.8593 251.262 52.796C253.095 51.7327 255.032 51.1133 257.074 50.9376C258.775 50.777 260.388 51.026 261.912 51.6847C263.436 52.3433 264.841 53.2208 266.128 54.317C266.269 54.6098 266.26 54.8878 266.101 55.151C265.67 56.0243 265.128 56.817 264.476 57.5291C263.824 58.2413 263.149 58.9117 262.451 59.5405C261.796 60.1674 261.094 60.7322 260.348 61.235C259.644 61.7359 258.94 62.2368 258.236 62.7378ZM251.081 55.9431C251.039 55.945 251.018 55.9672 251.02 56.0099C251.02 56.0099 251.04 55.9876 251.081 55.9431ZM248.527 60.4763C248.205 61.8999 248.159 63.2686 248.388 64.5824C248.514 64.5342 248.64 64.4859 248.766 64.4376C248.892 64.3893 249.018 64.3411 249.144 64.2928C249.689 64.0552 250.233 63.8175 250.778 63.5799C251.323 63.3423 251.868 63.1047 252.412 62.8671L252.787 62.6583C252.915 62.6526 253.02 62.6053 253.101 62.5163C253.394 62.3752 253.666 62.2351 253.916 62.0959C254.166 61.9567 254.437 61.8166 254.73 61.6756C255.273 61.3953 255.815 61.0938 256.356 60.7709C256.439 60.7245 256.522 60.6781 256.606 60.6317C256.732 60.5834 256.835 60.5148 256.917 60.4258C257.084 60.333 257.187 60.2643 257.228 60.2198C257.478 60.0806 257.707 59.9424 257.914 59.8051C258.163 59.6233 258.39 59.4637 258.598 59.3265C258.637 59.2393 258.678 59.1948 258.72 59.1929C258.761 59.1484 258.802 59.1039 258.842 59.0594C258.966 58.9685 259.07 58.8998 259.154 58.8535C259.278 58.7626 259.38 58.6726 259.462 58.5836L259.584 58.45C259.666 58.361 259.727 58.2943 259.768 58.2498C259.849 58.1607 259.93 58.0717 260.012 57.9827C259.923 57.9012 259.814 57.842 259.684 57.805C259.552 57.7254 259.442 57.6449 259.353 57.5634C257.806 56.3932 256.153 55.6976 254.392 55.4764C254.049 55.4489 253.728 55.4417 253.43 55.4549C253.13 55.4255 252.81 55.4396 252.471 55.4973C252.387 55.5437 252.282 55.5697 252.154 55.5754C252.069 55.5791 251.984 55.6042 251.901 55.6506C251.773 55.6563 251.689 55.6813 251.648 55.7258C251.563 55.7296 251.437 55.7779 251.27 55.8707L251.206 55.8735C251.125 55.9625 251.063 56.008 251.02 56.0099C250.979 56.0544 250.939 56.0989 250.898 56.1434C250.855 56.1453 250.814 56.1685 250.773 56.213C250.775 56.2556 250.735 56.3214 250.653 56.4104C250.57 56.4568 250.508 56.5023 250.467 56.5468C250.469 56.5894 250.428 56.6339 250.345 56.6803C250.184 56.901 250.043 57.0994 249.923 57.2755C249.803 57.4517 249.683 57.6492 249.565 57.8679C249.085 58.6152 248.739 59.4846 248.527 60.4763ZM282.293 46.2994C282.419 46.2511 282.628 46.1564 282.921 46.0154C283.256 45.8724 283.572 45.773 283.869 45.7172C284.206 45.6169 284.504 45.6037 284.764 45.6777C285.021 45.709 285.158 45.8951 285.173 46.2361C285.265 48.3248 284.95 50.3674 284.226 52.3639C283.546 54.3586 282.624 56.2144 281.462 57.9314C281.064 58.5896 280.469 59.1498 279.678 59.6118C278.933 60.1572 278.181 60.5322 277.422 60.7366C277.21 60.7886 276.956 60.8212 276.657 60.8344C276.359 60.8476 276.141 60.7505 276.004 60.543C275.866 60.3355 275.856 60.1011 275.973 59.8397C276.132 59.5764 276.251 59.3789 276.331 59.2473C276.449 59.0285 276.57 58.8524 276.692 58.7188C276.812 58.5427 276.931 58.3452 277.05 58.1264C277.403 57.4275 277.736 56.7295 278.046 56.0324C278.355 55.2927 278.6 54.5558 278.782 53.8218C278.891 53.3899 278.958 52.9812 278.984 52.5957C279.05 52.1656 279.115 51.7143 279.18 51.2417C279.098 51.3307 279.058 51.3752 279.058 51.3752C278.891 51.468 278.747 51.5811 278.624 51.7147C278.502 51.8482 278.358 51.9613 278.191 52.0541C278.109 52.1431 278.008 52.2544 277.885 52.3879C277.761 52.4789 277.658 52.5688 277.577 52.6578L277.21 53.0584C276.716 53.4646 276.226 53.9774 275.741 54.5968L275.374 54.9974C275.374 54.9974 275.354 55.0196 275.313 55.0642C275.232 55.1532 275.13 55.2644 275.007 55.398C274.928 55.5296 274.847 55.6399 274.766 55.729C274.077 56.5709 273.415 57.5397 272.78 58.6355L272.89 61.1291C272.955 62.5783 273.04 64.0266 273.147 65.474C273.294 66.8768 273.548 68.275 273.909 69.6684L274.134 70.4272C274.233 70.7218 274.244 70.9776 274.168 71.1944C274.09 71.3687 273.971 71.5662 273.81 71.7868C273.369 72.4469 272.755 73.0293 271.965 73.534C271.634 73.7622 271.28 73.97 270.904 74.1575C270.528 74.3449 270.128 74.4907 269.706 74.5948C269.58 74.6431 269.347 74.6961 269.008 74.7538C268.667 74.7689 268.45 74.6717 268.355 74.4624C268.112 73.7898 267.932 73.1144 267.817 72.4361C267.701 71.7579 267.586 71.0797 267.471 70.4014C266.99 67.2623 266.745 64.134 266.736 61.0167C266.726 57.8995 266.651 54.7637 266.512 51.6094C266.499 51.3111 266.593 51.0293 266.795 50.7641C267.039 50.4971 267.242 50.2532 267.403 50.0325C268.014 49.3649 268.738 48.8204 269.573 48.3991C269.699 48.3509 269.908 48.2562 270.201 48.1151C270.536 47.9722 270.874 47.8718 271.213 47.8141C271.55 47.7138 271.848 47.7006 272.108 47.7746C272.366 47.8059 272.502 47.9921 272.517 48.3331C272.54 48.8446 272.562 49.3561 272.585 49.8676C272.606 50.3364 272.606 50.8276 272.586 51.341C272.603 51.7246 272.62 52.1082 272.637 52.4918C272.652 52.8328 272.646 53.1748 272.618 53.5177C272.7 53.4286 272.802 53.3387 272.926 53.2478C273.051 53.1569 273.153 53.0669 273.235 52.9779C274.544 51.6815 275.943 50.4665 277.43 49.3331C278.958 48.1551 280.579 47.1439 282.293 46.2994ZM317.435 66.7194C317.615 66.925 317.627 67.1807 317.469 67.4866C317.31 67.7499 317.191 67.9474 317.111 68.079C316.87 68.4314 316.586 68.7642 316.258 69.0777C315.929 69.3485 315.598 69.598 315.266 69.8262C314.355 70.4644 313.395 70.9766 312.387 71.3628C311.422 71.7472 310.411 72.0695 309.355 72.3297C306.944 72.8633 304.522 73.1412 302.089 73.1634C299.654 73.1429 297.235 73.0149 294.833 72.7794C293.845 72.6523 292.858 72.5464 291.872 72.4619C290.927 72.3328 289.958 72.1621 288.966 71.9497C288.707 71.8757 288.448 71.8231 288.191 71.7918C287.931 71.7178 287.693 71.643 287.476 71.5671C287.215 71.4506 287.017 71.3312 286.884 71.2089C286.795 71.1275 286.748 71.0441 286.745 70.9588C286.741 70.8736 286.738 70.8097 286.736 70.767C286.721 70.426 286.814 70.1229 287.016 69.8578C287.218 69.5926 287.421 69.3487 287.624 69.1262C287.95 68.7701 288.3 68.477 288.675 68.247C289.047 67.9743 289.42 67.7229 289.794 67.4928C290.128 67.3072 290.463 67.1643 290.801 67.0639C291.178 66.9191 291.538 66.8391 291.879 66.8241C292.305 66.8052 292.567 66.9218 292.663 67.1738C292.748 67.17 292.878 67.207 293.052 67.2847C293.269 67.3605 293.464 67.416 293.636 67.4511C293.807 67.4435 294.001 67.4777 294.217 67.5535C294.82 67.655 295.401 67.7575 295.961 67.8608C296.521 67.9642 297.101 68.0453 297.701 68.1042C300.018 68.3435 302.331 68.4975 304.64 68.5662C305.324 68.5787 306.008 68.5912 306.692 68.6037C307.417 68.5716 308.14 68.5183 308.863 68.4436C308.251 68.129 307.641 67.857 307.033 67.6276C306.423 67.3556 305.814 67.105 305.206 66.8756C303.256 66.2357 301.268 65.7044 299.242 65.2814C297.216 64.8585 295.209 64.3706 293.22 63.8179C292.441 63.5961 291.661 63.353 290.881 63.0885C290.099 62.7814 289.378 62.4076 288.717 61.9669C288.017 61.5708 287.462 61.1042 287.054 60.567C286.599 59.9465 286.358 59.3166 286.33 58.6772C286.268 58.2528 286.272 57.8469 286.34 57.4595C286.449 57.0276 286.581 56.6374 286.737 56.2889C286.962 55.5956 287.275 54.9411 287.675 54.3255C288.117 53.7081 288.562 53.1332 289.008 52.601C290.51 50.8263 292.303 49.359 294.387 48.1992C295.222 47.7778 296.061 47.4205 296.902 47.127C297.784 46.7891 298.694 46.5994 299.632 46.5579C300.738 46.4663 301.815 46.675 302.862 47.1839C303.908 47.6502 304.71 48.4048 305.269 49.4478C305.965 50.6983 306.217 52.0538 306.025 53.5144C305.833 54.975 305.466 56.3365 304.924 57.599C304.769 57.9475 304.569 58.2553 304.325 58.5224C304.08 58.7894 303.813 59.0361 303.524 59.2624C303.073 59.6668 302.575 60.0091 302.032 60.2893C302.896 60.5074 303.76 60.7255 304.624 60.9435C305.486 61.119 306.349 61.3157 307.212 61.5338C308.208 61.8315 309.182 62.1301 310.135 62.4296C311.13 62.7273 312.086 63.0908 313.002 63.5201C313.83 63.9105 314.619 64.3668 315.368 64.8889C316.16 65.4091 316.849 66.0193 317.435 66.7194ZM293.771 57.4514C294.079 57.6513 294.408 57.8503 294.758 58.0484C295.107 58.2038 295.455 58.3592 295.804 58.5146C296.369 58.7459 296.934 58.9558 297.497 59.1445C298.102 59.2886 298.707 59.454 299.313 59.6408C299.544 59.0753 299.714 58.5767 299.823 58.1448C300.106 56.8083 300.138 55.5897 299.918 54.489C299.768 53.9832 299.533 53.5024 299.214 53.0467C298.935 52.5465 298.576 52.1354 298.134 51.8132C297.433 51.4171 296.782 51.1683 296.179 51.0668C295.794 51.0411 295.41 51.0581 295.028 51.1177C294.943 51.1214 294.859 51.1465 294.776 51.1929C294.733 51.1948 294.669 51.1976 294.584 51.2014C294.543 51.2459 294.48 51.27 294.395 51.2738C294.352 51.2757 294.332 51.2979 294.334 51.3406L294.27 51.3434L294.209 51.4102C294.127 51.4992 294.045 51.5669 293.961 51.6133L293.534 52.0806L293.35 52.2809L293.167 52.4812C293.089 52.6555 293.01 52.7871 292.928 52.8761C292.81 53.0949 292.691 53.3137 292.573 53.5325C292.497 53.7494 292.421 53.9663 292.345 54.1831C292.314 54.4408 292.283 54.6984 292.251 54.9561C292.261 55.1692 292.292 55.4027 292.346 55.6565C292.448 56.0364 292.613 56.3708 292.839 56.6598C293.108 56.9468 293.419 57.2107 293.771 57.4514ZM314.261 67.3722C314.178 67.4186 314.136 67.4418 314.136 67.4418L314.075 67.5086C314.406 67.2804 314.531 67.1895 314.447 67.2359C314.405 67.2377 314.343 67.2832 314.261 67.3722ZM357.878 59.4223C358.385 60.2541 358.787 61.1545 359.086 62.1236C359.426 63.0482 359.575 64.0025 359.533 64.9867C359.54 66.0968 359.291 67.2395 358.788 68.4149C358.438 69.1991 358.001 69.9232 357.475 70.587C356.99 71.2064 356.419 71.8295 355.764 72.4564C354.573 73.5341 353.222 74.3839 351.712 75.0058C350.247 75.6685 348.706 76.0783 347.09 76.2351C345.898 76.3305 344.7 76.2767 343.495 76.0737C342.292 75.9133 341.129 75.6872 340.006 75.3951C337.759 74.8111 335.565 73.9685 333.424 72.8673C332.551 72.4361 331.697 71.9614 330.862 71.4431C329.985 70.9266 329.169 70.3221 328.412 69.6295C328.191 69.4684 328.181 69.234 328.381 68.9262C328.538 68.6203 328.658 68.4228 328.739 68.3338C328.98 67.9815 329.265 67.6699 329.595 67.3991C329.922 67.0857 330.252 66.8148 330.584 66.5866C330.915 66.3584 331.269 66.1506 331.645 65.9631C332.019 65.7331 332.418 65.566 332.84 65.4619C333.094 65.408 333.328 65.3763 333.541 65.3669C333.754 65.3574 333.972 65.4546 334.194 65.6583C334.328 65.7805 334.461 65.9027 334.595 66.025C334.728 66.1472 334.882 66.2471 335.057 66.3249C335.188 66.4045 335.321 66.5054 335.454 66.6276C335.63 66.7479 335.784 66.8479 335.916 66.9275C336.839 67.5273 337.803 68.0613 338.806 68.5295C339.809 68.9976 340.811 69.4445 341.812 69.87C342.898 70.2918 343.982 70.6496 345.062 70.9435C346.186 71.2355 347.306 71.4636 348.424 71.6277C349.669 71.7862 350.843 71.777 351.946 71.6002C352.159 71.5907 352.329 71.5619 352.455 71.5136C352.54 71.5098 352.624 71.4848 352.708 71.4384C352.706 71.3957 352.725 71.3522 352.766 71.3077C353.001 70.8275 353.215 70.3483 353.407 69.87C353.647 68.5354 353.613 67.277 353.304 66.0948C352.999 64.9979 352.484 63.9743 351.759 63.0241C351.034 62.0738 350.208 61.2562 349.28 60.5711C348.487 60.0083 347.655 59.5539 346.786 59.208C345.914 58.8194 344.985 58.5615 343.997 58.4344C343.654 58.4068 343.312 58.4006 342.971 58.4156C342.671 58.3862 342.351 58.4003 342.012 58.458C341.927 58.4618 341.842 58.4869 341.759 58.5333C341.716 58.5352 341.652 58.538 341.567 58.5418C341.445 58.6753 341.345 58.8292 341.267 59.0034C340.916 59.745 340.628 60.4838 340.404 61.2197C340.367 61.3495 340.314 61.5867 340.244 61.9315C340.173 62.2763 340.059 62.5803 339.9 62.8436C339.738 63.0643 339.556 63.2859 339.352 63.5084C338.741 64.176 338.018 64.7205 337.182 65.1418C337.058 65.2327 336.829 65.3497 336.493 65.4926C336.199 65.591 335.883 65.6904 335.545 65.7907C335.206 65.8484 334.908 65.8616 334.65 65.8303C334.391 65.7564 334.254 65.5489 334.238 65.2079C334.182 63.9291 334.125 62.6504 334.069 61.3716C334.053 60.0484 334.017 58.7474 333.96 57.4686C333.863 53.3302 333.747 49.2567 333.612 45.2481C333.519 41.1949 333.38 37.101 333.198 32.9664C333.184 32.668 333.279 32.3863 333.481 32.1211C333.725 31.854 333.928 31.6102 334.089 31.3895C334.744 30.7626 335.468 30.2181 336.259 29.7561C336.385 29.7078 336.594 29.6131 336.887 29.4721C337.222 29.3291 337.56 29.2288 337.899 29.1711C338.236 29.0708 338.534 29.0576 338.794 29.1315C339.051 29.1629 339.188 29.349 339.203 29.69C339.259 30.9688 339.317 32.2688 339.375 33.5902C339.432 34.869 339.467 36.1487 339.481 37.4293C339.58 40.6281 339.676 43.7842 339.771 46.8977C339.866 50.0112 339.963 53.1674 340.062 56.3661C340.143 56.2771 340.205 56.2316 340.248 56.2298C341.411 55.495 342.624 54.9076 343.886 54.4674C345.188 53.9827 346.525 53.7955 347.897 53.9057C349.952 54.0284 351.834 54.5645 353.541 55.514C354.374 55.9897 355.167 56.5526 355.922 57.2025C356.677 57.8525 357.329 58.5924 357.878 59.4223ZM352.466 71.7694C352.218 71.9512 352.135 72.0189 352.219 71.9725C352.302 71.9261 352.384 71.8584 352.466 71.7694ZM374.935 57.5793C373.688 58.3604 372.418 59.0999 371.125 59.7977C369.873 60.451 368.577 61.0848 367.237 61.6992L366.295 62.1253C366.794 62.7865 367.375 63.3588 368.037 63.842C368.83 64.4049 369.682 64.837 370.592 65.1384C371.543 65.3954 372.514 65.6087 373.503 65.7785C374.704 65.8962 375.88 65.9297 377.031 65.8788C378.223 65.7834 379.414 65.6667 380.603 65.5287C380.687 65.4823 380.771 65.4573 380.856 65.4535C380.984 65.4478 381.09 65.4218 381.173 65.3754C381.386 65.366 381.621 65.3556 381.876 65.3443C382.173 65.2885 382.39 65.3643 382.527 65.5718C382.707 65.7774 382.717 66.0118 382.558 66.2751C382.442 66.5365 382.323 66.7553 382.203 66.9315C381.72 67.5934 381.126 68.1749 380.422 68.6758C380.091 68.904 379.715 69.1128 379.297 69.3021C378.921 69.4896 378.521 69.6353 378.099 69.7394C376.787 70.011 375.451 70.2195 374.091 70.3651C372.771 70.4661 371.426 70.4615 370.054 70.3513C368.382 70.2116 366.723 69.8793 365.077 69.3541C363.431 68.8289 362.045 67.9079 360.919 66.591C360.108 65.6446 359.548 64.5589 359.238 63.3341C358.925 62.0667 358.848 60.8102 359.007 59.5646C359.237 58.0169 359.707 56.5654 360.416 55.2101C361.166 53.8103 362.071 52.5531 363.132 51.4385C364.519 49.9678 366.129 48.7008 367.961 47.6376C369.793 46.5743 371.73 45.9548 373.773 45.7791C375.474 45.6185 377.086 45.8675 378.61 46.5262C380.134 47.1849 381.54 48.0623 382.827 49.1586C382.968 49.4513 382.959 49.7293 382.799 49.9926C382.368 50.8658 381.827 51.6585 381.175 52.3707C380.523 53.0828 379.848 53.7533 379.15 54.382C378.494 55.0089 377.793 55.5738 377.046 56.0766C376.343 56.5775 375.639 57.0784 374.935 57.5793ZM367.78 50.7846C367.737 50.7865 367.717 50.8088 367.719 50.8514C367.719 50.8514 367.739 50.8291 367.78 50.7846ZM365.225 55.3179C364.904 56.7414 364.858 58.1102 365.087 59.424C365.213 59.3757 365.339 59.3274 365.465 59.2792C365.591 59.2309 365.717 59.1826 365.843 59.1343C366.387 58.8967 366.932 58.6591 367.477 58.4215C368.021 58.1839 368.566 57.9462 369.111 57.7086L369.486 57.4998C369.614 57.4942 369.718 57.4469 369.8 57.3578C370.093 57.2168 370.364 57.0766 370.614 56.9375C370.864 56.7983 371.136 56.6582 371.428 56.5171C371.971 56.2369 372.513 55.9353 373.054 55.6124C373.137 55.566 373.221 55.5196 373.304 55.4733C373.43 55.425 373.534 55.3563 373.615 55.2673C373.782 55.1745 373.886 55.1059 373.927 55.0614C374.177 54.9222 374.405 54.7839 374.613 54.6466C374.861 54.4648 375.089 54.3053 375.296 54.168C375.335 54.0809 375.376 54.0364 375.419 54.0345C375.459 53.99 375.5 53.9455 375.541 53.9009C375.665 53.81 375.769 53.7414 375.852 53.695C375.976 53.6041 376.079 53.5141 376.161 53.4251L376.283 53.2916C376.364 53.2026 376.425 53.1358 376.466 53.0913C376.548 53.0023 376.629 52.9133 376.711 52.8242C376.621 52.7428 376.512 52.6835 376.382 52.6466C376.251 52.567 376.14 52.4864 376.051 52.4049C374.505 51.2348 372.851 50.5391 371.09 50.318C370.747 50.2904 370.427 50.2832 370.128 50.2964C369.828 50.267 369.509 50.2811 369.169 50.3388C369.086 50.3852 368.98 50.4113 368.853 50.4169C368.767 50.4207 368.683 50.4458 368.6 50.4921C368.472 50.4978 368.387 50.5229 368.347 50.5674C368.261 50.5712 368.135 50.6194 367.969 50.7122L367.905 50.715C367.823 50.8041 367.761 50.8495 367.719 50.8514C367.678 50.8959 367.637 50.9404 367.596 50.9849C367.554 50.9868 367.512 51.01 367.471 51.0545C367.473 51.0971 367.433 51.163 367.352 51.252C367.269 51.2984 367.207 51.3438 367.166 51.3883C367.168 51.431 367.127 51.4755 367.044 51.5219C366.882 51.7425 366.742 51.9409 366.621 52.1171C366.501 52.2932 366.382 52.4907 366.263 52.7095C365.784 53.4567 365.438 54.3262 365.225 55.3179ZM405.362 43.2296C405.687 43.8132 405.908 44.4654 406.025 45.1863C406.14 45.8645 406.17 46.5465 406.115 47.2323C406.071 48.1738 405.963 49.0968 405.789 50.0014C405.656 50.8614 405.46 51.7243 405.199 52.59C404.607 54.6661 403.885 56.684 403.032 58.6436C402.222 60.6012 401.347 62.5405 400.407 64.4612C398.36 68.3954 396.12 72.3168 393.687 76.2254C392.847 77.5011 391.985 78.7777 391.102 80.0553C390.263 81.3736 389.315 82.6114 388.255 83.7686C387.602 84.4381 386.878 84.9826 386.085 85.402C385.752 85.5876 385.395 85.7315 385.015 85.8337C384.68 85.9767 384.342 86.0557 384.001 86.0707C383.788 86.0802 383.594 86.046 383.42 85.9683C383.203 85.8925 383.11 85.7257 383.141 85.4681C383.171 85.1678 383.286 84.8851 383.488 84.62C383.647 84.3567 383.829 84.1138 384.033 83.8912L384.338 83.5574C384.42 83.4684 384.459 83.4025 384.458 83.3599C384.661 83.1374 384.843 82.8945 385.002 82.6312C385.204 82.366 385.406 82.1008 385.607 81.8357C386.653 80.38 387.654 78.8624 388.609 77.2827C389.609 75.7437 390.565 74.1853 391.478 72.6074C392.114 71.5543 392.708 70.503 393.26 69.4536C393.852 68.3597 394.423 67.2668 394.973 66.1748C395.872 64.2986 396.728 62.4029 397.54 60.4879C398.352 58.5728 399.013 56.6004 399.521 54.5706C399.817 53.5326 400.026 52.4769 400.15 51.4038C400.273 50.3306 400.205 49.2659 399.944 48.2097C399.692 47.324 399.232 46.5969 398.567 46.0284C398.083 45.7082 397.626 45.5148 397.196 45.4484L396.748 45.4682L396.684 45.471L396.623 45.5378C396.542 45.6268 396.481 45.6936 396.44 45.7381C396.397 45.74 396.335 45.7854 396.254 45.8744C396.211 45.8763 396.149 45.9218 396.068 46.0108C395.864 46.2333 395.68 46.4336 395.518 46.6117C395.353 46.7471 395.19 46.9251 395.029 47.1458C394.947 47.2348 394.845 47.3461 394.723 47.4796C394.642 47.5686 394.581 47.6567 394.543 47.7438C394.417 47.7921 394.335 47.8811 394.298 48.0109C394.094 48.2334 393.913 48.4763 393.754 48.7396C393.593 48.9603 393.432 49.1809 393.271 49.4016C392.708 50.1952 392.149 51.0741 391.593 52.0382C391.675 51.9492 391.714 51.8621 391.71 51.7768C391.749 51.6897 391.809 51.6016 391.89 51.5126C391.69 51.8204 391.512 52.1273 391.355 52.4332C391.197 52.7391 391.062 53.0654 390.949 53.412C390.918 53.6697 390.803 53.9737 390.605 54.3241C390.617 55.5621 390.63 56.8214 390.644 58.1021C390.699 59.3382 390.712 60.5975 390.683 61.88C390.669 62.5213 390.654 63.1626 390.64 63.8038C390.668 64.4432 390.633 65.0854 390.533 65.7304C390.539 65.8583 390.524 66.0084 390.489 66.1808C390.452 66.3106 390.415 66.4403 390.378 66.5701C390.302 66.787 390.184 67.0058 390.022 67.2264C389.86 67.4045 389.697 67.5825 389.534 67.7605C389.33 67.9831 389.105 68.2066 388.859 68.431C388.61 68.6128 388.382 68.7724 388.175 68.9097C387.968 69.047 387.697 69.2084 387.364 69.394C387.073 69.5777 386.801 69.7178 386.549 69.8143C386.297 69.9109 385.918 70.0131 385.41 70.121C384.945 70.2269 384.598 70.1141 384.37 69.7825C384.323 69.6992 384.299 69.6362 384.297 69.5936C384.294 69.5083 384.269 69.424 384.222 69.3406C384.085 69.1332 384.095 68.8765 384.252 68.5706C384.334 68.4815 384.373 68.3944 384.369 68.3092C384.408 68.222 384.468 68.1339 384.549 68.0449C384.59 68.0004 384.61 67.9782 384.61 67.9782C384.609 67.9355 384.628 67.892 384.669 67.8475C384.716 66.9912 384.722 66.1581 384.686 65.3482C384.693 64.5365 384.699 63.7034 384.704 62.849C384.696 61.6963 384.667 60.5658 384.618 59.4575C384.61 58.3047 384.581 57.1742 384.532 56.066C384.488 54.1034 384.424 52.163 384.339 50.2448C384.254 48.3267 384.169 46.3873 384.082 44.4265C384.069 44.1282 384.163 43.8464 384.365 43.5812C384.567 43.316 384.769 43.0722 384.973 42.8496C385.584 42.182 386.308 41.6375 387.143 41.2162C387.269 41.1679 387.478 41.0733 387.771 40.9322C388.106 40.7893 388.444 40.6889 388.783 40.6312C389.12 40.5309 389.418 40.5177 389.678 40.5917C389.936 40.623 390.072 40.8091 390.087 41.1501C390.136 42.2584 390.185 43.3666 390.234 44.4749C390.283 45.5831 390.311 46.6923 390.317 47.8025C390.847 47.2239 391.377 46.6666 391.909 46.1306C392.44 45.5946 392.994 45.0789 393.57 44.5837C394.311 43.953 395.077 43.4067 395.868 42.9446C396.657 42.4399 397.492 41.9973 398.372 41.6167C399.002 41.3754 399.655 41.1757 400.331 41.0176C401.05 40.8577 401.755 40.8693 402.447 41.0522C403.053 41.239 403.599 41.5138 404.085 41.8767C404.613 42.2377 405.039 42.6887 405.362 43.2296ZM396.254 45.8744C396.25 45.7892 396.291 45.7447 396.376 45.7409C396.376 45.7409 396.335 45.7854 396.254 45.8744ZM384.521 83.3571C384.479 83.359 384.458 83.3812 384.46 83.4239C384.621 83.2032 384.682 83.1151 384.641 83.1596C384.643 83.2023 384.603 83.2681 384.521 83.3571ZM424.074 55.4072C422.828 56.1883 421.558 56.9278 420.265 57.6256C419.012 58.2788 417.716 58.9127 416.377 59.5271L415.435 59.9531C415.934 60.6144 416.514 61.1867 417.176 61.6699C417.97 62.2327 418.822 62.6649 419.732 62.9663C420.683 63.2232 421.653 63.4366 422.643 63.6064C423.844 63.7241 425.02 63.7576 426.171 63.7067C427.362 63.6113 428.553 63.4946 429.743 63.3566C429.826 63.3102 429.911 63.2851 429.996 63.2814C430.124 63.2757 430.229 63.2497 430.313 63.2033C430.526 63.1939 430.76 63.1835 431.016 63.1722C431.312 63.1164 431.529 63.1922 431.667 63.3997C431.847 63.6053 431.857 63.8397 431.698 64.103C431.581 64.3644 431.463 64.5832 431.342 64.7593C430.859 65.4213 430.266 66.0028 429.562 66.5037C429.23 66.7319 428.855 66.9406 428.436 67.13C428.06 67.3174 427.661 67.4632 427.238 67.5673C425.926 67.8388 424.59 68.0474 423.23 68.1929C421.911 68.294 420.565 68.2894 419.194 68.1792C417.522 68.0395 415.863 67.7071 414.217 67.182C412.571 66.6568 411.184 65.7358 410.059 64.4189C409.248 63.4724 408.687 62.3868 408.377 61.162C408.065 59.8945 407.988 58.638 408.146 57.3925C408.377 55.8448 408.847 54.3933 409.555 53.038C410.305 51.6382 411.21 50.381 412.272 49.2664C413.659 47.7957 415.268 46.5287 417.1 45.4654C418.933 44.4022 420.87 43.7827 422.912 43.607C424.613 43.4464 426.226 43.6954 427.75 44.3541C429.274 45.0128 430.679 45.8902 431.966 46.9865C432.107 47.2792 432.098 47.5572 431.939 47.8205C431.508 48.6937 430.966 49.4864 430.314 50.1985C429.662 50.9107 428.987 51.5811 428.289 52.2099C427.634 52.8368 426.932 53.4017 426.186 53.9045C425.482 54.4054 424.778 54.9063 424.074 55.4072ZM416.919 48.6125C416.877 48.6144 416.856 48.6366 416.858 48.6793C416.858 48.6793 416.879 48.657 416.919 48.6125ZM414.365 53.1457C414.043 54.5693 413.997 55.938 414.226 57.2519C414.352 57.2036 414.478 57.1553 414.604 57.107C414.73 57.0588 414.856 57.0105 414.982 56.9622C415.527 56.7246 416.071 56.487 416.616 56.2493C417.161 56.0117 417.706 55.7741 418.25 55.5365L418.625 55.3277C418.753 55.3221 418.858 55.2747 418.939 55.1857C419.232 55.0446 419.504 54.9045 419.754 54.7653C420.004 54.6262 420.275 54.486 420.568 54.345C421.111 54.0647 421.653 53.7632 422.194 53.4403C422.277 53.3939 422.36 53.3475 422.444 53.3011C422.57 53.2528 422.673 53.1842 422.755 53.0952C422.922 53.0024 423.025 52.9337 423.066 52.8892C423.316 52.7501 423.545 52.6118 423.752 52.4745C424.001 52.2927 424.229 52.1332 424.436 51.9959C424.475 51.9087 424.516 51.8642 424.558 51.8623C424.599 51.8178 424.64 51.7733 424.68 51.7288C424.805 51.6379 424.908 51.5693 424.992 51.5229C425.116 51.432 425.219 51.342 425.3 51.253L425.422 51.1195C425.504 51.0304 425.565 50.9637 425.606 50.9192C425.687 50.8302 425.769 50.7411 425.85 50.6521C425.761 50.5706 425.652 50.5114 425.522 50.4744C425.39 50.3948 425.28 50.3143 425.191 50.2328C423.644 49.0626 421.991 48.367 420.23 48.1459C419.887 48.1183 419.566 48.1111 419.268 48.1243C418.968 48.0949 418.648 48.109 418.309 48.1667C418.226 48.2131 418.12 48.2391 417.992 48.2448C417.907 48.2485 417.822 48.2736 417.739 48.32C417.611 48.3257 417.527 48.3508 417.486 48.3953C417.401 48.399 417.275 48.4473 417.108 48.5401L417.044 48.5429C416.963 48.6319 416.901 48.6774 416.858 48.6793C416.817 48.7238 416.777 48.7683 416.736 48.8128C416.693 48.8147 416.652 48.8379 416.611 48.8824C416.613 48.925 416.573 48.9908 416.491 49.0799C416.408 49.1262 416.346 49.1717 416.305 49.2162C416.307 49.2588 416.266 49.3033 416.183 49.3497C416.022 49.5704 415.881 49.7688 415.761 49.945C415.641 50.1211 415.521 50.3186 415.403 50.5374C414.923 51.2846 414.577 52.154 414.365 53.1457ZM459.678 21.9303C460.562 25.5214 461.08 29.0219 461.231 32.4319C461.244 32.7303 461.151 33.0334 460.951 33.3412C460.749 33.6063 460.545 33.8289 460.34 34.0088C459.729 34.6764 459.005 35.2209 458.17 35.6422C458.046 35.7331 457.816 35.8501 457.481 35.993C457.186 36.0914 456.87 36.1908 456.533 36.2911C456.194 36.3488 455.895 36.362 455.638 36.3307C455.378 36.2568 455.241 36.0493 455.226 35.7083C455.071 32.213 454.554 28.7125 453.672 25.2066C453.108 23.0535 452.395 20.9496 451.536 18.8949C450.717 16.7956 449.732 14.8105 448.582 12.9395C448.352 13.5475 448.186 14.1315 448.083 14.6912C447.574 16.721 447.215 18.7442 447.006 20.7607C446.671 23.8078 446.549 26.8455 446.64 29.8738C446.774 32.9001 446.993 35.9441 447.3 39.0055C447.315 39.3465 447.33 39.6875 447.345 40.0285C447.403 40.3677 447.46 40.7068 447.518 41.0459C448.863 40.5593 450.188 40.0951 451.492 39.653C452.839 39.2091 454.188 38.8078 455.539 38.4491C455.748 38.3545 455.981 38.3015 456.237 38.2902C456.535 38.277 456.753 38.3741 456.89 38.5816C457.028 38.7891 457.038 39.0235 456.921 39.2849C456.805 39.5463 456.686 39.7651 456.566 39.9412C456.325 40.2935 456.041 40.6264 455.713 40.9399C455.384 41.2107 455.053 41.4602 454.721 41.6884C454.39 41.9166 454.036 42.1244 453.66 42.3119C453.284 42.4993 452.884 42.6451 452.462 42.7492C452.253 42.8439 452.064 42.9163 451.895 42.9665C451.725 42.974 451.535 43.0251 451.325 43.1198C450.903 43.2239 450.481 43.3493 450.061 43.496C449.64 43.6427 449.218 43.7681 448.796 43.8722C448.713 43.9186 448.629 43.965 448.546 44.0114C448.461 44.0152 448.376 44.0402 448.293 44.0866C448.25 44.0885 448.103 44.1377 447.851 44.2343C448.164 46.484 448.477 48.7337 448.79 50.9834C449.144 53.1886 449.52 55.4142 449.918 57.6601C450.335 60.3323 450.751 62.9832 451.166 65.6127C451.582 68.2423 451.934 70.896 452.223 73.5738C452.234 73.8296 452.118 74.091 451.873 74.3581C451.673 74.6658 451.493 74.9301 451.332 75.1507C451.004 75.4642 450.654 75.7573 450.282 76.03C449.909 76.3027 449.536 76.5541 449.162 76.7842C449.038 76.8751 448.807 76.9707 448.47 77.071C448.177 77.2121 447.861 77.3114 447.522 77.3691C447.185 77.4695 446.886 77.4827 446.627 77.4087C446.369 77.3774 446.233 77.1912 446.218 76.8502L446.201 76.4666C445.91 73.7461 445.556 71.0498 445.139 68.3776C444.723 65.7481 444.286 63.0981 443.826 60.4278C443.424 58.0966 443.044 55.7645 442.684 53.4314C442.367 51.0965 442.05 48.7402 441.731 46.3626C441.522 46.4573 441.291 46.5529 441.039 46.6495C440.785 46.7034 440.532 46.7786 440.28 46.8752C438.387 47.5141 436.468 48.0687 434.524 48.539C432.621 48.9648 430.668 49.222 428.665 49.3105C428.451 49.3199 428.258 49.2858 428.083 49.2081C427.867 49.1322 427.774 48.9655 427.805 48.7079C427.792 48.4095 427.886 48.1277 428.088 47.8626C428.29 47.5974 428.493 47.3535 428.696 47.131C429.267 46.5079 429.969 45.9643 430.802 45.5004C431.51 45.0847 432.204 44.8405 432.884 44.7678C433.396 44.7451 433.886 44.7235 434.355 44.7027C434.866 44.6801 435.354 44.6158 435.82 44.5099C436.668 44.3869 437.473 44.2446 438.235 44.0828C439.037 43.8765 439.839 43.6489 440.639 43.3999L441.398 43.1742C441.344 42.9204 441.312 42.6869 441.303 42.4737C441.292 42.218 441.28 41.9622 441.269 41.7065C440.965 38.6876 440.767 35.6641 440.676 32.6358C440.627 29.6057 440.771 26.5671 441.106 23.5199C441.411 20.7731 441.954 18.0798 442.735 15.4401C443.555 12.7559 444.769 10.2679 446.376 7.97603C446.778 7.40306 447.269 6.91158 447.849 6.50158C448.469 6.04706 449.094 5.6778 449.722 5.39378C450.016 5.29535 450.375 5.19408 450.797 5.08999C451.262 4.98401 451.608 5.0755 451.834 5.36446C453.367 7.1759 454.674 9.21083 455.756 11.4692C456.641 13.1384 457.4 14.8559 458.034 16.6217C458.665 18.3448 459.213 20.1143 459.678 21.9303ZM483.407 62.7141C483.791 62.6972 484.05 62.7711 484.186 62.936C484.321 63.1008 484.373 63.3121 484.342 63.5697C484.311 63.8273 484.237 64.0869 484.12 64.3483C484.002 64.567 483.881 64.7432 483.759 64.8767C483.359 65.4923 482.848 66.006 482.226 66.4179C481.603 66.8298 480.93 67.0518 480.205 67.0838C478.461 67.2463 476.707 67.6655 474.944 68.3414C473.182 69.0599 471.481 69.7117 469.841 70.2966C467.86 70.8967 465.924 71.5375 464.032 72.219C462.14 72.9006 460.183 73.5423 458.159 74.1442C457.572 74.3837 457.162 74.2951 456.931 73.8783C456.658 73.5059 456.66 73.0787 456.938 72.5967C457.295 71.983 457.783 71.4275 458.402 70.9304C458.98 70.4778 459.626 70.1289 460.341 69.8837C461.185 69.6329 462.047 69.3385 462.929 69.0006C463.813 68.7053 464.717 68.3877 465.642 68.0479L464.932 51.9996C462.647 52.4849 460.325 53.0787 457.964 53.781C457.33 53.9371 456.899 53.8494 456.671 53.5178C456.443 53.1863 456.466 52.7368 456.74 52.1695C457.054 51.5577 457.501 51.0255 458.078 50.5728C458.699 50.1183 459.368 49.7898 460.085 49.5873C461.054 49.2882 461.981 49.0123 462.867 48.7596C463.753 48.5069 464.682 48.2736 465.655 48.0598C466.022 47.6592 466.433 47.2994 466.888 46.9803C467.387 46.6593 467.846 46.4254 468.267 46.2787C468.73 46.1301 469.113 46.0918 469.415 46.1639C469.715 46.1933 469.873 46.3786 469.888 46.7196L469.905 47.1032C470.496 46.9489 471.067 46.8169 471.617 46.7072C472.167 46.5974 472.694 46.446 473.198 46.2529C473.284 46.2491 473.453 46.2203 473.707 46.1664C473.961 46.1124 474.194 46.0594 474.405 46.0074C474.616 45.9554 474.764 45.9274 474.85 45.9237C474.935 45.9199 474.874 45.9867 474.666 46.124C474.876 46.0293 475.064 45.9356 475.23 45.8428C475.44 45.7481 475.587 45.6989 475.672 45.6951C475.802 45.7321 475.909 45.7487 475.995 45.7449C476.08 45.7412 476.188 45.7791 476.32 45.8587C476.761 46.1808 476.927 46.5366 476.816 46.9258C476.705 47.3151 476.466 47.71 476.099 48.1106C475.733 48.5112 475.3 48.872 474.802 49.193C474.346 49.5121 473.993 49.7412 473.743 49.8804C473.241 50.1161 472.653 50.3343 471.978 50.535C471.345 50.6911 470.71 50.8259 470.074 50.9394L470.716 65.4533C470.723 65.6238 470.708 65.7526 470.669 65.8397C470.673 65.925 470.656 66.0325 470.619 66.1622C472.761 65.3415 474.886 64.6283 476.995 64.0226C479.104 63.4169 481.241 62.9807 483.407 62.7141ZM465.023 39.5674C465.763 37.9545 466.075 36.3178 465.959 34.6573C465.886 32.9949 465.599 31.3419 465.099 29.6984C464.6 28.0549 463.994 26.4374 463.283 24.8459C462.615 23.2525 462.076 21.6961 461.668 20.1767C461.355 18.9092 461.326 17.7574 461.579 16.7212C461.83 15.6424 462.281 14.7256 462.931 13.9708C463.622 13.1716 464.492 12.5779 465.543 12.1898C466.591 11.759 467.757 11.558 469.04 11.5867C469.596 11.6049 469.861 11.8067 469.835 12.1922C469.852 12.5758 469.679 13.0106 469.316 13.4964C468.996 13.9803 468.548 14.4699 467.972 14.9652C467.436 15.4159 466.916 15.7166 466.41 15.867C466.557 16.2876 466.682 16.7092 466.786 17.1317C466.888 17.5115 467.011 17.8691 467.154 18.2045C467.546 19.3403 467.937 20.4548 468.327 21.5479C468.757 22.5966 469.167 23.6462 469.555 24.6968C470.298 27.0129 470.762 29.2986 470.947 31.554C471.132 33.8093 470.721 36.0911 469.712 38.3992C469.516 38.7922 469.108 39.216 468.487 39.6705C467.867 40.1251 467.241 40.473 466.611 40.7144C465.981 40.9558 465.472 41.021 465.083 40.9101C464.691 40.7566 464.672 40.309 465.023 39.5674ZM464.812 15.9377C464.726 15.9415 464.685 15.9647 464.686 16.0073C464.688 16.0499 464.73 16.0267 464.812 15.9377ZM508.388 28.1693C508.525 28.3768 508.535 28.6112 508.419 28.8726C508.302 29.134 508.183 29.3315 508.061 29.465C507.82 29.8173 507.536 30.1502 507.208 30.4636C506.878 30.7345 506.548 30.984 506.216 31.2122C505.884 31.4404 505.531 31.6695 505.157 31.8996C504.781 32.0871 504.382 32.2328 503.959 32.3369C503.748 32.389 503.558 32.4401 503.39 32.4902C503.219 32.4978 503.029 32.5489 502.82 32.6435C502.397 32.7476 501.976 32.873 501.555 33.0198C501.135 33.1665 500.713 33.2919 500.291 33.396C500.207 33.4424 500.124 33.4888 500.041 33.5352C499.955 33.5389 499.871 33.564 499.788 33.6104C499.704 33.6568 499.6 33.7041 499.474 33.7524C499.346 33.7581 499.24 33.7841 499.157 33.8305L497.831 34.2734C497.412 34.4628 496.929 34.6336 496.38 34.786C495.917 37.8388 495.453 40.8702 494.988 43.8803C494.564 46.846 494.142 49.8542 493.722 52.9051C493.178 57.0291 492.719 61.1281 492.343 65.202C491.966 69.2332 491.677 73.3246 491.477 77.4762C491.447 77.7765 491.332 78.0592 491.13 78.3244C490.971 78.5876 490.789 78.8306 490.585 79.0531C489.974 79.7207 489.251 80.2652 488.415 80.6865C488.082 80.8721 487.748 81.0364 487.412 81.1793C487.077 81.3223 486.716 81.3809 486.331 81.3552C486.118 81.3646 485.924 81.3305 485.75 81.2528C485.576 81.1751 485.483 81.0083 485.471 80.7526C485.601 77.8854 485.774 75.0377 485.991 72.2093C486.25 69.3791 486.531 66.548 486.832 63.7159C487.295 59.6809 487.801 55.6866 488.353 51.733C488.945 47.735 489.558 43.736 490.193 39.7361C490.257 39.2634 490.322 38.7908 490.386 38.3181C490.492 37.801 490.576 37.2848 490.638 36.7695C488.911 37.3156 487.181 37.7765 485.446 38.1521C483.712 38.5278 481.949 38.7552 480.159 38.8343C479.946 38.8437 479.731 38.8105 479.514 38.7347C479.34 38.657 479.247 38.4902 479.236 38.2345C479.265 37.9342 479.359 37.6524 479.519 37.3892C479.721 37.124 479.923 36.8801 480.127 36.6576C480.455 36.3441 480.805 36.0511 481.177 35.7783C481.549 35.5056 481.923 35.2542 482.297 35.0242C482.63 34.8386 482.966 34.6956 483.303 34.5953C483.681 34.4505 484.04 34.3705 484.381 34.3555C485.362 34.3121 486.339 34.2049 487.314 34.0336C487.992 33.9182 488.649 33.8038 489.285 33.6903C489.919 33.5341 490.552 33.378 491.186 33.2219C492.125 27.4147 493.022 21.6095 493.876 15.8061C493.948 15.504 494.063 15.2212 494.222 14.958C494.382 14.6947 494.563 14.4518 494.767 14.2292C495.421 13.5597 496.144 13.0152 496.937 12.5958C497.27 12.4102 497.606 12.2673 497.943 12.1669C498.321 12.0221 498.68 11.9422 499.021 11.9271C499.234 11.9177 499.449 11.9509 499.666 12.0267C499.883 12.1025 499.955 12.2702 499.881 12.5297C499.492 15.323 499.08 18.0958 498.647 20.8483C498.211 23.5582 497.777 26.2894 497.343 29.0419C497.275 29.4293 497.207 29.8167 497.139 30.2041C497.113 30.5896 497.065 30.9547 496.995 31.2995C498.635 30.7145 500.274 30.1295 501.914 29.5445C503.597 28.9577 505.303 28.4338 507.034 27.9729C507.245 27.9209 507.478 27.8892 507.734 27.8779C508.033 27.8647 508.25 27.9618 508.388 28.1693ZM532.35 57.2194C532.53 57.425 532.542 57.6808 532.384 57.9867C532.225 58.25 532.106 58.4475 532.026 58.5791C531.785 58.9314 531.501 59.2643 531.173 59.5777C530.844 59.8485 530.513 60.0981 530.182 60.3263C529.27 60.9645 528.31 61.4767 527.303 61.8629C526.337 62.2472 525.327 62.5695 524.27 62.8297C521.86 63.3634 519.437 63.6413 517.004 63.6634C514.569 63.643 512.15 63.515 509.748 63.2795C508.76 63.1523 507.773 63.0465 506.787 62.9619C505.842 62.8329 504.873 62.6622 503.882 62.4497C503.622 62.3758 503.364 62.3232 503.106 62.2918C502.846 62.2179 502.608 62.143 502.391 62.0672C502.13 61.9506 501.932 61.8312 501.799 61.709C501.71 61.6275 501.663 61.5441 501.66 61.4589C501.656 61.3736 501.653 61.3097 501.651 61.2671C501.636 60.9261 501.73 60.623 501.931 60.3578C502.133 60.0926 502.336 59.8488 502.54 59.6262C502.866 59.2702 503.216 58.9771 503.59 58.747C503.962 58.4743 504.335 58.2229 504.71 57.9928C505.043 57.8073 505.378 57.6643 505.716 57.564C506.094 57.4191 506.453 57.3392 506.794 57.3241C507.22 57.3053 507.482 57.4218 507.578 57.6738C507.664 57.6701 507.793 57.707 507.968 57.7847C508.185 57.8606 508.379 57.916 508.552 57.9511C508.722 57.9436 508.916 57.9777 509.133 58.0536C509.735 58.1551 510.316 58.2575 510.876 58.3609C511.436 58.4643 512.016 58.5454 512.616 58.6043C514.933 58.8435 517.246 58.9975 519.556 59.0663C520.239 59.0788 520.923 59.0912 521.607 59.1037C522.332 59.0717 523.055 59.0183 523.778 58.9437C523.166 58.6291 522.556 58.3571 521.948 58.1277C521.338 57.8557 520.729 57.605 520.121 57.3756C518.171 56.7358 516.183 56.2044 514.157 55.7815C512.131 55.3585 510.124 54.8707 508.135 54.318C507.356 54.0962 506.577 53.853 505.796 53.5885C505.014 53.2815 504.293 52.9076 503.633 52.467C502.932 52.0709 502.377 51.6043 501.969 51.0671C501.515 50.4466 501.273 49.8166 501.245 49.1772C501.183 48.7529 501.187 48.347 501.255 47.9596C501.364 47.5277 501.496 47.1375 501.652 46.7889C501.877 46.0956 502.19 45.4412 502.59 44.8256C503.033 44.2081 503.477 43.6333 503.923 43.101C505.425 41.3263 507.218 39.859 509.302 38.6992C510.138 38.2779 510.976 37.9205 511.817 37.6271C512.699 37.2891 513.609 37.0994 514.547 37.058C515.653 36.9664 516.73 37.175 517.778 37.6839C518.823 38.1502 519.625 38.9049 520.184 39.9479C520.88 41.1984 521.132 42.5539 520.94 44.0144C520.748 45.475 520.382 46.8365 519.839 48.099C519.684 48.4476 519.484 48.7554 519.24 49.0224C518.995 49.2895 518.729 49.5362 518.44 49.7625C517.988 50.1668 517.49 50.5091 516.947 50.7894C517.811 51.0074 518.675 51.2255 519.539 51.4436C520.401 51.619 521.264 51.8158 522.127 52.0338C523.123 52.3315 524.097 52.6301 525.05 52.9297C526.045 53.2273 527.001 53.5908 527.917 54.0201C528.746 54.4106 529.534 54.8668 530.284 55.3889C531.075 55.9091 531.764 56.5193 532.35 57.2194ZM508.686 47.9514C508.994 48.1514 509.323 48.3504 509.673 48.5484C510.022 48.7038 510.37 48.8593 510.719 49.0147C511.284 49.2459 511.849 49.4559 512.412 49.6445C513.017 49.7886 513.622 49.9541 514.228 50.1408C514.459 49.5754 514.63 49.0767 514.739 48.6448C515.021 47.3084 515.053 46.0898 514.833 44.9891C514.683 44.4832 514.448 44.0025 514.129 43.5468C513.851 43.0466 513.491 42.6354 513.049 42.3132C512.348 41.9171 511.697 41.6683 511.094 41.5668C510.709 41.5412 510.325 41.5581 509.944 41.6177C509.858 41.6215 509.774 41.6466 509.691 41.693C509.648 41.6948 509.584 41.6977 509.499 41.7014C509.458 41.7459 509.395 41.7701 509.31 41.7739C509.267 41.7757 509.247 41.798 509.249 41.8406L509.185 41.8434L509.124 41.9102C509.042 41.9992 508.96 42.0669 508.876 42.1133L508.449 42.5807L508.265 42.781L508.082 42.9813C508.004 43.1555 507.925 43.2872 507.843 43.3762C507.725 43.595 507.606 43.8137 507.488 44.0325C507.412 44.2494 507.336 44.4663 507.26 44.6832C507.229 44.9408 507.198 45.1985 507.166 45.4561C507.176 45.6692 507.207 45.9027 507.261 46.1566C507.364 46.5364 507.528 46.8709 507.754 47.1598C508.023 47.4469 508.334 47.7108 508.686 47.9514ZM529.176 57.8723C529.093 57.9187 529.051 57.9419 529.051 57.9419L528.99 58.0086C529.322 57.7804 529.446 57.6895 529.362 57.7359C529.32 57.7378 529.258 57.7832 529.176 57.8723Z" fill="#0D0D0D"/>
<defs>
<linearGradient id="paint0_linear_403_2" x1="1.12028" y1="106.868" x2="537.456" y2="64.8094" gradientUnits="userSpaceOnUse">
<stop stop-color="#000E80"/>
<stop offset="1" stop-color="#068BA8" stop-opacity="0.18"/>
</linearGradient>
</defs>
</svg>
