<svg width="277" height="74" viewBox="0 0 277 74" fill="none" xmlns="http://www.w3.org/2000/svg">
<path d="M32.064 21.8C32.3627 21.9707 32.4907 22.184 32.448 22.44C32.4053 22.696 32.2773 22.9733 32.064 23.272C31.8933 23.528 31.68 23.7627 31.424 23.976C31.168 24.1893 30.976 24.36 30.848 24.488C30.5067 24.744 30.1227 25 29.696 25.256C29.312 25.4693 28.9067 25.6613 28.48 25.832C28.2667 25.9173 27.968 26.0027 27.584 26.088C27.2 26.1733 26.9013 26.152 26.688 26.024C26.3893 25.8107 26.0907 25.6613 25.792 25.576C25.4933 25.4907 25.1733 25.4053 24.832 25.32C23.8507 25.192 22.8907 25.192 21.952 25.32C22.0373 28.52 22.1227 31.6773 22.208 34.792C22.336 37.9067 22.464 41.064 22.592 44.264C22.72 47.336 22.8693 50.408 23.04 53.48C23.2107 56.552 23.424 59.624 23.68 62.696C24.064 62.7813 24.256 62.9947 24.256 63.336V69.48C24.256 69.7787 24.128 70.056 23.872 70.312C23.6587 70.6107 23.4667 70.8453 23.296 71.016C22.656 71.656 21.9093 72.168 21.056 72.552C20.7147 72.7227 20.352 72.872 19.968 73C19.6267 73.128 19.2853 73.192 18.944 73.192C18.432 73.192 18.1547 72.9573 18.112 72.488C17.8987 70.312 17.7067 68.1573 17.536 66.024C17.408 63.9333 17.2587 61.8 17.088 59.624C16.832 55.4 16.6187 51.1973 16.448 47.016C16.2773 42.8347 16.128 38.632 16 34.408C15.9573 33.128 15.9147 31.848 15.872 30.568C15.872 29.288 15.8293 28.0293 15.744 26.792C15.5307 26.8773 15.3387 26.9413 15.168 26.984C15.04 27.0267 14.8693 27.0907 14.656 27.176C13.9307 27.432 13.2053 27.688 12.48 27.944C11.7973 28.2 11.1147 28.4773 10.432 28.776C10.176 28.8613 9.92 28.968 9.664 29.096C9.45067 29.1813 9.216 29.2667 8.96 29.352C9.04533 29.8213 9.10933 30.2907 9.152 30.76C9.19467 31.2293 9.25867 31.6987 9.344 32.168C9.42933 32.68 9.49333 33.2133 9.536 33.768C9.62133 34.28 9.70667 34.792 9.792 35.304C9.87733 35.4747 9.92 35.6027 9.92 35.688C9.92 35.9013 9.856 36.0933 9.728 36.264C9.64267 36.4347 9.55733 36.584 9.472 36.712C9.00267 37.3093 8.448 37.8213 7.808 38.248C7.21067 38.632 6.592 38.9307 5.952 39.144C5.73867 39.2293 5.44 39.3147 5.056 39.4C4.672 39.4853 4.37333 39.464 4.16 39.336C3.94667 39.2507 3.84 39.1653 3.84 39.08C3.84 38.9947 3.79733 38.8453 3.712 38.632C3.66933 38.4187 3.648 38.2267 3.648 38.056C3.648 37.8853 3.62667 37.6933 3.584 37.48C3.456 36.6693 3.328 35.88 3.2 35.112C3.11467 34.3013 3.008 33.4693 2.88 32.616C2.83733 32.5307 2.816 32.424 2.816 32.296C2.816 32.168 2.79467 32.0613 2.752 31.976C2.53867 32.0613 2.32533 32.1253 2.112 32.168C1.94133 32.2107 1.74933 32.232 1.536 32.232C1.32267 32.232 1.13067 32.1893 0.96 32.104C0.789333 31.976 0.704 31.784 0.704 31.528C0.746667 31.2293 0.853333 30.9733 1.024 30.76C1.23733 30.504 1.45067 30.2693 1.664 30.056C1.792 29.928 1.92 29.8213 2.048 29.736C2.176 29.608 2.304 29.5013 2.432 29.416C2.34667 28.776 2.24 28.1573 2.112 27.56C2.02667 26.92 1.94133 26.28 1.856 25.64C1.6 23.7627 1.28 21.928 0.896 20.136C0.896 20.0507 0.853333 19.88 0.768 19.624C0.682667 19.4107 0.704 19.1333 0.832 18.792C0.96 18.664 1.06667 18.4933 1.152 18.28C1.408 17.9387 1.70667 17.64 2.048 17.384C2.38933 17.128 2.73067 16.8933 3.072 16.68C3.84 16.168 4.608 15.8267 5.376 15.656C5.504 15.6133 5.73867 15.592 6.08 15.592C6.464 15.592 6.69867 15.6987 6.784 15.912C6.95467 16.5947 7.104 17.2987 7.232 18.024C7.36 18.7067 7.46667 19.4107 7.552 20.136C7.72267 21.032 7.872 21.928 8 22.824C8.128 23.72 8.27733 24.616 8.448 25.512C8.448 25.7253 8.49067 26.0453 8.576 26.472C9.728 26.0027 10.88 25.5333 12.032 25.064C13.2267 24.5947 14.4427 24.1253 15.68 23.656C15.5947 21.224 15.488 18.792 15.36 16.36C15.2747 13.928 15.168 11.4747 15.04 9C15.04 8.744 15.1467 8.488 15.36 8.232C15.616 7.93333 15.8293 7.69866 16 7.528C16.64 6.888 17.3867 6.376 18.24 5.992C18.368 5.90666 18.5813 5.8 18.88 5.672C19.2213 5.544 19.5627 5.45866 19.904 5.416C20.2453 5.33066 20.544 5.33066 20.8 5.416C21.056 5.45866 21.184 5.65066 21.184 5.992C21.2693 8.168 21.3547 10.344 21.44 12.52C21.5253 14.6533 21.6107 16.808 21.696 18.984C21.7387 19.4533 21.76 19.9227 21.76 20.392C21.76 20.8187 21.7813 21.2667 21.824 21.736C22.848 21.48 23.8933 21.288 24.96 21.16C25.6427 21.0747 26.304 21.0107 26.944 20.968C27.6267 20.8827 28.288 20.8827 28.928 20.968C30.1227 21.0533 31.168 21.3307 32.064 21.8ZM45.637 39.272C45.8077 39.4853 45.8077 39.7413 45.637 40.04C45.4663 40.296 45.3383 40.488 45.253 40.616C44.741 41.256 44.1223 41.8107 43.397 42.28C43.0557 42.4933 42.6717 42.6853 42.245 42.856C41.861 43.0267 41.4557 43.1547 41.029 43.24C40.8157 43.3253 40.581 43.368 40.325 43.368C40.069 43.3253 39.8557 43.1973 39.685 42.984C39.5143 42.7707 39.3437 42.6 39.173 42.472C39.0023 42.3013 38.8103 42.1093 38.597 41.896C38.6397 41.9813 38.6823 42.0453 38.725 42.088C38.7677 42.088 38.8103 42.1093 38.853 42.152C38.085 41.5547 37.2317 41.1707 36.293 41C36.3783 41 36.4423 41.0213 36.485 41.064C36.5703 41.064 36.6557 41.064 36.741 41.064C36.2717 40.9787 35.781 40.9787 35.269 41.064C35.397 41.0213 35.6103 41 35.909 41C35.781 41 35.653 41.0213 35.525 41.064C35.4397 41.064 35.333 41.064 35.205 41.064C35.1623 41.1067 35.0983 41.128 35.013 41.128C35.3543 41.0427 35.5677 41 35.653 41C35.7383 40.9573 35.717 40.9573 35.589 41C35.5037 41 35.4397 41.0213 35.397 41.064C35.397 41.064 35.3543 41.064 35.269 41.064C35.2263 41.1067 35.1623 41.128 35.077 41.128C35.4183 41 35.6317 40.9147 35.717 40.872C35.845 40.7867 35.845 40.7867 35.717 40.872C35.6317 40.9147 35.5677 40.9573 35.525 41C35.525 41 35.4823 41.0213 35.397 41.064C35.397 41.064 35.3543 41.0853 35.269 41.128C35.6103 40.9147 35.845 40.7867 35.973 40.744C36.101 40.6587 36.0797 40.6587 35.909 40.744C35.8663 40.7867 35.8237 40.8293 35.781 40.872C35.7383 40.872 35.6957 40.8933 35.653 40.936C35.525 41.0213 35.4823 41.0427 35.525 41C35.6103 40.9147 35.717 40.8293 35.845 40.744C35.973 40.6587 36.0797 40.5947 36.165 40.552C36.2503 40.5093 36.229 40.5307 36.101 40.616C36.0583 40.6587 36.0157 40.7013 35.973 40.744C35.9303 40.744 35.8877 40.7653 35.845 40.808C35.7597 40.8933 35.7383 40.9147 35.781 40.872C35.8663 40.7867 35.9517 40.7013 36.037 40.616C36.165 40.5307 36.2503 40.4667 36.293 40.424C36.3783 40.3387 36.3783 40.3387 36.293 40.424L36.229 40.488L35.973 40.744C35.973 40.744 35.9303 40.7867 35.845 40.872C36.0583 40.6587 36.1863 40.5093 36.229 40.424C36.3143 40.3387 36.3143 40.36 36.229 40.488C36.1437 40.5733 36.0797 40.6587 36.037 40.744C35.9517 40.8293 35.8877 40.9147 35.845 41C35.8023 41.0853 35.7383 41.1707 35.653 41.256C35.6957 41.1707 35.7383 41.0853 35.781 41C35.8237 40.9147 35.8877 40.8293 35.973 40.744C35.8023 41 35.653 41.2773 35.525 41.576C35.397 41.832 35.2903 42.1307 35.205 42.472C35.205 42.344 35.2477 42.1947 35.333 42.024C34.9917 43.1333 34.949 44.3707 35.205 45.736C35.205 45.6507 35.1837 45.5867 35.141 45.544C35.141 45.5013 35.141 45.4373 35.141 45.352C35.397 46.5893 35.9303 47.784 36.741 48.936C37.1677 49.6613 37.6797 50.2373 38.277 50.664C38.2343 50.6213 38.1917 50.6 38.149 50.6C38.1063 50.5573 38.0637 50.5147 38.021 50.472C38.8317 51.0693 39.685 51.432 40.581 51.56C40.4103 51.56 40.261 51.5387 40.133 51.496C40.645 51.624 41.221 51.6453 41.861 51.56C41.605 51.56 41.413 51.5813 41.285 51.624C41.4983 51.5813 41.6903 51.56 41.861 51.56C42.0317 51.5173 42.2023 51.4747 42.373 51.432C42.4157 51.3893 42.4797 51.368 42.565 51.368C42.0103 51.5387 41.8183 51.5813 41.989 51.496C42.0743 51.496 42.117 51.496 42.117 51.496C42.1597 51.4533 42.2023 51.432 42.245 51.432C42.501 51.3467 42.6717 51.2827 42.757 51.24C42.7997 51.24 42.821 51.24 42.821 51.24C42.8637 51.1973 42.9063 51.176 42.949 51.176C42.6077 51.3467 42.373 51.4533 42.245 51.496C42.1597 51.5387 42.181 51.5173 42.309 51.432H42.373C42.4157 51.3893 42.437 51.368 42.437 51.368C42.4797 51.368 42.5223 51.3467 42.565 51.304C42.821 51.2187 42.9917 51.1333 43.077 51.048C43.1197 51.048 43.141 51.048 43.141 51.048C43.1837 51.0053 43.2263 50.984 43.269 50.984C42.629 51.3253 42.3303 51.496 42.373 51.496C42.4157 51.496 42.501 51.4533 42.629 51.368C42.7143 51.2827 42.7997 51.2187 42.885 51.176C43.0557 51.0907 43.205 50.984 43.333 50.856C43.3757 50.856 43.397 50.856 43.397 50.856C43.4397 50.8133 43.4823 50.792 43.525 50.792C43.6103 50.7493 43.6103 50.7493 43.525 50.792C43.4397 50.8347 43.333 50.8987 43.205 50.984C43.077 51.0693 42.9703 51.1547 42.885 51.24C42.7997 51.2827 42.7997 51.2613 42.885 51.176C43.0557 51.0907 43.141 51.048 43.141 51.048C43.269 50.9627 43.4183 50.8347 43.589 50.664C43.6743 50.6213 43.781 50.536 43.909 50.408C43.9943 50.3227 43.9943 50.3227 43.909 50.408C43.8663 50.4507 43.781 50.5147 43.653 50.6C43.5677 50.6853 43.4823 50.7707 43.397 50.856C43.3543 50.8987 43.397 50.856 43.525 50.728C43.6103 50.6427 43.6743 50.5787 43.717 50.536C43.8023 50.4933 43.8877 50.4293 43.973 50.344L44.421 49.896C44.4637 49.768 44.549 49.6827 44.677 49.64C44.7623 49.5547 44.7837 49.5333 44.741 49.576C44.6983 49.6187 44.6343 49.6827 44.549 49.768C44.4637 49.8533 44.3997 49.9387 44.357 50.024C44.3143 50.0667 44.3357 50.0453 44.421 49.96C44.677 49.6187 44.933 49.2773 45.189 48.936C45.4877 48.5947 45.7437 48.232 45.957 47.848C45.7863 48.104 45.6797 48.2747 45.637 48.36C45.9783 47.848 46.277 47.3147 46.533 46.76C46.789 46.1627 47.0237 45.544 47.237 44.904C47.1517 45.16 47.109 45.3307 47.109 45.416C47.5783 43.7093 47.6637 42.088 47.365 40.552C47.4077 40.6373 47.429 40.7653 47.429 40.936C47.2157 39.9547 46.8317 39.0587 46.277 38.248C45.765 37.4373 45.125 36.7333 44.357 36.136C44.3997 36.1787 44.4423 36.2213 44.485 36.264C44.5277 36.264 44.5703 36.2853 44.613 36.328C43.9303 35.816 43.1837 35.368 42.373 34.984C41.605 34.6 40.8157 34.28 40.005 34.024C39.749 33.9387 39.621 33.7893 39.621 33.576C39.621 33.3627 39.6637 33.1707 39.749 33C39.9197 32.6587 40.133 32.36 40.389 32.104C40.645 31.8053 40.9223 31.5493 41.221 31.336C41.5623 31.08 41.925 30.8453 42.309 30.632C42.7357 30.376 43.1623 30.184 43.589 30.056C43.8877 29.9707 44.1863 29.9067 44.485 29.864C44.7837 29.7787 45.0823 29.7787 45.381 29.864C47.301 30.4613 48.9863 31.336 50.437 32.488C51.845 33.64 52.805 35.048 53.317 36.712C53.7437 38.3333 53.765 40.0187 53.381 41.768C52.869 43.816 51.973 45.7147 50.693 47.464C49.413 49.2133 47.941 50.728 46.277 52.008C45.2103 52.8187 44.0797 53.544 42.885 54.184C41.733 54.7813 40.517 55.2507 39.237 55.592C38.3837 55.8053 37.509 55.9333 36.613 55.976C35.7597 55.976 34.9277 55.8053 34.117 55.464C33.3063 55.1653 32.6023 54.7173 32.005 54.12C31.4077 53.5227 30.8743 52.8613 30.405 52.136C30.021 51.4533 29.701 50.7493 29.445 50.024C29.189 49.2987 29.0183 48.552 28.933 47.784C28.805 46.504 29.0183 45.2027 29.573 43.88C29.9143 43.0267 30.3623 42.28 30.917 41.64C31.5143 40.9573 32.1543 40.3173 32.837 39.72C33.6477 39.0373 34.5223 38.4613 35.461 37.992C36.4423 37.48 37.445 37.1173 38.469 36.904C39.109 36.7333 39.7703 36.6693 40.453 36.712C41.1783 36.712 41.861 36.8187 42.501 37.032C43.0983 37.2453 43.653 37.5653 44.165 37.992C44.7197 38.376 45.2103 38.8027 45.637 39.272ZM84.129 40.488C84.4277 41.4693 84.6197 42.4933 84.705 43.56C84.833 44.6267 84.7903 45.6507 84.577 46.632C84.1077 49.1067 82.913 51.176 80.993 52.84C78.177 55.3147 74.9343 56.8507 71.265 57.448C71.0943 57.4907 70.8383 57.512 70.497 57.512C70.1557 57.5547 69.9423 57.4693 69.857 57.256C69.6437 56.5307 69.2597 55.912 68.705 55.4C68.193 54.8453 67.7023 54.312 67.233 53.8C67.0197 53.5867 66.8063 53.3947 66.593 53.224C66.3797 53.0107 66.1663 52.7973 65.953 52.584L65.633 52.904L65.441 53.096C65.3983 53.224 65.3343 53.3733 65.249 53.544C65.0783 53.9707 64.801 54.3333 64.417 54.632C64.161 54.888 63.9477 55.08 63.777 55.208C63.5637 55.4213 63.3077 55.6133 63.009 55.784C62.753 55.912 62.497 56.04 62.241 56.168C61.8997 56.3387 61.537 56.488 61.153 56.616C60.8117 56.744 60.4703 56.808 60.129 56.808C59.7877 56.808 59.5317 56.7013 59.361 56.488C58.1663 54.8667 57.2063 53.1387 56.481 51.304C55.7557 49.4693 55.1797 47.5707 54.753 45.608C54.7957 45.2667 54.9663 44.9467 55.265 44.648C55.3503 44.5627 55.4143 44.4773 55.457 44.392C55.5423 44.264 55.6277 44.1573 55.713 44.072C56.353 43.432 57.0997 42.92 57.953 42.536C58.2943 42.3653 58.6357 42.2373 58.977 42.152C59.361 42.024 59.7237 41.96 60.065 41.96C60.3637 41.9173 60.6197 42.0027 60.833 42.216C60.833 42.3013 60.833 42.3653 60.833 42.408C60.8757 42.4507 60.897 42.5147 60.897 42.6C60.897 42.6853 60.9183 42.7493 60.961 42.792C61.2597 44.1573 61.6437 45.5013 62.113 46.824C62.625 48.1467 63.2437 49.4267 63.969 50.664L64.289 50.344L64.353 50.28C64.353 50.28 64.3957 50.2373 64.481 50.152C64.5237 50.0667 64.545 49.9813 64.545 49.896C64.5877 49.8107 64.6303 49.7253 64.673 49.64C64.7583 49.4267 64.865 49.256 64.993 49.128C65.1637 48.9573 65.3343 48.7867 65.505 48.616C65.5903 48.5307 65.697 48.4453 65.825 48.36C65.953 48.232 66.0597 48.1253 66.145 48.04C66.6997 47.6133 67.233 47.2933 67.745 47.08C68.0863 46.9093 68.4277 46.76 68.769 46.632C69.1103 46.504 69.473 46.44 69.857 46.44C70.1557 46.44 70.3903 46.5467 70.561 46.76C70.817 47.4427 71.201 48.0613 71.713 48.616C72.2677 49.1707 72.7797 49.6827 73.249 50.152C73.6757 50.6213 74.1023 51.0907 74.529 51.56C74.9983 51.9867 75.3823 52.4773 75.681 53.032H75.873C75.9157 52.9893 75.9797 52.968 76.065 52.968C76.1503 52.9253 76.193 52.904 76.193 52.904C76.2357 52.904 76.2997 52.8827 76.385 52.84C76.4703 52.7973 76.5343 52.776 76.577 52.776C76.6197 52.776 76.6837 52.7547 76.769 52.712C76.9397 52.6267 77.025 52.584 77.025 52.584L77.089 52.52L77.217 52.392L77.281 52.328C77.3663 52.1573 77.473 52.008 77.601 51.88C77.729 51.624 77.857 51.368 77.985 51.112C78.113 50.856 78.2197 50.6 78.305 50.344C78.7317 48.552 78.753 46.76 78.369 44.968C77.8997 42.92 77.0677 41 75.873 39.208C74.721 37.3733 73.3343 35.7947 71.713 34.472C71.457 34.2587 71.201 34.0667 70.945 33.896C70.689 33.7253 70.433 33.576 70.177 33.448C69.8783 33.2773 69.7503 33.064 69.793 32.808C69.8357 32.5093 69.9423 32.232 70.113 31.976C70.3263 31.72 70.561 31.4853 70.817 31.272C71.073 31.016 71.265 30.8453 71.393 30.76C72.0757 30.2053 72.865 29.7573 73.761 29.416C73.9743 29.3307 74.273 29.2453 74.657 29.16C75.041 29.0747 75.3397 29.096 75.553 29.224C76.705 29.9067 77.7717 30.7173 78.753 31.656C79.777 32.5947 80.6517 33.6187 81.377 34.728C81.9743 35.624 82.5077 36.5627 82.977 37.544C83.489 38.4827 83.873 39.464 84.129 40.488ZM65.505 53.032C65.3343 53.2453 65.2703 53.3307 65.313 53.288C65.3557 53.2027 65.4197 53.1173 65.505 53.032ZM64.481 50.216C64.5663 50.1307 64.6303 50.0667 64.673 50.024C64.7157 49.9387 64.6517 49.9813 64.481 50.152V50.216ZM65.505 53.032H65.569H65.505ZM129.064 20.392C129.192 20.6053 129.192 20.84 129.064 21.096C128.936 21.352 128.808 21.544 128.68 21.672C128.424 22.0133 128.125 22.3333 127.784 22.632C127.442 22.888 127.101 23.1227 126.76 23.336C126.418 23.5493 126.056 23.7627 125.672 23.976C125.288 24.1467 124.882 24.2747 124.456 24.36C124.242 24.4027 124.05 24.4453 123.88 24.488C123.709 24.488 123.517 24.5307 123.304 24.616C122.877 24.7013 122.45 24.808 122.024 24.936C121.597 25.064 121.17 25.1707 120.744 25.256C120.658 25.2987 120.573 25.3413 120.488 25.384C120.402 25.384 120.317 25.4053 120.232 25.448C120.146 25.4907 120.04 25.5333 119.912 25.576C119.784 25.576 119.677 25.5973 119.592 25.64L118.248 26.024C117.821 26.1947 117.33 26.344 116.776 26.472C116.178 29.5013 115.581 32.5093 114.984 35.496C114.429 38.44 113.874 41.4267 113.32 44.456C112.594 48.552 111.954 52.6267 111.4 56.68C110.845 60.6907 110.376 64.7653 109.992 68.904C109.949 69.2027 109.821 69.48 109.608 69.736C109.437 69.992 109.245 70.2267 109.032 70.44C108.392 71.08 107.645 71.592 106.792 71.976C106.45 72.1467 106.109 72.296 105.768 72.424C105.426 72.552 105.064 72.5947 104.68 72.552C104.466 72.552 104.274 72.5093 104.104 72.424C103.933 72.3387 103.848 72.168 103.848 71.912C104.104 69.0533 104.402 66.216 104.744 63.4C105.128 60.584 105.533 57.768 105.96 54.952C106.6 50.9413 107.282 46.9733 108.008 43.048C108.776 39.08 109.565 35.112 110.376 31.144C110.461 30.6747 110.546 30.2053 110.632 29.736C110.76 29.224 110.866 28.712 110.952 28.2C109.202 28.6693 107.453 29.0533 105.704 29.352C103.954 29.6507 102.184 29.8 100.392 29.8C100.178 29.8 99.9648 29.7573 99.7515 29.672C99.5808 29.5867 99.4955 29.416 99.4955 29.16C99.5382 28.8613 99.6448 28.584 99.8155 28.328C100.029 28.072 100.242 27.8373 100.456 27.624C100.797 27.3253 101.16 27.048 101.544 26.792C101.928 26.536 102.312 26.3013 102.696 26.088C103.037 25.9173 103.378 25.7893 103.72 25.704C104.104 25.576 104.466 25.512 104.808 25.512C105.789 25.512 106.77 25.448 107.752 25.32C108.434 25.2347 109.096 25.1493 109.736 25.064C110.376 24.936 111.016 24.808 111.656 24.68C112.85 18.92 114.002 13.16 115.112 7.4C115.197 7.10133 115.325 6.824 115.496 6.568C115.666 6.312 115.858 6.07733 116.072 5.864C116.754 5.224 117.501 4.712 118.312 4.328C118.653 4.15733 118.994 4.02933 119.336 3.944C119.72 3.816 120.082 3.752 120.424 3.752C120.637 3.752 120.85 3.79467 121.064 3.88C121.277 3.96533 121.341 4.136 121.256 4.392C120.744 7.16533 120.21 9.91733 119.656 12.648C119.101 15.336 118.546 18.0453 117.992 20.776C117.906 21.16 117.821 21.544 117.736 21.928C117.693 22.312 117.629 22.6747 117.544 23.016C119.208 22.504 120.872 21.992 122.536 21.48C124.242 20.968 125.97 20.52 127.72 20.136C127.933 20.0933 128.168 20.072 128.424 20.072C128.722 20.072 128.936 20.1787 129.064 20.392ZM137.512 39.272C137.683 39.4853 137.683 39.7413 137.512 40.04C137.341 40.296 137.213 40.488 137.128 40.616C136.616 41.256 135.997 41.8107 135.272 42.28C134.931 42.4933 134.547 42.6853 134.12 42.856C133.736 43.0267 133.331 43.1547 132.904 43.24C132.691 43.3253 132.456 43.368 132.2 43.368C131.944 43.3253 131.731 43.1973 131.56 42.984C131.389 42.7707 131.219 42.6 131.048 42.472C130.877 42.3013 130.685 42.1093 130.472 41.896C130.515 41.9813 130.557 42.0453 130.6 42.088C130.643 42.088 130.685 42.1093 130.728 42.152C129.96 41.5547 129.107 41.1707 128.168 41C128.253 41 128.317 41.0213 128.36 41.064C128.445 41.064 128.531 41.064 128.616 41.064C128.147 40.9787 127.656 40.9787 127.144 41.064C127.272 41.0213 127.485 41 127.784 41C127.656 41 127.528 41.0213 127.4 41.064C127.315 41.064 127.208 41.064 127.08 41.064C127.037 41.1067 126.973 41.128 126.888 41.128C127.229 41.0427 127.443 41 127.528 41C127.613 40.9573 127.592 40.9573 127.464 41C127.379 41 127.315 41.0213 127.272 41.064C127.272 41.064 127.229 41.064 127.144 41.064C127.101 41.1067 127.037 41.128 126.952 41.128C127.293 41 127.507 40.9147 127.592 40.872C127.72 40.7867 127.72 40.7867 127.592 40.872C127.507 40.9147 127.443 40.9573 127.4 41C127.4 41 127.357 41.0213 127.272 41.064C127.272 41.064 127.229 41.0853 127.144 41.128C127.485 40.9147 127.72 40.7867 127.848 40.744C127.976 40.6587 127.955 40.6587 127.784 40.744C127.741 40.7867 127.699 40.8293 127.656 40.872C127.613 40.872 127.571 40.8933 127.528 40.936C127.4 41.0213 127.357 41.0427 127.4 41C127.485 40.9147 127.592 40.8293 127.72 40.744C127.848 40.6587 127.955 40.5947 128.04 40.552C128.125 40.5093 128.104 40.5307 127.976 40.616C127.933 40.6587 127.891 40.7013 127.848 40.744C127.805 40.744 127.763 40.7653 127.72 40.808C127.635 40.8933 127.613 40.9147 127.656 40.872C127.741 40.7867 127.827 40.7013 127.912 40.616C128.04 40.5307 128.125 40.4667 128.168 40.424C128.253 40.3387 128.253 40.3387 128.168 40.424L128.104 40.488L127.848 40.744C127.848 40.744 127.805 40.7867 127.72 40.872C127.933 40.6587 128.061 40.5093 128.104 40.424C128.189 40.3387 128.189 40.36 128.104 40.488C128.019 40.5733 127.955 40.6587 127.912 40.744C127.827 40.8293 127.763 40.9147 127.72 41C127.677 41.0853 127.613 41.1707 127.528 41.256C127.571 41.1707 127.613 41.0853 127.656 41C127.699 40.9147 127.763 40.8293 127.848 40.744C127.677 41 127.528 41.2773 127.4 41.576C127.272 41.832 127.165 42.1307 127.08 42.472C127.08 42.344 127.123 42.1947 127.208 42.024C126.867 43.1333 126.824 44.3707 127.08 45.736C127.08 45.6507 127.059 45.5867 127.016 45.544C127.016 45.5013 127.016 45.4373 127.016 45.352C127.272 46.5893 127.805 47.784 128.616 48.936C129.043 49.6613 129.555 50.2373 130.152 50.664C130.109 50.6213 130.067 50.6 130.024 50.6C129.981 50.5573 129.939 50.5147 129.896 50.472C130.707 51.0693 131.56 51.432 132.456 51.56C132.285 51.56 132.136 51.5387 132.008 51.496C132.52 51.624 133.096 51.6453 133.736 51.56C133.48 51.56 133.288 51.5813 133.16 51.624C133.373 51.5813 133.565 51.56 133.736 51.56C133.907 51.5173 134.077 51.4747 134.248 51.432C134.291 51.3893 134.355 51.368 134.44 51.368C133.885 51.5387 133.693 51.5813 133.864 51.496C133.949 51.496 133.992 51.496 133.992 51.496C134.035 51.4533 134.077 51.432 134.12 51.432C134.376 51.3467 134.547 51.2827 134.632 51.24C134.675 51.24 134.696 51.24 134.696 51.24C134.739 51.1973 134.781 51.176 134.824 51.176C134.483 51.3467 134.248 51.4533 134.12 51.496C134.035 51.5387 134.056 51.5173 134.184 51.432H134.248C134.291 51.3893 134.312 51.368 134.312 51.368C134.355 51.368 134.397 51.3467 134.44 51.304C134.696 51.2187 134.867 51.1333 134.952 51.048C134.995 51.048 135.016 51.048 135.016 51.048C135.059 51.0053 135.101 50.984 135.144 50.984C134.504 51.3253 134.205 51.496 134.248 51.496C134.291 51.496 134.376 51.4533 134.504 51.368C134.589 51.2827 134.675 51.2187 134.76 51.176C134.931 51.0907 135.08 50.984 135.208 50.856C135.251 50.856 135.272 50.856 135.272 50.856C135.315 50.8133 135.357 50.792 135.4 50.792C135.485 50.7493 135.485 50.7493 135.4 50.792C135.315 50.8347 135.208 50.8987 135.08 50.984C134.952 51.0693 134.845 51.1547 134.76 51.24C134.675 51.2827 134.675 51.2613 134.76 51.176C134.931 51.0907 135.016 51.048 135.016 51.048C135.144 50.9627 135.293 50.8347 135.464 50.664C135.549 50.6213 135.656 50.536 135.784 50.408C135.869 50.3227 135.869 50.3227 135.784 50.408C135.741 50.4507 135.656 50.5147 135.528 50.6C135.443 50.6853 135.357 50.7707 135.272 50.856C135.229 50.8987 135.272 50.856 135.4 50.728C135.485 50.6427 135.549 50.5787 135.592 50.536C135.677 50.4933 135.763 50.4293 135.848 50.344L136.296 49.896C136.339 49.768 136.424 49.6827 136.552 49.64C136.637 49.5547 136.659 49.5333 136.616 49.576C136.573 49.6187 136.509 49.6827 136.424 49.768C136.339 49.8533 136.275 49.9387 136.232 50.024C136.189 50.0667 136.211 50.0453 136.296 49.96C136.552 49.6187 136.808 49.2773 137.064 48.936C137.363 48.5947 137.619 48.232 137.832 47.848C137.661 48.104 137.555 48.2747 137.512 48.36C137.853 47.848 138.152 47.3147 138.408 46.76C138.664 46.1627 138.899 45.544 139.112 44.904C139.027 45.16 138.984 45.3307 138.984 45.416C139.453 43.7093 139.539 42.088 139.24 40.552C139.283 40.6373 139.304 40.7653 139.304 40.936C139.091 39.9547 138.707 39.0587 138.152 38.248C137.64 37.4373 137 36.7333 136.232 36.136C136.275 36.1787 136.317 36.2213 136.36 36.264C136.403 36.264 136.445 36.2853 136.488 36.328C135.805 35.816 135.059 35.368 134.248 34.984C133.48 34.6 132.691 34.28 131.88 34.024C131.624 33.9387 131.496 33.7893 131.496 33.576C131.496 33.3627 131.539 33.1707 131.624 33C131.795 32.6587 132.008 32.36 132.264 32.104C132.52 31.8053 132.797 31.5493 133.096 31.336C133.437 31.08 133.8 30.8453 134.184 30.632C134.611 30.376 135.037 30.184 135.464 30.056C135.763 29.9707 136.061 29.9067 136.36 29.864C136.659 29.7787 136.957 29.7787 137.256 29.864C139.176 30.4613 140.861 31.336 142.312 32.488C143.72 33.64 144.68 35.048 145.192 36.712C145.619 38.3333 145.64 40.0187 145.256 41.768C144.744 43.816 143.848 45.7147 142.568 47.464C141.288 49.2133 139.816 50.728 138.152 52.008C137.085 52.8187 135.955 53.544 134.76 54.184C133.608 54.7813 132.392 55.2507 131.112 55.592C130.259 55.8053 129.384 55.9333 128.488 55.976C127.635 55.976 126.803 55.8053 125.992 55.464C125.181 55.1653 124.477 54.7173 123.88 54.12C123.283 53.5227 122.749 52.8613 122.28 52.136C121.896 51.4533 121.576 50.7493 121.32 50.024C121.064 49.2987 120.893 48.552 120.808 47.784C120.68 46.504 120.893 45.2027 121.448 43.88C121.789 43.0267 122.237 42.28 122.792 41.64C123.389 40.9573 124.029 40.3173 124.712 39.72C125.523 39.0373 126.397 38.4613 127.336 37.992C128.317 37.48 129.32 37.1173 130.344 36.904C130.984 36.7333 131.645 36.6693 132.328 36.712C133.053 36.712 133.736 36.8187 134.376 37.032C134.973 37.2453 135.528 37.5653 136.04 37.992C136.595 38.376 137.085 38.8027 137.512 39.272ZM202.594 34.152C202.594 34.6213 202.573 35.0907 202.53 35.56C202.53 35.9867 202.487 36.4347 202.402 36.904C202.317 37.5013 202.167 38.0773 201.954 38.632C201.783 39.1867 201.591 39.7413 201.378 40.296C200.781 41.5333 199.991 42.6213 199.01 43.56C198.071 44.456 197.09 45.3093 196.066 46.12C194.957 46.9733 193.805 47.7413 192.61 48.424C191.458 49.1067 190.242 49.7467 188.962 50.344C187.725 50.984 186.466 51.5387 185.186 52.008C183.906 52.4773 182.605 52.9253 181.282 53.352C180.045 53.864 178.786 54.312 177.506 54.696C176.269 55.0373 175.01 55.336 173.73 55.592C172.45 55.8907 171.149 56.1467 169.826 56.36C168.546 56.5733 167.245 56.7227 165.922 56.808C163.703 57.064 161.613 57.0427 159.65 56.744C159.053 56.5733 158.37 56.36 157.602 56.104C156.834 55.8053 156.215 55.3573 155.746 54.76C155.575 54.5467 155.575 54.2907 155.746 53.992C155.874 53.6933 156.002 53.4587 156.13 53.288C156.386 52.9467 156.685 52.6053 157.026 52.264C157.367 51.88 157.73 51.5387 158.114 51.24C158.455 51.0267 158.839 50.8133 159.266 50.6C159.65 50.3867 160.077 50.216 160.546 50.088C160.759 50.0027 161.015 49.9387 161.314 49.896C161.655 49.8533 161.911 49.9387 162.082 50.152C162.21 50.3227 162.317 50.472 162.402 50.6C162.487 50.6853 162.594 50.7707 162.722 50.856C163.789 51.368 164.962 51.6667 166.242 51.752C167.693 51.9227 169.143 51.944 170.594 51.816C172.045 51.688 173.453 51.4747 174.818 51.176C175.031 51.176 175.266 51.1333 175.522 51.048C176.845 50.7493 178.125 50.4507 179.362 50.152C180.599 49.8107 181.837 49.448 183.074 49.064C183.458 48.9787 183.799 48.8933 184.098 48.808C184.397 48.7227 184.695 48.6373 184.994 48.552C185.122 48.424 185.229 48.3387 185.314 48.296C185.613 48.2533 185.869 48.168 186.082 48.04C186.679 47.784 187.255 47.528 187.81 47.272C188.365 47.016 188.941 46.7813 189.538 46.568C190.05 46.3547 190.562 46.0987 191.074 45.8L191.138 45.864L191.202 45.8C191.373 45.7147 191.501 45.6507 191.586 45.608C191.714 45.5227 191.842 45.4373 191.97 45.352C192.183 45.2667 192.375 45.16 192.546 45.032C192.759 44.8613 193.015 44.712 193.314 44.584V44.52C193.442 44.52 193.527 44.4773 193.57 44.392C193.655 44.264 193.741 44.2 193.826 44.2C193.911 44.1573 193.975 44.1147 194.018 44.072C194.103 43.9867 194.231 43.9227 194.402 43.88C194.487 43.8373 194.53 43.7947 194.53 43.752C194.53 43.7093 194.573 43.688 194.658 43.688V43.368C194.658 43.368 194.765 43.3467 194.978 43.304C194.978 43.304 194.978 43.2827 194.978 43.24C195.063 43.1547 195.085 43.0907 195.042 43.048C195.042 43.0053 195.085 42.9627 195.17 42.92C195.383 42.5787 195.554 42.216 195.682 41.832C195.81 41.4053 195.895 41 195.938 40.616C196.023 40.104 196.087 39.592 196.13 39.08C196.173 38.568 196.13 38.056 196.002 37.544C195.789 36.9467 195.469 36.4347 195.042 36.008C194.658 35.5387 194.231 35.1333 193.762 34.792C192.781 34.1093 191.735 33.64 190.626 33.384C189.559 33.128 188.471 32.9147 187.362 32.744C185.57 32.616 183.799 32.616 182.05 32.744C180.301 32.8293 178.53 33.0213 176.738 33.32C176.695 33.3627 176.653 33.384 176.61 33.384H176.546V33.448C176.674 35.4107 176.887 37.352 177.186 39.272C177.485 41.192 177.911 43.1333 178.466 45.096C178.381 45.2667 178.295 45.4373 178.21 45.608C178.125 45.7787 178.018 45.9707 177.89 46.184C177.847 46.2267 177.783 46.312 177.698 46.44C177.613 46.5253 177.527 46.6107 177.442 46.696C177.101 47.08 176.738 47.4427 176.354 47.784C175.97 48.0827 175.565 48.36 175.138 48.616C174.754 48.8293 174.37 49.0213 173.986 49.192C173.602 49.32 173.218 49.4267 172.834 49.512C172.663 49.512 172.493 49.4907 172.322 49.448C172.194 49.4053 172.087 49.2773 172.002 49.064C171.959 49.064 171.917 48.9787 171.874 48.808C171.789 48.3813 171.703 48.0187 171.618 47.72C171.106 45.7147 170.722 43.7093 170.466 41.704C170.21 39.656 170.018 37.5653 169.89 35.432C169.677 35.5173 169.485 35.5813 169.314 35.624C169.143 35.624 168.951 35.6667 168.738 35.752C168.482 35.752 168.247 35.7093 168.034 35.624C167.821 35.5387 167.714 35.3467 167.714 35.048C167.799 34.8347 167.842 34.6427 167.842 34.472C167.885 34.3013 168.013 34.1307 168.226 33.96C168.61 33.2347 169.143 32.6587 169.826 32.232C169.741 30.44 169.655 28.6693 169.57 26.92C169.485 25.128 169.399 23.3573 169.314 21.608C169.271 21.2667 169.357 20.9467 169.57 20.648C169.826 20.3067 170.039 20.0507 170.21 19.88C170.551 19.4533 170.935 19.0907 171.362 18.792C171.789 18.4933 172.215 18.216 172.642 17.96C172.77 17.9173 173.005 17.8107 173.346 17.64C173.687 17.4693 174.029 17.3413 174.37 17.256C174.754 17.128 175.095 17.0853 175.394 17.128C175.693 17.1707 175.885 17.3627 175.97 17.704C175.885 17.9173 175.863 18.1307 175.906 18.344C175.991 18.5147 176.013 18.6427 175.97 18.728C176.013 20.52 176.055 22.2907 176.098 24.04C176.141 25.7893 176.205 27.56 176.29 29.352C176.674 29.2667 177.037 29.1813 177.378 29.096C177.719 29.0107 178.061 28.9253 178.402 28.84C178.487 28.7547 178.573 28.712 178.658 28.712C178.743 28.712 178.829 28.6693 178.914 28.584L179.042 28.52C179.127 28.4773 179.213 28.4347 179.298 28.392C179.383 28.3067 179.511 28.264 179.682 28.264C179.853 28.0933 180.023 27.9653 180.194 27.88C180.407 27.7947 180.599 27.7093 180.77 27.624C180.855 27.4533 180.983 27.3253 181.154 27.24C181.325 27.1547 181.495 27.0693 181.666 26.984L181.73 26.92C181.943 26.8347 182.178 26.7067 182.434 26.536C182.69 26.3227 182.925 26.088 183.138 25.832C183.309 25.7893 183.458 25.7253 183.586 25.64C183.714 25.5547 183.821 25.4907 183.906 25.448C183.991 25.3627 184.055 25.2773 184.098 25.192C184.311 25.0213 184.525 24.8507 184.738 24.68C184.951 24.5093 185.165 24.3173 185.378 24.104C185.463 24.0613 185.549 23.9973 185.634 23.912C185.719 23.8267 185.826 23.7413 185.954 23.656V23.592C185.954 23.592 186.018 23.5493 186.146 23.464C186.359 23.2507 186.53 23.0373 186.658 22.824C186.829 22.6107 187.021 22.376 187.234 22.12C187.277 22.0773 187.298 22.0773 187.298 22.12C187.341 22.12 187.362 22.0773 187.362 21.992C187.447 21.9067 187.511 21.8213 187.554 21.736C187.639 21.608 187.725 21.5013 187.81 21.416C188.109 21.032 188.322 20.6907 188.45 20.392C188.621 20.0507 188.77 19.7093 188.898 19.368C189.069 19.0267 189.218 18.664 189.346 18.28C189.474 17.2133 189.431 16.2107 189.218 15.272C188.962 14.4613 188.535 13.736 187.938 13.096C187.383 12.4133 186.743 11.816 186.018 11.304C185.165 10.7493 184.269 10.28 183.33 9.896C182.434 9.512 181.474 9.27733 180.45 9.192C179.639 9.10667 178.871 9.08533 178.146 9.128C177.421 9.17066 176.653 9.27733 175.842 9.448C174.775 9.66133 173.709 9.96 172.642 10.344H172.578C172.493 10.344 172.45 10.344 172.45 10.344C172.237 10.4293 172.087 10.5147 172.002 10.6C171.917 10.6427 171.789 10.6853 171.618 10.728C171.49 10.8133 171.341 10.8773 171.17 10.92C171.042 10.9627 170.914 11.0267 170.786 11.112H170.722C170.594 11.1973 170.466 11.2827 170.338 11.368C170.21 11.4533 170.103 11.5387 170.018 11.624C169.805 11.7093 169.677 11.7733 169.634 11.816V11.88C169.634 11.9227 169.57 11.944 169.442 11.944C169.442 12.0293 169.442 12.072 169.442 12.072C169.399 12.1147 169.335 12.1573 169.25 12.2C169.165 12.2427 169.122 12.2853 169.122 12.328C169.165 12.328 169.143 12.4347 169.058 12.648C168.973 12.648 168.866 12.712 168.738 12.84C168.653 13.0107 168.589 13.2027 168.546 13.416C168.503 13.6293 168.439 13.8427 168.354 14.056C168.269 14.44 168.226 14.8667 168.226 15.336C168.269 15.7627 168.354 16.2107 168.482 16.68C168.482 16.8933 168.546 17.0853 168.674 17.256C168.845 17.5547 168.866 17.832 168.738 18.088C168.653 18.3013 168.546 18.536 168.418 18.792C168.162 19.1333 167.842 19.4747 167.458 19.816C167.074 20.1147 166.711 20.392 166.37 20.648C166.029 20.9893 165.666 21.2667 165.282 21.48C164.898 21.6507 164.471 21.8213 164.002 21.992C163.874 22.0347 163.597 22.0773 163.17 22.12C162.786 22.1627 162.53 22.056 162.402 21.8C162.189 21.16 162.018 20.4987 161.89 19.816C161.805 19.1333 161.826 18.4293 161.954 17.704C162.125 16.424 162.615 15.1653 163.426 13.928C163.895 13.3307 164.386 12.7547 164.898 12.2C165.453 11.6027 166.029 11.0693 166.626 10.6C167.351 10.0027 168.077 9.42666 168.802 8.872C169.527 8.31733 170.295 7.848 171.106 7.464C171.917 7.03733 172.706 6.65333 173.474 6.312C174.242 5.97066 175.031 5.672 175.842 5.416C177.079 4.98933 178.338 4.66933 179.618 4.456C180.941 4.2 182.221 4.072 183.458 4.072C184.098 4.02933 184.695 4.02933 185.25 4.072C185.805 4.11466 186.381 4.22133 186.978 4.392C187.575 4.47733 188.151 4.62666 188.706 4.84C189.303 5.05333 189.837 5.33066 190.306 5.672C191.287 6.14133 192.247 6.76 193.186 7.528C194.125 8.296 194.829 9.29866 195.298 10.536C195.725 11.432 195.895 12.392 195.81 13.416C195.767 14.44 195.575 15.464 195.234 16.488C194.765 17.7253 194.146 18.8773 193.378 19.944C192.61 21.0107 191.778 22.0347 190.882 23.016C189.175 24.7653 187.405 26.3227 185.57 27.688C187.191 27.56 188.749 27.5387 190.242 27.624C191.778 27.6667 193.293 27.7947 194.786 28.008C195.682 28.2213 196.578 28.4987 197.474 28.84C198.413 29.1813 199.266 29.5867 200.034 30.056C201.442 31.1227 202.295 32.488 202.594 34.152ZM170.594 11.24C170.637 11.1547 170.679 11.1547 170.722 11.24C170.594 11.24 170.487 11.2827 170.402 11.368L170.338 11.432C170.338 11.304 170.423 11.24 170.594 11.24ZM185.698 23.784C185.485 23.9973 185.399 24.0827 185.442 24.04C185.527 23.9973 185.613 23.912 185.698 23.784ZM195.042 43.048L195.17 43.176L195.042 43.048ZM194.85 43.368C194.978 43.24 195.042 43.1973 195.042 43.24V43.176C195.042 43.2187 194.978 43.2827 194.85 43.368ZM195.042 43.176C195.17 43.0907 195.213 43.048 195.17 43.048C195.127 43.048 195.085 43.0907 195.042 43.176ZM195.106 42.984C195.063 43.0267 195.042 43.048 195.042 43.048L195.106 42.984ZM242.544 59.56C242.672 59.7733 242.672 59.9867 242.544 60.2C242.458 60.456 242.33 60.6907 242.16 60.904C241.69 61.4587 241.072 61.992 240.304 62.504C239.536 63.016 238.746 63.3573 237.936 63.528C237.765 63.5707 237.509 63.592 237.168 63.592C236.869 63.592 236.677 63.4853 236.592 63.272C235.994 61.864 235.418 60.456 234.864 59.048C234.309 57.64 233.797 56.1893 233.328 54.696C232.005 50.5147 231.066 46.376 230.512 42.28C230.085 43.2613 229.637 44.136 229.168 44.904C228.57 45.928 227.93 46.9307 227.248 47.912C226.608 48.8507 225.882 49.7467 225.072 50.6C224.218 51.496 223.258 52.328 222.192 53.096C221.168 53.864 220.08 54.504 218.928 55.016C218.33 55.272 217.733 55.528 217.135 55.784C216.538 55.9973 215.92 56.1467 215.28 56.232C214.256 56.4453 213.189 56.5093 212.08 56.424C211.226 56.3387 210.373 56.2107 209.52 56.04C208.709 55.8267 207.92 55.5067 207.152 55.08C205.786 54.2693 204.677 53.224 203.824 51.944C202.97 50.6213 202.309 49.192 201.84 47.656C201.285 45.7787 200.944 43.88 200.816 41.96C200.688 40.04 200.688 38.12 200.816 36.2C200.901 34.0667 201.093 31.9547 201.392 29.864C201.69 27.7733 202.074 25.6827 202.544 23.592C203.013 21.544 203.504 19.56 204.016 17.64C204.57 15.6773 205.168 13.7147 205.808 11.752C206.277 10.4293 206.746 9.128 207.216 7.848C207.728 6.568 208.325 5.30933 209.008 4.072C209.392 3.34666 209.946 2.74933 210.672 2.28C211.397 1.81066 212.122 1.42666 212.848 1.128C213.104 1.04266 213.381 0.978663 213.68 0.935997C214.021 0.850665 214.341 0.850665 214.64 0.935997C214.853 1.02133 214.96 1.17067 214.96 1.384C215.002 1.59733 214.96 1.78933 214.832 1.96C214.661 2.30133 214.512 2.62133 214.384 2.92C214.256 3.176 214.106 3.47466 213.936 3.816C213.296 5.26666 212.72 6.73866 212.208 8.232C211.696 9.68266 211.205 11.1547 210.736 12.648C210.437 13.6293 210.138 14.632 209.84 15.656C209.584 16.6373 209.349 17.6187 209.135 18.6C208.666 20.6907 208.24 22.7813 207.856 24.872C207.514 26.9627 207.237 29.0747 207.024 31.208C206.853 33.128 206.789 35.048 206.832 36.968C206.874 38.8453 207.088 40.7227 207.472 42.6C207.813 44.0507 208.304 45.4587 208.944 46.824C209.584 48.1467 210.48 49.2773 211.632 50.216C212.784 51.112 214.128 51.688 215.664 51.944C216.645 52.072 217.52 52.1147 218.288 52.072C218.416 52.0293 218.522 52.008 218.608 52.008C218.736 52.008 218.842 51.9867 218.928 51.944H219.12C219.205 51.8587 219.312 51.816 219.44 51.816C219.482 51.7733 219.525 51.752 219.568 51.752L219.696 51.624C219.738 51.624 219.76 51.624 219.76 51.624C219.76 51.5813 219.781 51.56 219.824 51.56L220.016 51.368C220.058 51.368 220.122 51.3253 220.208 51.24C220.293 51.1547 220.357 51.0907 220.4 51.048C220.485 50.9627 220.57 50.8773 220.656 50.792L220.848 50.6C220.89 50.5147 220.976 50.408 221.104 50.28C221.658 49.5973 222.149 48.9147 222.576 48.232C223.685 46.44 224.624 44.6053 225.392 42.728C226.16 40.808 226.842 38.8667 227.44 36.904C227.653 36.264 227.824 35.6453 227.952 35.048C228.122 34.408 228.293 33.768 228.464 33.128C228.976 31.208 229.424 29.1813 229.808 27.048C229.978 23.9333 230.277 20.8613 230.704 17.832C231.173 14.76 231.749 11.688 232.432 8.616C232.517 8.31733 232.645 8.06133 232.816 7.848C232.986 7.592 233.178 7.35733 233.392 7.144C234.032 6.504 234.778 5.992 235.632 5.608C235.973 5.43733 236.314 5.288 236.656 5.16C236.997 5.032 237.36 4.968 237.744 4.968C237.957 4.968 238.149 5.032 238.319 5.16C238.49 5.24533 238.576 5.39466 238.576 5.608C238.533 5.77866 238.512 5.94933 238.512 6.12C238.512 6.248 238.49 6.39733 238.448 6.568C238.277 8.44533 238.085 10.3227 237.872 12.2C237.658 14.0347 237.381 15.8907 237.04 17.768C236.869 18.8347 236.698 19.9013 236.528 20.968C236.357 21.992 236.165 23.016 235.951 24.04C235.781 27.4107 235.802 30.7813 236.016 34.152C236.272 37.48 236.762 40.808 237.488 44.136C238.085 46.824 238.789 49.448 239.6 52.008C240.453 54.5253 241.434 57.0427 242.544 59.56ZM219.503 51.816H219.44C219.354 51.9013 219.269 51.9867 219.184 52.072C219.098 52.1147 219.205 52.0293 219.503 51.816ZM276.809 16.232C276.894 16.488 276.937 16.7653 276.937 17.064C276.937 17.3627 276.916 17.6613 276.873 17.96C276.788 18.2587 276.66 18.5147 276.489 18.728C276.361 18.9413 276.19 19.1547 275.977 19.368C275.337 20.008 274.654 20.4773 273.929 20.776C273.801 20.8613 273.673 20.9253 273.545 20.968C273.46 21.0107 273.353 21.0533 273.225 21.096C273.182 21.1387 273.161 21.1813 273.161 21.224C273.161 21.224 273.14 21.2453 273.097 21.288C272.628 22.0987 272.158 22.9093 271.689 23.72C271.22 24.5307 270.75 25.3627 270.281 26.216C269.598 27.4533 268.916 28.6267 268.233 29.736C266.825 32.2107 265.481 34.7067 264.201 37.224C262.964 39.6987 261.726 42.216 260.489 44.776C258.996 48.104 257.502 51.4107 256.009 54.696C254.558 57.9387 253.022 61.1813 251.401 64.424C251.102 64.9787 250.676 65.448 250.121 65.832C249.609 66.216 249.097 66.536 248.585 66.792C248.372 66.92 248.137 67.0053 247.881 67.048C247.668 67.1333 247.454 67.2187 247.241 67.304C246.857 67.3467 246.516 67.3467 246.217 67.304C246.132 67.2187 246.025 67.1547 245.897 67.112C245.769 67.0693 245.662 67.0053 245.577 66.92C243.017 65.4267 240.521 63.8907 238.089 62.312C235.657 60.776 233.14 59.3253 230.537 57.96C230.366 57.96 230.196 57.8747 230.025 57.704C229.982 57.704 229.961 57.6827 229.961 57.64C229.79 57.5547 229.641 57.4693 229.513 57.384C229.342 57.3413 229.172 57.2773 229.001 57.192C228.873 57.1067 228.745 57.0427 228.617 57C228.446 57 228.297 56.9573 228.169 56.872C227.828 56.744 227.508 56.616 227.209 56.488C226.868 56.3173 226.548 56.0827 226.249 55.784C226.078 55.656 226.078 55.464 226.249 55.208C226.377 54.9093 226.484 54.696 226.569 54.568C227.081 54.0133 227.678 53.5227 228.361 53.096C228.702 52.8827 229.044 52.712 229.385 52.584C229.726 52.4133 230.089 52.2853 230.473 52.2C230.772 52.072 231.092 52.072 231.433 52.2C231.561 52.2427 231.689 52.2853 231.817 52.328C231.902 52.3707 232.009 52.4133 232.137 52.456C232.478 52.6267 232.798 52.776 233.097 52.904C233.353 53.032 233.652 53.1813 233.993 53.352C234.42 53.5227 234.718 53.672 234.889 53.8C237.193 54.9947 239.433 56.2747 241.609 57.64C243.828 59.0053 246.046 60.3707 248.265 61.736C249.161 59.816 250.036 57.896 250.889 55.976C251.785 54.0133 252.681 52.0507 253.577 50.088C254.132 48.936 254.665 47.784 255.177 46.632C255.689 45.48 256.222 44.3493 256.777 43.24C256.649 43.2827 256.414 43.3467 256.073 43.432C255.988 43.4747 255.774 43.5173 255.433 43.56C255.092 43.56 254.878 43.4533 254.793 43.24C254.281 40.7653 253.705 38.248 253.065 35.688C252.468 33.384 251.785 31.08 251.017 28.776C250.249 26.472 249.246 24.296 248.009 22.248C247.838 22.3333 247.668 22.44 247.497 22.568C247.326 22.6533 247.156 22.7387 246.985 22.824C246.857 22.9093 246.644 23.016 246.345 23.144C246.046 23.2293 245.726 23.3147 245.385 23.4C245.086 23.4427 244.809 23.4427 244.553 23.4C244.34 23.3147 244.233 23.1227 244.233 22.824V18.024C244.233 17.768 244.34 17.512 244.553 17.256C244.766 17 244.958 16.7867 245.129 16.616C245.598 16.1467 246.046 15.8053 246.473 15.592C246.857 15.336 247.284 15.1013 247.753 14.888C248.222 14.6747 248.692 14.568 249.161 14.568H249.737C249.95 14.568 250.142 14.5893 250.313 14.632C250.526 14.632 250.718 14.7387 250.889 14.952C251.145 15.2933 251.401 15.6133 251.657 15.912C251.913 16.2107 252.148 16.5307 252.361 16.872C253.3 18.28 254.153 19.7307 254.921 21.224C256.158 23.784 257.14 26.408 257.865 29.096C258.59 31.7413 259.252 34.4293 259.849 37.16C260.404 36.0933 260.958 35.048 261.513 34.024C262.11 32.9573 262.729 31.912 263.369 30.888C263.284 30.9733 263.22 31.0587 263.177 31.144C263.177 31.2293 263.134 31.3147 263.049 31.4C263.134 31.2293 263.22 31.08 263.305 30.952C263.433 30.7813 263.54 30.632 263.625 30.504C264.564 28.8827 265.46 27.2613 266.313 25.64C267.209 24.0187 268.169 22.44 269.193 20.904C269.662 20.0933 270.196 19.3253 270.793 18.6C271.39 17.8747 272.116 17.2773 272.969 16.808C273.694 16.3813 274.441 16.04 275.209 15.784C275.465 15.6987 275.657 15.6773 275.785 15.72C275.956 15.72 276.148 15.7413 276.361 15.784C276.574 15.8693 276.724 16.0187 276.809 16.232Z" fill="white"/>
</svg>
