<svg width="539" height="29" viewBox="0 0 539 29" fill="none" xmlns="http://www.w3.org/2000/svg">
<path d="M4.67461 27.5271C4.33098 27.5112 4.02656 27.4495 3.76134 27.3419C3.49278 27.1918 3.24382 27.0187 3.01446 26.8227C2.28385 26.238 1.65457 25.5812 1.12664 24.8523C0.887272 24.5287 0.690442 24.2017 0.536148 23.8714C0.381854 23.5411 0.270098 23.2075 0.200877 22.8706C0.141664 22.6612 0.146253 22.4469 0.214646 22.2275C0.283042 22.0082 0.446516 21.9098 0.705067 21.9323C3.5358 22.0099 6.32566 22.1121 9.07465 22.2389C11.8203 22.3232 14.6102 22.4254 17.4442 22.5455C21.4793 22.6999 25.4931 22.8559 29.4857 23.0136C159.137 22.8861 505.209 0.741776 509.238 0.811054C517.464 0.936268 525.688 0.740795 533.907 0.224633C534.205 0.201284 534.488 0.264678 534.757 0.414808C535.068 0.561603 535.338 0.733001 535.567 0.929003C536.291 1.4286 536.919 2.06415 537.45 2.83564C537.689 3.15925 537.886 3.4862 538.041 3.81648C538.195 4.14677 538.307 4.48038 538.376 4.81733C538.435 5.02668 538.43 5.24103 538.362 5.46038C538.29 5.63719 538.127 5.73561 537.872 5.75562C535.018 5.93657 532.185 6.09458 529.371 6.22966C526.511 6.32554 523.648 6.37888 520.781 6.38968C516.717 6.40881 512.692 6.38207 508.706 6.30946C504.674 6.19764 158.558 28.324 28.8213 28.4582C24.7862 28.3038 20.7724 28.1478 16.7799 27.9901C12.7414 27.7932 8.70635 27.6389 4.67461 27.5271Z" fill="url(#paint0_linear_309_846)"/>
<defs>
<linearGradient id="paint0_linear_309_846" x1="1.12028" y1="34.8678" x2="537.456" y2="-7.19057" gradientUnits="userSpaceOnUse">
<stop stop-color="#000E80"/>
<stop offset="1" stop-color="#068BA8" stop-opacity="0.18"/>
</linearGradient>
</defs>
</svg>
