<svg width="223" height="8" viewBox="0 0 223 8" fill="none" xmlns="http://www.w3.org/2000/svg">
<path d="M4.5119 5.7818C4.16844 5.76265 3.86462 5.698 3.60045 5.58786C3.33334 5.43516 3.08606 5.2597 2.8586 5.06151C2.13364 4.46984 1.51071 3.807 0.989805 3.073C0.753563 2.7471 0.559886 2.41828 0.408774 2.08653C0.257663 1.75478 0.149118 1.4201 0.0831405 1.0825C0.0259423 0.872596 0.0325925 0.658301 0.103091 0.439617C0.173593 0.220933 0.338004 0.124093 0.596327 0.149101C3.42618 0.253914 6.21493 0.382939 8.96258 0.536173C11.7073 0.646839 14.4961 0.775864 17.3288 0.923243C21.3622 1.11638 25.3744 1.31098 29.3652 1.50704C159.012 2.62604 189.008 0.555724 193.036 0.663728C201.261 0.86803 209.486 0.751622 217.71 0.314505C218.008 0.29402 218.29 0.36013 218.557 0.512836C218.867 0.662616 219.136 0.836604 219.363 1.0348C220.082 1.54134 220.704 2.18289 221.228 2.95946C221.464 3.28535 221.657 3.61418 221.809 3.94593C221.96 4.27768 222.068 4.61235 222.134 4.94996C222.191 5.15986 222.185 5.37415 222.114 5.59284C222.041 5.76896 221.876 5.86579 221.621 5.88335C218.766 6.03686 215.931 6.16763 213.116 6.27564C210.255 6.34402 207.392 6.36983 204.525 6.35308C200.461 6.33313 196.436 6.26769 192.451 6.15676C188.421 6.00619 158.381 8.05815 28.6485 6.94501C24.6151 6.75187 20.603 6.55727 16.6121 6.36121C12.5758 6.12551 8.54238 5.93237 4.5119 5.7818Z" fill="url(#paint0_linear_309_497)"/>
<defs>
<linearGradient id="paint0_linear_309_497" x1="0.716143" y1="10.6006" x2="221.5" y2="-4.57877" gradientUnits="userSpaceOnUse">
<stop stop-color="#135FF2"/>
<stop offset="1" stop-color="#13F2C9"/>
</linearGradient>
</defs>
</svg>
