<svg width="204" height="7" viewBox="0 0 204 7" fill="none" xmlns="http://www.w3.org/2000/svg">
<path d="M5.41048 5.63124C5.06692 5.61412 4.76272 5.55127 4.4979 5.44269C4.2299 5.29157 3.98159 5.11758 3.75295 4.92073C3.02451 4.33335 2.39768 3.6742 1.87244 2.94329C1.63428 2.6188 1.43866 2.29112 1.28559 1.96027C1.13252 1.62942 1.022 1.29538 0.954032 0.958177C0.895594 0.748614 0.900978 0.534287 0.970184 0.31519C1.03939 0.0960937 1.20323 -0.00171787 1.46169 0.0217632C4.29212 0.109853 7.08158 0.222395 9.83009 0.35939C12.5754 0.453835 15.3649 0.566383 18.1985 0.697021C22.233 0.866321 26.2462 1.03721 30.2381 1.20969C159.889 1.56258 170.523 0.794227 174.552 0.878431C182.778 1.03412 191.002 0.86912 199.223 0.383415C199.521 0.36117 199.804 0.425609 200.072 0.576734C200.382 0.724681 200.652 0.897079 200.881 1.09393C201.603 1.59621 202.228 2.23408 202.756 3.00753C202.995 3.33203 203.19 3.6597 203.343 3.99055C203.496 4.3214 203.607 4.65543 203.675 4.99264C203.733 5.2022 203.728 5.41653 203.659 5.63563C203.586 5.81218 203.422 5.90999 203.167 5.92906C200.313 6.09943 197.479 6.24694 194.665 6.37159C191.804 6.45688 188.941 6.49961 186.074 6.49979C182.01 6.50386 177.985 6.46221 173.999 6.37483C169.968 6.24807 159.29 6.99834 29.5536 6.6518C25.5191 6.4825 21.5059 6.31162 17.5139 6.13914C13.4763 5.92729 9.44178 5.75799 5.41048 5.63124Z" fill="url(#paint0_linear_309_504)"/>
<defs>
<linearGradient id="paint0_linear_309_504" x1="1.64453" y1="10.4892" x2="202.984" y2="-4.54905" gradientUnits="userSpaceOnUse">
<stop stop-color="#135FF2"/>
<stop offset="1" stop-color="#13F2C9"/>
</linearGradient>
</defs>
</svg>
