<svg width="539" height="108" viewBox="0 0 539 108" fill="none" xmlns="http://www.w3.org/2000/svg">
<path d="M4.67461 87.5271C4.33098 87.5112 4.02656 87.4495 3.76134 87.3419C3.49278 87.1918 3.24382 87.0187 3.01446 86.8227C2.28385 86.238 1.65457 85.5812 1.12664 84.8523C0.887272 84.5287 0.690442 84.2017 0.536148 83.8714C0.381854 83.5411 0.270098 83.2075 0.200877 82.8706C0.141664 82.6612 0.146253 82.4469 0.214646 82.2275C0.283042 82.0082 0.446516 81.9098 0.705067 81.9323C3.5358 82.0099 6.32566 82.1121 9.07465 82.2389C11.8203 82.3232 14.6102 82.4254 17.4442 82.5455C21.4793 82.6999 25.4931 82.8559 29.4857 83.0136C159.137 82.8861 505.209 60.7418 509.238 60.8111C517.464 60.9363 525.688 60.7408 533.907 60.2246C534.205 60.2013 534.488 60.2647 534.757 60.4148C535.068 60.5616 535.338 60.733 535.567 60.929C536.291 61.4286 536.919 62.0641 537.45 62.8356C537.689 63.1593 537.886 63.4862 538.041 63.8165C538.195 64.1468 538.307 64.4804 538.376 64.8173C538.435 65.0267 538.43 65.241 538.362 65.4604C538.29 65.6372 538.127 65.7356 537.872 65.7556C535.018 65.9366 532.185 66.0946 529.371 66.2297C526.511 66.3255 523.648 66.3789 520.781 66.3897C516.717 66.4088 512.692 66.3821 508.706 66.3095C504.674 66.1976 158.558 88.324 28.8213 88.4582C24.7862 88.3038 20.7724 88.1478 16.7799 87.9901C12.7414 87.7932 8.70635 87.6389 4.67461 87.5271Z" fill="url(#paint0_linear_403_2)"/>
<path d="M54.3218 11.1376C54.4925 11.1376 54.6418 11.2016 54.7698 11.3296C54.9405 11.4149 55.0258 11.5856 55.0258 11.8416C54.9831 12.1829 54.8765 12.4816 54.7058 12.7376C54.5351 12.9936 54.3645 13.2283 54.1938 13.4416C53.7671 13.9963 53.2978 14.4869 52.7858 14.9136C52.2738 15.2976 51.7191 15.5536 51.1218 15.6816C50.7805 15.7669 50.5458 15.8309 50.4178 15.8736C50.3751 15.9163 50.3325 15.9376 50.2898 15.9376C50.2471 15.9376 50.2045 15.9589 50.1618 16.0016L49.7778 16.1936C49.6925 16.2363 49.6285 16.2789 49.5858 16.3216C49.5858 16.3216 49.5431 16.3429 49.4578 16.3856C49.4578 16.3856 49.4365 16.4069 49.3938 16.4496C49.3085 16.4923 49.1805 16.5989 49.0098 16.7696H48.9458C48.7751 16.9403 48.6471 17.0896 48.5618 17.2176C48.1778 17.5163 47.8365 17.8576 47.5378 18.2416C47.4525 18.3269 47.3885 18.4123 47.3458 18.4976C47.2605 18.5829 47.1965 18.6469 47.1538 18.6896C47.1111 18.6896 47.0685 18.7323 47.0258 18.8176C46.1298 19.8416 45.2125 20.8229 44.2738 21.7616C43.6338 22.4016 42.9725 22.8709 42.2898 23.1696C42.0765 23.2549 41.8205 23.3403 41.5218 23.4256C41.2658 23.5109 41.0311 23.4896 40.8178 23.3616C40.6045 23.2763 40.4978 23.1269 40.4978 22.9136C40.4978 22.7003 40.5405 22.4869 40.6258 22.2736C40.7538 21.9323 40.9245 21.6123 41.1378 21.3136C41.3938 21.0149 41.6285 20.7589 41.8418 20.5456C42.0551 20.3323 42.2471 20.1189 42.4178 19.9056C42.6311 19.6923 42.8445 19.4789 43.0578 19.2656C43.1431 19.1803 43.2285 19.0736 43.3138 18.9456C43.4418 18.8176 43.5485 18.7109 43.6338 18.6256L43.7618 18.4976C44.1885 18.0283 44.5938 17.5589 44.9778 17.0896C45.4045 16.6203 45.8525 16.1723 46.3218 15.7456C44.9991 15.7456 43.6765 15.7456 42.3538 15.7456C41.0738 15.7029 39.7725 15.6816 38.4498 15.6816C36.4445 15.5963 34.4391 15.5963 32.4338 15.6816C32.3485 15.9376 32.2845 16.1936 32.2418 16.4496C32.1991 16.6629 32.1565 16.8976 32.1138 17.1536C31.8578 18.5189 31.5165 20.2896 31.0898 22.4656C30.7058 24.5989 30.2791 26.9456 29.8098 29.5056C29.3831 32.0656 28.9138 34.7323 28.4018 37.5056C27.8898 40.2363 27.3991 42.8816 26.9298 45.4416C26.4605 48.0016 26.0125 50.3696 25.5858 52.5456C25.1591 54.6789 24.7965 56.4069 24.4978 57.7296C24.4551 58.0709 24.3271 58.4123 24.1138 58.7536C23.9431 59.0096 23.7938 59.2016 23.6658 59.3296C23.4098 59.6709 23.1111 59.9909 22.7698 60.2896C22.4711 60.5456 22.1511 60.7803 21.8098 60.9936C21.5538 61.1643 21.2765 61.3136 20.9778 61.4416C20.6791 61.5696 20.3805 61.6336 20.0818 61.6336C19.9538 61.6336 19.7831 61.5909 19.5698 61.5056C19.3565 61.3776 19.2925 61.1856 19.3778 60.9296C19.7618 59.3083 20.1031 57.6869 20.4018 56.0656C20.7005 54.4016 20.9991 52.7376 21.2978 51.0736C21.4685 50.0069 21.7245 48.5563 22.0658 46.7216C22.4071 44.8443 22.7698 42.7749 23.1538 40.5136C23.5805 38.2523 24.0285 35.8843 24.4978 33.4096C24.9671 30.9349 25.4151 28.5669 25.8418 26.3056C26.2685 24.0443 26.6738 21.9963 27.0578 20.1616C27.4418 18.2843 27.7618 16.8336 28.0178 15.8096C26.3538 15.8949 24.6898 16.0016 23.0258 16.1296C21.3618 16.2576 19.6978 16.4496 18.0338 16.7056C17.3938 16.7909 16.7538 16.8976 16.1138 17.0256C15.5165 17.1109 14.8978 17.2176 14.2578 17.3456C14.4711 17.6016 14.6845 17.8789 14.8978 18.1776C15.1111 18.4336 15.3458 18.6683 15.6018 18.8816C16.0711 19.3509 16.5831 19.7136 17.1378 19.9696C17.3511 20.0549 17.4578 20.2256 17.4578 20.4816C17.4578 20.6949 17.4151 20.9083 17.3298 21.1216C17.2018 21.4629 17.0098 21.7829 16.7538 22.0816C16.5405 22.3376 16.3271 22.5936 16.1138 22.8496C15.4738 23.4896 14.8125 23.9589 14.1298 24.2576C13.9165 24.3429 13.6605 24.4283 13.3618 24.5136C13.1058 24.5563 12.8711 24.5349 12.6578 24.4496C11.7191 24.0656 10.9298 23.4256 10.2898 22.5296C9.6498 21.6336 8.96713 20.8229 8.2418 20.0976C7.77246 19.5429 7.26046 19.1803 6.7058 19.0096C6.49246 18.9243 6.3858 18.7749 6.3858 18.5616C6.34313 18.3483 6.3858 18.1136 6.5138 17.8576C6.59913 17.6016 6.7058 17.3669 6.8338 17.1536C6.9618 16.9403 7.06846 16.7909 7.1538 16.7056C8.13513 15.5963 9.18046 14.8496 10.2898 14.4656C10.6311 14.3803 10.9725 14.2949 11.3138 14.2096C11.6978 14.0816 12.0818 13.9749 12.4658 13.8896C15.2391 13.1643 18.0125 12.6096 20.7858 12.2256C23.5591 11.7989 26.3538 11.4789 29.1698 11.2656C29.2551 11.0949 29.3191 10.9243 29.3618 10.7536C29.4045 10.5829 29.4685 10.3909 29.5538 10.1776C29.6391 9.83627 29.8098 9.51627 30.0658 9.21761C30.3218 8.91894 30.5565 8.66294 30.7698 8.4496C31.0685 8.15094 31.3671 7.89494 31.6658 7.68161C32.0071 7.4256 32.3698 7.21227 32.7538 7.0416C32.9671 6.95627 33.2018 6.87094 33.4578 6.78561C33.7565 6.70027 34.0125 6.7216 34.2258 6.84961C34.4391 6.93494 34.5458 7.08427 34.5458 7.2976C34.5458 7.51094 34.5031 7.72427 34.4178 7.9376C34.2471 8.4496 34.0765 8.98294 33.9058 9.53761C33.7778 10.0496 33.6498 10.5616 33.5218 11.0736H33.5858C37.0418 10.9883 40.4978 10.9883 43.9538 11.0736C47.4098 11.1163 50.8658 11.1376 54.3218 11.1376ZM46.6038 45.5696C46.7745 45.7829 46.7745 46.0389 46.6038 46.3376C46.4331 46.5936 46.3051 46.7856 46.2198 46.9136C45.7078 47.5536 45.0891 48.1083 44.3638 48.5776C44.0225 48.7909 43.6385 48.9829 43.2118 49.1536C42.8278 49.3243 42.4225 49.4523 41.9958 49.5376C41.7825 49.6229 41.5478 49.6656 41.2918 49.6656C41.0358 49.6229 40.8225 49.4949 40.6518 49.2816C40.4811 49.0683 40.3105 48.8976 40.1398 48.7696C39.9691 48.5989 39.7771 48.4069 39.5638 48.1936C39.6065 48.2789 39.6491 48.3429 39.6918 48.3856C39.7345 48.3856 39.7771 48.4069 39.8198 48.4496C39.0518 47.8523 38.1985 47.4683 37.2598 47.2976C37.3451 47.2976 37.4091 47.3189 37.4518 47.3616C37.5371 47.3616 37.6225 47.3616 37.7078 47.3616C37.2385 47.2763 36.7478 47.2763 36.2358 47.3616C36.3638 47.3189 36.5771 47.2976 36.8758 47.2976C36.7478 47.2976 36.6198 47.3189 36.4918 47.3616C36.4065 47.3616 36.2998 47.3616 36.1718 47.3616C36.1291 47.4043 36.0651 47.4256 35.9798 47.4256C36.3211 47.3403 36.5345 47.2976 36.6198 47.2976C36.7051 47.2549 36.6838 47.2549 36.5558 47.2976C36.4705 47.2976 36.4065 47.3189 36.3638 47.3616C36.3638 47.3616 36.3211 47.3616 36.2358 47.3616C36.1931 47.4043 36.1291 47.4256 36.0438 47.4256C36.3851 47.2976 36.5985 47.2123 36.6838 47.1696C36.8118 47.0843 36.8118 47.0843 36.6838 47.1696C36.5985 47.2123 36.5345 47.2549 36.4918 47.2976C36.4918 47.2976 36.4491 47.3189 36.3638 47.3616C36.3638 47.3616 36.3211 47.3829 36.2358 47.4256C36.5771 47.2123 36.8118 47.0843 36.9398 47.0416C37.0678 46.9563 37.0465 46.9563 36.8758 47.0416C36.8331 47.0843 36.7905 47.1269 36.7478 47.1696C36.7051 47.1696 36.6625 47.1909 36.6198 47.2336C36.4918 47.3189 36.4491 47.3403 36.4918 47.2976C36.5771 47.2123 36.6838 47.1269 36.8118 47.0416C36.9398 46.9563 37.0465 46.8923 37.1318 46.8496C37.2171 46.8069 37.1958 46.8283 37.0678 46.9136C37.0251 46.9563 36.9825 46.9989 36.9398 47.0416C36.8971 47.0416 36.8545 47.0629 36.8118 47.1056C36.7265 47.1909 36.7051 47.2123 36.7478 47.1696C36.8331 47.0843 36.9185 46.9989 37.0038 46.9136C37.1318 46.8283 37.2171 46.7643 37.2598 46.7216C37.3451 46.6363 37.3451 46.6363 37.2598 46.7216L37.1958 46.7856L36.9398 47.0416C36.9398 47.0416 36.8971 47.0843 36.8118 47.1696C37.0251 46.9563 37.1531 46.8069 37.1958 46.7216C37.2811 46.6363 37.2811 46.6576 37.1958 46.7856C37.1105 46.8709 37.0465 46.9563 37.0038 47.0416C36.9185 47.1269 36.8545 47.2123 36.8118 47.2976C36.7691 47.3829 36.7051 47.4683 36.6198 47.5536C36.6625 47.4683 36.7051 47.3829 36.7478 47.2976C36.7905 47.2123 36.8545 47.1269 36.9398 47.0416C36.7691 47.2976 36.6198 47.5749 36.4918 47.8736C36.3638 48.1296 36.2571 48.4283 36.1718 48.7696C36.1718 48.6416 36.2145 48.4923 36.2998 48.3216C35.9585 49.4309 35.9158 50.6683 36.1718 52.0336C36.1718 51.9483 36.1505 51.8843 36.1078 51.8416C36.1078 51.7989 36.1078 51.7349 36.1078 51.6496C36.3638 52.8869 36.8971 54.0816 37.7078 55.2336C38.1345 55.9589 38.6465 56.5349 39.2438 56.9616C39.2011 56.9189 39.1585 56.8976 39.1158 56.8976C39.0731 56.8549 39.0305 56.8123 38.9878 56.7696C39.7985 57.3669 40.6518 57.7296 41.5478 57.8576C41.3771 57.8576 41.2278 57.8363 41.0998 57.7936C41.6118 57.9216 42.1878 57.9429 42.8278 57.8576C42.5718 57.8576 42.3798 57.8789 42.2518 57.9216C42.4651 57.8789 42.6571 57.8576 42.8278 57.8576C42.9985 57.8149 43.1691 57.7723 43.3398 57.7296C43.3825 57.6869 43.4465 57.6656 43.5318 57.6656C42.9771 57.8363 42.7851 57.8789 42.9558 57.7936C43.0411 57.7936 43.0838 57.7936 43.0838 57.7936C43.1265 57.7509 43.1691 57.7296 43.2118 57.7296C43.4678 57.6443 43.6385 57.5803 43.7238 57.5376C43.7665 57.5376 43.7878 57.5376 43.7878 57.5376C43.8305 57.4949 43.8731 57.4736 43.9158 57.4736C43.5745 57.6443 43.3398 57.7509 43.2118 57.7936C43.1265 57.8363 43.1478 57.8149 43.2758 57.7296H43.3398C43.3825 57.6869 43.4038 57.6656 43.4038 57.6656C43.4465 57.6656 43.4891 57.6443 43.5318 57.6016C43.7878 57.5163 43.9585 57.4309 44.0438 57.3456C44.0865 57.3456 44.1078 57.3456 44.1078 57.3456C44.1505 57.3029 44.1931 57.2816 44.2358 57.2816C43.5958 57.6229 43.2971 57.7936 43.3398 57.7936C43.3825 57.7936 43.4678 57.7509 43.5958 57.6656C43.6811 57.5803 43.7665 57.5163 43.8518 57.4736C44.0225 57.3883 44.1718 57.2816 44.2998 57.1536C44.3425 57.1536 44.3638 57.1536 44.3638 57.1536C44.4065 57.1109 44.4491 57.0896 44.4918 57.0896C44.5771 57.0469 44.5771 57.0469 44.4918 57.0896C44.4065 57.1323 44.2998 57.1963 44.1718 57.2816C44.0438 57.3669 43.9371 57.4523 43.8518 57.5376C43.7665 57.5803 43.7665 57.5589 43.8518 57.4736C44.0225 57.3883 44.1078 57.3456 44.1078 57.3456C44.2358 57.2603 44.3851 57.1323 44.5558 56.9616C44.6411 56.9189 44.7478 56.8336 44.8758 56.7056C44.9611 56.6203 44.9611 56.6203 44.8758 56.7056C44.8331 56.7483 44.7478 56.8123 44.6198 56.8976C44.5345 56.9829 44.4491 57.0683 44.3638 57.1536C44.3211 57.1963 44.3638 57.1536 44.4918 57.0256C44.5771 56.9403 44.6411 56.8763 44.6838 56.8336C44.7691 56.7909 44.8545 56.7269 44.9398 56.6416L45.3878 56.1936C45.4305 56.0656 45.5158 55.9803 45.6438 55.9376C45.7291 55.8523 45.7505 55.8309 45.7078 55.8736C45.6651 55.9163 45.6011 55.9803 45.5158 56.0656C45.4305 56.1509 45.3665 56.2363 45.3238 56.3216C45.2811 56.3643 45.3025 56.3429 45.3878 56.2576C45.6438 55.9163 45.8998 55.5749 46.1558 55.2336C46.4545 54.8923 46.7105 54.5296 46.9238 54.1456C46.7531 54.4016 46.6465 54.5723 46.6038 54.6576C46.9451 54.1456 47.2438 53.6123 47.4998 53.0576C47.7558 52.4603 47.9905 51.8416 48.2038 51.2016C48.1185 51.4576 48.0758 51.6283 48.0758 51.7136C48.5451 50.0069 48.6305 48.3856 48.3318 46.8496C48.3745 46.9349 48.3958 47.0629 48.3958 47.2336C48.1825 46.2523 47.7985 45.3563 47.2438 44.5456C46.7318 43.7349 46.0918 43.0309 45.3238 42.4336C45.3665 42.4763 45.4091 42.5189 45.4518 42.5616C45.4945 42.5616 45.5371 42.5829 45.5798 42.6256C44.8971 42.1136 44.1505 41.6656 43.3398 41.2816C42.5718 40.8976 41.7825 40.5776 40.9718 40.3216C40.7158 40.2363 40.5878 40.0869 40.5878 39.8736C40.5878 39.6603 40.6305 39.4683 40.7158 39.2976C40.8865 38.9563 41.0998 38.6576 41.3558 38.4016C41.6118 38.1029 41.8891 37.8469 42.1878 37.6336C42.5291 37.3776 42.8918 37.1429 43.2758 36.9296C43.7025 36.6736 44.1291 36.4816 44.5558 36.3536C44.8545 36.2683 45.1531 36.2043 45.4518 36.1616C45.7505 36.0763 46.0491 36.0763 46.3478 36.1616C48.2678 36.7589 49.9531 37.6336 51.4038 38.7856C52.8118 39.9376 53.7718 41.3456 54.2838 43.0096C54.7105 44.6309 54.7318 46.3163 54.3478 48.0656C53.8358 50.1136 52.9398 52.0123 51.6598 53.7616C50.3798 55.5109 48.9078 57.0256 47.2438 58.3056C46.1771 59.1163 45.0465 59.8416 43.8518 60.4816C42.6998 61.0789 41.4838 61.5483 40.2038 61.8896C39.3505 62.1029 38.4758 62.2309 37.5798 62.2736C36.7265 62.2736 35.8945 62.1029 35.0838 61.7616C34.2731 61.4629 33.5691 61.0149 32.9718 60.4176C32.3745 59.8203 31.8411 59.1589 31.3718 58.4336C30.9878 57.7509 30.6678 57.0469 30.4118 56.3216C30.1558 55.5963 29.9851 54.8496 29.8998 54.0816C29.7718 52.8016 29.9851 51.5003 30.5398 50.1776C30.8811 49.3243 31.3291 48.5776 31.8838 47.9376C32.4811 47.2549 33.1211 46.6149 33.8038 46.0176C34.6145 45.3349 35.4891 44.7589 36.4278 44.2896C37.4091 43.7776 38.4118 43.4149 39.4358 43.2016C40.0758 43.0309 40.7371 42.9669 41.4198 43.0096C42.1451 43.0096 42.8278 43.1163 43.4678 43.3296C44.0651 43.5429 44.6198 43.8629 45.1318 44.2896C45.6865 44.6736 46.1771 45.1003 46.6038 45.5696ZM82.4078 54.8496C82.4931 55.6176 82.5145 56.4069 82.4718 57.2176C82.4291 57.9856 82.3651 58.7749 82.2798 59.5856C81.9811 61.7189 81.5545 63.7883 80.9998 65.7936C80.4451 67.8416 79.8051 69.8683 79.0798 71.8736C78.7385 72.9829 78.3545 74.0496 77.9278 75.0736C77.5438 76.1403 77.1385 77.2069 76.7118 78.2736C76.5411 78.7429 76.3705 79.1696 76.1998 79.5536C76.0291 79.9803 75.8585 80.4069 75.6878 80.8336C76.2851 80.8336 76.5838 81.0683 76.5838 81.5376C76.5411 81.8789 76.3918 82.2843 76.1358 82.7536C75.7945 83.2656 75.4531 83.7349 75.1118 84.1616C74.8985 84.3749 74.6851 84.5883 74.4718 84.8016C74.3011 85.0576 74.1091 85.2923 73.8958 85.5056C73.3838 85.9323 72.8505 86.3376 72.2958 86.7216C71.7411 87.1483 71.1225 87.4469 70.4398 87.6176C70.1411 87.7029 69.7571 87.8096 69.2878 87.9376C68.8611 88.0656 68.5198 87.9589 68.2638 87.6176C68.1785 87.4043 68.1571 87.2123 68.1998 87.0416C68.2851 86.7856 68.3705 86.5296 68.4558 86.2736C68.5411 86.0603 68.6265 85.8469 68.7118 85.6336C68.9251 85.2069 69.0958 84.7803 69.2238 84.3536C69.3945 83.9269 69.5865 83.5003 69.7998 83.0736C70.6531 80.9829 71.4638 78.8923 72.2318 76.8016C72.9998 74.7536 73.7038 72.6416 74.3438 70.4656C74.5571 69.8683 74.7278 69.2709 74.8558 68.6736C75.0265 68.0763 75.1971 67.4576 75.3678 66.8176C75.5811 65.9216 75.7518 65.0256 75.8798 64.1296C76.0505 63.2336 76.1785 62.3163 76.2638 61.3776C76.3491 60.6523 76.3705 59.9269 76.3278 59.2016C76.3278 58.4763 76.2638 57.7509 76.1358 57.0256C75.8371 55.7029 75.2398 54.6363 74.3438 53.8256C73.6185 53.3989 72.9358 53.1216 72.2958 52.9936C71.5705 52.9509 70.8665 52.9509 70.1838 52.9936C69.7571 53.0363 69.3518 53.1003 68.9678 53.1856C68.5838 53.2709 68.1998 53.3563 67.8158 53.4416C67.7731 53.4416 67.7518 53.4629 67.7518 53.5056C67.6238 53.5483 67.4745 53.5909 67.3038 53.6336C67.1758 53.6336 67.0478 53.6763 66.9198 53.7616C66.3225 53.9323 65.7891 54.1243 65.3198 54.3376C65.1491 54.3803 64.8931 54.4869 64.5518 54.6576C64.4665 54.7003 64.4025 54.7216 64.3598 54.7216C64.3171 54.7216 64.2745 54.7429 64.2318 54.7856C63.9331 54.9136 63.6558 55.0416 63.3998 55.1696C63.1438 55.2976 62.8665 55.4256 62.5678 55.5536C62.3118 55.8523 62.0558 56.1509 61.7998 56.4496C61.5865 56.7483 61.3518 57.0683 61.0958 57.4096C61.0105 59.4576 60.9465 61.4629 60.9038 63.4256C60.8611 65.4309 60.8398 67.4576 60.8398 69.5056C60.8398 69.7616 60.7331 70.0176 60.5198 70.2736C60.3065 70.5723 60.0931 70.8069 59.8798 70.9776C59.5385 71.3189 59.1758 71.6176 58.7918 71.8736C58.4505 72.1296 58.0665 72.3643 57.6398 72.5776C57.5118 72.6629 57.2771 72.7483 56.9358 72.8336C56.6371 72.9616 56.3171 73.0469 55.9758 73.0896C55.6345 73.1749 55.3358 73.1749 55.0798 73.0896C54.8238 73.0469 54.6958 72.8549 54.6958 72.5136C54.6958 67.7349 54.8238 62.9349 55.0798 58.1136C55.0371 58.0283 55.0371 57.9643 55.0798 57.9216C55.0798 57.8363 55.0798 57.7509 55.0798 57.6656C55.1225 57.4949 55.1438 57.3243 55.1438 57.1536C55.1438 56.9829 55.1438 56.7909 55.1438 56.5776C55.3998 52.4389 55.6985 48.3216 56.0398 44.2256C56.4238 40.1296 56.8505 36.0123 57.3198 31.8736C57.7465 27.7349 58.1731 23.6389 58.5998 19.5856C59.0691 15.4896 59.5171 11.3723 59.9438 7.2336C59.9865 6.93494 60.0931 6.65761 60.2638 6.4016C60.4771 6.1456 60.6905 5.91094 60.9038 5.69761C61.5011 5.10027 62.2265 4.58827 63.0798 4.16161C63.4211 3.99094 63.7625 3.8416 64.1038 3.7136C64.4878 3.58561 64.8505 3.52161 65.1918 3.52161C65.4051 3.52161 65.5971 3.58561 65.7678 3.7136C65.9811 3.79894 66.0665 3.96961 66.0238 4.22561C65.8105 6.78561 65.5545 9.36694 65.2558 11.9696C64.9998 14.5296 64.7225 17.0896 64.4238 19.6496C63.9545 23.7883 63.5065 27.8843 63.0798 31.9376C62.6531 35.9909 62.2691 40.0869 61.9278 44.2256C61.8425 45.4629 61.7571 46.6789 61.6718 47.8736C61.5865 49.0683 61.5011 50.2843 61.4158 51.5216L66.2158 45.3776C66.8131 44.5669 67.4105 43.7776 68.0078 43.0096C68.6478 42.2416 69.2451 41.4309 69.7998 40.5776C70.0131 40.2363 70.2905 39.9376 70.6318 39.6816C71.0158 39.3829 71.3785 39.1269 71.7198 38.9136C72.0611 38.7003 72.4238 38.5083 72.8078 38.3376C73.1918 38.1243 73.5971 37.9749 74.0238 37.8896C74.2371 37.8469 74.4718 37.8256 74.7278 37.8256C75.0265 37.8256 75.2611 37.9323 75.4318 38.1456C75.5598 38.3589 75.5385 38.5936 75.3678 38.8496C75.2398 39.1056 75.1331 39.3189 75.0478 39.4896C74.4078 40.4283 73.7465 41.3456 73.0638 42.2416C72.4238 43.0949 71.7411 43.9483 71.0158 44.8016C70.2478 45.8256 69.4585 46.8496 68.6478 47.8736C67.8798 48.8976 67.0905 49.9003 66.2798 50.8816C67.2611 50.4549 68.2638 50.0709 69.2878 49.7296C70.3118 49.3883 71.3571 49.1109 72.4238 48.8976C73.1491 48.7696 73.9171 48.6843 74.7278 48.6416C75.5811 48.5563 76.3918 48.5776 77.1598 48.7056C77.9278 48.8336 78.6531 49.0896 79.3358 49.4736C80.0611 49.8149 80.6585 50.3269 81.1278 51.0096C81.5118 51.5643 81.7891 52.1829 81.9598 52.8656C82.1731 53.5056 82.3225 54.1669 82.4078 54.8496ZM67.6238 53.5056H67.6878C67.4318 53.5909 67.3251 53.6336 67.3678 53.6336C67.4531 53.5909 67.5385 53.5483 67.6238 53.5056ZM99.2838 50.1776C98.0038 50.9029 96.7025 51.5856 95.3798 52.2256C94.0998 52.8229 92.7771 53.3989 91.4118 53.9536L90.4518 54.3376C90.9211 55.0203 91.4758 55.6176 92.1158 56.1296C92.8838 56.7269 93.7158 57.1963 94.6118 57.5376C95.5505 57.8363 96.5105 58.0923 97.4918 58.3056C98.6865 58.4763 99.8598 58.5616 101.012 58.5616C102.206 58.5189 103.401 58.4549 104.596 58.3696C104.681 58.3269 104.766 58.3056 104.852 58.3056C104.98 58.3056 105.086 58.2843 105.172 58.2416C105.385 58.2416 105.62 58.2416 105.876 58.2416C106.174 58.1989 106.388 58.2843 106.516 58.4976C106.686 58.7109 106.686 58.9456 106.516 59.2016C106.388 59.4576 106.26 59.6709 106.132 59.8416C105.62 60.4816 105.001 61.0363 104.276 61.5056C103.934 61.7189 103.55 61.9109 103.124 62.0816C102.74 62.2523 102.334 62.3803 101.908 62.4656C100.585 62.6789 99.2411 62.8283 97.8758 62.9136C96.5531 62.9563 95.2091 62.8923 93.8438 62.7216C92.1798 62.5083 90.5371 62.1029 88.9158 61.5056C87.2945 60.9083 85.9505 59.9269 84.8838 58.5616C84.1158 57.5803 83.6038 56.4709 83.3478 55.2336C83.0918 53.9536 83.0705 52.6949 83.2838 51.4576C83.5825 49.9216 84.1158 48.4923 84.8838 47.1696C85.6945 45.8043 86.6545 44.5883 87.7638 43.5216C89.2145 42.1136 90.8785 40.9189 92.7558 39.9376C94.6331 38.9563 96.5958 38.4229 98.6438 38.3376C100.35 38.2523 101.95 38.5723 103.444 39.2976C104.937 40.0229 106.302 40.9616 107.54 42.1136C107.668 42.4123 107.646 42.6896 107.476 42.9456C107.006 43.7989 106.43 44.5669 105.748 45.2496C105.065 45.9323 104.361 46.5723 103.636 47.1696C102.953 47.7669 102.228 48.3003 101.46 48.7696C100.734 49.2389 100.009 49.7083 99.2838 50.1776ZM92.4358 43.0736C92.3931 43.0736 92.3718 43.0949 92.3718 43.1376C92.3718 43.1376 92.3931 43.1163 92.4358 43.0736ZM89.6838 47.4896C89.2998 48.8976 89.1931 50.2629 89.3638 51.5856C89.4918 51.5429 89.6198 51.5003 89.7478 51.4576C89.8758 51.4149 90.0038 51.3723 90.1318 51.3296C90.6865 51.1163 91.2411 50.9029 91.7958 50.6896C92.3505 50.4763 92.9051 50.2629 93.4598 50.0496L93.8438 49.8576C93.9718 49.8576 94.0785 49.8149 94.1638 49.7296C94.4625 49.6016 94.7398 49.4736 94.9958 49.3456C95.2518 49.2176 95.5291 49.0896 95.8278 48.9616C96.3825 48.7056 96.9371 48.4283 97.4918 48.1296C97.5771 48.0869 97.6625 48.0443 97.7478 48.0016C97.8758 47.9589 97.9825 47.8949 98.0678 47.8096C98.2385 47.7243 98.3451 47.6603 98.3878 47.6176C98.6438 47.4896 98.8785 47.3616 99.0918 47.2336C99.3478 47.0629 99.5825 46.9136 99.7958 46.7856C99.8385 46.7003 99.8811 46.6576 99.9238 46.6576C99.9665 46.6149 100.009 46.5723 100.052 46.5296C100.18 46.4443 100.286 46.3803 100.372 46.3376C100.5 46.2523 100.606 46.1669 100.692 46.0816L100.82 45.9536C100.905 45.8683 100.969 45.8043 101.012 45.7616C101.097 45.6763 101.182 45.5909 101.268 45.5056C101.182 45.4203 101.076 45.3563 100.948 45.3136C100.82 45.2283 100.713 45.1429 100.628 45.0576C99.1345 43.8203 97.5131 43.0523 95.7638 42.7536C95.4225 42.7109 95.1025 42.6896 94.8038 42.6896C94.5051 42.6469 94.1851 42.6469 93.8438 42.6896C93.7585 42.7323 93.6518 42.7536 93.5238 42.7536C93.4385 42.7536 93.3531 42.7749 93.2678 42.8176C93.1398 42.8176 93.0545 42.8389 93.0118 42.8816C92.9265 42.8816 92.7985 42.9243 92.6278 43.0096H92.5638C92.4785 43.0949 92.4145 43.1376 92.3718 43.1376C92.3291 43.1803 92.2865 43.2229 92.2438 43.2656C92.2011 43.2656 92.1585 43.2869 92.1158 43.3296C92.1158 43.3723 92.0731 43.4363 91.9878 43.5216C91.9025 43.5643 91.8385 43.6069 91.7958 43.6496C91.7958 43.6923 91.7531 43.7349 91.6678 43.7776C91.4971 43.9909 91.3478 44.1829 91.2198 44.3536C91.0918 44.5243 90.9638 44.7163 90.8358 44.9296C90.3238 45.6549 89.9398 46.5083 89.6838 47.4896ZM130.315 37.1856C130.613 37.7829 130.805 38.4443 130.891 39.1696C130.976 39.8523 130.976 40.5349 130.891 41.2176C130.805 42.1563 130.656 43.0736 130.443 43.9696C130.272 44.8229 130.037 45.6763 129.739 46.5296C129.056 48.5776 128.245 50.5616 127.307 52.4816C126.411 54.4016 125.451 56.3003 124.427 58.1776C122.208 62.0176 119.797 65.8363 117.195 69.6336C116.299 70.8709 115.381 72.1083 114.443 73.3456C113.547 74.6256 112.544 75.8203 111.435 76.9296C110.752 77.5696 110.005 78.0816 109.195 78.4656C108.853 78.6363 108.491 78.7643 108.107 78.8496C107.765 78.9776 107.424 79.0416 107.083 79.0416C106.869 79.0416 106.677 78.9989 106.507 78.9136C106.293 78.8283 106.208 78.6576 106.251 78.4016C106.293 78.1029 106.421 77.8256 106.635 77.5696C106.805 77.3136 106.997 77.0789 107.211 76.8656L107.531 76.5456C107.616 76.4603 107.659 76.3963 107.659 76.3536C107.872 76.1403 108.064 75.9056 108.235 75.6496C108.448 75.3936 108.661 75.1376 108.875 74.8816C109.984 73.4736 111.051 72.0016 112.075 70.4656C113.141 68.9723 114.165 67.4576 115.147 65.9216C115.829 64.8976 116.469 63.8736 117.067 62.8496C117.707 61.7829 118.325 60.7163 118.923 59.6496C119.904 57.8149 120.843 55.9589 121.739 54.0816C122.635 52.2043 123.381 50.2629 123.979 48.2576C124.32 47.2336 124.576 46.1883 124.747 45.1216C124.917 44.0549 124.896 42.9883 124.683 41.9216C124.469 41.0256 124.043 40.2789 123.403 39.6816C122.933 39.3403 122.485 39.1269 122.059 39.0416H121.611H121.547L121.483 39.1056C121.397 39.1909 121.333 39.2549 121.291 39.2976C121.248 39.2976 121.184 39.3403 121.099 39.4256C121.056 39.4256 120.992 39.4683 120.907 39.5536C120.693 39.7669 120.501 39.9589 120.331 40.1296C120.16 40.2576 119.989 40.4283 119.819 40.6416C119.733 40.7269 119.627 40.8336 119.499 40.9616C119.413 41.0469 119.349 41.1323 119.307 41.2176C119.179 41.2603 119.093 41.3456 119.051 41.4736C118.837 41.6869 118.645 41.9216 118.475 42.1776C118.304 42.3909 118.133 42.6043 117.963 42.8176C117.365 43.5856 116.768 44.4389 116.171 45.3776C116.256 45.2923 116.299 45.2069 116.299 45.1216C116.341 45.0363 116.405 44.9509 116.491 44.8656C116.277 45.1643 116.085 45.4629 115.915 45.7616C115.744 46.0603 115.595 46.3803 115.467 46.7216C115.424 46.9776 115.296 47.2763 115.083 47.6176C115.04 48.8549 114.997 50.1136 114.955 51.3936C114.955 52.6309 114.912 53.8896 114.827 55.1696C114.784 55.8096 114.741 56.4496 114.699 57.0896C114.699 57.7296 114.635 58.3696 114.507 59.0096C114.507 59.1376 114.485 59.2869 114.443 59.4576C114.4 59.5856 114.357 59.7136 114.315 59.8416C114.229 60.0549 114.101 60.2683 113.931 60.4816C113.76 60.6523 113.589 60.8229 113.419 60.9936C113.205 61.2069 112.971 61.4203 112.715 61.6336C112.459 61.8043 112.224 61.9536 112.011 62.0816C111.797 62.2096 111.52 62.3589 111.179 62.5296C110.88 62.7003 110.603 62.8283 110.347 62.9136C110.091 62.9989 109.707 63.0843 109.195 63.1696C108.725 63.2549 108.384 63.1269 108.171 62.7856C108.128 62.7003 108.107 62.6363 108.107 62.5936C108.107 62.5083 108.085 62.4229 108.043 62.3376C107.915 62.1243 107.936 61.8683 108.107 61.5696C108.192 61.4843 108.235 61.3989 108.235 61.3136C108.277 61.2283 108.341 61.1429 108.427 61.0576C108.469 61.0149 108.491 60.9936 108.491 60.9936C108.491 60.9509 108.512 60.9083 108.555 60.8656C108.64 60.0123 108.683 59.1803 108.683 58.3696C108.725 57.5589 108.768 56.7269 108.811 55.8736C108.853 54.7216 108.875 53.5909 108.875 52.4816C108.917 51.3296 108.939 50.1989 108.939 49.0896C108.981 47.1269 109.003 45.1856 109.003 43.2656C109.003 41.3456 109.003 39.4043 109.003 37.4416C109.003 37.1429 109.109 36.8656 109.323 36.6096C109.536 36.3536 109.749 36.1189 109.963 35.9056C110.603 35.2656 111.349 34.7536 112.203 34.3696C112.331 34.3269 112.544 34.2416 112.843 34.1136C113.184 33.9856 113.525 33.9003 113.867 33.8576C114.208 33.7723 114.507 33.7723 114.763 33.8576C115.019 33.9003 115.147 34.0923 115.147 34.4336C115.147 35.5429 115.147 36.6523 115.147 37.7616C115.147 38.8709 115.125 39.9803 115.083 41.0896C115.637 40.5349 116.192 40.0016 116.747 39.4896C117.301 38.9776 117.877 38.4869 118.475 38.0176C119.243 37.4203 120.032 36.9083 120.843 36.4816C121.653 36.0123 122.507 35.6069 123.403 35.2656C124.043 35.0523 124.704 34.8816 125.387 34.7536C126.112 34.6256 126.816 34.6683 127.499 34.8816C128.096 35.0949 128.629 35.3936 129.099 35.7776C129.611 36.1616 130.016 36.6309 130.315 37.1856ZM121.099 39.4256C121.099 39.3403 121.141 39.2976 121.227 39.2976C121.227 39.2976 121.184 39.3403 121.099 39.4256ZM107.723 76.3536C107.68 76.3536 107.659 76.3749 107.659 76.4176C107.829 76.2043 107.893 76.1189 107.851 76.1616C107.851 76.2043 107.808 76.2683 107.723 76.3536ZM171.157 44.7376C171.499 45.7616 171.691 46.8283 171.733 47.9376C171.776 49.0043 171.755 50.0923 171.669 51.2016C171.584 52.4389 171.435 53.6549 171.221 54.8496C171.008 56.0016 170.773 57.1749 170.517 58.3696C170.005 60.4176 169.408 62.4443 168.725 64.4496C168.085 66.4549 167.467 68.4816 166.869 70.5296L166.677 71.2976C166.464 72.0229 166.037 72.6416 165.397 73.1536C164.757 73.6656 164.117 74.0709 163.477 74.3696C163.136 74.5403 162.773 74.6896 162.389 74.8176C162.048 74.9456 161.707 75.0096 161.365 75.0096C161.195 75.0096 160.981 74.9456 160.725 74.8176C160.512 74.7323 160.448 74.5616 160.533 74.3056C160.875 72.9829 161.259 71.6603 161.685 70.3376C162.155 69.0576 162.603 67.7349 163.029 66.3696C163.2 65.7723 163.371 65.1536 163.541 64.5136C163.712 63.9163 163.883 63.2976 164.053 62.6576C164.352 61.4629 164.608 60.2896 164.821 59.1376C165.077 57.9429 165.291 56.7269 165.461 55.4896C165.589 54.4229 165.653 53.3563 165.653 52.2896C165.696 51.2229 165.611 50.1776 165.397 49.1536C165.184 48.4283 164.907 47.7243 164.565 47.0416C164.224 46.3163 163.755 45.7189 163.157 45.2496C162.56 44.8229 161.92 44.5029 161.237 44.2896C160.64 45.3989 160.192 46.5083 159.893 47.6176L159.701 48.1936C159.445 49.1749 159.211 50.1989 158.997 51.2656C158.827 52.2896 158.656 53.3136 158.485 54.3376C158.357 55.1483 158.251 55.9376 158.165 56.7056C158.08 57.4736 157.973 58.2416 157.845 59.0096C157.76 59.3509 157.632 59.6496 157.461 59.9056C157.291 60.1189 157.099 60.3323 156.885 60.5456C156.245 61.1856 155.499 61.6976 154.645 62.0816C154.517 62.1669 154.283 62.2736 153.941 62.4016C153.643 62.5296 153.323 62.6363 152.981 62.7216C152.64 62.7643 152.341 62.7429 152.085 62.6576C151.829 62.5723 151.701 62.3589 151.701 62.0176C151.701 59.5856 151.68 57.1749 151.637 54.7856C151.595 52.3536 151.531 49.9216 151.445 47.4896C151.317 43.7776 151.061 40.1083 150.677 36.4816C150.336 32.8123 149.803 29.1643 149.077 25.5376C148.608 23.6176 148.096 21.6976 147.541 19.7776C147.456 19.5216 147.456 19.2869 147.541 19.0736C147.627 18.8603 147.755 18.6469 147.925 18.4336C148.181 18.0923 148.48 17.7936 148.821 17.5376C149.163 17.2816 149.504 17.0469 149.845 16.8336C150.187 16.6203 150.549 16.4283 150.933 16.2576C151.317 16.0443 151.723 15.8949 152.149 15.8096C152.277 15.7669 152.512 15.7456 152.853 15.7456C153.237 15.7456 153.472 15.8523 153.557 16.0656C154.581 19.3936 155.349 22.7643 155.861 26.1776C156.416 29.5483 156.821 32.9616 157.077 36.4176C157.163 37.5696 157.248 38.7429 157.333 39.9376C157.419 41.0896 157.483 42.2629 157.525 43.4576C158.293 42.6896 159.104 42.0283 159.957 41.4736C160.683 41.0469 161.451 40.6843 162.261 40.3856C163.115 40.0443 163.968 39.8736 164.821 39.8736C165.845 39.8736 166.827 40.1083 167.765 40.5776C168.619 41.0043 169.323 41.5803 169.877 42.3056C170.432 43.0309 170.859 43.8416 171.157 44.7376ZM161.173 43.8416C161.131 43.8416 161.109 43.8629 161.109 43.9056C161.152 43.8629 161.173 43.8416 161.173 43.8416ZM188.916 45.5696C189.087 45.7829 189.087 46.0389 188.916 46.3376C188.746 46.5936 188.618 46.7856 188.532 46.9136C188.02 47.5536 187.402 48.1083 186.676 48.5776C186.335 48.7909 185.951 48.9829 185.524 49.1536C185.14 49.3243 184.735 49.4523 184.308 49.5376C184.095 49.6229 183.86 49.6656 183.604 49.6656C183.348 49.6229 183.135 49.4949 182.964 49.2816C182.794 49.0683 182.623 48.8976 182.452 48.7696C182.282 48.5989 182.09 48.4069 181.876 48.1936C181.919 48.2789 181.962 48.3429 182.004 48.3856C182.047 48.3856 182.09 48.4069 182.132 48.4496C181.364 47.8523 180.511 47.4683 179.572 47.2976C179.658 47.2976 179.722 47.3189 179.764 47.3616C179.85 47.3616 179.935 47.3616 180.02 47.3616C179.551 47.2763 179.06 47.2763 178.548 47.3616C178.676 47.3189 178.89 47.2976 179.188 47.2976C179.06 47.2976 178.932 47.3189 178.804 47.3616C178.719 47.3616 178.612 47.3616 178.484 47.3616C178.442 47.4043 178.378 47.4256 178.292 47.4256C178.634 47.3403 178.847 47.2976 178.932 47.2976C179.018 47.2549 178.996 47.2549 178.868 47.2976C178.783 47.2976 178.719 47.3189 178.676 47.3616C178.676 47.3616 178.634 47.3616 178.548 47.3616C178.506 47.4043 178.442 47.4256 178.356 47.4256C178.698 47.2976 178.911 47.2123 178.996 47.1696C179.124 47.0843 179.124 47.0843 178.996 47.1696C178.911 47.2123 178.847 47.2549 178.804 47.2976C178.804 47.2976 178.762 47.3189 178.676 47.3616C178.676 47.3616 178.634 47.3829 178.548 47.4256C178.89 47.2123 179.124 47.0843 179.252 47.0416C179.38 46.9563 179.359 46.9563 179.188 47.0416C179.146 47.0843 179.103 47.1269 179.06 47.1696C179.018 47.1696 178.975 47.1909 178.932 47.2336C178.804 47.3189 178.762 47.3403 178.804 47.2976C178.89 47.2123 178.996 47.1269 179.124 47.0416C179.252 46.9563 179.359 46.8923 179.444 46.8496C179.53 46.8069 179.508 46.8283 179.38 46.9136C179.338 46.9563 179.295 46.9989 179.252 47.0416C179.21 47.0416 179.167 47.0629 179.124 47.1056C179.039 47.1909 179.018 47.2123 179.06 47.1696C179.146 47.0843 179.231 46.9989 179.316 46.9136C179.444 46.8283 179.53 46.7643 179.572 46.7216C179.658 46.6363 179.658 46.6363 179.572 46.7216L179.508 46.7856L179.252 47.0416C179.252 47.0416 179.21 47.0843 179.124 47.1696C179.338 46.9563 179.466 46.8069 179.508 46.7216C179.594 46.6363 179.594 46.6576 179.508 46.7856C179.423 46.8709 179.359 46.9563 179.316 47.0416C179.231 47.1269 179.167 47.2123 179.124 47.2976C179.082 47.3829 179.018 47.4683 178.932 47.5536C178.975 47.4683 179.018 47.3829 179.06 47.2976C179.103 47.2123 179.167 47.1269 179.252 47.0416C179.082 47.2976 178.932 47.5749 178.804 47.8736C178.676 48.1296 178.57 48.4283 178.484 48.7696C178.484 48.6416 178.527 48.4923 178.612 48.3216C178.271 49.4309 178.228 50.6683 178.484 52.0336C178.484 51.9483 178.463 51.8843 178.42 51.8416C178.42 51.7989 178.42 51.7349 178.42 51.6496C178.676 52.8869 179.21 54.0816 180.02 55.2336C180.447 55.9589 180.959 56.5349 181.556 56.9616C181.514 56.9189 181.471 56.8976 181.428 56.8976C181.386 56.8549 181.343 56.8123 181.3 56.7696C182.111 57.3669 182.964 57.7296 183.86 57.8576C183.69 57.8576 183.54 57.8363 183.412 57.7936C183.924 57.9216 184.5 57.9429 185.14 57.8576C184.884 57.8576 184.692 57.8789 184.564 57.9216C184.778 57.8789 184.97 57.8576 185.14 57.8576C185.311 57.8149 185.482 57.7723 185.652 57.7296C185.695 57.6869 185.759 57.6656 185.844 57.6656C185.29 57.8363 185.098 57.8789 185.268 57.7936C185.354 57.7936 185.396 57.7936 185.396 57.7936C185.439 57.7509 185.482 57.7296 185.524 57.7296C185.78 57.6443 185.951 57.5803 186.036 57.5376C186.079 57.5376 186.1 57.5376 186.1 57.5376C186.143 57.4949 186.186 57.4736 186.228 57.4736C185.887 57.6443 185.652 57.7509 185.524 57.7936C185.439 57.8363 185.46 57.8149 185.588 57.7296H185.652C185.695 57.6869 185.716 57.6656 185.716 57.6656C185.759 57.6656 185.802 57.6443 185.844 57.6016C186.1 57.5163 186.271 57.4309 186.356 57.3456C186.399 57.3456 186.42 57.3456 186.42 57.3456C186.463 57.3029 186.506 57.2816 186.548 57.2816C185.908 57.6229 185.61 57.7936 185.652 57.7936C185.695 57.7936 185.78 57.7509 185.908 57.6656C185.994 57.5803 186.079 57.5163 186.164 57.4736C186.335 57.3883 186.484 57.2816 186.612 57.1536C186.655 57.1536 186.676 57.1536 186.676 57.1536C186.719 57.1109 186.762 57.0896 186.804 57.0896C186.89 57.0469 186.89 57.0469 186.804 57.0896C186.719 57.1323 186.612 57.1963 186.484 57.2816C186.356 57.3669 186.25 57.4523 186.164 57.5376C186.079 57.5803 186.079 57.5589 186.164 57.4736C186.335 57.3883 186.42 57.3456 186.42 57.3456C186.548 57.2603 186.698 57.1323 186.868 56.9616C186.954 56.9189 187.06 56.8336 187.188 56.7056C187.274 56.6203 187.274 56.6203 187.188 56.7056C187.146 56.7483 187.06 56.8123 186.932 56.8976C186.847 56.9829 186.762 57.0683 186.676 57.1536C186.634 57.1963 186.676 57.1536 186.804 57.0256C186.89 56.9403 186.954 56.8763 186.996 56.8336C187.082 56.7909 187.167 56.7269 187.252 56.6416L187.7 56.1936C187.743 56.0656 187.828 55.9803 187.956 55.9376C188.042 55.8523 188.063 55.8309 188.02 55.8736C187.978 55.9163 187.914 55.9803 187.828 56.0656C187.743 56.1509 187.679 56.2363 187.636 56.3216C187.594 56.3643 187.615 56.3429 187.7 56.2576C187.956 55.9163 188.212 55.5749 188.468 55.2336C188.767 54.8923 189.023 54.5296 189.236 54.1456C189.066 54.4016 188.959 54.5723 188.916 54.6576C189.258 54.1456 189.556 53.6123 189.812 53.0576C190.068 52.4603 190.303 51.8416 190.516 51.2016C190.431 51.4576 190.388 51.6283 190.388 51.7136C190.858 50.0069 190.943 48.3856 190.644 46.8496C190.687 46.9349 190.708 47.0629 190.708 47.2336C190.495 46.2523 190.111 45.3563 189.556 44.5456C189.044 43.7349 188.404 43.0309 187.636 42.4336C187.679 42.4763 187.722 42.5189 187.764 42.5616C187.807 42.5616 187.85 42.5829 187.892 42.6256C187.21 42.1136 186.463 41.6656 185.652 41.2816C184.884 40.8976 184.095 40.5776 183.284 40.3216C183.028 40.2363 182.9 40.0869 182.9 39.8736C182.9 39.6603 182.943 39.4683 183.028 39.2976C183.199 38.9563 183.412 38.6576 183.668 38.4016C183.924 38.1029 184.202 37.8469 184.5 37.6336C184.842 37.3776 185.204 37.1429 185.588 36.9296C186.015 36.6736 186.442 36.4816 186.868 36.3536C187.167 36.2683 187.466 36.2043 187.764 36.1616C188.063 36.0763 188.362 36.0763 188.66 36.1616C190.58 36.7589 192.266 37.6336 193.716 38.7856C195.124 39.9376 196.084 41.3456 196.596 43.0096C197.023 44.6309 197.044 46.3163 196.66 48.0656C196.148 50.1136 195.252 52.0123 193.972 53.7616C192.692 55.5109 191.22 57.0256 189.556 58.3056C188.49 59.1163 187.359 59.8416 186.164 60.4816C185.012 61.0789 183.796 61.5483 182.516 61.8896C181.663 62.1029 180.788 62.2309 179.892 62.2736C179.039 62.2736 178.207 62.1029 177.396 61.7616C176.586 61.4629 175.882 61.0149 175.284 60.4176C174.687 59.8203 174.154 59.1589 173.684 58.4336C173.3 57.7509 172.98 57.0469 172.724 56.3216C172.468 55.5963 172.298 54.8496 172.212 54.0816C172.084 52.8016 172.298 51.5003 172.852 50.1776C173.194 49.3243 173.642 48.5776 174.196 47.9376C174.794 47.2549 175.434 46.6149 176.116 46.0176C176.927 45.3349 177.802 44.7589 178.74 44.2896C179.722 43.7776 180.724 43.4149 181.748 43.2016C182.388 43.0309 183.05 42.9669 183.732 43.0096C184.458 43.0096 185.14 43.1163 185.78 43.3296C186.378 43.5429 186.932 43.8629 187.444 44.2896C187.999 44.6736 188.49 45.1003 188.916 45.5696ZM236.048 56.0656C236.219 56.2789 236.219 56.5136 236.048 56.7696C235.92 57.0256 235.792 57.2389 235.664 57.4096C235.152 58.0496 234.534 58.6043 233.808 59.0736C233.04 59.5429 232.251 59.8629 231.44 60.0336C229.563 60.4603 227.686 60.8656 225.808 61.2496C223.931 61.5909 222.032 61.8683 220.112 62.0816C218.832 62.2523 217.552 62.3803 216.272 62.4656C215.035 62.5509 213.776 62.5509 212.496 62.4656C211.344 62.3803 210.192 62.2523 209.04 62.0816C207.888 61.9109 206.779 61.6123 205.712 61.1856C204.731 60.8443 203.814 60.3963 202.96 59.8416C202.15 59.2443 201.446 58.5189 200.848 57.6656C200.507 57.2389 200.23 56.8123 200.016 56.3856C199.846 55.9163 199.675 55.4469 199.504 54.9776C199.334 54.3803 199.184 53.8043 199.056 53.2496C198.971 52.6523 198.928 52.0549 198.928 51.4576C198.886 50.4763 199.014 49.5163 199.312 48.5776C199.611 47.6389 200.08 46.7856 200.72 46.0176C201.702 44.7803 202.854 43.7776 204.176 43.0096C205.542 42.2416 206.971 41.6443 208.464 41.2176C209.403 40.9616 210.342 40.8123 211.28 40.7696C212.262 40.7269 213.243 40.7483 214.224 40.8336C215.248 40.9616 216.251 41.1536 217.232 41.4096C218.256 41.6229 219.259 41.9429 220.24 42.3696C220.752 42.5829 221.243 42.8176 221.712 43.0736C222.224 43.2869 222.715 43.5643 223.184 43.9056C223.184 43.8203 223.184 43.7349 223.184 43.6496C223.227 43.5643 223.248 43.4789 223.248 43.3936C223.59 39.5109 224.102 35.6923 224.784 31.9376C225.467 28.1403 226.32 24.3643 227.344 20.6096C227.558 19.8843 227.984 19.2656 228.624 18.7536C229.264 18.2416 229.883 17.8363 230.48 17.5376C230.822 17.3669 231.163 17.2176 231.504 17.0896C231.888 16.9616 232.251 16.8976 232.592 16.8976C232.763 16.8976 232.955 16.9616 233.168 17.0896C233.424 17.1749 233.51 17.3243 233.424 17.5376C232.998 19.0736 232.614 20.6096 232.272 22.1456C231.931 23.6389 231.611 25.1536 231.312 26.6896C230.544 30.5723 229.947 34.4549 229.52 38.3376C229.136 42.2203 229.008 47.1909 229.136 53.2496C229.136 53.5483 229.008 53.8256 228.752 54.0816C228.539 54.3376 228.347 54.5723 228.176 54.7856C227.494 55.3829 226.747 55.8949 225.936 56.3216C225.595 56.4923 225.232 56.6416 224.848 56.7696C224.507 56.8549 224.166 56.8976 223.824 56.8976C223.526 56.9403 223.27 56.8549 223.056 56.6416C222.8 53.9109 222.288 52.1189 221.52 51.2656C220.752 50.3696 220.006 49.6229 219.28 49.0256C218 48.0443 216.592 47.2549 215.056 46.6576C213.563 46.0176 212.027 45.5483 210.448 45.2496C209.083 45.0363 207.824 44.9936 206.672 45.1216C206.459 45.1643 206.267 45.1856 206.096 45.1856C205.968 45.1856 205.819 45.2283 205.648 45.3136C205.563 45.4416 205.499 45.5909 205.456 45.7616C205.414 45.8896 205.35 46.0176 205.264 46.1456C205.051 46.8709 204.966 47.5749 205.008 48.2576C205.051 48.9403 205.136 49.6443 205.264 50.3696C205.392 50.8816 205.542 51.3936 205.712 51.9056C205.883 52.4176 206.118 52.9083 206.416 53.3776C206.886 54.1456 207.526 54.8709 208.336 55.5536C209.19 56.1936 210.107 56.6843 211.088 57.0256C212.112 57.3669 213.136 57.6443 214.16 57.8576C215.739 58.0709 217.296 58.1776 218.832 58.1776C220.411 58.1349 221.99 58.0283 223.568 57.8576C225.488 57.6443 227.366 57.3669 229.2 57.0256C231.035 56.6416 232.87 56.2576 234.704 55.8736C234.918 55.7883 235.152 55.7456 235.408 55.7456C235.707 55.7456 235.92 55.8523 236.048 56.0656ZM205.52 45.3136C205.52 45.3563 205.542 45.3563 205.584 45.3136H205.52ZM205.84 45.0576C206.054 44.8443 206.118 44.7589 206.032 44.8016C205.99 44.8443 205.926 44.9083 205.84 44.9936V45.0576ZM240.187 4.2896C240.229 3.94827 240.315 3.6496 240.443 3.3936C240.613 3.13761 240.805 2.90294 241.019 2.68961C241.659 2.00694 242.363 1.43094 243.131 0.961605C243.472 0.748272 243.813 0.577605 244.155 0.449604C244.496 0.321603 244.837 0.23627 245.179 0.193604C245.392 0.150937 245.605 0.17227 245.819 0.257603C246.032 0.342937 246.117 0.513604 246.075 0.769604C245.776 3.5856 245.456 6.35894 245.115 9.0896C244.816 11.8203 244.496 14.5936 244.155 17.4096C243.685 21.4203 243.216 25.4096 242.747 29.3776C242.277 33.3456 241.851 37.3349 241.467 41.3456C240.699 49.5376 240.251 57.7509 240.123 65.9856C240.123 66.2843 240.037 66.5616 239.867 66.8176C239.696 67.1163 239.504 67.3723 239.291 67.5856C238.736 68.2683 238.053 68.8443 237.243 69.3136C236.901 69.5269 236.56 69.6976 236.219 69.8256C235.877 69.9536 235.536 70.0389 235.195 70.0816C234.981 70.1243 234.768 70.1029 234.555 70.0176C234.384 69.9323 234.299 69.7616 234.299 69.5056C234.341 66.6469 234.405 63.8096 234.491 60.9936C234.619 58.1349 234.789 55.2763 235.003 52.4176C235.301 48.3643 235.643 44.3536 236.027 40.3856C236.453 36.3749 236.901 32.3429 237.371 28.2896C237.84 24.2789 238.309 20.2896 238.779 16.3216C239.291 12.3109 239.76 8.30027 240.187 4.2896ZM258.096 50.1776C256.816 50.9029 255.515 51.5856 254.192 52.2256C252.912 52.8229 251.59 53.3989 250.224 53.9536L249.264 54.3376C249.734 55.0203 250.288 55.6176 250.928 56.1296C251.696 56.7269 252.528 57.1963 253.424 57.5376C254.363 57.8363 255.323 58.0923 256.304 58.3056C257.499 58.4763 258.672 58.5616 259.824 58.5616C261.019 58.5189 262.214 58.4549 263.408 58.3696C263.494 58.3269 263.579 58.3056 263.664 58.3056C263.792 58.3056 263.899 58.2843 263.984 58.2416C264.198 58.2416 264.432 58.2416 264.688 58.2416C264.987 58.1989 265.2 58.2843 265.328 58.4976C265.499 58.7109 265.499 58.9456 265.328 59.2016C265.2 59.4576 265.072 59.6709 264.944 59.8416C264.432 60.4816 263.814 61.0363 263.088 61.5056C262.747 61.7189 262.363 61.9109 261.936 62.0816C261.552 62.2523 261.147 62.3803 260.72 62.4656C259.398 62.6789 258.054 62.8283 256.688 62.9136C255.366 62.9563 254.022 62.8923 252.656 62.7216C250.992 62.5083 249.35 62.1029 247.728 61.5056C246.107 60.9083 244.763 59.9269 243.696 58.5616C242.928 57.5803 242.416 56.4709 242.16 55.2336C241.904 53.9536 241.883 52.6949 242.096 51.4576C242.395 49.9216 242.928 48.4923 243.696 47.1696C244.507 45.8043 245.467 44.5883 246.576 43.5216C248.027 42.1136 249.691 40.9189 251.568 39.9376C253.446 38.9563 255.408 38.4229 257.456 38.3376C259.163 38.2523 260.763 38.5723 262.256 39.2976C263.75 40.0229 265.115 40.9616 266.352 42.1136C266.48 42.4123 266.459 42.6896 266.288 42.9456C265.819 43.7989 265.243 44.5669 264.56 45.2496C263.878 45.9323 263.174 46.5723 262.448 47.1696C261.766 47.7669 261.04 48.3003 260.272 48.7696C259.547 49.2389 258.822 49.7083 258.096 50.1776ZM251.248 43.0736C251.206 43.0736 251.184 43.0949 251.184 43.1376C251.184 43.1376 251.206 43.1163 251.248 43.0736ZM248.496 47.4896C248.112 48.8976 248.006 50.2629 248.176 51.5856C248.304 51.5429 248.432 51.5003 248.56 51.4576C248.688 51.4149 248.816 51.3723 248.944 51.3296C249.499 51.1163 250.054 50.9029 250.608 50.6896C251.163 50.4763 251.718 50.2629 252.272 50.0496L252.656 49.8576C252.784 49.8576 252.891 49.8149 252.976 49.7296C253.275 49.6016 253.552 49.4736 253.808 49.3456C254.064 49.2176 254.342 49.0896 254.64 48.9616C255.195 48.7056 255.75 48.4283 256.304 48.1296C256.39 48.0869 256.475 48.0443 256.56 48.0016C256.688 47.9589 256.795 47.8949 256.88 47.8096C257.051 47.7243 257.158 47.6603 257.2 47.6176C257.456 47.4896 257.691 47.3616 257.904 47.2336C258.16 47.0629 258.395 46.9136 258.608 46.7856C258.651 46.7003 258.694 46.6576 258.736 46.6576C258.779 46.6149 258.822 46.5723 258.864 46.5296C258.992 46.4443 259.099 46.3803 259.184 46.3376C259.312 46.2523 259.419 46.1669 259.504 46.0816L259.632 45.9536C259.718 45.8683 259.782 45.8043 259.824 45.7616C259.91 45.6763 259.995 45.5909 260.08 45.5056C259.995 45.4203 259.888 45.3563 259.76 45.3136C259.632 45.2283 259.526 45.1429 259.44 45.0576C257.947 43.8203 256.326 43.0523 254.576 42.7536C254.235 42.7109 253.915 42.6896 253.616 42.6896C253.318 42.6469 252.998 42.6469 252.656 42.6896C252.571 42.7323 252.464 42.7536 252.336 42.7536C252.251 42.7536 252.166 42.7749 252.08 42.8176C251.952 42.8176 251.867 42.8389 251.824 42.8816C251.739 42.8816 251.611 42.9243 251.44 43.0096H251.376C251.291 43.0949 251.227 43.1376 251.184 43.1376C251.142 43.1803 251.099 43.2229 251.056 43.2656C251.014 43.2656 250.971 43.2869 250.928 43.3296C250.928 43.3723 250.886 43.4363 250.8 43.5216C250.715 43.5643 250.651 43.6069 250.608 43.6496C250.608 43.6923 250.566 43.7349 250.48 43.7776C250.31 43.9909 250.16 44.1829 250.032 44.3536C249.904 44.5243 249.776 44.7163 249.648 44.9296C249.136 45.6549 248.752 46.5083 248.496 47.4896ZM282.855 34.8176C282.983 34.7749 283.197 34.6896 283.495 34.5616C283.837 34.4336 284.157 34.3483 284.455 34.3056C284.797 34.2203 285.095 34.2203 285.351 34.3056C285.607 34.3483 285.735 34.5403 285.735 34.8816C285.735 36.9723 285.33 38.9989 284.519 40.9616C283.751 42.9243 282.749 44.7376 281.511 46.4016C281.085 47.0416 280.466 47.5749 279.655 48.0016C278.887 48.5136 278.119 48.8549 277.351 49.0256C277.138 49.0683 276.882 49.0896 276.583 49.0896C276.285 49.0896 276.071 48.9829 275.943 48.7696C275.815 48.5563 275.815 48.3216 275.943 48.0656C276.114 47.8096 276.242 47.6176 276.327 47.4896C276.455 47.2763 276.583 47.1056 276.711 46.9776C276.839 46.8069 276.967 46.6149 277.095 46.4016C277.479 45.7189 277.842 45.0363 278.183 44.3536C278.525 43.6283 278.802 42.9029 279.015 42.1776C279.143 41.7509 279.229 41.3456 279.271 40.9616C279.357 40.5349 279.442 40.0869 279.527 39.6176C279.442 39.7029 279.399 39.7456 279.399 39.7456C279.229 39.8309 279.079 39.9376 278.951 40.0656C278.823 40.1936 278.674 40.3003 278.503 40.3856C278.418 40.4709 278.311 40.5776 278.183 40.7056C278.055 40.7909 277.949 40.8763 277.863 40.9616L277.479 41.3456C276.967 41.7296 276.455 42.2203 275.943 42.8176L275.559 43.2016C275.559 43.2016 275.538 43.2229 275.495 43.2656C275.41 43.3509 275.303 43.4576 275.175 43.5856C275.09 43.7136 275.005 43.8203 274.919 43.9056C274.194 44.7163 273.49 45.6549 272.807 46.7216V49.2176C272.807 50.6683 272.829 52.1189 272.871 53.5696C272.957 54.9776 273.149 56.3856 273.447 57.7936L273.639 58.5616C273.725 58.8603 273.725 59.1163 273.639 59.3296C273.554 59.5003 273.426 59.6923 273.255 59.9056C272.786 60.5456 272.146 61.1003 271.335 61.5696C270.994 61.7829 270.631 61.9749 270.247 62.1456C269.863 62.3163 269.458 62.4443 269.031 62.5296C268.903 62.5723 268.669 62.6149 268.327 62.6576C267.986 62.6576 267.773 62.5509 267.687 62.3376C267.474 61.6549 267.325 60.9723 267.239 60.2896C267.154 59.6069 267.069 58.9243 266.983 58.2416C266.642 55.0843 266.535 51.9483 266.663 48.8336C266.791 45.7189 266.855 42.5829 266.855 39.4256C266.855 39.1269 266.962 38.8496 267.175 38.5936C267.431 38.3376 267.645 38.1029 267.815 37.8896C268.455 37.2496 269.202 36.7376 270.055 36.3536C270.183 36.3109 270.397 36.2256 270.695 36.0976C271.037 35.9696 271.378 35.8843 271.719 35.8416C272.061 35.7563 272.359 35.7563 272.615 35.8416C272.871 35.8843 272.999 36.0763 272.999 36.4176C272.999 36.9296 272.999 37.4416 272.999 37.9536C272.999 38.4229 272.978 38.9136 272.935 39.4256C272.935 39.8096 272.935 40.1936 272.935 40.5776C272.935 40.9189 272.914 41.2603 272.871 41.6016C272.957 41.5163 273.063 41.4309 273.191 41.3456C273.319 41.2603 273.426 41.1749 273.511 41.0896C274.877 39.8523 276.327 38.7003 277.863 37.6336C279.442 36.5243 281.106 35.5856 282.855 34.8176ZM317.062 56.7696C317.232 56.9829 317.232 57.2389 317.062 57.5376C316.891 57.7936 316.763 57.9856 316.678 58.1136C316.422 58.4549 316.123 58.7749 315.782 59.0736C315.44 59.3296 315.099 59.5643 314.758 59.7776C313.819 60.3749 312.838 60.8443 311.814 61.1856C310.832 61.5269 309.808 61.8043 308.742 62.0176C306.31 62.4443 303.878 62.6149 301.446 62.5296C299.014 62.4016 296.603 62.1669 294.214 61.8256C293.232 61.6549 292.251 61.5056 291.27 61.3776C290.331 61.2069 289.371 60.9936 288.39 60.7376C288.134 60.6523 287.878 60.5883 287.622 60.5456C287.366 60.4603 287.131 60.3749 286.918 60.2896C286.662 60.1616 286.47 60.0336 286.342 59.9056C286.256 59.8203 286.214 59.7349 286.214 59.6496C286.214 59.5643 286.214 59.5003 286.214 59.4576C286.214 59.1163 286.32 58.8176 286.534 58.5616C286.747 58.3056 286.96 58.0709 287.174 57.8576C287.515 57.5163 287.878 57.2389 288.262 57.0256C288.646 56.7696 289.03 56.5349 289.414 56.3216C289.755 56.1509 290.096 56.0229 290.438 55.9376C290.822 55.8096 291.184 55.7456 291.526 55.7456C291.952 55.7456 292.208 55.8736 292.294 56.1296C292.379 56.1296 292.507 56.1723 292.678 56.2576C292.891 56.3429 293.083 56.4069 293.254 56.4496C293.424 56.4496 293.616 56.4923 293.83 56.5776C294.427 56.7056 295.003 56.8336 295.558 56.9616C296.112 57.0896 296.688 57.1963 297.286 57.2816C299.59 57.6229 301.894 57.8789 304.198 58.0496C304.88 58.0923 305.563 58.1349 306.246 58.1776C306.971 58.1776 307.696 58.1563 308.422 58.1136C307.824 57.7723 307.227 57.4736 306.63 57.2176C306.032 56.9189 305.435 56.6416 304.838 56.3856C302.918 55.6603 300.955 55.0416 298.95 54.5296C296.944 54.0176 294.96 53.4416 292.998 52.8016C292.23 52.5456 291.462 52.2683 290.694 51.9696C289.926 51.6283 289.222 51.2229 288.582 50.7536C287.899 50.3269 287.366 49.8363 286.982 49.2816C286.555 48.6416 286.342 48.0016 286.342 47.3616C286.299 46.9349 286.32 46.5296 286.406 46.1456C286.534 45.7189 286.683 45.3349 286.854 44.9936C287.11 44.3109 287.451 43.6709 287.878 43.0736C288.347 42.4763 288.816 41.9216 289.286 41.4096C290.864 39.7029 292.72 38.3163 294.854 37.2496C295.707 36.8656 296.56 36.5456 297.414 36.2896C298.31 35.9909 299.227 35.8416 300.166 35.8416C301.275 35.7989 302.342 36.0549 303.366 36.6096C304.39 37.1216 305.158 37.9109 305.67 38.9776C306.31 40.2576 306.502 41.6229 306.246 43.0736C305.99 44.5243 305.563 45.8683 304.966 47.1056C304.795 47.4469 304.582 47.7456 304.326 48.0016C304.07 48.2576 303.792 48.4923 303.494 48.7056C303.024 49.0896 302.512 49.4096 301.958 49.6656C302.811 49.9216 303.664 50.1776 304.518 50.4336C305.371 50.6469 306.224 50.8816 307.078 51.1376C308.059 51.4789 309.019 51.8203 309.958 52.1616C310.939 52.5029 311.878 52.9083 312.774 53.3776C313.584 53.8043 314.352 54.2949 315.078 54.8496C315.846 55.4043 316.507 56.0443 317.062 56.7696ZM293.83 46.4656C294.128 46.6789 294.448 46.8923 294.79 47.1056C295.131 47.2763 295.472 47.4469 295.814 47.6176C296.368 47.8736 296.923 48.1083 297.478 48.3216C298.075 48.4923 298.672 48.6843 299.27 48.8976C299.526 48.3429 299.718 47.8523 299.846 47.4256C300.187 46.1029 300.272 44.8869 300.102 43.7776C299.974 43.2656 299.76 42.7749 299.462 42.3056C299.206 41.7936 298.864 41.3669 298.438 41.0256C297.755 40.5989 297.115 40.3216 296.518 40.1936C296.134 40.1509 295.75 40.1509 295.366 40.1936C295.28 40.1936 295.195 40.2149 295.11 40.2576C295.067 40.2576 295.003 40.2576 294.918 40.2576C294.875 40.3003 294.811 40.3216 294.726 40.3216C294.683 40.3216 294.662 40.3429 294.662 40.3856H294.598L294.534 40.4496C294.448 40.5349 294.363 40.5989 294.278 40.6416L293.83 41.0896L293.638 41.2816L293.446 41.4736C293.36 41.6443 293.275 41.7723 293.19 41.8576C293.062 42.0709 292.934 42.2843 292.806 42.4976C292.72 42.7109 292.635 42.9243 292.55 43.1376C292.507 43.3936 292.464 43.6496 292.422 43.9056C292.422 44.1189 292.443 44.3536 292.486 44.6096C292.571 44.9936 292.72 45.3349 292.934 45.6336C293.19 45.9323 293.488 46.2096 293.83 46.4656ZM313.862 57.2816C313.776 57.3243 313.734 57.3456 313.734 57.3456L313.67 57.4096C314.011 57.1963 314.139 57.1109 314.054 57.1536C314.011 57.1536 313.947 57.1963 313.862 57.2816ZM357.787 51.2656C358.257 52.1189 358.619 53.0363 358.875 54.0176C359.174 54.9563 359.281 55.9163 359.195 56.8976C359.153 58.0069 358.854 59.1376 358.299 60.2896C357.915 61.0576 357.446 61.7616 356.891 62.4016C356.379 62.9989 355.782 63.5963 355.099 64.1936C353.862 65.2176 352.475 66.0069 350.939 66.5616C349.446 67.1589 347.889 67.5003 346.267 67.5856C345.073 67.6283 343.878 67.5216 342.683 67.2656C341.489 67.0523 340.337 66.7749 339.227 66.4336C337.009 65.7509 334.854 64.8123 332.763 63.6176C331.91 63.1483 331.078 62.6363 330.267 62.0816C329.414 61.5269 328.625 60.8869 327.899 60.1616C327.686 59.9909 327.686 59.7563 327.899 59.4576C328.07 59.1589 328.198 58.9669 328.283 58.8816C328.539 58.5403 328.838 58.2416 329.179 57.9856C329.521 57.6869 329.862 57.4309 330.203 57.2176C330.545 57.0043 330.907 56.8123 331.291 56.6416C331.675 56.4283 332.081 56.2789 332.507 56.1936C332.763 56.1509 332.998 56.1296 333.211 56.1296C333.425 56.1296 333.638 56.2363 333.851 56.4496C333.979 56.5776 334.107 56.7056 334.235 56.8336C334.363 56.9616 334.513 57.0683 334.683 57.1536C334.811 57.2389 334.939 57.3456 335.067 57.4736C335.238 57.6016 335.387 57.7083 335.515 57.7936C336.411 58.4336 337.35 59.0096 338.331 59.5216C339.313 60.0336 340.294 60.5243 341.275 60.9936C342.342 61.4629 343.409 61.8683 344.475 62.2096C345.585 62.5509 346.694 62.8283 347.803 63.0416C349.041 63.2549 350.214 63.2976 351.323 63.1696C351.537 63.1696 351.707 63.1483 351.835 63.1056C351.921 63.1056 352.006 63.0843 352.091 63.0416C352.091 62.9989 352.113 62.9563 352.155 62.9136C352.411 62.4443 352.646 61.9749 352.859 61.5056C353.158 60.1829 353.179 58.9243 352.923 57.7296C352.667 56.6203 352.198 55.5749 351.515 54.5936C350.833 53.6123 350.043 52.7589 349.147 52.0336C348.379 51.4363 347.569 50.9456 346.715 50.5616C345.862 50.1349 344.945 49.8363 343.963 49.6656C343.622 49.6229 343.281 49.6016 342.939 49.6016C342.641 49.5589 342.321 49.5589 341.979 49.6016C341.894 49.6016 341.809 49.6229 341.723 49.6656C341.681 49.6656 341.617 49.6656 341.531 49.6656C341.403 49.7936 341.297 49.9429 341.211 50.1136C340.827 50.8389 340.507 51.5643 340.251 52.2896C340.209 52.4176 340.145 52.6523 340.059 52.9936C339.974 53.3349 339.846 53.6336 339.675 53.8896C339.505 54.1029 339.313 54.3163 339.099 54.5296C338.459 55.1696 337.713 55.6816 336.859 56.0656C336.731 56.1509 336.497 56.2576 336.155 56.3856C335.857 56.4709 335.537 56.5563 335.195 56.6416C334.854 56.6843 334.555 56.6843 334.299 56.6416C334.043 56.5563 333.915 56.3429 333.915 56.0016C333.915 54.7216 333.915 53.4416 333.915 52.1616C333.958 50.8389 333.979 49.5376 333.979 48.2576C334.065 44.1189 334.129 40.0443 334.171 36.0336C334.257 31.9803 334.299 27.8843 334.299 23.7456C334.299 23.4469 334.406 23.1696 334.619 22.9136C334.875 22.6576 335.089 22.4229 335.259 22.2096C335.942 21.6123 336.689 21.1003 337.499 20.6736C337.627 20.6309 337.841 20.5456 338.139 20.4176C338.481 20.2896 338.822 20.2043 339.163 20.1616C339.505 20.0763 339.803 20.0763 340.059 20.1616C340.315 20.2043 340.443 20.3963 340.443 20.7376C340.443 22.0176 340.443 23.3189 340.443 24.6416C340.443 25.9216 340.422 27.2016 340.379 28.4816C340.337 31.6816 340.294 34.8389 340.251 37.9536C340.209 41.0683 340.166 44.2256 340.123 47.4256C340.209 47.3403 340.273 47.2976 340.315 47.2976C341.51 46.6149 342.747 46.0816 344.027 45.6976C345.35 45.2709 346.694 45.1429 348.059 45.3136C350.107 45.5269 351.963 46.1456 353.627 47.1696C354.438 47.6816 355.206 48.2789 355.931 48.9616C356.657 49.6443 357.275 50.4123 357.787 51.2656ZM351.835 63.3616C351.579 63.5323 351.494 63.5963 351.579 63.5536C351.665 63.5109 351.75 63.4469 351.835 63.3616ZM374.909 50.1776C373.629 50.9029 372.327 51.5856 371.005 52.2256C369.725 52.8229 368.402 53.3989 367.037 53.9536L366.077 54.3376C366.546 55.0203 367.101 55.6176 367.741 56.1296C368.509 56.7269 369.341 57.1963 370.237 57.5376C371.175 57.8363 372.135 58.0923 373.117 58.3056C374.311 58.4763 375.485 58.5616 376.637 58.5616C377.831 58.5189 379.026 58.4549 380.221 58.3696C380.306 58.3269 380.391 58.3056 380.477 58.3056C380.605 58.3056 380.711 58.2843 380.797 58.2416C381.01 58.2416 381.245 58.2416 381.501 58.2416C381.799 58.1989 382.013 58.2843 382.141 58.4976C382.311 58.7109 382.311 58.9456 382.141 59.2016C382.013 59.4576 381.885 59.6709 381.757 59.8416C381.245 60.4816 380.626 61.0363 379.901 61.5056C379.559 61.7189 379.175 61.9109 378.749 62.0816C378.365 62.2523 377.959 62.3803 377.533 62.4656C376.21 62.6789 374.866 62.8283 373.501 62.9136C372.178 62.9563 370.834 62.8923 369.469 62.7216C367.805 62.5083 366.162 62.1029 364.541 61.5056C362.919 60.9083 361.575 59.9269 360.509 58.5616C359.741 57.5803 359.229 56.4709 358.973 55.2336C358.717 53.9536 358.695 52.6949 358.909 51.4576C359.207 49.9216 359.741 48.4923 360.509 47.1696C361.319 45.8043 362.279 44.5883 363.389 43.5216C364.839 42.1136 366.503 40.9189 368.381 39.9376C370.258 38.9563 372.221 38.4229 374.269 38.3376C375.975 38.2523 377.575 38.5723 379.069 39.2976C380.562 40.0229 381.927 40.9616 383.165 42.1136C383.293 42.4123 383.271 42.6896 383.101 42.9456C382.631 43.7989 382.055 44.5669 381.373 45.2496C380.69 45.9323 379.986 46.5723 379.261 47.1696C378.578 47.7669 377.853 48.3003 377.085 48.7696C376.359 49.2389 375.634 49.7083 374.909 50.1776ZM368.061 43.0736C368.018 43.0736 367.997 43.0949 367.997 43.1376C367.997 43.1376 368.018 43.1163 368.061 43.0736ZM365.309 47.4896C364.925 48.8976 364.818 50.2629 364.989 51.5856C365.117 51.5429 365.245 51.5003 365.373 51.4576C365.501 51.4149 365.629 51.3723 365.757 51.3296C366.311 51.1163 366.866 50.9029 367.421 50.6896C367.975 50.4763 368.53 50.2629 369.085 50.0496L369.469 49.8576C369.597 49.8576 369.703 49.8149 369.789 49.7296C370.087 49.6016 370.365 49.4736 370.621 49.3456C370.877 49.2176 371.154 49.0896 371.453 48.9616C372.007 48.7056 372.562 48.4283 373.117 48.1296C373.202 48.0869 373.287 48.0443 373.373 48.0016C373.501 47.9589 373.607 47.8949 373.693 47.8096C373.863 47.7243 373.97 47.6603 374.013 47.6176C374.269 47.4896 374.503 47.3616 374.717 47.2336C374.973 47.0629 375.207 46.9136 375.421 46.7856C375.463 46.7003 375.506 46.6576 375.549 46.6576C375.591 46.6149 375.634 46.5723 375.677 46.5296C375.805 46.4443 375.911 46.3803 375.997 46.3376C376.125 46.2523 376.231 46.1669 376.317 46.0816L376.445 45.9536C376.53 45.8683 376.594 45.8043 376.637 45.7616C376.722 45.6763 376.807 45.5909 376.893 45.5056C376.807 45.4203 376.701 45.3563 376.573 45.3136C376.445 45.2283 376.338 45.1429 376.253 45.0576C374.759 43.8203 373.138 43.0523 371.389 42.7536C371.047 42.7109 370.727 42.6896 370.429 42.6896C370.13 42.6469 369.81 42.6469 369.469 42.6896C369.383 42.7323 369.277 42.7536 369.149 42.7536C369.063 42.7536 368.978 42.7749 368.893 42.8176C368.765 42.8176 368.679 42.8389 368.637 42.8816C368.551 42.8816 368.423 42.9243 368.253 43.0096H368.189C368.103 43.0949 368.039 43.1376 367.997 43.1376C367.954 43.1803 367.911 43.2229 367.869 43.2656C367.826 43.2656 367.783 43.2869 367.741 43.3296C367.741 43.3723 367.698 43.4363 367.613 43.5216C367.527 43.5643 367.463 43.6069 367.421 43.6496C367.421 43.6923 367.378 43.7349 367.293 43.7776C367.122 43.9909 366.973 44.1829 366.845 44.3536C366.717 44.5243 366.589 44.7163 366.461 44.9296C365.949 45.6549 365.565 46.5083 365.309 47.4896ZM405.94 37.1856C406.238 37.7829 406.43 38.4443 406.516 39.1696C406.601 39.8523 406.601 40.5349 406.516 41.2176C406.43 42.1563 406.281 43.0736 406.068 43.9696C405.897 44.8229 405.662 45.6763 405.364 46.5296C404.681 48.5776 403.87 50.5616 402.932 52.4816C402.036 54.4016 401.076 56.3003 400.052 58.1776C397.833 62.0176 395.422 65.8363 392.82 69.6336C391.924 70.8709 391.006 72.1083 390.068 73.3456C389.172 74.6256 388.169 75.8203 387.06 76.9296C386.377 77.5696 385.63 78.0816 384.82 78.4656C384.478 78.6363 384.116 78.7643 383.732 78.8496C383.39 78.9776 383.049 79.0416 382.708 79.0416C382.494 79.0416 382.302 78.9989 382.132 78.9136C381.918 78.8283 381.833 78.6576 381.876 78.4016C381.918 78.1029 382.046 77.8256 382.26 77.5696C382.43 77.3136 382.622 77.0789 382.836 76.8656L383.156 76.5456C383.241 76.4603 383.284 76.3963 383.284 76.3536C383.497 76.1403 383.689 75.9056 383.86 75.6496C384.073 75.3936 384.286 75.1376 384.5 74.8816C385.609 73.4736 386.676 72.0016 387.7 70.4656C388.766 68.9723 389.79 67.4576 390.772 65.9216C391.454 64.8976 392.094 63.8736 392.692 62.8496C393.332 61.7829 393.95 60.7163 394.548 59.6496C395.529 57.8149 396.468 55.9589 397.364 54.0816C398.26 52.2043 399.006 50.2629 399.604 48.2576C399.945 47.2336 400.201 46.1883 400.372 45.1216C400.542 44.0549 400.521 42.9883 400.308 41.9216C400.094 41.0256 399.668 40.2789 399.028 39.6816C398.558 39.3403 398.11 39.1269 397.684 39.0416H397.236H397.172L397.108 39.1056C397.022 39.1909 396.958 39.2549 396.916 39.2976C396.873 39.2976 396.809 39.3403 396.724 39.4256C396.681 39.4256 396.617 39.4683 396.532 39.5536C396.318 39.7669 396.126 39.9589 395.956 40.1296C395.785 40.2576 395.614 40.4283 395.444 40.6416C395.358 40.7269 395.252 40.8336 395.124 40.9616C395.038 41.0469 394.974 41.1323 394.932 41.2176C394.804 41.2603 394.718 41.3456 394.676 41.4736C394.462 41.6869 394.27 41.9216 394.1 42.1776C393.929 42.3909 393.758 42.6043 393.588 42.8176C392.99 43.5856 392.393 44.4389 391.796 45.3776C391.881 45.2923 391.924 45.2069 391.924 45.1216C391.966 45.0363 392.03 44.9509 392.116 44.8656C391.902 45.1643 391.71 45.4629 391.54 45.7616C391.369 46.0603 391.22 46.3803 391.092 46.7216C391.049 46.9776 390.921 47.2763 390.708 47.6176C390.665 48.8549 390.622 50.1136 390.58 51.3936C390.58 52.6309 390.537 53.8896 390.452 55.1696C390.409 55.8096 390.366 56.4496 390.324 57.0896C390.324 57.7296 390.26 58.3696 390.132 59.0096C390.132 59.1376 390.11 59.2869 390.068 59.4576C390.025 59.5856 389.982 59.7136 389.94 59.8416C389.854 60.0549 389.726 60.2683 389.556 60.4816C389.385 60.6523 389.214 60.8229 389.044 60.9936C388.83 61.2069 388.596 61.4203 388.34 61.6336C388.084 61.8043 387.849 61.9536 387.636 62.0816C387.422 62.2096 387.145 62.3589 386.804 62.5296C386.505 62.7003 386.228 62.8283 385.972 62.9136C385.716 62.9989 385.332 63.0843 384.82 63.1696C384.35 63.2549 384.009 63.1269 383.796 62.7856C383.753 62.7003 383.732 62.6363 383.732 62.5936C383.732 62.5083 383.71 62.4229 383.668 62.3376C383.54 62.1243 383.561 61.8683 383.732 61.5696C383.817 61.4843 383.86 61.3989 383.86 61.3136C383.902 61.2283 383.966 61.1429 384.052 61.0576C384.094 61.0149 384.116 60.9936 384.116 60.9936C384.116 60.9509 384.137 60.9083 384.18 60.8656C384.265 60.0123 384.308 59.1803 384.308 58.3696C384.35 57.5589 384.393 56.7269 384.436 55.8736C384.478 54.7216 384.5 53.5909 384.5 52.4816C384.542 51.3296 384.564 50.1989 384.564 49.0896C384.606 47.1269 384.628 45.1856 384.628 43.2656C384.628 41.3456 384.628 39.4043 384.628 37.4416C384.628 37.1429 384.734 36.8656 384.948 36.6096C385.161 36.3536 385.374 36.1189 385.588 35.9056C386.228 35.2656 386.974 34.7536 387.828 34.3696C387.956 34.3269 388.169 34.2416 388.468 34.1136C388.809 33.9856 389.15 33.9003 389.492 33.8576C389.833 33.7723 390.132 33.7723 390.388 33.8576C390.644 33.9003 390.772 34.0923 390.772 34.4336C390.772 35.5429 390.772 36.6523 390.772 37.7616C390.772 38.8709 390.75 39.9803 390.708 41.0896C391.262 40.5349 391.817 40.0016 392.372 39.4896C392.926 38.9776 393.502 38.4869 394.1 38.0176C394.868 37.4203 395.657 36.9083 396.468 36.4816C397.278 36.0123 398.132 35.6069 399.028 35.2656C399.668 35.0523 400.329 34.8816 401.012 34.7536C401.737 34.6256 402.441 34.6683 403.124 34.8816C403.721 35.0949 404.254 35.3936 404.724 35.7776C405.236 36.1616 405.641 36.6309 405.94 37.1856ZM396.724 39.4256C396.724 39.3403 396.766 39.2976 396.852 39.2976C396.852 39.2976 396.809 39.3403 396.724 39.4256ZM383.348 76.3536C383.305 76.3536 383.284 76.3749 383.284 76.4176C383.454 76.2043 383.518 76.1189 383.476 76.1616C383.476 76.2043 383.433 76.2683 383.348 76.3536ZM424.096 50.1776C422.816 50.9029 421.515 51.5856 420.192 52.2256C418.912 52.8229 417.59 53.3989 416.224 53.9536L415.264 54.3376C415.734 55.0203 416.288 55.6176 416.928 56.1296C417.696 56.7269 418.528 57.1963 419.424 57.5376C420.363 57.8363 421.323 58.0923 422.304 58.3056C423.499 58.4763 424.672 58.5616 425.824 58.5616C427.019 58.5189 428.214 58.4549 429.408 58.3696C429.494 58.3269 429.579 58.3056 429.664 58.3056C429.792 58.3056 429.899 58.2843 429.984 58.2416C430.198 58.2416 430.432 58.2416 430.688 58.2416C430.987 58.1989 431.2 58.2843 431.328 58.4976C431.499 58.7109 431.499 58.9456 431.328 59.2016C431.2 59.4576 431.072 59.6709 430.944 59.8416C430.432 60.4816 429.814 61.0363 429.088 61.5056C428.747 61.7189 428.363 61.9109 427.936 62.0816C427.552 62.2523 427.147 62.3803 426.72 62.4656C425.398 62.6789 424.054 62.8283 422.688 62.9136C421.366 62.9563 420.022 62.8923 418.656 62.7216C416.992 62.5083 415.35 62.1029 413.728 61.5056C412.107 60.9083 410.763 59.9269 409.696 58.5616C408.928 57.5803 408.416 56.4709 408.16 55.2336C407.904 53.9536 407.883 52.6949 408.096 51.4576C408.395 49.9216 408.928 48.4923 409.696 47.1696C410.507 45.8043 411.467 44.5883 412.576 43.5216C414.027 42.1136 415.691 40.9189 417.568 39.9376C419.446 38.9563 421.408 38.4229 423.456 38.3376C425.163 38.2523 426.763 38.5723 428.256 39.2976C429.75 40.0229 431.115 40.9616 432.352 42.1136C432.48 42.4123 432.459 42.6896 432.288 42.9456C431.819 43.7989 431.243 44.5669 430.56 45.2496C429.878 45.9323 429.174 46.5723 428.448 47.1696C427.766 47.7669 427.04 48.3003 426.272 48.7696C425.547 49.2389 424.822 49.7083 424.096 50.1776ZM417.248 43.0736C417.206 43.0736 417.184 43.0949 417.184 43.1376C417.184 43.1376 417.206 43.1163 417.248 43.0736ZM414.496 47.4896C414.112 48.8976 414.006 50.2629 414.176 51.5856C414.304 51.5429 414.432 51.5003 414.56 51.4576C414.688 51.4149 414.816 51.3723 414.944 51.3296C415.499 51.1163 416.054 50.9029 416.608 50.6896C417.163 50.4763 417.718 50.2629 418.272 50.0496L418.656 49.8576C418.784 49.8576 418.891 49.8149 418.976 49.7296C419.275 49.6016 419.552 49.4736 419.808 49.3456C420.064 49.2176 420.342 49.0896 420.64 48.9616C421.195 48.7056 421.75 48.4283 422.304 48.1296C422.39 48.0869 422.475 48.0443 422.56 48.0016C422.688 47.9589 422.795 47.8949 422.88 47.8096C423.051 47.7243 423.158 47.6603 423.2 47.6176C423.456 47.4896 423.691 47.3616 423.904 47.2336C424.16 47.0629 424.395 46.9136 424.608 46.7856C424.651 46.7003 424.694 46.6576 424.736 46.6576C424.779 46.6149 424.822 46.5723 424.864 46.5296C424.992 46.4443 425.099 46.3803 425.184 46.3376C425.312 46.2523 425.419 46.1669 425.504 46.0816L425.632 45.9536C425.718 45.8683 425.782 45.8043 425.824 45.7616C425.91 45.6763 425.995 45.5909 426.08 45.5056C425.995 45.4203 425.888 45.3563 425.76 45.3136C425.632 45.2283 425.526 45.1429 425.44 45.0576C423.947 43.8203 422.326 43.0523 420.576 42.7536C420.235 42.7109 419.915 42.6896 419.616 42.6896C419.318 42.6469 418.998 42.6469 418.656 42.6896C418.571 42.7323 418.464 42.7536 418.336 42.7536C418.251 42.7536 418.166 42.7749 418.08 42.8176C417.952 42.8176 417.867 42.8389 417.824 42.8816C417.739 42.8816 417.611 42.9243 417.44 43.0096H417.376C417.291 43.0949 417.227 43.1376 417.184 43.1376C417.142 43.1803 417.099 43.2229 417.056 43.2656C417.014 43.2656 416.971 43.2869 416.928 43.3296C416.928 43.3723 416.886 43.4363 416.8 43.5216C416.715 43.5643 416.651 43.6069 416.608 43.6496C416.608 43.6923 416.566 43.7349 416.48 43.7776C416.31 43.9909 416.16 44.1829 416.032 44.3536C415.904 44.5243 415.776 44.7163 415.648 44.9296C415.136 45.6549 414.752 46.5083 414.496 47.4896ZM461.143 18.3056C461.869 21.9323 462.231 25.4523 462.231 28.8656C462.231 29.1643 462.125 29.4629 461.911 29.7616C461.698 30.0176 461.485 30.2309 461.271 30.4016C460.631 31.0416 459.885 31.5536 459.031 31.9376C458.903 32.0229 458.669 32.1296 458.327 32.2576C458.029 32.3429 457.709 32.4283 457.367 32.5136C457.026 32.5563 456.727 32.5563 456.471 32.5136C456.215 32.4283 456.087 32.2149 456.087 31.8736C456.087 28.3749 455.725 24.8549 454.999 21.3136C454.53 19.1376 453.911 17.0043 453.143 14.9136C452.418 12.7803 451.522 10.7536 450.455 8.83361C450.199 9.43094 450.007 10.0069 449.879 10.5616C449.282 12.5669 448.834 14.5723 448.535 16.5776C448.066 19.6069 447.81 22.6363 447.767 25.6656C447.767 28.6949 447.853 31.7456 448.023 34.8176C448.023 35.1589 448.023 35.5003 448.023 35.8416C448.066 36.1829 448.109 36.5243 448.151 36.8656C449.517 36.4389 450.861 36.0336 452.183 35.6496C453.549 35.2656 454.914 34.9243 456.279 34.6256C456.493 34.5403 456.727 34.4976 456.983 34.4976C457.282 34.4976 457.495 34.6043 457.623 34.8176C457.751 35.0309 457.751 35.2656 457.623 35.5216C457.495 35.7776 457.367 35.9909 457.239 36.1616C456.983 36.5029 456.685 36.8229 456.343 37.1216C456.002 37.3776 455.661 37.6123 455.319 37.8256C454.978 38.0389 454.615 38.2309 454.231 38.4016C453.847 38.5723 453.442 38.7003 453.015 38.7856C452.802 38.8709 452.61 38.9349 452.439 38.9776C452.269 38.9776 452.077 39.0203 451.863 39.1056C451.437 39.1909 451.01 39.2976 450.583 39.4256C450.157 39.5536 449.73 39.6603 449.303 39.7456C449.218 39.7883 449.133 39.8309 449.047 39.8736C448.962 39.8736 448.877 39.8949 448.791 39.9376C448.749 39.9376 448.599 39.9803 448.343 40.0656C448.557 42.3269 448.77 44.5883 448.983 46.8496C449.239 49.0683 449.517 51.3083 449.815 53.5696C450.114 56.2576 450.413 58.9243 450.711 61.5696C451.01 64.2149 451.245 66.8816 451.415 69.5696C451.415 69.8256 451.287 70.0816 451.031 70.3376C450.818 70.6363 450.626 70.8923 450.455 71.1056C450.114 71.4043 449.751 71.6816 449.367 71.9376C448.983 72.1936 448.599 72.4283 448.215 72.6416C448.087 72.7269 447.853 72.8123 447.511 72.8976C447.213 73.0256 446.893 73.1109 446.551 73.1536C446.21 73.2389 445.911 73.2389 445.655 73.1536C445.399 73.1109 445.271 72.9189 445.271 72.5776V72.1936C445.101 69.4629 444.866 66.7536 444.567 64.0656C444.269 61.4203 443.949 58.7536 443.607 56.0656C443.309 53.7189 443.031 51.3723 442.775 49.0256C442.562 46.6789 442.349 44.3109 442.135 41.9216C441.922 42.0069 441.687 42.0923 441.431 42.1776C441.175 42.2203 440.919 42.2843 440.663 42.3696C438.743 42.9243 436.802 43.3936 434.839 43.7776C432.919 44.1189 430.957 44.2896 428.951 44.2896C428.738 44.2896 428.546 44.2469 428.375 44.1616C428.162 44.0763 428.077 43.9056 428.119 43.6496C428.119 43.3509 428.226 43.0736 428.439 42.8176C428.653 42.5616 428.866 42.3269 429.079 42.1136C429.677 41.5163 430.402 41.0043 431.255 40.5776C431.981 40.1936 432.685 39.9803 433.367 39.9376C433.879 39.9376 434.37 39.9376 434.839 39.9376C435.351 39.9376 435.842 39.8949 436.311 39.8096C437.165 39.7243 437.975 39.6176 438.743 39.4896C439.554 39.3189 440.365 39.1269 441.175 38.9136L441.943 38.7216C441.901 38.4656 441.879 38.2309 441.879 38.0176C441.879 37.7616 441.879 37.5056 441.879 37.2496C441.709 34.2203 441.645 31.1909 441.687 28.1616C441.773 25.1323 442.05 22.1029 442.519 19.0736C442.946 16.3429 443.607 13.6763 444.503 11.0736C445.442 8.42827 446.765 5.99627 448.471 3.7776C448.898 3.22294 449.41 2.75361 450.007 2.36961C450.647 1.94294 451.287 1.6016 451.927 1.3456C452.226 1.26027 452.589 1.17494 453.015 1.0896C453.485 1.00427 453.826 1.11094 454.039 1.4096C455.49 3.28694 456.706 5.37761 457.687 7.68161C458.498 9.38827 459.181 11.1376 459.735 12.9296C460.29 14.6789 460.759 16.4709 461.143 18.3056ZM483.049 60.0976C483.433 60.0976 483.689 60.1829 483.817 60.3536C483.945 60.5243 483.987 60.7376 483.945 60.9936C483.902 61.2496 483.817 61.5056 483.689 61.7616C483.561 61.9749 483.433 62.1456 483.305 62.2736C482.878 62.8709 482.345 63.3616 481.705 63.7456C481.065 64.1296 480.382 64.3216 479.657 64.3216C477.907 64.4069 476.137 64.7483 474.345 65.3456C472.553 65.9856 470.825 66.5616 469.161 67.0736C467.155 67.5856 465.193 68.1403 463.273 68.7376C461.353 69.3349 459.369 69.8896 457.321 70.4016C456.723 70.6149 456.318 70.5083 456.105 70.0816C455.849 69.6976 455.87 69.2709 456.169 68.8016C456.553 68.2043 457.065 67.6709 457.705 67.2016C458.302 66.7749 458.963 66.4549 459.689 66.2416C460.542 66.0283 461.417 65.7723 462.313 65.4736C463.209 65.2176 464.126 64.9403 465.065 64.6416V48.5776C462.761 48.9616 460.414 49.4523 458.025 50.0496C457.385 50.1776 456.958 50.0709 456.745 49.7296C456.531 49.3883 456.574 48.9403 456.873 48.3856C457.214 47.7883 457.683 47.2763 458.281 46.8496C458.921 46.4229 459.603 46.1243 460.329 45.9536C461.31 45.6976 462.249 45.4629 463.145 45.2496C464.041 45.0363 464.979 44.8443 465.961 44.6736C466.345 44.2896 466.771 43.9483 467.241 43.6496C467.753 43.3509 468.222 43.1376 468.649 43.0096C469.118 42.8816 469.502 42.8603 469.801 42.9456C470.099 42.9883 470.249 43.1803 470.249 43.5216V43.9056C470.846 43.7776 471.422 43.6709 471.977 43.5856C472.531 43.5003 473.065 43.3723 473.577 43.2016C473.662 43.2016 473.833 43.1803 474.089 43.1376C474.345 43.0949 474.579 43.0523 474.793 43.0096C475.006 42.9669 475.155 42.9456 475.241 42.9456C475.326 42.9456 475.262 43.0096 475.049 43.1376C475.262 43.0523 475.454 42.9669 475.625 42.8816C475.838 42.7963 475.987 42.7536 476.073 42.7536C476.201 42.7963 476.307 42.8176 476.393 42.8176C476.478 42.8176 476.585 42.8603 476.713 42.9456C477.139 43.2869 477.289 43.6496 477.161 44.0336C477.033 44.4176 476.777 44.8016 476.393 45.1856C476.009 45.5696 475.561 45.9109 475.049 46.2096C474.579 46.5083 474.217 46.7216 473.961 46.8496C473.449 47.0629 472.851 47.2549 472.169 47.4256C471.529 47.5536 470.889 47.6603 470.249 47.7456V62.2736C470.249 62.4443 470.227 62.5723 470.185 62.6576C470.185 62.7429 470.163 62.8496 470.121 62.9776C472.297 62.2523 474.451 61.6336 476.585 61.1216C478.718 60.6096 480.873 60.2683 483.049 60.0976ZM465.705 36.1616C466.515 34.5829 466.899 32.9616 466.857 31.2976C466.857 29.6336 466.643 27.9696 466.217 26.3056C465.79 24.6416 465.257 22.9989 464.617 21.3776C464.019 19.7563 463.55 18.1776 463.209 16.6416C462.953 15.3616 462.974 14.2096 463.273 13.1856C463.571 12.1189 464.062 11.2229 464.745 10.4976C465.47 9.7296 466.366 9.17494 467.433 8.83361C468.499 8.44961 469.673 8.30027 470.953 8.3856C471.507 8.42827 471.763 8.6416 471.721 9.0256C471.721 9.4096 471.529 9.83627 471.145 10.3056C470.803 10.7749 470.334 11.2443 469.737 11.7136C469.182 12.1403 468.649 12.4176 468.137 12.5456C468.265 12.9723 468.371 13.3989 468.457 13.8256C468.542 14.2096 468.649 14.5723 468.777 14.9136C469.118 16.0656 469.459 17.1963 469.801 18.3056C470.185 19.3723 470.547 20.4389 470.889 21.5056C471.529 23.8523 471.891 26.1563 471.977 28.4176C472.062 30.6789 471.55 32.9403 470.441 35.2016C470.227 35.5856 469.801 35.9909 469.161 36.4176C468.521 36.8443 467.881 37.1643 467.241 37.3776C466.601 37.5909 466.089 37.6336 465.705 37.5056C465.321 37.3349 465.321 36.8869 465.705 36.1616ZM466.537 12.5456C466.451 12.5456 466.409 12.5669 466.409 12.6096C466.409 12.6523 466.451 12.6309 466.537 12.5456ZM509.53 26.6896C509.658 26.9029 509.658 27.1376 509.53 27.3936C509.402 27.6496 509.274 27.8416 509.146 27.9696C508.89 28.3109 508.592 28.6309 508.25 28.9296C507.909 29.1856 507.568 29.4203 507.226 29.6336C506.885 29.8469 506.522 30.0603 506.138 30.2736C505.754 30.4443 505.349 30.5723 504.922 30.6576C504.709 30.7003 504.517 30.7429 504.346 30.7856C504.176 30.7856 503.984 30.8283 503.77 30.9136C503.344 30.9989 502.917 31.1056 502.49 31.2336C502.064 31.3616 501.637 31.4683 501.21 31.5536C501.125 31.5963 501.04 31.6389 500.954 31.6816C500.869 31.6816 500.784 31.7029 500.698 31.7456C500.613 31.7883 500.506 31.8309 500.378 31.8736C500.25 31.8736 500.144 31.8949 500.058 31.9376L498.714 32.3216C498.288 32.4923 497.797 32.6416 497.242 32.7696C496.645 35.7989 496.048 38.8069 495.45 41.7936C494.896 44.7376 494.341 47.7243 493.786 50.7536C493.061 54.8496 492.421 58.9243 491.866 62.9776C491.312 66.9883 490.842 71.0629 490.458 75.2016C490.416 75.5003 490.288 75.7776 490.074 76.0336C489.904 76.2896 489.712 76.5243 489.498 76.7376C488.858 77.3776 488.112 77.8896 487.258 78.2736C486.917 78.4443 486.576 78.5936 486.234 78.7216C485.893 78.8496 485.53 78.8923 485.146 78.8496C484.933 78.8496 484.741 78.8069 484.57 78.7216C484.4 78.6363 484.314 78.4656 484.314 78.2096C484.57 75.3509 484.869 72.5136 485.21 69.6976C485.594 66.8816 486 64.0656 486.426 61.2496C487.066 57.2389 487.749 53.2709 488.474 49.3456C489.242 45.3776 490.032 41.4096 490.842 37.4416C490.928 36.9723 491.013 36.5029 491.098 36.0336C491.226 35.5216 491.333 35.0096 491.418 34.4976C489.669 34.9669 487.92 35.3509 486.17 35.6496C484.421 35.9483 482.65 36.0976 480.858 36.0976C480.645 36.0976 480.432 36.0549 480.218 35.9696C480.048 35.8843 479.962 35.7136 479.962 35.4576C480.005 35.1589 480.112 34.8816 480.282 34.6256C480.496 34.3696 480.709 34.1349 480.922 33.9216C481.264 33.6229 481.626 33.3456 482.01 33.0896C482.394 32.8336 482.778 32.5989 483.162 32.3856C483.504 32.2149 483.845 32.0869 484.186 32.0016C484.57 31.8736 484.933 31.8096 485.274 31.8096C486.256 31.8096 487.237 31.7456 488.218 31.6176C488.901 31.5323 489.562 31.4469 490.202 31.3616C490.842 31.2336 491.482 31.1056 492.122 30.9776C493.317 25.2176 494.469 19.4576 495.578 13.6976C495.664 13.3989 495.792 13.1216 495.962 12.8656C496.133 12.6096 496.325 12.3749 496.538 12.1616C497.221 11.5216 497.968 11.0096 498.778 10.6256C499.12 10.4549 499.461 10.3269 499.802 10.2416C500.186 10.1136 500.549 10.0496 500.89 10.0496C501.104 10.0496 501.317 10.0923 501.53 10.1776C501.744 10.2629 501.808 10.4336 501.722 10.6896C501.21 13.4629 500.677 16.2149 500.122 18.9456C499.568 21.6336 499.013 24.3429 498.458 27.0736C498.373 27.4576 498.288 27.8416 498.202 28.2256C498.16 28.6096 498.096 28.9723 498.01 29.3136C499.674 28.8016 501.338 28.2896 503.002 27.7776C504.709 27.2656 506.437 26.8176 508.186 26.4336C508.4 26.3909 508.634 26.3696 508.89 26.3696C509.189 26.3696 509.402 26.4763 509.53 26.6896ZM532.187 56.7696C532.357 56.9829 532.357 57.2389 532.187 57.5376C532.016 57.7936 531.888 57.9856 531.803 58.1136C531.547 58.4549 531.248 58.7749 530.907 59.0736C530.565 59.3296 530.224 59.5643 529.883 59.7776C528.944 60.3749 527.963 60.8443 526.939 61.1856C525.957 61.5269 524.933 61.8043 523.867 62.0176C521.435 62.4443 519.003 62.6149 516.571 62.5296C514.139 62.4016 511.728 62.1669 509.339 61.8256C508.357 61.6549 507.376 61.5056 506.395 61.3776C505.456 61.2069 504.496 60.9936 503.515 60.7376C503.259 60.6523 503.003 60.5883 502.747 60.5456C502.491 60.4603 502.256 60.3749 502.043 60.2896C501.787 60.1616 501.595 60.0336 501.467 59.9056C501.381 59.8203 501.339 59.7349 501.339 59.6496C501.339 59.5643 501.339 59.5003 501.339 59.4576C501.339 59.1163 501.445 58.8176 501.659 58.5616C501.872 58.3056 502.085 58.0709 502.299 57.8576C502.64 57.5163 503.003 57.2389 503.387 57.0256C503.771 56.7696 504.155 56.5349 504.539 56.3216C504.88 56.1509 505.221 56.0229 505.563 55.9376C505.947 55.8096 506.309 55.7456 506.651 55.7456C507.077 55.7456 507.333 55.8736 507.419 56.1296C507.504 56.1296 507.632 56.1723 507.803 56.2576C508.016 56.3429 508.208 56.4069 508.379 56.4496C508.549 56.4496 508.741 56.4923 508.955 56.5776C509.552 56.7056 510.128 56.8336 510.683 56.9616C511.237 57.0896 511.813 57.1963 512.411 57.2816C514.715 57.6229 517.019 57.8789 519.323 58.0496C520.005 58.0923 520.688 58.1349 521.371 58.1776C522.096 58.1776 522.821 58.1563 523.547 58.1136C522.949 57.7723 522.352 57.4736 521.755 57.2176C521.157 56.9189 520.56 56.6416 519.963 56.3856C518.043 55.6603 516.08 55.0416 514.075 54.5296C512.069 54.0176 510.085 53.4416 508.123 52.8016C507.355 52.5456 506.587 52.2683 505.819 51.9696C505.051 51.6283 504.347 51.2229 503.707 50.7536C503.024 50.3269 502.491 49.8363 502.107 49.2816C501.68 48.6416 501.467 48.0016 501.467 47.3616C501.424 46.9349 501.445 46.5296 501.531 46.1456C501.659 45.7189 501.808 45.3349 501.979 44.9936C502.235 44.3109 502.576 43.6709 503.003 43.0736C503.472 42.4763 503.941 41.9216 504.411 41.4096C505.989 39.7029 507.845 38.3163 509.979 37.2496C510.832 36.8656 511.685 36.5456 512.539 36.2896C513.435 35.9909 514.352 35.8416 515.291 35.8416C516.4 35.7989 517.467 36.0549 518.491 36.6096C519.515 37.1216 520.283 37.9109 520.795 38.9776C521.435 40.2576 521.627 41.6229 521.371 43.0736C521.115 44.5243 520.688 45.8683 520.091 47.1056C519.92 47.4469 519.707 47.7456 519.451 48.0016C519.195 48.2576 518.917 48.4923 518.619 48.7056C518.149 49.0896 517.637 49.4096 517.083 49.6656C517.936 49.9216 518.789 50.1776 519.643 50.4336C520.496 50.6469 521.349 50.8816 522.203 51.1376C523.184 51.4789 524.144 51.8203 525.083 52.1616C526.064 52.5029 527.003 52.9083 527.899 53.3776C528.709 53.8043 529.477 54.2949 530.203 54.8496C530.971 55.4043 531.632 56.0443 532.187 56.7696ZM508.955 46.4656C509.253 46.6789 509.573 46.8923 509.915 47.1056C510.256 47.2763 510.597 47.4469 510.939 47.6176C511.493 47.8736 512.048 48.1083 512.603 48.3216C513.2 48.4923 513.797 48.6843 514.395 48.8976C514.651 48.3429 514.843 47.8523 514.971 47.4256C515.312 46.1029 515.397 44.8869 515.227 43.7776C515.099 43.2656 514.885 42.7749 514.587 42.3056C514.331 41.7936 513.989 41.3669 513.563 41.0256C512.88 40.5989 512.24 40.3216 511.643 40.1936C511.259 40.1509 510.875 40.1509 510.491 40.1936C510.405 40.1936 510.32 40.2149 510.235 40.2576C510.192 40.2576 510.128 40.2576 510.043 40.2576C510 40.3003 509.936 40.3216 509.851 40.3216C509.808 40.3216 509.787 40.3429 509.787 40.3856H509.723L509.659 40.4496C509.573 40.5349 509.488 40.5989 509.403 40.6416L508.955 41.0896L508.763 41.2816L508.571 41.4736C508.485 41.6443 508.4 41.7723 508.315 41.8576C508.187 42.0709 508.059 42.2843 507.931 42.4976C507.845 42.7109 507.76 42.9243 507.675 43.1376C507.632 43.3936 507.589 43.6496 507.547 43.9056C507.547 44.1189 507.568 44.3536 507.611 44.6096C507.696 44.9936 507.845 45.3349 508.059 45.6336C508.315 45.9323 508.613 46.2096 508.955 46.4656ZM528.987 57.2816C528.901 57.3243 528.859 57.3456 528.859 57.3456L528.795 57.4096C529.136 57.1963 529.264 57.1109 529.179 57.1536C529.136 57.1536 529.072 57.1963 528.987 57.2816Z" fill="#0D0D0D"/>
<defs>
<linearGradient id="paint0_linear_403_2" x1="1.12028" y1="94.8678" x2="537.456" y2="52.8094" gradientUnits="userSpaceOnUse">
<stop stop-color="#000E80"/>
<stop offset="1" stop-color="#068BA8" stop-opacity="0.18"/>
</linearGradient>
</defs>
</svg>
