<svg width="230" height="78" viewBox="0 0 230 78" fill="none" xmlns="http://www.w3.org/2000/svg">
<path d="M51.256 73.888C51.256 74.144 51.128 74.4213 50.872 74.72C50.6587 75.0187 50.4667 75.2533 50.296 75.424C49.6133 76.064 48.8667 76.576 48.056 76.96C47.8853 77.0453 47.6293 77.152 47.288 77.28C46.9893 77.408 46.6693 77.4933 46.328 77.536C46.0293 77.6213 45.752 77.6213 45.496 77.536C45.2827 77.4507 45.1547 77.2373 45.112 76.896C44.984 75.7013 44.792 74.4427 44.536 73.12C44.1947 71.456 43.7253 69.8133 43.128 68.192C42.5307 66.6133 41.848 65.0773 41.08 63.584C39.3733 60.2987 37.304 57.2907 34.872 54.56C32.4827 51.7867 29.8373 49.248 26.936 46.944C26.8507 46.8587 26.68 46.7307 26.424 46.56C26.8933 48.4373 27.32 50.3147 27.704 52.192C28.1307 54.0267 28.5147 55.904 28.856 57.824C28.7707 58.208 28.6213 58.5493 28.408 58.848C28.3227 58.9333 28.2373 59.0187 28.152 59.104C28.0667 59.1893 27.9813 59.2747 27.896 59.36C27.256 60 26.5093 60.512 25.656 60.896C25.3147 61.0667 24.9733 61.216 24.632 61.344C24.2907 61.472 23.9493 61.536 23.608 61.536C23.2667 61.536 23.0107 61.4293 22.84 61.216C22.7973 61.1307 22.776 61.0667 22.776 61.024C22.776 60.9813 22.7547 60.9173 22.712 60.832C22.584 60.064 22.456 59.296 22.328 58.528C22.2 57.7173 22.0507 56.928 21.88 56.16C21.1547 52.96 20.344 49.8027 19.448 46.688C18.552 43.5307 17.6347 40.3733 16.696 37.216C15.672 33.76 14.6693 30.3253 13.688 26.912C12.7493 23.456 11.9387 19.936 11.256 16.352C9.93333 15.456 8.61067 14.4533 7.288 13.344C5.92267 12.1493 4.68533 10.848 3.576 9.44C2.424 7.98933 1.57067 6.38933 1.016 4.64C0.888 4.17066 1.016 3.72266 1.4 3.296C1.656 2.95466 1.95467 2.656 2.296 2.4C2.63733 2.10133 2.97867 1.84533 3.32 1.632C3.66133 1.41866 4.024 1.22666 4.408 1.056C4.792 0.885329 5.19733 0.757329 5.624 0.671997C5.752 0.629331 5.98667 0.607998 6.328 0.607998C6.66933 0.565332 6.88267 0.671998 6.968 0.927998C7.05333 1.14133 7.16 1.376 7.288 1.632C7.37333 1.888 7.45867 2.144 7.544 2.4C8.312 4.064 9.31467 5.57866 10.552 6.944C11.7893 8.26666 13.112 9.48266 14.52 10.592L14.648 10.72C15.2027 10.5067 15.7147 10.4 16.184 10.4C16.44 10.3573 16.6747 10.4427 16.888 10.656C16.9307 10.7413 16.952 10.8053 16.952 10.848C16.952 10.8907 16.9733 10.9547 17.016 11.04C17.0587 11.296 17.08 11.552 17.08 11.808C17.1227 12.064 17.1867 12.32 17.272 12.576C18.936 13.728 20.6427 14.7947 22.392 15.776C24.184 16.7573 25.976 17.7173 27.768 18.656C29.432 19.5093 31.0747 20.3413 32.696 21.152C34.36 21.9627 35.9813 22.8587 37.56 23.84C38.2 24.224 38.8187 24.6293 39.416 25.056C40.056 25.4827 40.6533 25.952 41.208 26.464C41.5493 26.8053 41.8907 27.168 42.232 27.552C42.5733 27.8933 42.808 28.2987 42.936 28.768C43.32 29.8347 43.2133 30.8373 42.616 31.776C42.0187 32.7573 41.2933 33.6107 40.44 34.336C39.5867 35.0187 38.6907 35.6373 37.752 36.192C36.3013 37.0453 34.808 37.792 33.272 38.432C31.7787 39.072 30.2427 39.6267 28.664 40.096C31.3947 41.9307 33.9547 43.9573 36.344 46.176C38.776 48.352 40.9733 50.7627 42.936 53.408C45.1973 56.4373 47.0533 59.6587 48.504 63.072C49.9547 66.528 50.872 70.1333 51.256 73.888ZM34.616 34.848C34.5307 34.8907 34.4453 34.9333 34.36 34.976C34.3173 34.976 34.4027 34.9333 34.616 34.848ZM36.152 34.144C35.9387 34.2293 35.8533 34.272 35.896 34.272C35.9813 34.272 36.0667 34.2293 36.152 34.144ZM37.048 33.44C37.0053 33.4827 36.984 33.504 36.984 33.504C37.112 33.3333 37.1547 33.2693 37.112 33.312C37.112 33.312 37.0907 33.3547 37.048 33.44ZM28.536 26.016C26.9573 25.1627 25.3787 24.352 23.8 23.584C22.264 22.7733 20.7067 21.9413 19.128 21.088C19.7253 23.392 20.344 25.6747 20.984 27.936C21.6667 30.1547 22.3493 32.416 23.032 34.72C23.2027 35.3173 23.3733 35.8933 23.544 36.448C23.7147 36.96 23.8853 37.5147 24.056 38.112C24.1413 38.112 24.2053 38.0907 24.248 38.048C24.76 37.92 25.272 37.792 25.784 37.664C26.296 37.536 26.808 37.3867 27.32 37.216C27.448 37.1733 27.5547 37.152 27.64 37.152C27.768 37.1093 27.896 37.0667 28.024 37.024H28.088C28.3013 36.9387 28.5147 36.8747 28.728 36.832C28.9413 36.7893 29.1547 36.7253 29.368 36.64C30.0933 36.4267 30.8187 36.192 31.544 35.936C32.312 35.68 33.0587 35.4027 33.784 35.104C33.9973 35.0613 34.2747 34.9547 34.616 34.784C34.7013 34.784 34.7653 34.7627 34.808 34.72C35.0213 34.6347 35.2133 34.5493 35.384 34.464C35.5547 34.3787 35.7467 34.2933 35.96 34.208C36.0453 34.1653 36.1093 34.144 36.152 34.144C36.2373 34.1013 36.3227 34.0373 36.408 33.952C36.4933 33.9093 36.5573 33.8667 36.6 33.824C36.6853 33.7813 36.7707 33.7387 36.856 33.696L36.92 33.632C36.92 33.5893 36.92 33.568 36.92 33.568C36.9627 33.5253 36.984 33.4827 36.984 33.44C37.0267 33.2267 37.048 32.9493 37.048 32.608C36.8773 32.0107 36.5787 31.4987 36.152 31.072C35.7253 30.6027 35.2773 30.176 34.808 29.792C33.8267 29.0667 32.8027 28.4053 31.736 27.808C30.712 27.2107 29.6453 26.6133 28.536 26.016ZM63.8245 42.272C63.9952 42.4853 63.9952 42.7413 63.8245 43.04C63.6538 43.296 63.5258 43.488 63.4405 43.616C62.9285 44.256 62.3098 44.8107 61.5845 45.28C61.2432 45.4933 60.8592 45.6853 60.4325 45.856C60.0485 46.0267 59.6432 46.1547 59.2165 46.24C59.0032 46.3253 58.7685 46.368 58.5125 46.368C58.2565 46.3253 58.0432 46.1973 57.8725 45.984C57.7018 45.7707 57.5312 45.6 57.3605 45.472C57.1898 45.3013 56.9978 45.1093 56.7845 44.896C56.8272 44.9813 56.8698 45.0453 56.9125 45.088C56.9552 45.088 56.9978 45.1093 57.0405 45.152C56.2725 44.5547 55.4192 44.1707 54.4805 44C54.5658 44 54.6298 44.0213 54.6725 44.064C54.7578 44.064 54.8432 44.064 54.9285 44.064C54.4592 43.9787 53.9685 43.9787 53.4565 44.064C53.5845 44.0213 53.7978 44 54.0965 44C53.9685 44 53.8405 44.0213 53.7125 44.064C53.6272 44.064 53.5205 44.064 53.3925 44.064C53.3498 44.1067 53.2858 44.128 53.2005 44.128C53.5418 44.0427 53.7552 44 53.8405 44C53.9258 43.9573 53.9045 43.9573 53.7765 44C53.6912 44 53.6272 44.0213 53.5845 44.064C53.5845 44.064 53.5418 44.064 53.4565 44.064C53.4138 44.1067 53.3498 44.128 53.2645 44.128C53.6058 44 53.8192 43.9147 53.9045 43.872C54.0325 43.7867 54.0325 43.7867 53.9045 43.872C53.8192 43.9147 53.7552 43.9573 53.7125 44C53.7125 44 53.6698 44.0213 53.5845 44.064C53.5845 44.064 53.5418 44.0853 53.4565 44.128C53.7978 43.9147 54.0325 43.7867 54.1605 43.744C54.2885 43.6587 54.2672 43.6587 54.0965 43.744C54.0538 43.7867 54.0112 43.8293 53.9685 43.872C53.9258 43.872 53.8832 43.8933 53.8405 43.936C53.7125 44.0213 53.6698 44.0427 53.7125 44C53.7978 43.9147 53.9045 43.8293 54.0325 43.744C54.1605 43.6587 54.2672 43.5947 54.3525 43.552C54.4378 43.5093 54.4165 43.5307 54.2885 43.616C54.2458 43.6587 54.2032 43.7013 54.1605 43.744C54.1178 43.744 54.0752 43.7653 54.0325 43.808C53.9472 43.8933 53.9258 43.9147 53.9685 43.872C54.0538 43.7867 54.1392 43.7013 54.2245 43.616C54.3525 43.5307 54.4378 43.4667 54.4805 43.424C54.5658 43.3387 54.5658 43.3387 54.4805 43.424L54.4165 43.488L54.1605 43.744C54.1605 43.744 54.1178 43.7867 54.0325 43.872C54.2458 43.6587 54.3738 43.5093 54.4165 43.424C54.5018 43.3387 54.5018 43.36 54.4165 43.488C54.3312 43.5733 54.2672 43.6587 54.2245 43.744C54.1392 43.8293 54.0752 43.9147 54.0325 44C53.9898 44.0853 53.9258 44.1707 53.8405 44.256C53.8832 44.1707 53.9258 44.0853 53.9685 44C54.0112 43.9147 54.0752 43.8293 54.1605 43.744C53.9898 44 53.8405 44.2773 53.7125 44.576C53.5845 44.832 53.4778 45.1307 53.3925 45.472C53.3925 45.344 53.4352 45.1947 53.5205 45.024C53.1792 46.1333 53.1365 47.3707 53.3925 48.736C53.3925 48.6507 53.3712 48.5867 53.3285 48.544C53.3285 48.5013 53.3285 48.4373 53.3285 48.352C53.5845 49.5893 54.1178 50.784 54.9285 51.936C55.3552 52.6613 55.8672 53.2373 56.4645 53.664C56.4218 53.6213 56.3792 53.6 56.3365 53.6C56.2938 53.5573 56.2512 53.5147 56.2085 53.472C57.0192 54.0693 57.8725 54.432 58.7685 54.56C58.5978 54.56 58.4485 54.5387 58.3205 54.496C58.8325 54.624 59.4085 54.6453 60.0485 54.56C59.7925 54.56 59.6005 54.5813 59.4725 54.624C59.6858 54.5813 59.8778 54.56 60.0485 54.56C60.2192 54.5173 60.3898 54.4747 60.5605 54.432C60.6032 54.3893 60.6672 54.368 60.7525 54.368C60.1978 54.5387 60.0058 54.5813 60.1765 54.496C60.2618 54.496 60.3045 54.496 60.3045 54.496C60.3472 54.4533 60.3898 54.432 60.4325 54.432C60.6885 54.3467 60.8592 54.2827 60.9445 54.24C60.9872 54.24 61.0085 54.24 61.0085 54.24C61.0512 54.1973 61.0938 54.176 61.1365 54.176C60.7952 54.3467 60.5605 54.4533 60.4325 54.496C60.3472 54.5387 60.3685 54.5173 60.4965 54.432H60.5605C60.6032 54.3893 60.6245 54.368 60.6245 54.368C60.6672 54.368 60.7098 54.3467 60.7525 54.304C61.0085 54.2187 61.1792 54.1333 61.2645 54.048C61.3072 54.048 61.3285 54.048 61.3285 54.048C61.3712 54.0053 61.4138 53.984 61.4565 53.984C60.8165 54.3253 60.5178 54.496 60.5605 54.496C60.6032 54.496 60.6885 54.4533 60.8165 54.368C60.9018 54.2827 60.9872 54.2187 61.0725 54.176C61.2432 54.0907 61.3925 53.984 61.5205 53.856C61.5632 53.856 61.5845 53.856 61.5845 53.856C61.6272 53.8133 61.6698 53.792 61.7125 53.792C61.7978 53.7493 61.7978 53.7493 61.7125 53.792C61.6272 53.8347 61.5205 53.8987 61.3925 53.984C61.2645 54.0693 61.1578 54.1547 61.0725 54.24C60.9872 54.2827 60.9872 54.2613 61.0725 54.176C61.2432 54.0907 61.3285 54.048 61.3285 54.048C61.4565 53.9627 61.6058 53.8347 61.7765 53.664C61.8618 53.6213 61.9685 53.536 62.0965 53.408C62.1818 53.3227 62.1818 53.3227 62.0965 53.408C62.0538 53.4507 61.9685 53.5147 61.8405 53.6C61.7552 53.6853 61.6698 53.7707 61.5845 53.856C61.5418 53.8987 61.5845 53.856 61.7125 53.728C61.7978 53.6427 61.8618 53.5787 61.9045 53.536C61.9898 53.4933 62.0752 53.4293 62.1605 53.344L62.6085 52.896C62.6512 52.768 62.7365 52.6827 62.8645 52.64C62.9498 52.5547 62.9712 52.5333 62.9285 52.576C62.8858 52.6187 62.8218 52.6827 62.7365 52.768C62.6512 52.8533 62.5872 52.9387 62.5445 53.024C62.5018 53.0667 62.5232 53.0453 62.6085 52.96C62.8645 52.6187 63.1205 52.2773 63.3765 51.936C63.6752 51.5947 63.9312 51.232 64.1445 50.848C63.9738 51.104 63.8672 51.2747 63.8245 51.36C64.1658 50.848 64.4645 50.3147 64.7205 49.76C64.9765 49.1627 65.2112 48.544 65.4245 47.904C65.3392 48.16 65.2965 48.3307 65.2965 48.416C65.7658 46.7093 65.8512 45.088 65.5525 43.552C65.5952 43.6373 65.6165 43.7653 65.6165 43.936C65.4032 42.9547 65.0192 42.0587 64.4645 41.248C63.9525 40.4373 63.3125 39.7333 62.5445 39.136C62.5872 39.1787 62.6298 39.2213 62.6725 39.264C62.7152 39.264 62.7578 39.2853 62.8005 39.328C62.1178 38.816 61.3712 38.368 60.5605 37.984C59.7925 37.6 59.0032 37.28 58.1925 37.024C57.9365 36.9387 57.8085 36.7893 57.8085 36.576C57.8085 36.3627 57.8512 36.1707 57.9365 36C58.1072 35.6587 58.3205 35.36 58.5765 35.104C58.8325 34.8053 59.1098 34.5493 59.4085 34.336C59.7498 34.08 60.1125 33.8453 60.4965 33.632C60.9232 33.376 61.3498 33.184 61.7765 33.056C62.0752 32.9707 62.3738 32.9067 62.6725 32.864C62.9712 32.7787 63.2698 32.7787 63.5685 32.864C65.4885 33.4613 67.1738 34.336 68.6245 35.488C70.0325 36.64 70.9925 38.048 71.5045 39.712C71.9312 41.3333 71.9525 43.0187 71.5685 44.768C71.0565 46.816 70.1605 48.7147 68.8805 50.464C67.6005 52.2133 66.1285 53.728 64.4645 55.008C63.3978 55.8187 62.2672 56.544 61.0725 57.184C59.9205 57.7813 58.7045 58.2507 57.4245 58.592C56.5712 58.8053 55.6965 58.9333 54.8005 58.976C53.9472 58.976 53.1152 58.8053 52.3045 58.464C51.4938 58.1653 50.7898 57.7173 50.1925 57.12C49.5952 56.5227 49.0618 55.8613 48.5925 55.136C48.2085 54.4533 47.8885 53.7493 47.6325 53.024C47.3765 52.2987 47.2058 51.552 47.1205 50.784C46.9925 49.504 47.2058 48.2027 47.7605 46.88C48.1018 46.0267 48.5498 45.28 49.1045 44.64C49.7018 43.9573 50.3418 43.3173 51.0245 42.72C51.8352 42.0373 52.7098 41.4613 53.6485 40.992C54.6298 40.48 55.6325 40.1173 56.6565 39.904C57.2965 39.7333 57.9578 39.6693 58.6405 39.712C59.3658 39.712 60.0485 39.8187 60.6885 40.032C61.2858 40.2453 61.8405 40.5653 62.3525 40.992C62.9072 41.376 63.3978 41.8027 63.8245 42.272ZM81.4525 42.912C81.0258 43.6373 80.4712 44.2347 79.7885 44.704C79.1058 45.1733 78.3805 45.5573 77.6125 45.856C77.3565 45.9413 77.0578 46.0267 76.7165 46.112C76.4178 46.1547 76.1192 46.1333 75.8205 46.048C75.6072 45.9627 75.4792 45.8133 75.4365 45.6C75.4365 45.3867 75.5005 45.1947 75.6285 45.024C76.8658 42.848 78.1032 40.6933 79.3405 38.56C80.5778 36.4267 81.6658 34.208 82.6045 31.904C82.7325 31.5627 82.9458 31.264 83.2445 31.008C83.5432 30.7093 83.8205 30.4533 84.0765 30.24C84.4178 29.984 84.7805 29.7493 85.1645 29.536C85.5912 29.28 86.0178 29.088 86.4445 28.96C86.7005 28.8747 86.9778 28.7893 87.2765 28.704C87.6178 28.6187 87.9378 28.64 88.2365 28.768C88.4925 28.8533 88.6205 29.0453 88.6205 29.344C88.8338 31.5627 89.1325 33.7813 89.5165 36C89.9005 38.176 90.3272 40.352 90.7965 42.528C90.7965 42.4427 90.7752 42.3787 90.7325 42.336C90.7325 42.2933 90.7325 42.2293 90.7325 42.144C91.0738 43.5947 91.3938 45.0453 91.6925 46.496C91.9912 47.904 92.2898 49.3333 92.5885 50.784C92.8445 52.0213 93.0792 53.2587 93.2925 54.496C93.5058 55.7333 93.6978 56.9707 93.8685 58.208C93.8258 58.5067 93.6552 58.8267 93.3565 59.168C93.2712 59.296 93.1218 59.4667 92.9085 59.68C92.5672 60.0213 92.2045 60.32 91.8205 60.576C91.4365 60.832 91.0525 61.0667 90.6685 61.28C90.3272 61.4507 89.9645 61.5787 89.5805 61.664C89.2392 61.792 88.8978 61.856 88.5565 61.856C88.2578 61.8987 88.0018 61.792 87.7885 61.536C87.7885 61.4933 87.7672 61.4507 87.7245 61.408C87.7245 61.3653 87.7245 61.3013 87.7245 61.216C87.5112 59.6373 87.2552 58.08 86.9565 56.544C86.7005 55.008 86.4018 53.472 86.0605 51.936C86.1032 52.0213 86.1245 52.1493 86.1245 52.32C85.3992 48.992 84.6952 45.6853 84.0125 42.4C83.3298 39.072 82.8178 35.7227 82.4765 32.352C83.4578 31.8827 84.4392 31.456 85.4205 31.072C86.4445 30.6453 87.4472 30.2187 88.4285 29.792C87.5325 32.096 86.4658 34.3147 85.2285 36.448C83.9912 38.5813 82.7325 40.736 81.4525 42.912ZM89.1325 46.24C89.4312 46.368 89.5592 46.56 89.5165 46.816C89.4738 47.072 89.3458 47.3493 89.1325 47.648C88.9192 47.9467 88.6845 48.224 88.4285 48.48C88.1725 48.6933 87.9805 48.8213 87.8525 48.864C87.1698 49.4187 86.3805 49.8667 85.4845 50.208C85.2285 50.2933 84.9298 50.3787 84.5885 50.464C84.2898 50.5493 83.9912 50.528 83.6925 50.4C83.1805 50.1867 82.6472 49.9947 82.0925 49.824C81.5805 49.6533 81.0258 49.5253 80.4285 49.44C80.5565 49.4827 80.7058 49.504 80.8765 49.504C80.0658 49.376 79.1698 49.3547 78.1885 49.44C78.2738 49.44 78.3592 49.44 78.4445 49.44C78.5725 49.3973 78.7005 49.376 78.8285 49.376C78.6152 49.376 78.3378 49.4187 77.9965 49.504C77.9112 49.504 77.8472 49.5253 77.8045 49.568C77.7618 49.568 77.6978 49.568 77.6125 49.568C77.4845 49.6107 77.4632 49.632 77.5485 49.632C77.6338 49.5893 77.7192 49.568 77.8045 49.568C77.9325 49.5253 78.0392 49.504 78.1245 49.504C78.2098 49.4613 78.2098 49.44 78.1245 49.44C78.0818 49.44 78.0392 49.4613 77.9965 49.504C77.9965 49.504 77.9752 49.504 77.9325 49.504C77.8898 49.5467 77.8472 49.568 77.8045 49.568C77.7618 49.568 77.6978 49.5893 77.6125 49.632C77.5698 49.632 77.5272 49.6533 77.4845 49.696C77.4845 49.696 77.4632 49.696 77.4205 49.696C78.0605 49.44 78.3592 49.312 78.3165 49.312C78.2738 49.312 78.1885 49.3547 78.0605 49.44C77.8898 49.5253 77.7832 49.568 77.7405 49.568C77.6125 49.6533 77.5912 49.6747 77.6765 49.632C77.7618 49.5467 77.8685 49.4827 77.9965 49.44C78.1245 49.3547 78.2312 49.2907 78.3165 49.248C78.4018 49.2053 78.3805 49.2267 78.2525 49.312C78.2098 49.3547 78.1672 49.3973 78.1245 49.44C78.0818 49.44 78.0392 49.4613 77.9965 49.504C77.9112 49.5467 77.9112 49.5467 77.9965 49.504C78.0818 49.4187 78.1885 49.3333 78.3165 49.248C78.4445 49.1627 78.5298 49.0987 78.5725 49.056C78.6578 48.9707 78.6578 48.9707 78.5725 49.056L78.4445 49.184C78.4018 49.184 78.3805 49.2053 78.3805 49.248C78.3805 49.248 78.3592 49.248 78.3165 49.248C78.2312 49.3333 78.1672 49.3973 78.1245 49.44C78.0818 49.4827 78.3165 49.2693 78.8285 48.8L78.5725 49.056L78.3805 49.248C78.8072 48.7787 78.9992 48.5867 78.9565 48.672C78.9138 48.7147 78.8498 48.7787 78.7645 48.864C78.7218 48.864 78.7005 48.8853 78.7005 48.928C78.6152 49.056 78.4872 49.2053 78.3165 49.376C78.4018 49.2907 78.5298 49.12 78.7005 48.864C78.4445 49.248 78.2525 49.6533 78.1245 50.08C78.2098 49.824 78.2525 49.6533 78.2525 49.568C78.0818 50.2507 78.0605 50.9333 78.1885 51.616C78.1458 51.5733 78.1245 51.4667 78.1245 51.296C78.3378 52.192 78.7858 52.9173 79.4685 53.472L79.2125 53.216C79.5538 53.5147 79.9378 53.7493 80.3645 53.92C80.7912 54.048 81.2392 54.1547 81.7085 54.24C81.4952 54.24 81.3458 54.2187 81.2605 54.176C81.6872 54.2613 82.1138 54.304 82.5405 54.304C83.0098 54.304 83.4792 54.2827 83.9485 54.24C83.8205 54.24 83.6925 54.2613 83.5645 54.304C83.4792 54.304 83.3938 54.304 83.3085 54.304C83.6072 54.2613 83.8845 54.2187 84.1405 54.176C84.4392 54.1333 84.7378 54.0693 85.0365 53.984C85.4632 53.8987 85.7832 53.8133 85.9965 53.728C85.6552 53.8133 85.4418 53.8773 85.3565 53.92C85.3138 53.9627 85.3565 53.9627 85.4845 53.92C85.5272 53.92 85.5485 53.92 85.5485 53.92C85.5485 53.8773 85.5698 53.856 85.6125 53.856C85.6552 53.856 85.6765 53.856 85.6765 53.856C85.7192 53.8133 85.7618 53.792 85.8045 53.792C86.0605 53.7067 86.2312 53.664 86.3165 53.664C86.4872 53.5787 86.6578 53.5147 86.8285 53.472C86.9992 53.4293 87.1698 53.3653 87.3405 53.28C87.5965 53.1947 87.7672 53.1093 87.8525 53.024C87.9805 53.024 88.0872 52.9813 88.1725 52.896C88.3005 52.8533 88.3218 52.8533 88.2365 52.896C88.1512 52.9387 88.0445 52.9813 87.9165 53.024C87.8312 53.0667 87.7458 53.1093 87.6605 53.152C87.5752 53.1947 87.5965 53.1947 87.7245 53.152L90.0285 52C90.3698 51.8293 90.7112 51.7013 91.0525 51.616C91.4365 51.488 91.7992 51.424 92.1405 51.424C92.3538 51.424 92.5458 51.4667 92.7165 51.552C92.9298 51.6373 93.0152 51.808 92.9725 52.064C92.9298 52.3627 92.8018 52.64 92.5885 52.896C92.4178 53.152 92.2258 53.3867 92.0125 53.6C91.6712 53.9413 91.3085 54.24 90.9245 54.496C90.5832 54.7093 90.1992 54.9227 89.7725 55.136C88.0232 56.0747 86.2952 56.8213 84.5885 57.376C83.0952 57.9307 81.6658 58.2933 80.3005 58.464C79.4045 58.592 78.4658 58.656 77.4845 58.656C76.5458 58.6133 75.6498 58.4 74.7965 58.016C74.2418 57.76 73.7298 57.44 73.2605 57.056C72.8338 56.6293 72.5138 56.1387 72.3005 55.584C72.0018 54.816 71.9165 54.0693 72.0445 53.344C72.1298 52.576 72.3645 51.872 72.7485 51.232C73.0898 50.5493 73.5165 49.9307 74.0285 49.376C74.5832 48.7787 75.1592 48.2667 75.7565 47.84C76.3965 47.4133 77.0365 47.008 77.6765 46.624C78.3165 46.24 78.9992 45.9413 79.7245 45.728C80.7912 45.3867 81.9218 45.1733 83.1165 45.088C84.1405 45.0027 85.1432 45.088 86.1245 45.344C87.1485 45.5573 88.1512 45.856 89.1325 46.24ZM131.644 52.768C131.815 52.9813 131.815 53.216 131.644 53.472C131.516 53.728 131.388 53.9413 131.26 54.112C130.748 54.752 130.129 55.3067 129.404 55.776C128.636 56.2453 127.847 56.5653 127.036 56.736C125.159 57.1627 123.281 57.568 121.404 57.952C119.527 58.2933 117.628 58.5707 115.708 58.784C114.428 58.9547 113.148 59.0827 111.868 59.168C110.631 59.2533 109.372 59.2533 108.092 59.168C106.94 59.0827 105.788 58.9547 104.636 58.784C103.484 58.6133 102.375 58.3147 101.308 57.888C100.327 57.5467 99.4093 57.0987 98.556 56.544C97.7453 55.9467 97.0413 55.2213 96.444 54.368C96.1027 53.9413 95.8253 53.5147 95.612 53.088C95.4413 52.6187 95.2707 52.1493 95.1 51.68C94.9293 51.0827 94.78 50.5067 94.652 49.952C94.5667 49.3547 94.524 48.7573 94.524 48.16C94.4813 47.1787 94.6093 46.2187 94.908 45.28C95.2067 44.3413 95.676 43.488 96.316 42.72C97.2973 41.4827 98.4493 40.48 99.772 39.712C101.137 38.944 102.567 38.3467 104.06 37.92C104.999 37.664 105.937 37.5147 106.876 37.472C107.857 37.4293 108.839 37.4507 109.82 37.536C110.844 37.664 111.847 37.856 112.828 38.112C113.852 38.3253 114.855 38.6453 115.836 39.072C116.348 39.2853 116.839 39.52 117.308 39.776C117.82 39.9893 118.311 40.2667 118.78 40.608C118.78 40.5227 118.78 40.4373 118.78 40.352C118.823 40.2667 118.844 40.1813 118.844 40.096C119.185 36.2133 119.697 32.3947 120.38 28.64C121.063 24.8427 121.916 21.0667 122.94 17.312C123.153 16.5867 123.58 15.968 124.22 15.456C124.86 14.944 125.479 14.5387 126.076 14.24C126.417 14.0693 126.759 13.92 127.1 13.792C127.484 13.664 127.847 13.6 128.188 13.6C128.359 13.6 128.551 13.664 128.764 13.792C129.02 13.8773 129.105 14.0267 129.02 14.24C128.593 15.776 128.209 17.312 127.868 18.848C127.527 20.3413 127.207 21.856 126.908 23.392C126.14 27.2747 125.543 31.1573 125.116 35.04C124.732 38.9227 124.604 43.8933 124.732 49.952C124.732 50.2507 124.604 50.528 124.348 50.784C124.135 51.04 123.943 51.2747 123.772 51.488C123.089 52.0853 122.343 52.5973 121.532 53.024C121.191 53.1947 120.828 53.344 120.444 53.472C120.103 53.5573 119.761 53.6 119.42 53.6C119.121 53.6427 118.865 53.5573 118.652 53.344C118.396 50.6133 117.884 48.8213 117.116 47.968C116.348 47.072 115.601 46.3253 114.876 45.728C113.596 44.7467 112.188 43.9573 110.652 43.36C109.159 42.72 107.623 42.2507 106.044 41.952C104.679 41.7387 103.42 41.696 102.268 41.824C102.055 41.8667 101.863 41.888 101.692 41.888C101.564 41.888 101.415 41.9307 101.244 42.016C101.159 42.144 101.095 42.2933 101.052 42.464C101.009 42.592 100.945 42.72 100.86 42.848C100.647 43.5733 100.561 44.2773 100.604 44.96C100.647 45.6427 100.732 46.3467 100.86 47.072C100.988 47.584 101.137 48.096 101.308 48.608C101.479 49.12 101.713 49.6107 102.012 50.08C102.481 50.848 103.121 51.5733 103.932 52.256C104.785 52.896 105.703 53.3867 106.684 53.728C107.708 54.0693 108.732 54.3467 109.756 54.56C111.335 54.7733 112.892 54.88 114.428 54.88C116.007 54.8373 117.585 54.7307 119.164 54.56C121.084 54.3467 122.961 54.0693 124.796 53.728C126.631 53.344 128.465 52.96 130.3 52.576C130.513 52.4907 130.748 52.448 131.004 52.448C131.303 52.448 131.516 52.5547 131.644 52.768ZM101.116 42.016C101.116 42.0587 101.137 42.0587 101.18 42.016H101.116ZM101.436 41.76C101.649 41.5467 101.713 41.4613 101.628 41.504C101.585 41.5467 101.521 41.6107 101.436 41.696V41.76ZM178.117 40.288C178.245 40.8427 178.33 41.3973 178.373 41.952C178.458 42.5067 178.458 43.0827 178.373 43.68C178.287 45.0027 178.074 46.304 177.733 47.584C177.391 48.8213 176.986 50.016 176.517 51.168C176.047 52.4053 175.535 53.6213 174.981 54.816C174.426 56.0107 173.829 57.1627 173.189 58.272C172.122 60.2773 170.885 62.24 169.477 64.16C169.263 64.4587 169.007 64.7147 168.709 64.928C168.41 65.184 168.111 65.3973 167.813 65.568C167.215 65.9947 166.511 66.3147 165.701 66.528C165.487 66.5707 165.253 66.592 164.997 66.592C164.741 66.592 164.57 66.4853 164.485 66.272C164.357 66.0587 164.357 65.8453 164.485 65.632C164.613 65.4187 164.719 65.2267 164.805 65.056C165.061 64.7147 165.317 64.352 165.573 63.968C165.829 63.6267 166.106 63.2427 166.405 62.816C167.557 60.9813 168.602 59.0827 169.541 57.12C170.522 55.1573 171.333 53.1093 171.973 50.976C172.314 49.7813 172.57 48.5653 172.741 47.328C172.954 46.048 172.954 44.7893 172.741 43.552C172.527 42.784 172.207 42.0373 171.781 41.312C171.397 40.5867 170.885 39.9893 170.245 39.52C169.775 39.136 169.242 38.88 168.645 38.752C168.559 38.752 168.453 38.752 168.325 38.752C168.239 38.7093 168.154 38.7093 168.069 38.752C167.941 38.752 167.834 38.7733 167.749 38.816H167.685C167.599 38.9013 167.557 38.944 167.557 38.944C167.514 39.0293 167.471 39.0933 167.429 39.136C167.386 39.136 167.322 39.1787 167.237 39.264C167.109 39.4773 166.959 39.6907 166.789 39.904C166.618 40.0747 166.469 40.2667 166.341 40.48C166.17 40.736 166.021 41.0133 165.893 41.312C165.765 41.568 165.637 41.8453 165.509 42.144C165.551 42.4 165.573 42.656 165.573 42.912C165.573 43.168 165.594 43.424 165.637 43.68C165.679 44.7893 165.615 45.8773 165.445 46.944C165.317 48.0107 165.146 49.0773 164.933 50.144C164.549 52.1067 164.037 54.0053 163.397 55.84C163.269 56.1387 163.055 56.416 162.757 56.672C162.501 56.8853 162.266 57.0987 162.053 57.312C161.413 57.7813 160.709 58.1867 159.941 58.528C159.727 58.6133 159.45 58.6773 159.109 58.72C158.81 58.7627 158.554 58.7413 158.341 58.656C158.085 58.5707 157.957 58.4427 157.957 58.272C157.957 58.1013 157.999 57.9307 158.085 57.76C158.17 57.4613 158.255 57.184 158.341 56.928C158.426 56.672 158.511 56.3947 158.597 56.096C158.938 55.1147 159.194 54.112 159.365 53.088C159.578 52.064 159.77 51.04 159.941 50.016C160.026 49.2907 160.069 48.5867 160.069 47.904C160.111 47.1787 160.111 46.4533 160.069 45.728C159.855 45.6427 159.749 45.5147 159.749 45.344C159.791 45.1733 159.855 45.0027 159.941 44.832C159.941 44.832 159.962 44.8107 160.005 44.768C159.962 44.5973 159.919 44.448 159.877 44.32C159.877 44.192 159.855 44.0427 159.812 43.872C159.642 43.1467 159.407 42.464 159.109 41.824C158.81 41.184 158.362 40.6293 157.765 40.16C157.338 39.8613 156.89 39.6267 156.421 39.456C155.951 39.2853 155.461 39.1573 154.949 39.072C154.821 39.072 154.671 39.072 154.501 39.072C154.373 39.0293 154.223 39.008 154.053 39.008C153.882 39.4347 153.775 39.7547 153.733 39.968C153.391 41.0773 153.199 42.2507 153.157 43.488C153.114 44.6827 153.135 45.856 153.22 47.008C153.306 47.8613 153.391 48.7147 153.477 49.568C153.562 50.4213 153.647 51.2747 153.733 52.128C153.818 52.768 153.903 53.408 153.989 54.048C154.117 54.6453 154.223 55.264 154.309 55.904C154.309 56.1173 154.202 56.352 153.989 56.608C153.775 56.864 153.583 57.0773 153.413 57.248C153.114 57.5467 152.794 57.8027 152.453 58.016C152.111 58.2293 151.77 58.4427 151.429 58.656C151.13 58.784 150.81 58.912 150.469 59.04C150.17 59.168 149.85 59.232 149.509 59.232C149.21 59.232 148.975 59.1253 148.805 58.912C148.378 57.2907 147.994 55.648 147.653 53.984C147.311 52.32 146.97 50.656 146.629 48.992C146.373 47.5413 146.117 46.112 145.861 44.704C145.605 43.2533 145.37 41.8027 145.157 40.352C145.029 39.1573 144.901 37.984 144.773 36.832C144.645 35.6373 144.581 34.464 144.581 33.312C144.581 33.0133 144.666 32.736 144.837 32.48C145.05 32.224 145.263 32.032 145.477 31.904C145.775 31.6053 146.095 31.3493 146.437 31.136C146.778 30.9227 147.119 30.7093 147.461 30.496C147.589 30.4533 147.802 30.368 148.101 30.24C148.399 30.112 148.698 30.0267 148.997 29.984C149.295 29.8987 149.551 29.8987 149.765 29.984C150.021 30.0693 150.149 30.2613 150.149 30.56C150.149 31.0293 150.149 31.4987 150.149 31.968C150.191 32.3947 150.234 32.8427 150.277 33.312C150.319 34.1653 150.383 34.9973 150.469 35.808C150.554 36.576 150.661 37.3653 150.789 38.176C150.917 38.048 151.045 37.92 151.173 37.792C151.343 37.664 151.493 37.536 151.621 37.408C152.687 36.64 153.839 36.0213 155.077 35.552C156.314 35.0827 157.594 34.9547 158.917 35.168C159.471 35.2533 160.005 35.36 160.517 35.488C161.071 35.616 161.583 35.808 162.053 36.064C162.906 36.5333 163.589 37.152 164.101 37.92C164.186 38.0053 164.229 38.0907 164.229 38.176C164.271 38.2187 164.335 38.2827 164.421 38.368C164.549 38.2827 164.655 38.1973 164.741 38.112C164.869 37.984 164.997 37.8773 165.125 37.792C165.509 37.4507 165.914 37.152 166.341 36.896C166.767 36.64 167.215 36.384 167.685 36.128C168.026 35.9147 168.367 35.744 168.709 35.616C169.05 35.488 169.391 35.36 169.733 35.232C170.373 35.0613 171.034 34.9333 171.717 34.848C172.399 34.7627 173.103 34.8267 173.829 35.04C174.895 35.424 175.813 36.1067 176.581 37.088C176.922 37.5573 177.221 38.0693 177.477 38.624C177.775 39.136 177.989 39.6907 178.117 40.288ZM153.093 39.072C152.879 39.1573 152.794 39.2 152.837 39.2C152.922 39.1573 153.007 39.1147 153.093 39.072ZM187.515 42.912C187.088 43.6373 186.534 44.2347 185.851 44.704C185.168 45.1733 184.443 45.5573 183.675 45.856C183.419 45.9413 183.12 46.0267 182.779 46.112C182.48 46.1547 182.182 46.1333 181.883 46.048C181.67 45.9627 181.542 45.8133 181.499 45.6C181.499 45.3867 181.563 45.1947 181.691 45.024C182.928 42.848 184.166 40.6933 185.403 38.56C186.64 36.4267 187.728 34.208 188.667 31.904C188.795 31.5627 189.008 31.264 189.307 31.008C189.606 30.7093 189.883 30.4533 190.139 30.24C190.48 29.984 190.843 29.7493 191.227 29.536C191.654 29.28 192.08 29.088 192.507 28.96C192.763 28.8747 193.04 28.7893 193.339 28.704C193.68 28.6187 194 28.64 194.299 28.768C194.555 28.8533 194.683 29.0453 194.683 29.344C194.896 31.5627 195.195 33.7813 195.579 36C195.963 38.176 196.39 40.352 196.859 42.528C196.859 42.4427 196.838 42.3787 196.795 42.336C196.795 42.2933 196.795 42.2293 196.795 42.144C197.136 43.5947 197.456 45.0453 197.755 46.496C198.054 47.904 198.352 49.3333 198.651 50.784C198.907 52.0213 199.142 53.2587 199.355 54.496C199.568 55.7333 199.76 56.9707 199.931 58.208C199.888 58.5067 199.718 58.8267 199.419 59.168C199.334 59.296 199.184 59.4667 198.971 59.68C198.63 60.0213 198.267 60.32 197.883 60.576C197.499 60.832 197.115 61.0667 196.731 61.28C196.39 61.4507 196.027 61.5787 195.643 61.664C195.302 61.792 194.96 61.856 194.619 61.856C194.32 61.8987 194.064 61.792 193.851 61.536C193.851 61.4933 193.83 61.4507 193.787 61.408C193.787 61.3653 193.787 61.3013 193.787 61.216C193.574 59.6373 193.318 58.08 193.019 56.544C192.763 55.008 192.464 53.472 192.123 51.936C192.166 52.0213 192.187 52.1493 192.187 52.32C191.462 48.992 190.758 45.6853 190.075 42.4C189.392 39.072 188.88 35.7227 188.539 32.352C189.52 31.8827 190.502 31.456 191.483 31.072C192.507 30.6453 193.51 30.2187 194.491 29.792C193.595 32.096 192.528 34.3147 191.291 36.448C190.054 38.5813 188.795 40.736 187.515 42.912ZM195.195 46.24C195.494 46.368 195.622 46.56 195.579 46.816C195.536 47.072 195.408 47.3493 195.195 47.648C194.982 47.9467 194.747 48.224 194.491 48.48C194.235 48.6933 194.043 48.8213 193.915 48.864C193.232 49.4187 192.443 49.8667 191.547 50.208C191.291 50.2933 190.992 50.3787 190.651 50.464C190.352 50.5493 190.054 50.528 189.755 50.4C189.243 50.1867 188.71 49.9947 188.155 49.824C187.643 49.6533 187.088 49.5253 186.491 49.44C186.619 49.4827 186.768 49.504 186.939 49.504C186.128 49.376 185.232 49.3547 184.251 49.44C184.336 49.44 184.422 49.44 184.507 49.44C184.635 49.3973 184.763 49.376 184.891 49.376C184.678 49.376 184.4 49.4187 184.059 49.504C183.974 49.504 183.91 49.5253 183.867 49.568C183.824 49.568 183.76 49.568 183.675 49.568C183.547 49.6107 183.526 49.632 183.611 49.632C183.696 49.5893 183.782 49.568 183.867 49.568C183.995 49.5253 184.102 49.504 184.187 49.504C184.272 49.4613 184.272 49.44 184.187 49.44C184.144 49.44 184.102 49.4613 184.059 49.504C184.059 49.504 184.038 49.504 183.995 49.504C183.952 49.5467 183.91 49.568 183.867 49.568C183.824 49.568 183.76 49.5893 183.675 49.632C183.632 49.632 183.59 49.6533 183.547 49.696C183.547 49.696 183.526 49.696 183.483 49.696C184.123 49.44 184.422 49.312 184.379 49.312C184.336 49.312 184.251 49.3547 184.123 49.44C183.952 49.5253 183.846 49.568 183.803 49.568C183.675 49.6533 183.654 49.6747 183.739 49.632C183.824 49.5467 183.931 49.4827 184.059 49.44C184.187 49.3547 184.294 49.2907 184.379 49.248C184.464 49.2053 184.443 49.2267 184.315 49.312C184.272 49.3547 184.23 49.3973 184.187 49.44C184.144 49.44 184.102 49.4613 184.059 49.504C183.974 49.5467 183.974 49.5467 184.059 49.504C184.144 49.4187 184.251 49.3333 184.379 49.248C184.507 49.1627 184.592 49.0987 184.635 49.056C184.72 48.9707 184.72 48.9707 184.635 49.056L184.507 49.184C184.464 49.184 184.443 49.2053 184.443 49.248C184.443 49.248 184.422 49.248 184.379 49.248C184.294 49.3333 184.23 49.3973 184.187 49.44C184.144 49.4827 184.379 49.2693 184.891 48.8L184.635 49.056L184.443 49.248C184.87 48.7787 185.062 48.5867 185.019 48.672C184.976 48.7147 184.912 48.7787 184.827 48.864C184.784 48.864 184.763 48.8853 184.763 48.928C184.678 49.056 184.55 49.2053 184.379 49.376C184.464 49.2907 184.592 49.12 184.763 48.864C184.507 49.248 184.315 49.6533 184.187 50.08C184.272 49.824 184.315 49.6533 184.315 49.568C184.144 50.2507 184.123 50.9333 184.251 51.616C184.208 51.5733 184.187 51.4667 184.187 51.296C184.4 52.192 184.848 52.9173 185.531 53.472L185.275 53.216C185.616 53.5147 186 53.7493 186.427 53.92C186.854 54.048 187.302 54.1547 187.771 54.24C187.558 54.24 187.408 54.2187 187.323 54.176C187.75 54.2613 188.176 54.304 188.603 54.304C189.072 54.304 189.542 54.2827 190.011 54.24C189.883 54.24 189.755 54.2613 189.627 54.304C189.542 54.304 189.456 54.304 189.371 54.304C189.67 54.2613 189.947 54.2187 190.203 54.176C190.502 54.1333 190.8 54.0693 191.099 53.984C191.526 53.8987 191.846 53.8133 192.059 53.728C191.718 53.8133 191.504 53.8773 191.419 53.92C191.376 53.9627 191.419 53.9627 191.547 53.92C191.59 53.92 191.611 53.92 191.611 53.92C191.611 53.8773 191.632 53.856 191.675 53.856C191.718 53.856 191.739 53.856 191.739 53.856C191.782 53.8133 191.824 53.792 191.867 53.792C192.123 53.7067 192.294 53.664 192.379 53.664C192.55 53.5787 192.72 53.5147 192.891 53.472C193.062 53.4293 193.232 53.3653 193.403 53.28C193.659 53.1947 193.83 53.1093 193.915 53.024C194.043 53.024 194.15 52.9813 194.235 52.896C194.363 52.8533 194.384 52.8533 194.299 52.896C194.214 52.9387 194.107 52.9813 193.979 53.024C193.894 53.0667 193.808 53.1093 193.723 53.152C193.638 53.1947 193.659 53.1947 193.787 53.152L196.091 52C196.432 51.8293 196.774 51.7013 197.115 51.616C197.499 51.488 197.862 51.424 198.203 51.424C198.416 51.424 198.608 51.4667 198.779 51.552C198.992 51.6373 199.078 51.808 199.035 52.064C198.992 52.3627 198.864 52.64 198.651 52.896C198.48 53.152 198.288 53.3867 198.075 53.6C197.734 53.9413 197.371 54.24 196.987 54.496C196.646 54.7093 196.262 54.9227 195.835 55.136C194.086 56.0747 192.358 56.8213 190.651 57.376C189.158 57.9307 187.728 58.2933 186.363 58.464C185.467 58.592 184.528 58.656 183.547 58.656C182.608 58.6133 181.712 58.4 180.859 58.016C180.304 57.76 179.792 57.44 179.323 57.056C178.896 56.6293 178.576 56.1387 178.363 55.584C178.064 54.816 177.979 54.0693 178.107 53.344C178.192 52.576 178.427 51.872 178.811 51.232C179.152 50.5493 179.579 49.9307 180.091 49.376C180.646 48.7787 181.222 48.2667 181.819 47.84C182.459 47.4133 183.099 47.008 183.739 46.624C184.379 46.24 185.062 45.9413 185.787 45.728C186.854 45.3867 187.984 45.1733 189.179 45.088C190.203 45.0027 191.206 45.088 192.187 45.344C193.211 45.5573 194.214 45.856 195.195 46.24ZM219.403 31.2C220.341 31.328 221.472 31.6267 222.795 32.096C224.117 32.5653 225.312 33.2053 226.379 34.016C227.445 34.784 228.235 35.7013 228.747 36.768C229.301 37.792 229.28 38.944 228.683 40.224C228.128 41.3333 227.36 42.3147 226.379 43.168C225.44 44.0213 224.373 44.7467 223.179 45.344C222.027 45.9413 220.811 46.4533 219.531 46.88C218.293 47.264 217.099 47.584 215.947 47.84H215.755C215.712 49.0773 215.669 50.3147 215.627 51.552C215.627 52.7467 215.605 53.9627 215.562 55.2C215.477 57.0773 215.392 58.9333 215.307 60.768C215.221 62.6453 215.051 64.5227 214.795 66.4C214.624 67.5093 214.389 68.5547 214.091 69.536C213.792 70.5173 213.152 71.3707 212.171 72.096C211.616 72.48 211.104 72.7147 210.635 72.8C210.208 72.8853 209.867 72.864 209.611 72.736C209.355 72.608 209.205 72.3947 209.163 72.096C209.163 71.7973 209.291 71.456 209.547 71.072C209.547 71.1147 209.589 70.9653 209.675 70.624C209.717 70.4107 209.76 70.176 209.803 69.92C209.845 69.664 209.888 69.408 209.931 69.152C210.016 68.4693 210.08 67.7867 210.123 67.104C210.208 66.464 210.293 65.8027 210.379 65.12C210.507 63.2 210.592 61.3227 210.635 59.488C210.72 57.6107 210.805 55.712 210.891 53.792C210.891 52.9387 210.891 52.0853 210.891 51.232C210.933 50.3787 210.955 49.5253 210.955 48.672C209.035 48.8853 207.115 48.9493 205.195 48.864C203.317 48.736 201.525 48.288 199.819 47.52C199.392 47.3067 199.285 46.9653 199.498 46.496C199.712 45.984 200.075 45.4933 200.587 45.024C201.099 44.5547 201.653 44.192 202.251 43.936C202.891 43.6373 203.424 43.5733 203.851 43.744C204.96 44.256 206.112 44.5973 207.307 44.768C208.544 44.9387 209.781 45.0027 211.019 44.96C211.061 43.424 211.083 41.9093 211.083 40.416C211.083 38.88 211.083 37.344 211.083 35.808C209.163 36.4053 207.349 37.2587 205.643 38.368C203.979 39.4773 202.464 40.672 201.099 41.952C200.629 42.4213 200.096 42.7413 199.498 42.912C198.901 43.0827 198.41 43.1253 198.026 43.04C197.643 42.9547 197.451 42.7413 197.451 42.4C197.408 42.016 197.728 41.4827 198.41 40.8C200.032 39.264 201.931 37.728 204.107 36.192C206.325 34.656 208.651 33.4187 211.083 32.48V32.096C211.083 31.6693 211.317 31.2 211.787 30.688C212.299 30.176 212.853 29.7707 213.451 29.472C214.091 29.1307 214.645 28.9387 215.115 28.896C215.627 28.8533 215.883 29.0453 215.883 29.472V31.2C217.077 31.072 218.251 31.072 219.403 31.2ZM209.867 70.624C209.952 70.5387 210.037 70.4747 210.123 70.432C210.037 70.4747 209.952 70.5387 209.867 70.624ZM210.187 70.368C210.357 70.1973 210.507 70.0693 210.635 69.984C210.507 70.0693 210.357 70.1973 210.187 70.368ZM224.203 41.376C224.587 40.608 224.48 39.8613 223.883 39.136C223.285 38.368 222.496 37.7067 221.515 37.152C220.576 36.5547 219.595 36.0853 218.571 35.744C217.547 35.36 216.779 35.1467 216.267 35.104H215.883V35.872C215.883 37.3227 215.883 38.752 215.883 40.16C215.883 41.568 215.861 42.9973 215.819 44.448C216.373 44.3627 217.077 44.256 217.931 44.128C218.827 43.9573 219.68 43.7653 220.491 43.552C221.344 43.296 222.112 42.9973 222.795 42.656C223.477 42.3147 223.947 41.888 224.203 41.376Z" fill="white"/>
</svg>
