<svg width="211" height="96" viewBox="0 0 211 96" fill="none" xmlns="http://www.w3.org/2000/svg">
<path d="M41.376 91.688C41.4613 91.9013 41.44 92.1147 41.312 92.328C41.2267 92.584 41.12 92.8187 40.992 93.032C40.736 93.3733 40.4373 93.672 40.096 93.928C39.7547 94.2267 39.4133 94.4827 39.072 94.696C38.7307 94.9093 38.368 95.1013 37.984 95.272C37.6 95.4427 37.1947 95.5707 36.768 95.656C36.5973 95.6987 36.3413 95.72 36 95.72C35.7013 95.72 35.5093 95.6133 35.424 95.4C35.296 95.1867 35.168 94.952 35.04 94.696C34.912 94.44 34.784 94.184 34.656 93.928C30.56 85.1813 26.912 76.2213 23.712 67.048C22.816 64.4453 21.9627 61.8427 21.152 59.24C20.3413 56.68 19.552 54.056 18.784 51.368C18.6133 51.368 18.464 51.368 18.336 51.368C18.208 51.3253 18.0587 51.2827 17.888 51.24C16.992 51.112 16.096 51.0053 15.2 50.92C14.304 50.8347 13.408 50.7707 12.512 50.728C12.0853 51.4107 11.6373 52.072 11.168 52.712C10.6987 53.3093 10.1653 53.9067 9.568 54.504C8.928 55.144 8.18133 55.656 7.328 56.04C6.98667 56.2107 6.64533 56.36 6.304 56.488C5.96267 56.616 5.6 56.68 5.216 56.68C5.00267 56.68 4.81067 56.6373 4.64 56.552C4.46933 56.424 4.384 56.2533 4.384 56.04C4.42667 55.6987 4.53333 55.4213 4.704 55.208C4.91733 54.952 5.13067 54.7173 5.344 54.504L5.6 54.248C5.68533 54.1627 5.728 54.0987 5.728 54.056C5.984 53.8 6.21867 53.5013 6.432 53.16C6.60267 52.904 6.73067 52.7333 6.816 52.648C6.816 52.6053 6.83733 52.5627 6.88 52.52C7.008 52.3067 7.11467 52.1147 7.2 51.944C7.328 51.7733 7.43467 51.5813 7.52 51.368C7.56267 51.2827 7.60533 51.1973 7.648 51.112C7.69067 51.0267 7.73333 50.9413 7.776 50.856C7.47733 50.856 7.2 50.8773 6.944 50.92C6.688 50.92 6.41067 50.9413 6.112 50.984C4.74667 51.1547 3.296 51.4107 1.76 51.752C1.54667 51.7947 1.312 51.816 1.056 51.816C0.757333 51.816 0.544 51.7093 0.416 51.496C0.288 51.2827 0.288 51.048 0.416 50.792C0.544 50.536 0.672 50.3227 0.8 50.152C1.056 49.8107 1.35467 49.512 1.696 49.256C2.03733 48.9573 2.37867 48.7013 2.72 48.488C3.06133 48.2747 3.424 48.0827 3.808 47.912C4.192 47.7413 4.59733 47.6133 5.024 47.528C5.74933 47.3573 6.45333 47.2293 7.136 47.144C7.81867 47.016 8.52267 46.9093 9.248 46.824C9.248 46.824 9.29067 46.8027 9.376 46.76C9.376 46.7173 9.376 46.696 9.376 46.696C9.41867 46.6533 9.44 46.6107 9.44 46.568C10.2507 43.88 10.8053 41.1493 11.104 38.376C11.4027 35.6027 11.5947 32.8293 11.68 30.056C11.7653 28.136 11.7653 26.2587 11.68 24.424C11.6373 22.5467 11.5307 20.648 11.36 18.728C11.1467 17.2347 10.9333 15.72 10.72 14.184C10.5067 12.648 10.2933 11.1333 10.08 9.64C10.0373 9.384 10.144 9.10666 10.4 8.808C10.656 8.50933 10.8693 8.27466 11.04 8.104C11.68 7.464 12.4267 6.952 13.28 6.568C13.6213 6.39733 13.9627 6.248 14.304 6.12C14.688 5.992 15.0507 5.928 15.392 5.928C15.6907 5.928 15.9467 6.03466 16.16 6.248C16.16 6.33333 16.16 6.39733 16.16 6.44C16.2027 6.48266 16.224 6.54666 16.224 6.632C16.6507 8.808 16.9707 10.984 17.184 13.16C17.2693 13.5013 17.312 13.864 17.312 14.248C17.3547 14.5893 17.3973 14.952 17.44 15.336C17.7813 17.4693 18.144 19.5813 18.528 21.672C18.912 23.7627 19.3387 25.8747 19.808 28.008C20.1067 29.3733 20.4053 30.7387 20.704 32.104C21.0027 33.4267 21.3227 34.7707 21.664 36.136C22.1333 38.056 22.6027 39.9333 23.072 41.768C23.584 43.6027 24.1173 45.4373 24.672 47.272C25.6533 47.4853 26.6347 47.7413 27.616 48.04C28.5973 48.3387 29.5573 48.7013 30.496 49.128C30.7947 49.256 30.9227 49.4693 30.88 49.768C30.8373 50.024 30.7093 50.3013 30.496 50.6C30.2827 50.856 30.048 51.112 29.792 51.368C29.536 51.5813 29.3653 51.7307 29.28 51.816C28.5973 52.3707 27.808 52.8187 26.912 53.16C26.8267 53.2027 26.7413 53.224 26.656 53.224C26.5707 53.224 26.4853 53.2453 26.4 53.288C26.9973 55.2933 27.616 57.256 28.256 59.176C28.9387 61.096 29.6213 63.0373 30.304 65C31.9253 69.5653 33.632 74.0667 35.424 78.504C37.2587 82.9413 39.2427 87.336 41.376 91.688ZM14.624 46.376C15.0933 46.376 15.5413 46.376 15.968 46.376C16.4373 46.376 16.9067 46.3973 17.376 46.44C17.1627 45.6293 16.9493 44.8187 16.736 44.008C16.5227 43.1973 16.3093 42.3867 16.096 41.576C15.8827 42.4293 15.6693 43.2613 15.456 44.072C15.2427 44.84 14.9653 45.608 14.624 46.376ZM57.4455 44.968C57.9148 45.8213 58.2775 46.7387 58.5335 47.72C58.8322 48.6587 58.9388 49.6187 58.8535 50.6C58.8108 51.7093 58.5122 52.84 57.9575 53.992C57.5735 54.76 57.1042 55.464 56.5495 56.104C56.0375 56.7013 55.4402 57.2987 54.7575 57.896C53.5202 58.92 52.1335 59.7093 50.5975 60.264C49.1042 60.8613 47.5468 61.2027 45.9255 61.288C44.7308 61.3307 43.5362 61.224 42.3415 60.968C41.1468 60.7547 39.9948 60.4773 38.8855 60.136C36.6668 59.4533 34.5122 58.5147 32.4215 57.32C31.5682 56.8507 30.7362 56.3387 29.9255 55.784C29.0722 55.2293 28.2828 54.5893 27.5575 53.864C27.3442 53.6933 27.3442 53.4587 27.5575 53.16C27.7282 52.8613 27.8562 52.6693 27.9415 52.584C28.1975 52.2427 28.4962 51.944 28.8375 51.688C29.1788 51.3893 29.5202 51.1333 29.8615 50.92C30.2028 50.7067 30.5655 50.5147 30.9495 50.344C31.3335 50.1307 31.7388 49.9813 32.1655 49.896C32.4215 49.8533 32.6562 49.832 32.8695 49.832C33.0828 49.832 33.2962 49.9387 33.5095 50.152C33.6375 50.28 33.7655 50.408 33.8935 50.536C34.0215 50.664 34.1708 50.7707 34.3415 50.856C34.4695 50.9413 34.5975 51.048 34.7255 51.176C34.8962 51.304 35.0455 51.4107 35.1735 51.496C36.0695 52.136 37.0082 52.712 37.9895 53.224C38.9708 53.736 39.9522 54.2267 40.9335 54.696C42.0002 55.1653 43.0668 55.5707 44.1335 55.912C45.2428 56.2533 46.3522 56.5307 47.4615 56.744C48.6988 56.9573 49.8722 57 50.9815 56.872C51.1948 56.872 51.3655 56.8507 51.4935 56.808C51.5788 56.808 51.6642 56.7867 51.7495 56.744C51.7495 56.7013 51.7708 56.6587 51.8135 56.616C52.0695 56.1467 52.3042 55.6773 52.5175 55.208C52.8162 53.8853 52.8375 52.6267 52.5815 51.432C52.3255 50.3227 51.8562 49.2773 51.1735 48.296C50.4908 47.3147 49.7015 46.4613 48.8055 45.736C48.0375 45.1387 47.2268 44.648 46.3735 44.264C45.5202 43.8373 44.6028 43.5387 43.6215 43.368C43.2802 43.3253 42.9388 43.304 42.5975 43.304C42.2988 43.2613 41.9788 43.2613 41.6375 43.304C41.5522 43.304 41.4668 43.3253 41.3815 43.368C41.3388 43.368 41.2748 43.368 41.1895 43.368C41.0615 43.496 40.9548 43.6453 40.8695 43.816C40.4855 44.5413 40.1655 45.2667 39.9095 45.992C39.8668 46.12 39.8028 46.3547 39.7175 46.696C39.6322 47.0373 39.5042 47.336 39.3335 47.592C39.1628 47.8053 38.9708 48.0187 38.7575 48.232C38.1175 48.872 37.3708 49.384 36.5175 49.768C36.3895 49.8533 36.1548 49.96 35.8135 50.088C35.5148 50.1733 35.1948 50.2587 34.8535 50.344C34.5122 50.3867 34.2135 50.3867 33.9575 50.344C33.7015 50.2587 33.5735 50.0453 33.5735 49.704C33.5735 48.424 33.5735 47.144 33.5735 45.864C33.6162 44.5413 33.6375 43.24 33.6375 41.96C33.7228 37.8213 33.7868 33.7467 33.8295 29.736C33.9148 25.6827 33.9575 21.5867 33.9575 17.448C33.9575 17.1493 34.0642 16.872 34.2775 16.616C34.5335 16.36 34.7468 16.1253 34.9175 15.912C35.6002 15.3147 36.3468 14.8027 37.1575 14.376C37.2855 14.3333 37.4988 14.248 37.7975 14.12C38.1388 13.992 38.4802 13.9067 38.8215 13.864C39.1628 13.7787 39.4615 13.7787 39.7175 13.864C39.9735 13.9067 40.1015 14.0987 40.1015 14.44C40.1015 15.72 40.1015 17.0213 40.1015 18.344C40.1015 19.624 40.0802 20.904 40.0375 22.184C39.9948 25.384 39.9522 28.5413 39.9095 31.656C39.8668 34.7707 39.8242 37.928 39.7815 41.128C39.8668 41.0427 39.9308 41 39.9735 41C41.1682 40.3173 42.4055 39.784 43.6855 39.4C45.0082 38.9733 46.3522 38.8453 47.7175 39.016C49.7655 39.2293 51.6215 39.848 53.2855 40.872C54.0962 41.384 54.8642 41.9813 55.5895 42.664C56.3148 43.3467 56.9335 44.1147 57.4455 44.968ZM51.4935 57.064C51.2375 57.2347 51.1522 57.2987 51.2375 57.256C51.3228 57.2133 51.4082 57.1493 51.4935 57.064ZM74.887 39.272C75.0577 39.4853 75.0577 39.7413 74.887 40.04C74.7163 40.296 74.5883 40.488 74.503 40.616C73.991 41.256 73.3723 41.8107 72.647 42.28C72.3057 42.4933 71.9217 42.6853 71.495 42.856C71.111 43.0267 70.7057 43.1547 70.279 43.24C70.0657 43.3253 69.831 43.368 69.575 43.368C69.319 43.3253 69.1057 43.1973 68.935 42.984C68.7643 42.7707 68.5937 42.6 68.423 42.472C68.2523 42.3013 68.0603 42.1093 67.847 41.896C67.8897 41.9813 67.9323 42.0453 67.975 42.088C68.0177 42.088 68.0603 42.1093 68.103 42.152C67.335 41.5547 66.4817 41.1707 65.543 41C65.6283 41 65.6923 41.0213 65.735 41.064C65.8203 41.064 65.9057 41.064 65.991 41.064C65.5217 40.9787 65.031 40.9787 64.519 41.064C64.647 41.0213 64.8603 41 65.159 41C65.031 41 64.903 41.0213 64.775 41.064C64.6897 41.064 64.583 41.064 64.455 41.064C64.4123 41.1067 64.3483 41.128 64.263 41.128C64.6043 41.0427 64.8177 41 64.903 41C64.9883 40.9573 64.967 40.9573 64.839 41C64.7537 41 64.6897 41.0213 64.647 41.064C64.647 41.064 64.6043 41.064 64.519 41.064C64.4763 41.1067 64.4123 41.128 64.327 41.128C64.6683 41 64.8817 40.9147 64.967 40.872C65.095 40.7867 65.095 40.7867 64.967 40.872C64.8817 40.9147 64.8177 40.9573 64.775 41C64.775 41 64.7323 41.0213 64.647 41.064C64.647 41.064 64.6043 41.0853 64.519 41.128C64.8603 40.9147 65.095 40.7867 65.223 40.744C65.351 40.6587 65.3297 40.6587 65.159 40.744C65.1163 40.7867 65.0737 40.8293 65.031 40.872C64.9883 40.872 64.9457 40.8933 64.903 40.936C64.775 41.0213 64.7323 41.0427 64.775 41C64.8603 40.9147 64.967 40.8293 65.095 40.744C65.223 40.6587 65.3297 40.5947 65.415 40.552C65.5003 40.5093 65.479 40.5307 65.351 40.616C65.3083 40.6587 65.2657 40.7013 65.223 40.744C65.1803 40.744 65.1377 40.7653 65.095 40.808C65.0097 40.8933 64.9883 40.9147 65.031 40.872C65.1163 40.7867 65.2017 40.7013 65.287 40.616C65.415 40.5307 65.5003 40.4667 65.543 40.424C65.6283 40.3387 65.6283 40.3387 65.543 40.424L65.479 40.488L65.223 40.744C65.223 40.744 65.1803 40.7867 65.095 40.872C65.3083 40.6587 65.4363 40.5093 65.479 40.424C65.5643 40.3387 65.5643 40.36 65.479 40.488C65.3937 40.5733 65.3297 40.6587 65.287 40.744C65.2017 40.8293 65.1377 40.9147 65.095 41C65.0523 41.0853 64.9883 41.1707 64.903 41.256C64.9457 41.1707 64.9883 41.0853 65.031 41C65.0737 40.9147 65.1377 40.8293 65.223 40.744C65.0523 41 64.903 41.2773 64.775 41.576C64.647 41.832 64.5403 42.1307 64.455 42.472C64.455 42.344 64.4977 42.1947 64.583 42.024C64.2417 43.1333 64.199 44.3707 64.455 45.736C64.455 45.6507 64.4337 45.5867 64.391 45.544C64.391 45.5013 64.391 45.4373 64.391 45.352C64.647 46.5893 65.1803 47.784 65.991 48.936C66.4177 49.6613 66.9297 50.2373 67.527 50.664C67.4843 50.6213 67.4417 50.6 67.399 50.6C67.3563 50.5573 67.3137 50.5147 67.271 50.472C68.0817 51.0693 68.935 51.432 69.831 51.56C69.6603 51.56 69.511 51.5387 69.383 51.496C69.895 51.624 70.471 51.6453 71.111 51.56C70.855 51.56 70.663 51.5813 70.535 51.624C70.7483 51.5813 70.9403 51.56 71.111 51.56C71.2817 51.5173 71.4523 51.4747 71.623 51.432C71.6657 51.3893 71.7297 51.368 71.815 51.368C71.2603 51.5387 71.0683 51.5813 71.239 51.496C71.3243 51.496 71.367 51.496 71.367 51.496C71.4097 51.4533 71.4523 51.432 71.495 51.432C71.751 51.3467 71.9217 51.2827 72.007 51.24C72.0497 51.24 72.071 51.24 72.071 51.24C72.1137 51.1973 72.1563 51.176 72.199 51.176C71.8577 51.3467 71.623 51.4533 71.495 51.496C71.4097 51.5387 71.431 51.5173 71.559 51.432H71.623C71.6657 51.3893 71.687 51.368 71.687 51.368C71.7297 51.368 71.7723 51.3467 71.815 51.304C72.071 51.2187 72.2417 51.1333 72.327 51.048C72.3697 51.048 72.391 51.048 72.391 51.048C72.4337 51.0053 72.4763 50.984 72.519 50.984C71.879 51.3253 71.5803 51.496 71.623 51.496C71.6657 51.496 71.751 51.4533 71.879 51.368C71.9643 51.2827 72.0497 51.2187 72.135 51.176C72.3057 51.0907 72.455 50.984 72.583 50.856C72.6257 50.856 72.647 50.856 72.647 50.856C72.6897 50.8133 72.7323 50.792 72.775 50.792C72.8603 50.7493 72.8603 50.7493 72.775 50.792C72.6897 50.8347 72.583 50.8987 72.455 50.984C72.327 51.0693 72.2203 51.1547 72.135 51.24C72.0497 51.2827 72.0497 51.2613 72.135 51.176C72.3057 51.0907 72.391 51.048 72.391 51.048C72.519 50.9627 72.6683 50.8347 72.839 50.664C72.9243 50.6213 73.031 50.536 73.159 50.408C73.2443 50.3227 73.2443 50.3227 73.159 50.408C73.1163 50.4507 73.031 50.5147 72.903 50.6C72.8177 50.6853 72.7323 50.7707 72.647 50.856C72.6043 50.8987 72.647 50.856 72.775 50.728C72.8603 50.6427 72.9243 50.5787 72.967 50.536C73.0523 50.4933 73.1377 50.4293 73.223 50.344L73.671 49.896C73.7137 49.768 73.799 49.6827 73.927 49.64C74.0123 49.5547 74.0337 49.5333 73.991 49.576C73.9483 49.6187 73.8843 49.6827 73.799 49.768C73.7137 49.8533 73.6497 49.9387 73.607 50.024C73.5643 50.0667 73.5857 50.0453 73.671 49.96C73.927 49.6187 74.183 49.2773 74.439 48.936C74.7377 48.5947 74.9937 48.232 75.207 47.848C75.0363 48.104 74.9297 48.2747 74.887 48.36C75.2283 47.848 75.527 47.3147 75.783 46.76C76.039 46.1627 76.2737 45.544 76.487 44.904C76.4017 45.16 76.359 45.3307 76.359 45.416C76.8283 43.7093 76.9137 42.088 76.615 40.552C76.6577 40.6373 76.679 40.7653 76.679 40.936C76.4657 39.9547 76.0817 39.0587 75.527 38.248C75.015 37.4373 74.375 36.7333 73.607 36.136C73.6497 36.1787 73.6923 36.2213 73.735 36.264C73.7777 36.264 73.8203 36.2853 73.863 36.328C73.1803 35.816 72.4337 35.368 71.623 34.984C70.855 34.6 70.0657 34.28 69.255 34.024C68.999 33.9387 68.871 33.7893 68.871 33.576C68.871 33.3627 68.9137 33.1707 68.999 33C69.1697 32.6587 69.383 32.36 69.639 32.104C69.895 31.8053 70.1723 31.5493 70.471 31.336C70.8123 31.08 71.175 30.8453 71.559 30.632C71.9857 30.376 72.4123 30.184 72.839 30.056C73.1377 29.9707 73.4363 29.9067 73.735 29.864C74.0337 29.7787 74.3323 29.7787 74.631 29.864C76.551 30.4613 78.2363 31.336 79.687 32.488C81.095 33.64 82.055 35.048 82.567 36.712C82.9937 38.3333 83.015 40.0187 82.631 41.768C82.119 43.816 81.223 45.7147 79.943 47.464C78.663 49.2133 77.191 50.728 75.527 52.008C74.4603 52.8187 73.3297 53.544 72.135 54.184C70.983 54.7813 69.767 55.2507 68.487 55.592C67.6337 55.8053 66.759 55.9333 65.863 55.976C65.0097 55.976 64.1777 55.8053 63.367 55.464C62.5563 55.1653 61.8523 54.7173 61.255 54.12C60.6577 53.5227 60.1243 52.8613 59.655 52.136C59.271 51.4533 58.951 50.7493 58.695 50.024C58.439 49.2987 58.2683 48.552 58.183 47.784C58.055 46.504 58.2683 45.2027 58.823 43.88C59.1643 43.0267 59.6123 42.28 60.167 41.64C60.7643 40.9573 61.4043 40.3173 62.087 39.72C62.8977 39.0373 63.7723 38.4613 64.711 37.992C65.6923 37.48 66.695 37.1173 67.719 36.904C68.359 36.7333 69.0203 36.6693 69.703 36.712C70.4283 36.712 71.111 36.8187 71.751 37.032C72.3483 37.2453 72.903 37.5653 73.415 37.992C73.9697 38.376 74.4603 38.8027 74.887 39.272ZM86.243 40.232C86.371 40.0187 86.499 39.8267 86.627 39.656C86.755 39.4853 86.9043 39.3147 87.075 39.144C87.1603 39.0587 87.267 38.9733 87.395 38.888C87.523 38.8027 87.6297 38.7173 87.715 38.632C88.3977 38.0773 89.187 37.6293 90.083 37.288C90.339 37.2027 90.6163 37.1173 90.915 37.032C91.2563 36.9467 91.5763 36.968 91.875 37.096C92.131 37.1813 92.259 37.3307 92.259 37.544C92.259 37.7147 92.2163 37.9067 92.131 38.12C92.003 38.4613 91.875 38.7813 91.747 39.08C91.6617 39.3787 91.5763 39.6987 91.491 40.04C91.5337 39.9547 91.555 39.8907 91.555 39.848C91.555 39.7627 91.5763 39.6773 91.619 39.592C91.1497 41.0853 90.787 42.6213 90.531 44.2C90.275 45.7787 90.3177 47.336 90.659 48.872C90.6163 48.7867 90.595 48.744 90.595 48.744C90.595 48.7013 90.5737 48.6373 90.531 48.552C90.7017 49.192 90.9363 49.8107 91.235 50.408C91.5337 51.0053 91.9603 51.5173 92.515 51.944C92.4297 51.9013 92.3657 51.88 92.323 51.88C92.323 51.8373 92.2803 51.7947 92.195 51.752C92.8777 52.2213 93.6243 52.52 94.435 52.648C94.3497 52.648 94.2643 52.648 94.179 52.648C94.0937 52.6053 94.0083 52.584 93.923 52.584C94.2217 52.6267 94.5203 52.6693 94.819 52.712C95.1177 52.712 95.4163 52.6907 95.715 52.648C95.4163 52.648 95.203 52.6693 95.075 52.712C95.2457 52.6693 95.395 52.648 95.523 52.648C95.651 52.6053 95.8003 52.5627 95.971 52.52C96.099 52.52 96.2483 52.4773 96.419 52.392C95.8217 52.6053 95.5443 52.712 95.587 52.712C95.6297 52.6693 95.715 52.6267 95.843 52.584C95.8857 52.584 95.9283 52.5627 95.971 52.52C96.0563 52.52 96.1203 52.4987 96.163 52.456C96.291 52.456 96.4403 52.4133 96.611 52.328C96.6537 52.328 96.675 52.328 96.675 52.328C96.7177 52.2853 96.7603 52.264 96.803 52.264C96.8883 52.2213 96.867 52.2213 96.739 52.264C96.6537 52.3067 96.547 52.3493 96.419 52.392C96.291 52.4347 96.1843 52.4773 96.099 52.52C96.0137 52.5627 96.0137 52.5627 96.099 52.52C96.1417 52.52 96.1843 52.4987 96.227 52.456C96.483 52.4133 96.739 52.2853 96.995 52.072C97.0803 52.0293 97.0803 52.0507 96.995 52.136C96.9097 52.1787 96.803 52.2427 96.675 52.328C96.547 52.3707 96.4403 52.4133 96.355 52.456C96.2697 52.4987 96.291 52.4773 96.419 52.392C96.4617 52.392 96.483 52.392 96.483 52.392C96.5257 52.3493 96.5683 52.328 96.611 52.328C96.6963 52.2853 96.803 52.2 96.931 52.072C97.1017 51.9867 97.187 51.944 97.187 51.944C96.803 52.2 96.547 52.3707 96.419 52.456C96.3337 52.4987 96.355 52.4773 96.483 52.392H96.547C96.547 52.392 96.5683 52.3707 96.611 52.328C96.6963 52.2853 96.739 52.2427 96.739 52.2C96.7817 52.1573 96.8457 52.1147 96.931 52.072C97.0163 52.0293 97.1443 51.9227 97.315 51.752C97.3577 51.7093 97.3363 51.7307 97.251 51.816C97.2083 51.8587 97.123 51.9227 96.995 52.008C96.9097 52.0933 96.8243 52.1787 96.739 52.264C96.6963 52.3067 96.7177 52.3067 96.803 52.264C96.803 52.2213 96.8243 52.2 96.867 52.2C96.9097 52.1573 96.931 52.136 96.931 52.136C96.931 52.0933 96.9523 52.0507 96.995 52.008C97.251 51.8373 97.4643 51.624 97.635 51.368C97.6777 51.3253 97.6777 51.3253 97.635 51.368C97.5923 51.4107 97.5283 51.496 97.443 51.624C97.3577 51.7093 97.2723 51.7947 97.187 51.88C97.1443 51.9227 97.1657 51.9013 97.251 51.816L97.379 51.688L97.507 51.56C97.5497 51.4747 97.635 51.368 97.763 51.24C98.019 50.8987 98.1897 50.6427 98.275 50.472C98.1897 50.5573 98.1257 50.6427 98.083 50.728C98.083 50.8133 98.0403 50.8987 97.955 50.984C98.1683 50.6427 98.3603 50.28 98.531 49.896C98.7017 49.512 98.851 49.128 98.979 48.744C98.9363 48.8293 98.915 48.9147 98.915 49C98.915 49.0427 98.8937 49.1067 98.851 49.192C99.235 47.8693 99.2777 46.5467 98.979 45.224C99.0217 45.3093 99.043 45.3733 99.043 45.416C99.043 45.4587 99.0643 45.5227 99.107 45.608C98.8937 44.584 98.4883 43.624 97.891 42.728C97.3363 41.832 96.6963 41.0213 95.971 40.296C95.8003 40.1253 95.8003 39.8907 95.971 39.592C96.1417 39.2933 96.2697 39.08 96.355 38.952C96.611 38.6107 96.9097 38.312 97.251 38.056C97.5923 37.7573 97.9337 37.5013 98.275 37.288C98.6163 37.0747 98.979 36.8827 99.363 36.712C99.747 36.5413 100.152 36.4133 100.579 36.328C100.835 36.2427 101.07 36.2213 101.283 36.264C101.496 36.264 101.71 36.3707 101.923 36.584C102.136 36.7547 102.307 36.9253 102.435 37.096C102.606 37.2667 102.776 37.4587 102.947 37.672C103.843 38.7813 104.504 40.04 104.931 41.448C105.4 42.856 105.464 44.2853 105.123 45.736C104.739 47.3147 104.035 48.7653 103.011 50.088C101.987 51.368 100.814 52.4987 99.491 53.48C98.6803 54.0773 97.827 54.632 96.931 55.144C96.0777 55.6133 95.1603 56.0187 94.179 56.36C93.4537 56.5733 92.707 56.744 91.939 56.872C91.2137 57 90.4883 57.0213 89.763 56.936C89.4643 56.8933 89.1657 56.8507 88.867 56.808C88.5683 56.7653 88.2483 56.68 87.907 56.552C87.3523 56.2533 86.8617 55.9333 86.435 55.592C85.9657 55.2507 85.603 54.8453 85.347 54.376C85.091 53.864 84.8777 53.3307 84.707 52.776C84.2803 51.1973 84.1737 49.4907 84.387 47.656C84.5577 46.376 84.7923 45.1173 85.091 43.88C85.4323 42.6427 85.8163 41.4267 86.243 40.232ZM134.126 20.392C134.254 20.6053 134.254 20.84 134.126 21.096C133.998 21.352 133.87 21.544 133.742 21.672C133.486 22.0133 133.187 22.3333 132.846 22.632C132.505 22.888 132.163 23.1227 131.822 23.336C131.481 23.5493 131.118 23.7627 130.734 23.976C130.35 24.1467 129.945 24.2747 129.518 24.36C129.305 24.4027 129.113 24.4453 128.942 24.488C128.771 24.488 128.579 24.5307 128.366 24.616C127.939 24.7013 127.513 24.808 127.086 24.936C126.659 25.064 126.233 25.1707 125.806 25.256C125.721 25.2987 125.635 25.3413 125.55 25.384C125.465 25.384 125.379 25.4053 125.294 25.448C125.209 25.4907 125.102 25.5333 124.974 25.576C124.846 25.576 124.739 25.5973 124.654 25.64L123.31 26.024C122.883 26.1947 122.393 26.344 121.838 26.472C121.241 29.5013 120.643 32.5093 120.046 35.496C119.491 38.44 118.937 41.4267 118.382 44.456C117.657 48.552 117.017 52.6267 116.462 56.68C115.907 60.6907 115.438 64.7653 115.054 68.904C115.011 69.2027 114.883 69.48 114.67 69.736C114.499 69.992 114.307 70.2267 114.094 70.44C113.454 71.08 112.707 71.592 111.854 71.976C111.513 72.1467 111.171 72.296 110.83 72.424C110.489 72.552 110.126 72.5947 109.742 72.552C109.529 72.552 109.337 72.5093 109.166 72.424C108.995 72.3387 108.91 72.168 108.91 71.912C109.166 69.0533 109.465 66.216 109.806 63.4C110.19 60.584 110.595 57.768 111.022 54.952C111.662 50.9413 112.345 46.9733 113.07 43.048C113.838 39.08 114.627 35.112 115.438 31.144C115.523 30.6747 115.609 30.2053 115.694 29.736C115.822 29.224 115.929 28.712 116.014 28.2C114.265 28.6693 112.515 29.0533 110.766 29.352C109.017 29.6507 107.246 29.8 105.454 29.8C105.241 29.8 105.027 29.7573 104.814 29.672C104.643 29.5867 104.558 29.416 104.558 29.16C104.601 28.8613 104.707 28.584 104.878 28.328C105.091 28.072 105.305 27.8373 105.518 27.624C105.859 27.3253 106.222 27.048 106.606 26.792C106.99 26.536 107.374 26.3013 107.758 26.088C108.099 25.9173 108.441 25.7893 108.782 25.704C109.166 25.576 109.529 25.512 109.87 25.512C110.851 25.512 111.833 25.448 112.814 25.32C113.497 25.2347 114.158 25.1493 114.798 25.064C115.438 24.936 116.078 24.808 116.718 24.68C117.913 18.92 119.065 13.16 120.174 7.4C120.259 7.10133 120.387 6.824 120.558 6.568C120.729 6.312 120.921 6.07733 121.134 5.864C121.817 5.224 122.563 4.712 123.374 4.328C123.715 4.15733 124.057 4.02933 124.398 3.944C124.782 3.816 125.145 3.752 125.486 3.752C125.699 3.752 125.913 3.79467 126.126 3.88C126.339 3.96533 126.403 4.136 126.318 4.392C125.806 7.16533 125.273 9.91733 124.718 12.648C124.163 15.336 123.609 18.0453 123.054 20.776C122.969 21.16 122.883 21.544 122.798 21.928C122.755 22.312 122.691 22.6747 122.606 23.016C124.27 22.504 125.934 21.992 127.598 21.48C129.305 20.968 131.033 20.52 132.782 20.136C132.995 20.0933 133.23 20.072 133.486 20.072C133.785 20.072 133.998 20.1787 134.126 20.392ZM182.669 59.56C182.797 59.7733 182.797 59.9867 182.669 60.2C182.583 60.456 182.455 60.6907 182.285 60.904C181.815 61.4587 181.197 61.992 180.429 62.504C179.661 63.016 178.871 63.3573 178.061 63.528C177.89 63.5707 177.634 63.592 177.293 63.592C176.994 63.592 176.802 63.4853 176.717 63.272C176.119 61.864 175.543 60.456 174.989 59.048C174.434 57.64 173.922 56.1893 173.453 54.696C172.13 50.5147 171.191 46.376 170.637 42.28C170.21 43.2613 169.762 44.136 169.293 44.904C168.695 45.928 168.055 46.9307 167.373 47.912C166.733 48.8507 166.007 49.7467 165.197 50.6C164.343 51.496 163.383 52.328 162.317 53.096C161.293 53.864 160.205 54.504 159.053 55.016C158.455 55.272 157.858 55.528 157.26 55.784C156.663 55.9973 156.045 56.1467 155.405 56.232C154.381 56.4453 153.314 56.5093 152.205 56.424C151.351 56.3387 150.498 56.2107 149.645 56.04C148.834 55.8267 148.045 55.5067 147.277 55.08C145.911 54.2693 144.802 53.224 143.949 51.944C143.095 50.6213 142.434 49.192 141.965 47.656C141.41 45.7787 141.069 43.88 140.941 41.96C140.812 40.04 140.812 38.12 140.941 36.2C141.026 34.0667 141.218 31.9547 141.517 29.864C141.815 27.7733 142.199 25.6827 142.669 23.592C143.138 21.544 143.629 19.56 144.141 17.64C144.695 15.6773 145.293 13.7147 145.933 11.752C146.402 10.4293 146.871 9.128 147.341 7.848C147.853 6.568 148.45 5.30933 149.133 4.072C149.517 3.34666 150.071 2.74933 150.797 2.28C151.522 1.81066 152.247 1.42666 152.973 1.128C153.229 1.04266 153.506 0.978663 153.805 0.935997C154.146 0.850665 154.466 0.850665 154.765 0.935997C154.978 1.02133 155.085 1.17067 155.085 1.384C155.127 1.59733 155.085 1.78933 154.957 1.96C154.786 2.30133 154.637 2.62133 154.509 2.92C154.381 3.176 154.231 3.47466 154.061 3.816C153.421 5.26666 152.845 6.73866 152.333 8.232C151.821 9.68266 151.33 11.1547 150.861 12.648C150.562 13.6293 150.263 14.632 149.965 15.656C149.709 16.6373 149.474 17.6187 149.26 18.6C148.791 20.6907 148.365 22.7813 147.981 24.872C147.639 26.9627 147.362 29.0747 147.149 31.208C146.978 33.128 146.914 35.048 146.957 36.968C146.999 38.8453 147.213 40.7227 147.597 42.6C147.938 44.0507 148.429 45.4587 149.069 46.824C149.709 48.1467 150.605 49.2773 151.757 50.216C152.909 51.112 154.253 51.688 155.789 51.944C156.77 52.072 157.645 52.1147 158.413 52.072C158.541 52.0293 158.647 52.008 158.733 52.008C158.861 52.008 158.967 51.9867 159.053 51.944H159.245C159.33 51.8587 159.437 51.816 159.565 51.816C159.607 51.7733 159.65 51.752 159.693 51.752L159.821 51.624C159.863 51.624 159.885 51.624 159.885 51.624C159.885 51.5813 159.906 51.56 159.949 51.56L160.141 51.368C160.183 51.368 160.247 51.3253 160.333 51.24C160.418 51.1547 160.482 51.0907 160.525 51.048C160.61 50.9627 160.695 50.8773 160.781 50.792L160.973 50.6C161.015 50.5147 161.101 50.408 161.229 50.28C161.783 49.5973 162.274 48.9147 162.701 48.232C163.81 46.44 164.749 44.6053 165.517 42.728C166.285 40.808 166.967 38.8667 167.565 36.904C167.778 36.264 167.949 35.6453 168.077 35.048C168.247 34.408 168.418 33.768 168.589 33.128C169.101 31.208 169.549 29.1813 169.933 27.048C170.103 23.9333 170.402 20.8613 170.829 17.832C171.298 14.76 171.874 11.688 172.557 8.616C172.642 8.31733 172.77 8.06133 172.941 7.848C173.111 7.592 173.303 7.35733 173.517 7.144C174.157 6.504 174.903 5.992 175.757 5.608C176.098 5.43733 176.439 5.288 176.781 5.16C177.122 5.032 177.485 4.968 177.869 4.968C178.082 4.968 178.274 5.032 178.444 5.16C178.615 5.24533 178.701 5.39466 178.701 5.608C178.658 5.77866 178.637 5.94933 178.637 6.12C178.637 6.248 178.615 6.39733 178.573 6.568C178.402 8.44533 178.21 10.3227 177.997 12.2C177.783 14.0347 177.506 15.8907 177.165 17.768C176.994 18.8347 176.823 19.9013 176.653 20.968C176.482 21.992 176.29 23.016 176.076 24.04C175.906 27.4107 175.927 30.7813 176.141 34.152C176.397 37.48 176.887 40.808 177.613 44.136C178.21 46.824 178.914 49.448 179.725 52.008C180.578 54.5253 181.559 57.0427 182.669 59.56ZM159.628 51.816H159.565C159.479 51.9013 159.394 51.9867 159.309 52.072C159.223 52.1147 159.33 52.0293 159.628 51.816ZM210.47 50.472C210.641 50.6853 210.641 50.9413 210.47 51.24C210.299 51.496 210.171 51.688 210.086 51.816C209.83 52.1573 209.531 52.4773 209.19 52.776C208.849 53.032 208.507 53.2667 208.166 53.48C207.227 54.0773 206.246 54.5467 205.222 54.888C204.241 55.2293 203.217 55.5067 202.15 55.72C199.718 56.1467 197.286 56.3173 194.854 56.232C192.422 56.104 190.011 55.8693 187.622 55.528C186.641 55.3573 185.659 55.208 184.678 55.08C183.739 54.9093 182.779 54.696 181.798 54.44C181.542 54.3547 181.286 54.2907 181.03 54.248C180.774 54.1627 180.539 54.0773 180.326 53.992C180.07 53.864 179.878 53.736 179.75 53.608C179.665 53.5227 179.622 53.4373 179.622 53.352C179.622 53.2667 179.622 53.2027 179.622 53.16C179.622 52.8187 179.729 52.52 179.942 52.264C180.155 52.008 180.369 51.7733 180.582 51.56C180.923 51.2187 181.286 50.9413 181.67 50.728C182.054 50.472 182.438 50.2373 182.822 50.024C183.163 49.8533 183.505 49.7253 183.846 49.64C184.23 49.512 184.593 49.448 184.934 49.448C185.361 49.448 185.617 49.576 185.702 49.832C185.787 49.832 185.915 49.8747 186.086 49.96C186.299 50.0453 186.491 50.1093 186.662 50.152C186.833 50.152 187.025 50.1947 187.238 50.28C187.835 50.408 188.411 50.536 188.966 50.664C189.521 50.792 190.097 50.8987 190.694 50.984C192.998 51.3253 195.302 51.5813 197.606 51.752C198.289 51.7947 198.971 51.8373 199.654 51.88C200.379 51.88 201.105 51.8587 201.83 51.816C201.233 51.4747 200.635 51.176 200.038 50.92C199.441 50.6213 198.843 50.344 198.246 50.088C196.326 49.3627 194.363 48.744 192.358 48.232C190.353 47.72 188.369 47.144 186.406 46.504C185.638 46.248 184.87 45.9707 184.102 45.672C183.334 45.3307 182.63 44.9253 181.99 44.456C181.307 44.0293 180.774 43.5387 180.39 42.984C179.963 42.344 179.75 41.704 179.75 41.064C179.707 40.6373 179.729 40.232 179.814 39.848C179.942 39.4213 180.091 39.0373 180.262 38.696C180.518 38.0133 180.859 37.3733 181.286 36.776C181.755 36.1787 182.225 35.624 182.694 35.112C184.273 33.4053 186.129 32.0187 188.262 30.952C189.115 30.568 189.969 30.248 190.822 29.992C191.718 29.6933 192.635 29.544 193.574 29.544C194.683 29.5013 195.75 29.7573 196.774 30.312C197.798 30.824 198.566 31.6133 199.078 32.68C199.718 33.96 199.91 35.3253 199.654 36.776C199.398 38.2267 198.971 39.5707 198.374 40.808C198.203 41.1493 197.99 41.448 197.734 41.704C197.478 41.96 197.201 42.1947 196.902 42.408C196.433 42.792 195.921 43.112 195.366 43.368C196.219 43.624 197.073 43.88 197.926 44.136C198.779 44.3493 199.633 44.584 200.486 44.84C201.467 45.1813 202.427 45.5227 203.366 45.864C204.347 46.2053 205.286 46.6107 206.182 47.08C206.993 47.5067 207.761 47.9973 208.486 48.552C209.254 49.1067 209.915 49.7467 210.47 50.472ZM187.238 40.168C187.537 40.3813 187.857 40.5947 188.198 40.808C188.539 40.9787 188.881 41.1493 189.222 41.32C189.777 41.576 190.331 41.8107 190.886 42.024C191.483 42.1947 192.081 42.3867 192.678 42.6C192.934 42.0453 193.126 41.5547 193.254 41.128C193.595 39.8053 193.681 38.5893 193.51 37.48C193.382 36.968 193.169 36.4773 192.87 36.008C192.614 35.496 192.273 35.0693 191.846 34.728C191.163 34.3013 190.523 34.024 189.926 33.896C189.542 33.8533 189.158 33.8533 188.774 33.896C188.689 33.896 188.603 33.9173 188.518 33.96C188.475 33.96 188.411 33.96 188.326 33.96C188.283 34.0027 188.219 34.024 188.134 34.024C188.091 34.024 188.07 34.0453 188.07 34.088H188.006L187.942 34.152C187.857 34.2373 187.771 34.3013 187.686 34.344L187.238 34.792L187.046 34.984L186.854 35.176C186.769 35.3467 186.683 35.4747 186.598 35.56C186.47 35.7733 186.342 35.9867 186.214 36.2C186.129 36.4133 186.043 36.6267 185.958 36.84C185.915 37.096 185.873 37.352 185.83 37.608C185.83 37.8213 185.851 38.056 185.894 38.312C185.979 38.696 186.129 39.0373 186.342 39.336C186.598 39.6347 186.897 39.912 187.238 40.168ZM207.27 50.984C207.185 51.0267 207.142 51.048 207.142 51.048L207.078 51.112C207.419 50.8987 207.547 50.8133 207.462 50.856C207.419 50.856 207.355 50.8987 207.27 50.984Z" fill="white"/>
</svg>
