<svg width="45" height="37" viewBox="0 0 45 37" fill="none" xmlns="http://www.w3.org/2000/svg">
<path d="M40.3931 9.02323C40.4205 9.41647 40.4205 9.80971 40.4205 10.2066C40.4205 22.2991 31.1335 36.2455 14.1517 36.2455V36.2383C9.13528 36.2455 4.22304 34.8212 0 32.1355C0.729433 32.2225 1.46252 32.266 2.19744 32.2678C6.35466 32.2715 10.3931 30.8888 13.6636 28.3427C9.71298 28.2684 6.24863 25.7151 5.03839 21.9874C6.4223 22.252 7.84826 22.1976 9.20658 21.8298C4.89945 20.9672 1.80073 17.216 1.80073 12.8596V12.7436C3.0841 13.4522 4.52102 13.8454 5.99086 13.8889C1.93419 11.2014 0.683729 5.85195 3.13346 1.66948C7.82084 7.38685 14.7367 10.8626 22.1609 11.2304C21.4168 8.05191 22.4333 4.72116 24.8318 2.48676C28.5503 -0.978092 34.3985 -0.8005 37.894 2.88363C39.9616 2.47951 41.9433 1.72747 43.7569 0.661915C43.0676 2.78033 41.6252 4.57981 39.6984 5.72328C41.5283 5.50945 43.3163 5.02379 45 4.28261C43.7605 6.12377 42.1993 7.72753 40.3931 9.02323Z" fill="#1D9BF0"/>
</svg>
